G04 #@! TF.GenerationSoftware,KiCad,Pcbnew,(5.1.7)-1*
G04 #@! TF.CreationDate,2021-02-27T15:40:24-05:00*
G04 #@! TF.ProjectId,OpeNITHM-full,4f70654e-4954-4484-9d2d-66756c6c2e6b,rev?*
G04 #@! TF.SameCoordinates,Original*
G04 #@! TF.FileFunction,Legend,Top*
G04 #@! TF.FilePolarity,Positive*
%FSLAX46Y46*%
G04 Gerber Fmt 4.6, Leading zero omitted, Abs format (unit mm)*
G04 Created by KiCad (PCBNEW (5.1.7)-1) date 2021-02-27 15:40:24*
%MOMM*%
%LPD*%
G01*
G04 APERTURE LIST*
%ADD10C,0.120000*%
%ADD11C,0.080000*%
%ADD12C,0.500000*%
%ADD13C,0.150000*%
G04 APERTURE END LIST*
D10*
X368840000Y-125170000D02*
X368840000Y-127830000D01*
X373980000Y-125170000D02*
X368840000Y-125170000D01*
X373980000Y-127830000D02*
X368840000Y-127830000D01*
X373980000Y-125170000D02*
X373980000Y-127830000D01*
X375250000Y-125170000D02*
X376580000Y-125170000D01*
X376580000Y-125170000D02*
X376580000Y-126500000D01*
X-72840000Y-125170000D02*
X-72840000Y-126500000D01*
X-74170000Y-125170000D02*
X-72840000Y-125170000D01*
X-75440000Y-125170000D02*
X-75440000Y-127830000D01*
X-75440000Y-127830000D02*
X-80580000Y-127830000D01*
X-75440000Y-125170000D02*
X-80580000Y-125170000D01*
X-80580000Y-125170000D02*
X-80580000Y-127830000D01*
X122810000Y-14290000D02*
X122810000Y-8890000D01*
X126110000Y-14290000D02*
X126110000Y-8890000D01*
X122810000Y-14290000D02*
X126110000Y-14290000D01*
X138685000Y-14290000D02*
X138685000Y-8890000D01*
X141985000Y-14290000D02*
X141985000Y-8890000D01*
X138685000Y-14290000D02*
X141985000Y-14290000D01*
X360102600Y-138050800D02*
G75*
G03*
X360102600Y-138050800I-50800J0D01*
G01*
X360204200Y-138050800D02*
G75*
G03*
X360204200Y-138050800I-152400J0D01*
G01*
X360307067Y-138050800D02*
G75*
G03*
X360307067Y-138050800I-255267J0D01*
G01*
X346107200Y-138711200D02*
X346691400Y-138711200D01*
X346107200Y-138635000D02*
X346107200Y-138711200D01*
X346666000Y-138635000D02*
X346107200Y-138635000D01*
X346666000Y-138533400D02*
X346666000Y-138635000D01*
X346107200Y-138533400D02*
X346666000Y-138533400D01*
X346132600Y-137314200D02*
X346691400Y-137314200D01*
X346132600Y-137238000D02*
X346132600Y-137314200D01*
X346691400Y-137238000D02*
X346132600Y-137238000D01*
X346691400Y-137136400D02*
X346691400Y-137238000D01*
X346031000Y-137136400D02*
X346691400Y-137136400D01*
X346031000Y-139549400D02*
X346031000Y-137136400D01*
X345954800Y-139549400D02*
X346031000Y-139549400D01*
X345954800Y-137136400D02*
X345954800Y-139549400D01*
X345853200Y-137136400D02*
X345954800Y-137136400D01*
X345853200Y-139524000D02*
X345853200Y-137136400D01*
X349460000Y-137873000D02*
X348469400Y-137873000D01*
X349460000Y-137822200D02*
X349460000Y-137873000D01*
X348494800Y-137822200D02*
X349460000Y-137822200D01*
X348494800Y-137720600D02*
X348494800Y-137822200D01*
X349409200Y-137720600D02*
X348494800Y-137720600D01*
X348418600Y-138685800D02*
X348418600Y-137060200D01*
X348317000Y-138685800D02*
X348418600Y-138685800D01*
X348317000Y-136984000D02*
X348317000Y-138685800D01*
X349561600Y-136984000D02*
X348317000Y-136984000D01*
X349561600Y-136907800D02*
X348317000Y-136907800D01*
X349637800Y-136806200D02*
X349561600Y-136907800D01*
X348240800Y-136806200D02*
X349637800Y-136806200D01*
X348240800Y-138736600D02*
X348240800Y-136806200D01*
X349536200Y-138736600D02*
X348240800Y-138736600D01*
X349612400Y-138787400D02*
X349536200Y-138736600D01*
X348215400Y-138787400D02*
X349612400Y-138787400D01*
X348215400Y-138889000D02*
X348215400Y-138787400D01*
X349663200Y-138889000D02*
X348215400Y-138889000D01*
X350552200Y-137390400D02*
X350552200Y-139549400D01*
X350653800Y-137390400D02*
X350552200Y-137390400D01*
X350653800Y-139524000D02*
X350653800Y-137390400D01*
X350755400Y-139524000D02*
X350653800Y-139524000D01*
X350755400Y-137390400D02*
X350755400Y-139524000D01*
X350806200Y-137771400D02*
X351949200Y-139498600D01*
X350806200Y-137593600D02*
X350806200Y-137771400D01*
X351949200Y-139397000D02*
X350806200Y-137593600D01*
X351949200Y-139270000D02*
X351949200Y-139397000D01*
X350831600Y-137517400D02*
X351949200Y-139270000D01*
X350831600Y-137415800D02*
X350831600Y-137517400D01*
X351974600Y-139168400D02*
X350831600Y-137415800D01*
X352025400Y-139498600D02*
X352025400Y-137441200D01*
X352076200Y-139498600D02*
X352025400Y-139498600D01*
X352076200Y-137441200D02*
X352076200Y-139498600D01*
X352177800Y-137365000D02*
X352076200Y-137441200D01*
X352177800Y-139524000D02*
X352177800Y-137365000D01*
X352254000Y-139524000D02*
X352177800Y-139524000D01*
X352254000Y-137288800D02*
X352254000Y-139524000D01*
X353270000Y-138889000D02*
X353270000Y-136653800D01*
X353219200Y-138889000D02*
X353270000Y-138889000D01*
X353219200Y-136704600D02*
X353219200Y-138889000D01*
X353117600Y-136755400D02*
X353219200Y-136704600D01*
X353117600Y-138863600D02*
X353117600Y-136755400D01*
X353041400Y-138863600D02*
X353117600Y-138863600D01*
X353041400Y-136806200D02*
X353041400Y-138863600D01*
X354794000Y-137644400D02*
X354794000Y-139524000D01*
X354895600Y-137619000D02*
X354794000Y-137644400D01*
X354895600Y-139524000D02*
X354895600Y-137619000D01*
X354971800Y-139524000D02*
X354895600Y-139524000D01*
X354971800Y-137644400D02*
X354971800Y-139524000D01*
X354082800Y-137568200D02*
X355708400Y-137568200D01*
X354057400Y-137492000D02*
X354082800Y-137568200D01*
X355657600Y-137492000D02*
X354057400Y-137492000D01*
X355657600Y-137415800D02*
X355657600Y-137492000D01*
X354082800Y-137415800D02*
X355657600Y-137415800D01*
X356775200Y-137796800D02*
X357816600Y-137796800D01*
X356775200Y-137695200D02*
X356775200Y-137796800D01*
X357842000Y-137695200D02*
X356775200Y-137695200D01*
X357842000Y-137619000D02*
X357842000Y-137695200D01*
X356724400Y-137619000D02*
X357842000Y-137619000D01*
X356495800Y-136831600D02*
X356495800Y-138889000D01*
X356572000Y-136730000D02*
X356495800Y-136831600D01*
X356572000Y-138863600D02*
X356572000Y-136730000D01*
X356673600Y-138863600D02*
X356572000Y-138863600D01*
X356673600Y-136679200D02*
X356673600Y-138863600D01*
X357892800Y-136831600D02*
X357892800Y-138863600D01*
X357994400Y-136704600D02*
X357892800Y-136831600D01*
X357994400Y-138889000D02*
X357994400Y-136704600D01*
X358096000Y-138889000D02*
X357994400Y-138889000D01*
X358096000Y-136653800D02*
X358096000Y-138889000D01*
X359188200Y-137390400D02*
X359213600Y-137263400D01*
X359315200Y-137263400D02*
X359188200Y-137390400D01*
X359137400Y-137136400D02*
X359315200Y-137263400D01*
X359137400Y-139219200D02*
X359137400Y-137136400D01*
X359061200Y-139219200D02*
X359137400Y-139219200D01*
X359061200Y-137111000D02*
X359061200Y-139219200D01*
X358959600Y-137034800D02*
X359061200Y-137111000D01*
X358959600Y-139219200D02*
X358959600Y-137034800D01*
X358883400Y-139219200D02*
X358959600Y-139219200D01*
X358883400Y-136984000D02*
X358883400Y-139219200D01*
X360839200Y-137339600D02*
X360813800Y-137238000D01*
X360940800Y-137161800D02*
X360839200Y-137339600D01*
X360940800Y-139219200D02*
X360940800Y-137161800D01*
X361042400Y-139219200D02*
X360940800Y-139219200D01*
X361042400Y-137111000D02*
X361042400Y-139219200D01*
X361144000Y-137034800D02*
X361042400Y-137111000D01*
X361144000Y-139219200D02*
X361144000Y-137034800D01*
X361245600Y-139219200D02*
X361144000Y-139219200D01*
X361245600Y-136958600D02*
X361245600Y-139219200D01*
X361067800Y-138050800D02*
G75*
G03*
X361067800Y-138050800I-1016000J0D01*
G01*
X360966200Y-138050800D02*
G75*
G03*
X360966200Y-138050800I-914400J0D01*
G01*
X345016154Y-138025400D02*
G75*
G03*
X345016154Y-138025400I-1118754J0D01*
G01*
X344940038Y-138025400D02*
G75*
G03*
X344940038Y-138025400I-1042638J0D01*
G01*
X344837543Y-138025400D02*
G75*
G03*
X344837543Y-138025400I-940143J0D01*
G01*
X343948200Y-138025400D02*
G75*
G03*
X343948200Y-138025400I-50800J0D01*
G01*
X344049800Y-138025400D02*
G75*
G03*
X344049800Y-138025400I-152400J0D01*
G01*
X344151400Y-138025400D02*
G75*
G03*
X344151400Y-138025400I-254000J0D01*
G01*
D11*
X358629400Y-139473200D02*
X358629400Y-136526800D01*
X359416800Y-139473200D02*
X358629400Y-139473200D01*
X359416800Y-139041400D02*
X359416800Y-139473200D01*
X360686800Y-139473200D02*
X360686800Y-139041400D01*
X361474200Y-139473200D02*
X360686800Y-139473200D01*
X361474200Y-136526800D02*
X361474200Y-139473200D01*
X360661400Y-137034800D02*
X361474200Y-136526800D01*
X358629400Y-136526800D02*
X359442200Y-137034800D01*
D10*
X358807200Y-136857000D02*
X359391400Y-137212600D01*
X358807200Y-139295400D02*
X358807200Y-136857000D01*
X359239000Y-139295400D02*
X358807200Y-139295400D01*
X359239000Y-139295400D02*
X359239000Y-138736600D01*
X361296400Y-136857000D02*
X360712200Y-137212600D01*
X361296400Y-139295400D02*
X361296400Y-136857000D01*
X360864600Y-139295400D02*
X361296400Y-139295400D01*
X360864600Y-139295400D02*
X360864600Y-138736600D01*
X360415473Y-138050800D02*
G75*
G03*
X360415473Y-138050800I-363673J0D01*
G01*
X360890000Y-138050800D02*
G75*
G03*
X360890000Y-138050800I-838200J0D01*
G01*
D11*
X357613400Y-136653800D02*
X358350000Y-136222000D01*
X356216400Y-136653800D02*
X356953000Y-136222000D01*
D10*
X356394200Y-138965200D02*
X356394200Y-136755400D01*
X356775200Y-138965200D02*
X356394200Y-138965200D01*
X356775200Y-137873000D02*
X356775200Y-138965200D01*
X357791200Y-137873000D02*
X356775200Y-137873000D01*
X357791200Y-138965200D02*
X357791200Y-137873000D01*
X358172200Y-138965200D02*
X357791200Y-138965200D01*
X358172200Y-136526800D02*
X358172200Y-138965200D01*
X357791200Y-136755400D02*
X358172200Y-136526800D01*
X357791200Y-137542800D02*
X357791200Y-136755400D01*
X356775200Y-137542800D02*
X357791200Y-137542800D01*
X356775200Y-136526800D02*
X356775200Y-137542800D01*
X356394200Y-136755400D02*
X356775200Y-136526800D01*
D11*
X356953000Y-139143000D02*
X356216400Y-139143000D01*
X356953000Y-138050800D02*
X356953000Y-139143000D01*
X357613400Y-138050800D02*
X356953000Y-138050800D01*
X357613400Y-139143000D02*
X357613400Y-138050800D01*
X358350000Y-139143000D02*
X357613400Y-139143000D01*
X358350000Y-136222000D02*
X358350000Y-139143000D01*
X357613400Y-137365000D02*
X357613400Y-136653800D01*
X356953000Y-137365000D02*
X357613400Y-137365000D01*
X356953000Y-136222000D02*
X356953000Y-137365000D01*
X356216400Y-139143000D02*
X356216400Y-136653800D01*
X353803400Y-137822200D02*
X353803400Y-137136400D01*
X354514600Y-137822200D02*
X353803400Y-137822200D01*
X354514600Y-139778000D02*
X354514600Y-137822200D01*
X355251200Y-139778000D02*
X354514600Y-139778000D01*
X355251200Y-137822200D02*
X355251200Y-139778000D01*
X355937000Y-137822200D02*
X355251200Y-137822200D01*
X355937000Y-137136400D02*
X355937000Y-137822200D01*
X353803400Y-137136400D02*
X355937000Y-137136400D01*
D10*
X353981200Y-137644400D02*
X353981200Y-137314200D01*
X354692400Y-137644400D02*
X353981200Y-137644400D01*
X354692400Y-139600200D02*
X354692400Y-137644400D01*
X355073400Y-139600200D02*
X354692400Y-139600200D01*
X355073400Y-137644400D02*
X355073400Y-139600200D01*
X355759200Y-137644400D02*
X355073400Y-137644400D01*
X355759200Y-137314200D02*
X355759200Y-137644400D01*
X353981200Y-137314200D02*
X355759200Y-137314200D01*
X353346200Y-138965200D02*
X352965200Y-138965200D01*
X353346200Y-136526800D02*
X353346200Y-138965200D01*
X352965200Y-136755400D02*
X353346200Y-136526800D01*
X352965200Y-138965200D02*
X352965200Y-136755400D01*
D11*
X353524000Y-139143000D02*
X352787400Y-139143000D01*
X353524000Y-136222000D02*
X353524000Y-139143000D01*
X352787400Y-136653800D02*
X353524000Y-136222000D01*
X352787400Y-139143000D02*
X352787400Y-136653800D01*
X350272800Y-139803400D02*
X350272800Y-137136400D01*
X350984000Y-139803400D02*
X350272800Y-139803400D01*
X351009400Y-138508000D02*
X351009400Y-139803400D01*
X351796800Y-139778000D02*
X351009400Y-138508000D01*
X352508000Y-139778000D02*
X351796800Y-139778000D01*
X352508000Y-136857000D02*
X352508000Y-139778000D01*
X351771400Y-137288800D02*
X352508000Y-136831600D01*
X351771400Y-138406400D02*
X351771400Y-137288800D01*
X350984000Y-137136400D02*
X351771400Y-138406400D01*
X350272800Y-137136400D02*
X350984000Y-137136400D01*
D10*
X350831600Y-139625600D02*
X350450600Y-139625600D01*
X350831600Y-137898400D02*
X350831600Y-139625600D01*
X351898400Y-139600200D02*
X350831600Y-137898400D01*
X352330200Y-139600200D02*
X351898400Y-139600200D01*
X352330200Y-137161800D02*
X352330200Y-139600200D01*
X351949200Y-137390400D02*
X352330200Y-137161800D01*
X351949200Y-139016000D02*
X351949200Y-137390400D01*
X350882400Y-137314200D02*
X351949200Y-139016000D01*
X350450600Y-137314200D02*
X350882400Y-137314200D01*
X350450600Y-139625600D02*
X350450600Y-137314200D01*
D11*
X347961400Y-139143000D02*
X347961400Y-136526800D01*
X350095000Y-139143000D02*
X347961400Y-139143000D01*
X349688600Y-138457200D02*
X350095000Y-139143000D01*
X348698000Y-138457200D02*
X349688600Y-138457200D01*
X348698000Y-138127000D02*
X348698000Y-138457200D01*
X349688600Y-138127000D02*
X348698000Y-138127000D01*
X349688600Y-137441200D02*
X349688600Y-138127000D01*
X348698000Y-137441200D02*
X349688600Y-137441200D01*
X348698000Y-137212600D02*
X348698000Y-137441200D01*
X349688600Y-137212600D02*
X348698000Y-137212600D01*
X350095000Y-136526800D02*
X349688600Y-137212600D01*
X347961400Y-136526800D02*
X350095000Y-136526800D01*
D10*
X348139200Y-138965200D02*
X348139200Y-136704600D01*
X349790200Y-138965200D02*
X348139200Y-138965200D01*
X349587000Y-138635000D02*
X349790200Y-138965200D01*
X348520200Y-138635000D02*
X349587000Y-138635000D01*
X348520200Y-137949200D02*
X348520200Y-138635000D01*
X349510800Y-137949200D02*
X348520200Y-137949200D01*
X349510800Y-137619000D02*
X349510800Y-137949200D01*
X348520200Y-137619000D02*
X349510800Y-137619000D01*
X348520200Y-137034800D02*
X348520200Y-137619000D01*
X349587000Y-137034800D02*
X348520200Y-137034800D01*
X349790200Y-136704600D02*
X349587000Y-137034800D01*
X348139200Y-136704600D02*
X349790200Y-136704600D01*
D11*
X345573800Y-136882400D02*
X346640600Y-136882400D01*
X345573800Y-139803400D02*
X345573800Y-136882400D01*
X346310400Y-139803400D02*
X345573800Y-139803400D01*
X346310400Y-138965200D02*
X346310400Y-139803400D01*
X346640600Y-138965200D02*
X346310400Y-138965200D01*
D10*
X346132600Y-138787400D02*
X346640600Y-138787400D01*
X346132600Y-139625600D02*
X346132600Y-138787400D01*
X345751600Y-139625600D02*
X346132600Y-139625600D01*
X345751600Y-137060200D02*
X345751600Y-139625600D01*
X346640600Y-137060200D02*
X345751600Y-137060200D01*
X346132600Y-137390400D02*
X346640600Y-137390400D01*
X346132600Y-138457200D02*
X346132600Y-137390400D01*
X346640600Y-138457200D02*
X346132600Y-138457200D01*
D11*
X346310400Y-138279400D02*
X346640600Y-138279400D01*
X346310400Y-137568200D02*
X346310400Y-138279400D01*
X346640600Y-137568200D02*
X346310400Y-137568200D01*
X345295323Y-138025400D02*
G75*
G03*
X345295323Y-138025400I-1397923J0D01*
G01*
D10*
X345116865Y-138025400D02*
G75*
G03*
X345116865Y-138025400I-1219465J0D01*
G01*
X344735600Y-138025400D02*
G75*
G03*
X344735600Y-138025400I-838200J0D01*
G01*
X344261073Y-138025400D02*
G75*
G03*
X344261073Y-138025400I-363673J0D01*
G01*
D11*
X346640600Y-136882400D02*
G75*
G02*
X346640600Y-138965200I0J-1041400D01*
G01*
D10*
X346640600Y-137060200D02*
G75*
G02*
X346640600Y-138787400I0J-863600D01*
G01*
D11*
X346640600Y-137568200D02*
G75*
G02*
X346640600Y-138279400I0J-355600D01*
G01*
D10*
X346640600Y-137390400D02*
G75*
G02*
X346640600Y-138457200I0J-533400D01*
G01*
X359449932Y-137232258D02*
G75*
G02*
X360661400Y-137238000I601868J-818542D01*
G01*
X360864600Y-138660400D02*
G75*
G02*
X359239000Y-138660400I-812800J609600D01*
G01*
D11*
X359442200Y-137034800D02*
G75*
G02*
X360661400Y-137034800I609600J-1016000D01*
G01*
X360686800Y-139041400D02*
G75*
G02*
X359416800Y-139041400I-635000J990599D01*
G01*
D10*
X346741598Y-137317816D02*
G75*
G02*
X346716799Y-138533399I-100998J-605984D01*
G01*
X346780877Y-137222421D02*
G75*
G02*
X346716799Y-138634999I-140277J-701379D01*
G01*
X346718991Y-137139901D02*
G75*
G02*
X346665999Y-138711199I-78391J-783899D01*
G01*
D12*
X98160000Y-129250000D02*
G75*
G03*
X98160000Y-129250000I-100000J0D01*
G01*
D10*
X99060000Y-128290000D02*
X95610000Y-128290000D01*
X99060000Y-128290000D02*
X101010000Y-128290000D01*
X99060000Y-138410000D02*
X97110000Y-138410000D01*
X99060000Y-138410000D02*
X101010000Y-138410000D01*
X150102742Y-16477500D02*
X150577258Y-16477500D01*
X150102742Y-17522500D02*
X150577258Y-17522500D01*
X150102742Y-14477500D02*
X150577258Y-14477500D01*
X150102742Y-15522500D02*
X150577258Y-15522500D01*
D12*
X321680000Y-129250000D02*
G75*
G03*
X321680000Y-129250000I-100000J0D01*
G01*
D10*
X322580000Y-128290000D02*
X319130000Y-128290000D01*
X322580000Y-128290000D02*
X324530000Y-128290000D01*
X322580000Y-138410000D02*
X320630000Y-138410000D01*
X322580000Y-138410000D02*
X324530000Y-138410000D01*
X-45897400Y-139115800D02*
G75*
G03*
X-45897400Y-139115800I-50800J0D01*
G01*
X-45795800Y-139115800D02*
G75*
G03*
X-45795800Y-139115800I-152400J0D01*
G01*
X-45692933Y-139115800D02*
G75*
G03*
X-45692933Y-139115800I-255267J0D01*
G01*
X-59892800Y-139776200D02*
X-59308600Y-139776200D01*
X-59892800Y-139700000D02*
X-59892800Y-139776200D01*
X-59334000Y-139700000D02*
X-59892800Y-139700000D01*
X-59334000Y-139598400D02*
X-59334000Y-139700000D01*
X-59892800Y-139598400D02*
X-59334000Y-139598400D01*
X-59867400Y-138379200D02*
X-59308600Y-138379200D01*
X-59867400Y-138303000D02*
X-59867400Y-138379200D01*
X-59308600Y-138303000D02*
X-59867400Y-138303000D01*
X-59308600Y-138201400D02*
X-59308600Y-138303000D01*
X-59969000Y-138201400D02*
X-59308600Y-138201400D01*
X-59969000Y-140614400D02*
X-59969000Y-138201400D01*
X-60045200Y-140614400D02*
X-59969000Y-140614400D01*
X-60045200Y-138201400D02*
X-60045200Y-140614400D01*
X-60146800Y-138201400D02*
X-60045200Y-138201400D01*
X-60146800Y-140589000D02*
X-60146800Y-138201400D01*
X-56540000Y-138938000D02*
X-57530600Y-138938000D01*
X-56540000Y-138887200D02*
X-56540000Y-138938000D01*
X-57505200Y-138887200D02*
X-56540000Y-138887200D01*
X-57505200Y-138785600D02*
X-57505200Y-138887200D01*
X-56590800Y-138785600D02*
X-57505200Y-138785600D01*
X-57581400Y-139750800D02*
X-57581400Y-138125200D01*
X-57683000Y-139750800D02*
X-57581400Y-139750800D01*
X-57683000Y-138049000D02*
X-57683000Y-139750800D01*
X-56438400Y-138049000D02*
X-57683000Y-138049000D01*
X-56438400Y-137972800D02*
X-57683000Y-137972800D01*
X-56362200Y-137871200D02*
X-56438400Y-137972800D01*
X-57759200Y-137871200D02*
X-56362200Y-137871200D01*
X-57759200Y-139801600D02*
X-57759200Y-137871200D01*
X-56463800Y-139801600D02*
X-57759200Y-139801600D01*
X-56387600Y-139852400D02*
X-56463800Y-139801600D01*
X-57784600Y-139852400D02*
X-56387600Y-139852400D01*
X-57784600Y-139954000D02*
X-57784600Y-139852400D01*
X-56336800Y-139954000D02*
X-57784600Y-139954000D01*
X-55447800Y-138455400D02*
X-55447800Y-140614400D01*
X-55346200Y-138455400D02*
X-55447800Y-138455400D01*
X-55346200Y-140589000D02*
X-55346200Y-138455400D01*
X-55244600Y-140589000D02*
X-55346200Y-140589000D01*
X-55244600Y-138455400D02*
X-55244600Y-140589000D01*
X-55193800Y-138836400D02*
X-54050800Y-140563600D01*
X-55193800Y-138658600D02*
X-55193800Y-138836400D01*
X-54050800Y-140462000D02*
X-55193800Y-138658600D01*
X-54050800Y-140335000D02*
X-54050800Y-140462000D01*
X-55168400Y-138582400D02*
X-54050800Y-140335000D01*
X-55168400Y-138480800D02*
X-55168400Y-138582400D01*
X-54025400Y-140233400D02*
X-55168400Y-138480800D01*
X-53974600Y-140563600D02*
X-53974600Y-138506200D01*
X-53923800Y-140563600D02*
X-53974600Y-140563600D01*
X-53923800Y-138506200D02*
X-53923800Y-140563600D01*
X-53822200Y-138430000D02*
X-53923800Y-138506200D01*
X-53822200Y-140589000D02*
X-53822200Y-138430000D01*
X-53746000Y-140589000D02*
X-53822200Y-140589000D01*
X-53746000Y-138353800D02*
X-53746000Y-140589000D01*
X-52730000Y-139954000D02*
X-52730000Y-137718800D01*
X-52780800Y-139954000D02*
X-52730000Y-139954000D01*
X-52780800Y-137769600D02*
X-52780800Y-139954000D01*
X-52882400Y-137820400D02*
X-52780800Y-137769600D01*
X-52882400Y-139928600D02*
X-52882400Y-137820400D01*
X-52958600Y-139928600D02*
X-52882400Y-139928600D01*
X-52958600Y-137871200D02*
X-52958600Y-139928600D01*
X-51206000Y-138709400D02*
X-51206000Y-140589000D01*
X-51104400Y-138684000D02*
X-51206000Y-138709400D01*
X-51104400Y-140589000D02*
X-51104400Y-138684000D01*
X-51028200Y-140589000D02*
X-51104400Y-140589000D01*
X-51028200Y-138709400D02*
X-51028200Y-140589000D01*
X-51917200Y-138633200D02*
X-50291600Y-138633200D01*
X-51942600Y-138557000D02*
X-51917200Y-138633200D01*
X-50342400Y-138557000D02*
X-51942600Y-138557000D01*
X-50342400Y-138480800D02*
X-50342400Y-138557000D01*
X-51917200Y-138480800D02*
X-50342400Y-138480800D01*
X-49224800Y-138861800D02*
X-48183400Y-138861800D01*
X-49224800Y-138760200D02*
X-49224800Y-138861800D01*
X-48158000Y-138760200D02*
X-49224800Y-138760200D01*
X-48158000Y-138684000D02*
X-48158000Y-138760200D01*
X-49275600Y-138684000D02*
X-48158000Y-138684000D01*
X-49504200Y-137896600D02*
X-49504200Y-139954000D01*
X-49428000Y-137795000D02*
X-49504200Y-137896600D01*
X-49428000Y-139928600D02*
X-49428000Y-137795000D01*
X-49326400Y-139928600D02*
X-49428000Y-139928600D01*
X-49326400Y-137744200D02*
X-49326400Y-139928600D01*
X-48107200Y-137896600D02*
X-48107200Y-139928600D01*
X-48005600Y-137769600D02*
X-48107200Y-137896600D01*
X-48005600Y-139954000D02*
X-48005600Y-137769600D01*
X-47904000Y-139954000D02*
X-48005600Y-139954000D01*
X-47904000Y-137718800D02*
X-47904000Y-139954000D01*
X-46811800Y-138455400D02*
X-46786400Y-138328400D01*
X-46684800Y-138328400D02*
X-46811800Y-138455400D01*
X-46862600Y-138201400D02*
X-46684800Y-138328400D01*
X-46862600Y-140284200D02*
X-46862600Y-138201400D01*
X-46938800Y-140284200D02*
X-46862600Y-140284200D01*
X-46938800Y-138176000D02*
X-46938800Y-140284200D01*
X-47040400Y-138099800D02*
X-46938800Y-138176000D01*
X-47040400Y-140284200D02*
X-47040400Y-138099800D01*
X-47116600Y-140284200D02*
X-47040400Y-140284200D01*
X-47116600Y-138049000D02*
X-47116600Y-140284200D01*
X-45160800Y-138404600D02*
X-45186200Y-138303000D01*
X-45059200Y-138226800D02*
X-45160800Y-138404600D01*
X-45059200Y-140284200D02*
X-45059200Y-138226800D01*
X-44957600Y-140284200D02*
X-45059200Y-140284200D01*
X-44957600Y-138176000D02*
X-44957600Y-140284200D01*
X-44856000Y-138099800D02*
X-44957600Y-138176000D01*
X-44856000Y-140284200D02*
X-44856000Y-138099800D01*
X-44754400Y-140284200D02*
X-44856000Y-140284200D01*
X-44754400Y-138023600D02*
X-44754400Y-140284200D01*
X-44932200Y-139115800D02*
G75*
G03*
X-44932200Y-139115800I-1016000J0D01*
G01*
X-45033800Y-139115800D02*
G75*
G03*
X-45033800Y-139115800I-914400J0D01*
G01*
X-60983846Y-139090400D02*
G75*
G03*
X-60983846Y-139090400I-1118754J0D01*
G01*
X-61059962Y-139090400D02*
G75*
G03*
X-61059962Y-139090400I-1042638J0D01*
G01*
X-61162457Y-139090400D02*
G75*
G03*
X-61162457Y-139090400I-940143J0D01*
G01*
X-62051800Y-139090400D02*
G75*
G03*
X-62051800Y-139090400I-50800J0D01*
G01*
X-61950200Y-139090400D02*
G75*
G03*
X-61950200Y-139090400I-152400J0D01*
G01*
X-61848600Y-139090400D02*
G75*
G03*
X-61848600Y-139090400I-254000J0D01*
G01*
D11*
X-47370600Y-140538200D02*
X-47370600Y-137591800D01*
X-46583200Y-140538200D02*
X-47370600Y-140538200D01*
X-46583200Y-140106400D02*
X-46583200Y-140538200D01*
X-45313200Y-140538200D02*
X-45313200Y-140106400D01*
X-44525800Y-140538200D02*
X-45313200Y-140538200D01*
X-44525800Y-137591800D02*
X-44525800Y-140538200D01*
X-45338600Y-138099800D02*
X-44525800Y-137591800D01*
X-47370600Y-137591800D02*
X-46557800Y-138099800D01*
D10*
X-47192800Y-137922000D02*
X-46608600Y-138277600D01*
X-47192800Y-140360400D02*
X-47192800Y-137922000D01*
X-46761000Y-140360400D02*
X-47192800Y-140360400D01*
X-46761000Y-140360400D02*
X-46761000Y-139801600D01*
X-44703600Y-137922000D02*
X-45287800Y-138277600D01*
X-44703600Y-140360400D02*
X-44703600Y-137922000D01*
X-45135400Y-140360400D02*
X-44703600Y-140360400D01*
X-45135400Y-140360400D02*
X-45135400Y-139801600D01*
X-45584527Y-139115800D02*
G75*
G03*
X-45584527Y-139115800I-363673J0D01*
G01*
X-45110000Y-139115800D02*
G75*
G03*
X-45110000Y-139115800I-838200J0D01*
G01*
D11*
X-48386600Y-137718800D02*
X-47650000Y-137287000D01*
X-49783600Y-137718800D02*
X-49047000Y-137287000D01*
D10*
X-49605800Y-140030200D02*
X-49605800Y-137820400D01*
X-49224800Y-140030200D02*
X-49605800Y-140030200D01*
X-49224800Y-138938000D02*
X-49224800Y-140030200D01*
X-48208800Y-138938000D02*
X-49224800Y-138938000D01*
X-48208800Y-140030200D02*
X-48208800Y-138938000D01*
X-47827800Y-140030200D02*
X-48208800Y-140030200D01*
X-47827800Y-137591800D02*
X-47827800Y-140030200D01*
X-48208800Y-137820400D02*
X-47827800Y-137591800D01*
X-48208800Y-138607800D02*
X-48208800Y-137820400D01*
X-49224800Y-138607800D02*
X-48208800Y-138607800D01*
X-49224800Y-137591800D02*
X-49224800Y-138607800D01*
X-49605800Y-137820400D02*
X-49224800Y-137591800D01*
D11*
X-49047000Y-140208000D02*
X-49783600Y-140208000D01*
X-49047000Y-139115800D02*
X-49047000Y-140208000D01*
X-48386600Y-139115800D02*
X-49047000Y-139115800D01*
X-48386600Y-140208000D02*
X-48386600Y-139115800D01*
X-47650000Y-140208000D02*
X-48386600Y-140208000D01*
X-47650000Y-137287000D02*
X-47650000Y-140208000D01*
X-48386600Y-138430000D02*
X-48386600Y-137718800D01*
X-49047000Y-138430000D02*
X-48386600Y-138430000D01*
X-49047000Y-137287000D02*
X-49047000Y-138430000D01*
X-49783600Y-140208000D02*
X-49783600Y-137718800D01*
X-52196600Y-138887200D02*
X-52196600Y-138201400D01*
X-51485400Y-138887200D02*
X-52196600Y-138887200D01*
X-51485400Y-140843000D02*
X-51485400Y-138887200D01*
X-50748800Y-140843000D02*
X-51485400Y-140843000D01*
X-50748800Y-138887200D02*
X-50748800Y-140843000D01*
X-50063000Y-138887200D02*
X-50748800Y-138887200D01*
X-50063000Y-138201400D02*
X-50063000Y-138887200D01*
X-52196600Y-138201400D02*
X-50063000Y-138201400D01*
D10*
X-52018800Y-138709400D02*
X-52018800Y-138379200D01*
X-51307600Y-138709400D02*
X-52018800Y-138709400D01*
X-51307600Y-140665200D02*
X-51307600Y-138709400D01*
X-50926600Y-140665200D02*
X-51307600Y-140665200D01*
X-50926600Y-138709400D02*
X-50926600Y-140665200D01*
X-50240800Y-138709400D02*
X-50926600Y-138709400D01*
X-50240800Y-138379200D02*
X-50240800Y-138709400D01*
X-52018800Y-138379200D02*
X-50240800Y-138379200D01*
X-52653800Y-140030200D02*
X-53034800Y-140030200D01*
X-52653800Y-137591800D02*
X-52653800Y-140030200D01*
X-53034800Y-137820400D02*
X-52653800Y-137591800D01*
X-53034800Y-140030200D02*
X-53034800Y-137820400D01*
D11*
X-52476000Y-140208000D02*
X-53212600Y-140208000D01*
X-52476000Y-137287000D02*
X-52476000Y-140208000D01*
X-53212600Y-137718800D02*
X-52476000Y-137287000D01*
X-53212600Y-140208000D02*
X-53212600Y-137718800D01*
X-55727200Y-140868400D02*
X-55727200Y-138201400D01*
X-55016000Y-140868400D02*
X-55727200Y-140868400D01*
X-54990600Y-139573000D02*
X-54990600Y-140868400D01*
X-54203200Y-140843000D02*
X-54990600Y-139573000D01*
X-53492000Y-140843000D02*
X-54203200Y-140843000D01*
X-53492000Y-137922000D02*
X-53492000Y-140843000D01*
X-54228600Y-138353800D02*
X-53492000Y-137896600D01*
X-54228600Y-139471400D02*
X-54228600Y-138353800D01*
X-55016000Y-138201400D02*
X-54228600Y-139471400D01*
X-55727200Y-138201400D02*
X-55016000Y-138201400D01*
D10*
X-55168400Y-140690600D02*
X-55549400Y-140690600D01*
X-55168400Y-138963400D02*
X-55168400Y-140690600D01*
X-54101600Y-140665200D02*
X-55168400Y-138963400D01*
X-53669800Y-140665200D02*
X-54101600Y-140665200D01*
X-53669800Y-138226800D02*
X-53669800Y-140665200D01*
X-54050800Y-138455400D02*
X-53669800Y-138226800D01*
X-54050800Y-140081000D02*
X-54050800Y-138455400D01*
X-55117600Y-138379200D02*
X-54050800Y-140081000D01*
X-55549400Y-138379200D02*
X-55117600Y-138379200D01*
X-55549400Y-140690600D02*
X-55549400Y-138379200D01*
D11*
X-58038600Y-140208000D02*
X-58038600Y-137591800D01*
X-55905000Y-140208000D02*
X-58038600Y-140208000D01*
X-56311400Y-139522200D02*
X-55905000Y-140208000D01*
X-57302000Y-139522200D02*
X-56311400Y-139522200D01*
X-57302000Y-139192000D02*
X-57302000Y-139522200D01*
X-56311400Y-139192000D02*
X-57302000Y-139192000D01*
X-56311400Y-138506200D02*
X-56311400Y-139192000D01*
X-57302000Y-138506200D02*
X-56311400Y-138506200D01*
X-57302000Y-138277600D02*
X-57302000Y-138506200D01*
X-56311400Y-138277600D02*
X-57302000Y-138277600D01*
X-55905000Y-137591800D02*
X-56311400Y-138277600D01*
X-58038600Y-137591800D02*
X-55905000Y-137591800D01*
D10*
X-57860800Y-140030200D02*
X-57860800Y-137769600D01*
X-56209800Y-140030200D02*
X-57860800Y-140030200D01*
X-56413000Y-139700000D02*
X-56209800Y-140030200D01*
X-57479800Y-139700000D02*
X-56413000Y-139700000D01*
X-57479800Y-139014200D02*
X-57479800Y-139700000D01*
X-56489200Y-139014200D02*
X-57479800Y-139014200D01*
X-56489200Y-138684000D02*
X-56489200Y-139014200D01*
X-57479800Y-138684000D02*
X-56489200Y-138684000D01*
X-57479800Y-138099800D02*
X-57479800Y-138684000D01*
X-56413000Y-138099800D02*
X-57479800Y-138099800D01*
X-56209800Y-137769600D02*
X-56413000Y-138099800D01*
X-57860800Y-137769600D02*
X-56209800Y-137769600D01*
D11*
X-60426200Y-137947400D02*
X-59359400Y-137947400D01*
X-60426200Y-140868400D02*
X-60426200Y-137947400D01*
X-59689600Y-140868400D02*
X-60426200Y-140868400D01*
X-59689600Y-140030200D02*
X-59689600Y-140868400D01*
X-59359400Y-140030200D02*
X-59689600Y-140030200D01*
D10*
X-59867400Y-139852400D02*
X-59359400Y-139852400D01*
X-59867400Y-140690600D02*
X-59867400Y-139852400D01*
X-60248400Y-140690600D02*
X-59867400Y-140690600D01*
X-60248400Y-138125200D02*
X-60248400Y-140690600D01*
X-59359400Y-138125200D02*
X-60248400Y-138125200D01*
X-59867400Y-138455400D02*
X-59359400Y-138455400D01*
X-59867400Y-139522200D02*
X-59867400Y-138455400D01*
X-59359400Y-139522200D02*
X-59867400Y-139522200D01*
D11*
X-59689600Y-139344400D02*
X-59359400Y-139344400D01*
X-59689600Y-138633200D02*
X-59689600Y-139344400D01*
X-59359400Y-138633200D02*
X-59689600Y-138633200D01*
X-60704677Y-139090400D02*
G75*
G03*
X-60704677Y-139090400I-1397923J0D01*
G01*
D10*
X-60883135Y-139090400D02*
G75*
G03*
X-60883135Y-139090400I-1219465J0D01*
G01*
X-61264400Y-139090400D02*
G75*
G03*
X-61264400Y-139090400I-838200J0D01*
G01*
X-61738927Y-139090400D02*
G75*
G03*
X-61738927Y-139090400I-363673J0D01*
G01*
X-59281009Y-138204901D02*
G75*
G02*
X-59334001Y-139776199I-78391J-783899D01*
G01*
X-59219123Y-138287421D02*
G75*
G02*
X-59283201Y-139699999I-140277J-701379D01*
G01*
X-59258402Y-138382816D02*
G75*
G02*
X-59283201Y-139598399I-100998J-605984D01*
G01*
D11*
X-45313200Y-140106400D02*
G75*
G02*
X-46583200Y-140106400I-635000J990599D01*
G01*
X-46557800Y-138099800D02*
G75*
G02*
X-45338600Y-138099800I609600J-1016000D01*
G01*
D10*
X-45135400Y-139725400D02*
G75*
G02*
X-46761000Y-139725400I-812800J609600D01*
G01*
X-46550068Y-138297258D02*
G75*
G02*
X-45338600Y-138303000I601868J-818542D01*
G01*
X-59359400Y-138455400D02*
G75*
G02*
X-59359400Y-139522200I0J-533400D01*
G01*
D11*
X-59359400Y-138633200D02*
G75*
G02*
X-59359400Y-139344400I0J-355600D01*
G01*
D10*
X-59359400Y-138125200D02*
G75*
G02*
X-59359400Y-139852400I0J-863600D01*
G01*
D11*
X-59359400Y-137947400D02*
G75*
G02*
X-59359400Y-140030200I0J-1041400D01*
G01*
D10*
X322934420Y-126490000D02*
X323215580Y-126490000D01*
X322934420Y-127510000D02*
X323215580Y-127510000D01*
X-18302500Y-135842742D02*
X-18302500Y-136317258D01*
X-17257500Y-135842742D02*
X-17257500Y-136317258D01*
D12*
X-13600000Y-129250000D02*
G75*
G03*
X-13600000Y-129250000I-100000J0D01*
G01*
D10*
X-12700000Y-128290000D02*
X-16150000Y-128290000D01*
X-12700000Y-128290000D02*
X-10750000Y-128290000D01*
X-12700000Y-138410000D02*
X-14650000Y-138410000D01*
X-12700000Y-138410000D02*
X-10750000Y-138410000D01*
X99414420Y-126490000D02*
X99695580Y-126490000D01*
X99414420Y-127510000D02*
X99695580Y-127510000D01*
X211174420Y-126490000D02*
X211455580Y-126490000D01*
X211174420Y-127510000D02*
X211455580Y-127510000D01*
X-12345580Y-126490000D02*
X-12064420Y-126490000D01*
X-12345580Y-127510000D02*
X-12064420Y-127510000D01*
D12*
X209920000Y-129250000D02*
G75*
G03*
X209920000Y-129250000I-100000J0D01*
G01*
D10*
X210820000Y-128290000D02*
X207370000Y-128290000D01*
X210820000Y-128290000D02*
X212770000Y-128290000D01*
X210820000Y-138410000D02*
X208870000Y-138410000D01*
X210820000Y-138410000D02*
X212770000Y-138410000D01*
X93457500Y-135842742D02*
X93457500Y-136317258D01*
X94502500Y-135842742D02*
X94502500Y-136317258D01*
X205217500Y-135842742D02*
X205217500Y-136317258D01*
X206262500Y-135842742D02*
X206262500Y-136317258D01*
X316977500Y-135842742D02*
X316977500Y-136317258D01*
X318022500Y-135842742D02*
X318022500Y-136317258D01*
D13*
X123285714Y-15452380D02*
X123285714Y-14452380D01*
X123523809Y-14452380D01*
X123666666Y-14500000D01*
X123761904Y-14595238D01*
X123809523Y-14690476D01*
X123857142Y-14880952D01*
X123857142Y-15023809D01*
X123809523Y-15214285D01*
X123761904Y-15309523D01*
X123666666Y-15404761D01*
X123523809Y-15452380D01*
X123285714Y-15452380D01*
X124714285Y-14785714D02*
X124714285Y-15452380D01*
X124476190Y-14404761D02*
X124238095Y-15119047D01*
X124857142Y-15119047D01*
X125285714Y-15452380D02*
X125476190Y-15452380D01*
X125571428Y-15404761D01*
X125619047Y-15357142D01*
X125714285Y-15214285D01*
X125761904Y-15023809D01*
X125761904Y-14642857D01*
X125714285Y-14547619D01*
X125666666Y-14500000D01*
X125571428Y-14452380D01*
X125380952Y-14452380D01*
X125285714Y-14500000D01*
X125238095Y-14547619D01*
X125190476Y-14642857D01*
X125190476Y-14880952D01*
X125238095Y-14976190D01*
X125285714Y-15023809D01*
X125380952Y-15071428D01*
X125571428Y-15071428D01*
X125666666Y-15023809D01*
X125714285Y-14976190D01*
X125761904Y-14880952D01*
X139285714Y-15452380D02*
X139285714Y-14452380D01*
X139523809Y-14452380D01*
X139666666Y-14500000D01*
X139761904Y-14595238D01*
X139809523Y-14690476D01*
X139857142Y-14880952D01*
X139857142Y-15023809D01*
X139809523Y-15214285D01*
X139761904Y-15309523D01*
X139666666Y-15404761D01*
X139523809Y-15452380D01*
X139285714Y-15452380D01*
X140714285Y-14785714D02*
X140714285Y-15452380D01*
X140476190Y-14404761D02*
X140238095Y-15119047D01*
X140857142Y-15119047D01*
X141380952Y-14880952D02*
X141285714Y-14833333D01*
X141238095Y-14785714D01*
X141190476Y-14690476D01*
X141190476Y-14642857D01*
X141238095Y-14547619D01*
X141285714Y-14500000D01*
X141380952Y-14452380D01*
X141571428Y-14452380D01*
X141666666Y-14500000D01*
X141714285Y-14547619D01*
X141761904Y-14642857D01*
X141761904Y-14690476D01*
X141714285Y-14785714D01*
X141666666Y-14833333D01*
X141571428Y-14880952D01*
X141380952Y-14880952D01*
X141285714Y-14928571D01*
X141238095Y-14976190D01*
X141190476Y-15071428D01*
X141190476Y-15261904D01*
X141238095Y-15357142D01*
X141285714Y-15404761D01*
X141380952Y-15452380D01*
X141571428Y-15452380D01*
X141666666Y-15404761D01*
X141714285Y-15357142D01*
X141761904Y-15261904D01*
X141761904Y-15071428D01*
X141714285Y-14976190D01*
X141666666Y-14928571D01*
X141571428Y-14880952D01*
X98298095Y-138898380D02*
X98298095Y-139707904D01*
X98345714Y-139803142D01*
X98393333Y-139850761D01*
X98488571Y-139898380D01*
X98679047Y-139898380D01*
X98774285Y-139850761D01*
X98821904Y-139803142D01*
X98869523Y-139707904D01*
X98869523Y-138898380D01*
X99821904Y-138898380D02*
X99345714Y-138898380D01*
X99298095Y-139374571D01*
X99345714Y-139326952D01*
X99440952Y-139279333D01*
X99679047Y-139279333D01*
X99774285Y-139326952D01*
X99821904Y-139374571D01*
X99869523Y-139469809D01*
X99869523Y-139707904D01*
X99821904Y-139803142D01*
X99774285Y-139850761D01*
X99679047Y-139898380D01*
X99440952Y-139898380D01*
X99345714Y-139850761D01*
X99298095Y-139803142D01*
X147748333Y-17452380D02*
X147415000Y-16976190D01*
X147176904Y-17452380D02*
X147176904Y-16452380D01*
X147557857Y-16452380D01*
X147653095Y-16500000D01*
X147700714Y-16547619D01*
X147748333Y-16642857D01*
X147748333Y-16785714D01*
X147700714Y-16880952D01*
X147653095Y-16928571D01*
X147557857Y-16976190D01*
X147176904Y-16976190D01*
X148605476Y-16452380D02*
X148415000Y-16452380D01*
X148319761Y-16500000D01*
X148272142Y-16547619D01*
X148176904Y-16690476D01*
X148129285Y-16880952D01*
X148129285Y-17261904D01*
X148176904Y-17357142D01*
X148224523Y-17404761D01*
X148319761Y-17452380D01*
X148510238Y-17452380D01*
X148605476Y-17404761D01*
X148653095Y-17357142D01*
X148700714Y-17261904D01*
X148700714Y-17023809D01*
X148653095Y-16928571D01*
X148605476Y-16880952D01*
X148510238Y-16833333D01*
X148319761Y-16833333D01*
X148224523Y-16880952D01*
X148176904Y-16928571D01*
X148129285Y-17023809D01*
X147673333Y-15452380D02*
X147340000Y-14976190D01*
X147101904Y-15452380D02*
X147101904Y-14452380D01*
X147482857Y-14452380D01*
X147578095Y-14500000D01*
X147625714Y-14547619D01*
X147673333Y-14642857D01*
X147673333Y-14785714D01*
X147625714Y-14880952D01*
X147578095Y-14928571D01*
X147482857Y-14976190D01*
X147101904Y-14976190D01*
X148578095Y-14452380D02*
X148101904Y-14452380D01*
X148054285Y-14928571D01*
X148101904Y-14880952D01*
X148197142Y-14833333D01*
X148435238Y-14833333D01*
X148530476Y-14880952D01*
X148578095Y-14928571D01*
X148625714Y-15023809D01*
X148625714Y-15261904D01*
X148578095Y-15357142D01*
X148530476Y-15404761D01*
X148435238Y-15452380D01*
X148197142Y-15452380D01*
X148101904Y-15404761D01*
X148054285Y-15357142D01*
X321818095Y-138898380D02*
X321818095Y-139707904D01*
X321865714Y-139803142D01*
X321913333Y-139850761D01*
X322008571Y-139898380D01*
X322199047Y-139898380D01*
X322294285Y-139850761D01*
X322341904Y-139803142D01*
X322389523Y-139707904D01*
X322389523Y-138898380D01*
X322770476Y-138898380D02*
X323389523Y-138898380D01*
X323056190Y-139279333D01*
X323199047Y-139279333D01*
X323294285Y-139326952D01*
X323341904Y-139374571D01*
X323389523Y-139469809D01*
X323389523Y-139707904D01*
X323341904Y-139803142D01*
X323294285Y-139850761D01*
X323199047Y-139898380D01*
X322913333Y-139898380D01*
X322818095Y-139850761D01*
X322770476Y-139803142D01*
X321833333Y-126087142D02*
X321785714Y-126134761D01*
X321642857Y-126182380D01*
X321547619Y-126182380D01*
X321404761Y-126134761D01*
X321309523Y-126039523D01*
X321261904Y-125944285D01*
X321214285Y-125753809D01*
X321214285Y-125610952D01*
X321261904Y-125420476D01*
X321309523Y-125325238D01*
X321404761Y-125230000D01*
X321547619Y-125182380D01*
X321642857Y-125182380D01*
X321785714Y-125230000D01*
X321833333Y-125277619D01*
X322214285Y-125277619D02*
X322261904Y-125230000D01*
X322357142Y-125182380D01*
X322595238Y-125182380D01*
X322690476Y-125230000D01*
X322738095Y-125277619D01*
X322785714Y-125372857D01*
X322785714Y-125468095D01*
X322738095Y-125610952D01*
X322166666Y-126182380D01*
X322785714Y-126182380D01*
X-17946666Y-138882380D02*
X-18280000Y-138406190D01*
X-18518095Y-138882380D02*
X-18518095Y-137882380D01*
X-18137142Y-137882380D01*
X-18041904Y-137930000D01*
X-17994285Y-137977619D01*
X-17946666Y-138072857D01*
X-17946666Y-138215714D01*
X-17994285Y-138310952D01*
X-18041904Y-138358571D01*
X-18137142Y-138406190D01*
X-18518095Y-138406190D01*
X-16994285Y-138882380D02*
X-17565714Y-138882380D01*
X-17280000Y-138882380D02*
X-17280000Y-137882380D01*
X-17375238Y-138025238D01*
X-17470476Y-138120476D01*
X-17565714Y-138168095D01*
X-13461904Y-138898380D02*
X-13461904Y-139707904D01*
X-13414285Y-139803142D01*
X-13366666Y-139850761D01*
X-13271428Y-139898380D01*
X-13080952Y-139898380D01*
X-12985714Y-139850761D01*
X-12938095Y-139803142D01*
X-12890476Y-139707904D01*
X-12890476Y-138898380D01*
X-12461904Y-138993619D02*
X-12414285Y-138946000D01*
X-12319047Y-138898380D01*
X-12080952Y-138898380D01*
X-11985714Y-138946000D01*
X-11938095Y-138993619D01*
X-11890476Y-139088857D01*
X-11890476Y-139184095D01*
X-11938095Y-139326952D01*
X-12509523Y-139898380D01*
X-11890476Y-139898380D01*
X98333333Y-126087142D02*
X98285714Y-126134761D01*
X98142857Y-126182380D01*
X98047619Y-126182380D01*
X97904761Y-126134761D01*
X97809523Y-126039523D01*
X97761904Y-125944285D01*
X97714285Y-125753809D01*
X97714285Y-125610952D01*
X97761904Y-125420476D01*
X97809523Y-125325238D01*
X97904761Y-125230000D01*
X98047619Y-125182380D01*
X98142857Y-125182380D01*
X98285714Y-125230000D01*
X98333333Y-125277619D01*
X99190476Y-125515714D02*
X99190476Y-126182380D01*
X98952380Y-125134761D02*
X98714285Y-125849047D01*
X99333333Y-125849047D01*
X209833333Y-126087142D02*
X209785714Y-126134761D01*
X209642857Y-126182380D01*
X209547619Y-126182380D01*
X209404761Y-126134761D01*
X209309523Y-126039523D01*
X209261904Y-125944285D01*
X209214285Y-125753809D01*
X209214285Y-125610952D01*
X209261904Y-125420476D01*
X209309523Y-125325238D01*
X209404761Y-125230000D01*
X209547619Y-125182380D01*
X209642857Y-125182380D01*
X209785714Y-125230000D01*
X209833333Y-125277619D01*
X210166666Y-125182380D02*
X210785714Y-125182380D01*
X210452380Y-125563333D01*
X210595238Y-125563333D01*
X210690476Y-125610952D01*
X210738095Y-125658571D01*
X210785714Y-125753809D01*
X210785714Y-125991904D01*
X210738095Y-126087142D01*
X210690476Y-126134761D01*
X210595238Y-126182380D01*
X210309523Y-126182380D01*
X210214285Y-126134761D01*
X210166666Y-126087142D01*
X-13166666Y-126087142D02*
X-13214285Y-126134761D01*
X-13357142Y-126182380D01*
X-13452380Y-126182380D01*
X-13595238Y-126134761D01*
X-13690476Y-126039523D01*
X-13738095Y-125944285D01*
X-13785714Y-125753809D01*
X-13785714Y-125610952D01*
X-13738095Y-125420476D01*
X-13690476Y-125325238D01*
X-13595238Y-125230000D01*
X-13452380Y-125182380D01*
X-13357142Y-125182380D01*
X-13214285Y-125230000D01*
X-13166666Y-125277619D01*
X-12214285Y-126182380D02*
X-12785714Y-126182380D01*
X-12500000Y-126182380D02*
X-12500000Y-125182380D01*
X-12595238Y-125325238D01*
X-12690476Y-125420476D01*
X-12785714Y-125468095D01*
X210058095Y-138898380D02*
X210058095Y-139707904D01*
X210105714Y-139803142D01*
X210153333Y-139850761D01*
X210248571Y-139898380D01*
X210439047Y-139898380D01*
X210534285Y-139850761D01*
X210581904Y-139803142D01*
X210629523Y-139707904D01*
X210629523Y-138898380D01*
X211534285Y-139231714D02*
X211534285Y-139898380D01*
X211296190Y-138850761D02*
X211058095Y-139565047D01*
X211677142Y-139565047D01*
X93813333Y-138882380D02*
X93480000Y-138406190D01*
X93241904Y-138882380D02*
X93241904Y-137882380D01*
X93622857Y-137882380D01*
X93718095Y-137930000D01*
X93765714Y-137977619D01*
X93813333Y-138072857D01*
X93813333Y-138215714D01*
X93765714Y-138310952D01*
X93718095Y-138358571D01*
X93622857Y-138406190D01*
X93241904Y-138406190D01*
X94670476Y-138215714D02*
X94670476Y-138882380D01*
X94432380Y-137834761D02*
X94194285Y-138549047D01*
X94813333Y-138549047D01*
X205573333Y-138882380D02*
X205240000Y-138406190D01*
X205001904Y-138882380D02*
X205001904Y-137882380D01*
X205382857Y-137882380D01*
X205478095Y-137930000D01*
X205525714Y-137977619D01*
X205573333Y-138072857D01*
X205573333Y-138215714D01*
X205525714Y-138310952D01*
X205478095Y-138358571D01*
X205382857Y-138406190D01*
X205001904Y-138406190D01*
X205906666Y-137882380D02*
X206525714Y-137882380D01*
X206192380Y-138263333D01*
X206335238Y-138263333D01*
X206430476Y-138310952D01*
X206478095Y-138358571D01*
X206525714Y-138453809D01*
X206525714Y-138691904D01*
X206478095Y-138787142D01*
X206430476Y-138834761D01*
X206335238Y-138882380D01*
X206049523Y-138882380D01*
X205954285Y-138834761D01*
X205906666Y-138787142D01*
X317333333Y-138882380D02*
X317000000Y-138406190D01*
X316761904Y-138882380D02*
X316761904Y-137882380D01*
X317142857Y-137882380D01*
X317238095Y-137930000D01*
X317285714Y-137977619D01*
X317333333Y-138072857D01*
X317333333Y-138215714D01*
X317285714Y-138310952D01*
X317238095Y-138358571D01*
X317142857Y-138406190D01*
X316761904Y-138406190D01*
X317714285Y-137977619D02*
X317761904Y-137930000D01*
X317857142Y-137882380D01*
X318095238Y-137882380D01*
X318190476Y-137930000D01*
X318238095Y-137977619D01*
X318285714Y-138072857D01*
X318285714Y-138168095D01*
X318238095Y-138310952D01*
X317666666Y-138882380D01*
X318285714Y-138882380D01*
M02*
