G04 #@! TF.GenerationSoftware,KiCad,Pcbnew,(5.1.7)-1*
G04 #@! TF.CreationDate,2021-02-27T15:40:24-05:00*
G04 #@! TF.ProjectId,OpeNITHM-full,4f70654e-4954-4484-9d2d-66756c6c2e6b,rev?*
G04 #@! TF.SameCoordinates,Original*
G04 #@! TF.FileFunction,Soldermask,Top*
G04 #@! TF.FilePolarity,Negative*
%FSLAX46Y46*%
G04 Gerber Fmt 4.6, Leading zero omitted, Abs format (unit mm)*
G04 Created by KiCad (PCBNEW (5.1.7)-1) date 2021-02-27 15:40:24*
%MOMM*%
%LPD*%
G01*
G04 APERTURE LIST*
%ADD10O,1.802000X1.802000*%
%ADD11C,1.702000*%
%ADD12C,0.802000*%
%ADD13O,1.002000X2.502000*%
%ADD14O,1.002000X1.802000*%
%ADD15O,1.852000X1.302000*%
%ADD16C,3.302000*%
%ADD17C,0.100000*%
G04 APERTURE END LIST*
D10*
X370170000Y-126500000D03*
X372710000Y-126500000D03*
G36*
G01*
X374400000Y-125599000D02*
X376100000Y-125599000D01*
G75*
G02*
X376151000Y-125650000I0J-51000D01*
G01*
X376151000Y-127350000D01*
G75*
G02*
X376100000Y-127401000I-51000J0D01*
G01*
X374400000Y-127401000D01*
G75*
G02*
X374349000Y-127350000I0J51000D01*
G01*
X374349000Y-125650000D01*
G75*
G02*
X374400000Y-125599000I51000J0D01*
G01*
G37*
X-79250000Y-126500000D03*
X-76710000Y-126500000D03*
G36*
G01*
X-75020000Y-125599000D02*
X-73320000Y-125599000D01*
G75*
G02*
X-73269000Y-125650000I0J-51000D01*
G01*
X-73269000Y-127350000D01*
G75*
G02*
X-73320000Y-127401000I-51000J0D01*
G01*
X-75020000Y-127401000D01*
G75*
G02*
X-75071000Y-127350000I0J51000D01*
G01*
X-75071000Y-125650000D01*
G75*
G02*
X-75020000Y-125599000I51000J0D01*
G01*
G37*
G36*
G01*
X125360000Y-14191000D02*
X123560000Y-14191000D01*
G75*
G02*
X123509000Y-14140000I0J51000D01*
G01*
X123509000Y-11640000D01*
G75*
G02*
X123560000Y-11589000I51000J0D01*
G01*
X125360000Y-11589000D01*
G75*
G02*
X125411000Y-11640000I0J-51000D01*
G01*
X125411000Y-14140000D01*
G75*
G02*
X125360000Y-14191000I-51000J0D01*
G01*
G37*
G36*
G01*
X125360000Y-10191000D02*
X123560000Y-10191000D01*
G75*
G02*
X123509000Y-10140000I0J51000D01*
G01*
X123509000Y-7640000D01*
G75*
G02*
X123560000Y-7589000I51000J0D01*
G01*
X125360000Y-7589000D01*
G75*
G02*
X125411000Y-7640000I0J-51000D01*
G01*
X125411000Y-10140000D01*
G75*
G02*
X125360000Y-10191000I-51000J0D01*
G01*
G37*
G36*
G01*
X141235000Y-14191000D02*
X139435000Y-14191000D01*
G75*
G02*
X139384000Y-14140000I0J51000D01*
G01*
X139384000Y-11640000D01*
G75*
G02*
X139435000Y-11589000I51000J0D01*
G01*
X141235000Y-11589000D01*
G75*
G02*
X141286000Y-11640000I0J-51000D01*
G01*
X141286000Y-14140000D01*
G75*
G02*
X141235000Y-14191000I-51000J0D01*
G01*
G37*
G36*
G01*
X141235000Y-10191000D02*
X139435000Y-10191000D01*
G75*
G02*
X139384000Y-10140000I0J51000D01*
G01*
X139384000Y-7640000D01*
G75*
G02*
X139435000Y-7589000I51000J0D01*
G01*
X141235000Y-7589000D01*
G75*
G02*
X141286000Y-7640000I0J-51000D01*
G01*
X141286000Y-10140000D01*
G75*
G02*
X141235000Y-10191000I-51000J0D01*
G01*
G37*
X368300000Y-18097500D03*
X368300000Y-20637500D03*
X370840000Y-18097500D03*
X370840000Y-20637500D03*
X373380000Y-18097500D03*
X373380000Y-20637500D03*
X375920000Y-18097500D03*
X375920000Y-20637500D03*
X378460000Y-18097500D03*
G36*
G01*
X379310000Y-21538500D02*
X377610000Y-21538500D01*
G75*
G02*
X377559000Y-21487500I0J51000D01*
G01*
X377559000Y-19787500D01*
G75*
G02*
X377610000Y-19736500I51000J0D01*
G01*
X379310000Y-19736500D01*
G75*
G02*
X379361000Y-19787500I0J-51000D01*
G01*
X379361000Y-21487500D01*
G75*
G02*
X379310000Y-21538500I-51000J0D01*
G01*
G37*
D11*
X135890000Y-140970000D03*
X135890000Y-138430000D03*
G36*
G01*
X132499000Y-134150000D02*
X132499000Y-132550000D01*
G75*
G02*
X132550000Y-132499000I51000J0D01*
G01*
X134150000Y-132499000D01*
G75*
G02*
X134201000Y-132550000I0J-51000D01*
G01*
X134201000Y-134150000D01*
G75*
G02*
X134150000Y-134201000I-51000J0D01*
G01*
X132550000Y-134201000D01*
G75*
G02*
X132499000Y-134150000I0J51000D01*
G01*
G37*
X135890000Y-133350000D03*
X138430000Y-133350000D03*
X140970000Y-133350000D03*
X143510000Y-133350000D03*
X146050000Y-133350000D03*
X148590000Y-133350000D03*
X151130000Y-133350000D03*
X153670000Y-133350000D03*
X156210000Y-133350000D03*
X158750000Y-133350000D03*
X161290000Y-133350000D03*
X163830000Y-133350000D03*
X146050000Y-146050000D03*
X143510000Y-146050000D03*
X140970000Y-146050000D03*
X135890000Y-146050000D03*
X133350000Y-148590000D03*
X135890000Y-148590000D03*
X138430000Y-148590000D03*
X140970000Y-148590000D03*
X143510000Y-148590000D03*
X146050000Y-148590000D03*
X148590000Y-148590000D03*
X151130000Y-148590000D03*
X153670000Y-148590000D03*
X156210000Y-148590000D03*
X158750000Y-148590000D03*
X161290000Y-148590000D03*
X163830000Y-148590000D03*
X166370000Y-133350000D03*
X166370000Y-135890000D03*
X166370000Y-138430000D03*
X166370000Y-148590000D03*
X166370000Y-146050000D03*
X166370000Y-143510000D03*
X166370000Y-140970000D03*
G36*
G01*
X128901000Y-138850000D02*
X128901000Y-140550000D01*
G75*
G02*
X128850000Y-140601000I-51000J0D01*
G01*
X127150000Y-140601000D01*
G75*
G02*
X127099000Y-140550000I0J51000D01*
G01*
X127099000Y-138850000D01*
G75*
G02*
X127150000Y-138799000I51000J0D01*
G01*
X128850000Y-138799000D01*
G75*
G02*
X128901000Y-138850000I0J-51000D01*
G01*
G37*
D10*
X128000000Y-142240000D03*
G36*
G01*
X100509000Y-129080500D02*
X100509000Y-128729500D01*
G75*
G02*
X100684500Y-128554000I175500J0D01*
G01*
X102385500Y-128554000D01*
G75*
G02*
X102561000Y-128729500I0J-175500D01*
G01*
X102561000Y-129080500D01*
G75*
G02*
X102385500Y-129256000I-175500J0D01*
G01*
X100684500Y-129256000D01*
G75*
G02*
X100509000Y-129080500I0J175500D01*
G01*
G37*
G36*
G01*
X100509000Y-130350500D02*
X100509000Y-129999500D01*
G75*
G02*
X100684500Y-129824000I175500J0D01*
G01*
X102385500Y-129824000D01*
G75*
G02*
X102561000Y-129999500I0J-175500D01*
G01*
X102561000Y-130350500D01*
G75*
G02*
X102385500Y-130526000I-175500J0D01*
G01*
X100684500Y-130526000D01*
G75*
G02*
X100509000Y-130350500I0J175500D01*
G01*
G37*
G36*
G01*
X100509000Y-131620500D02*
X100509000Y-131269500D01*
G75*
G02*
X100684500Y-131094000I175500J0D01*
G01*
X102385500Y-131094000D01*
G75*
G02*
X102561000Y-131269500I0J-175500D01*
G01*
X102561000Y-131620500D01*
G75*
G02*
X102385500Y-131796000I-175500J0D01*
G01*
X100684500Y-131796000D01*
G75*
G02*
X100509000Y-131620500I0J175500D01*
G01*
G37*
G36*
G01*
X100509000Y-132890500D02*
X100509000Y-132539500D01*
G75*
G02*
X100684500Y-132364000I175500J0D01*
G01*
X102385500Y-132364000D01*
G75*
G02*
X102561000Y-132539500I0J-175500D01*
G01*
X102561000Y-132890500D01*
G75*
G02*
X102385500Y-133066000I-175500J0D01*
G01*
X100684500Y-133066000D01*
G75*
G02*
X100509000Y-132890500I0J175500D01*
G01*
G37*
G36*
G01*
X100509000Y-134160500D02*
X100509000Y-133809500D01*
G75*
G02*
X100684500Y-133634000I175500J0D01*
G01*
X102385500Y-133634000D01*
G75*
G02*
X102561000Y-133809500I0J-175500D01*
G01*
X102561000Y-134160500D01*
G75*
G02*
X102385500Y-134336000I-175500J0D01*
G01*
X100684500Y-134336000D01*
G75*
G02*
X100509000Y-134160500I0J175500D01*
G01*
G37*
G36*
G01*
X100509000Y-135430500D02*
X100509000Y-135079500D01*
G75*
G02*
X100684500Y-134904000I175500J0D01*
G01*
X102385500Y-134904000D01*
G75*
G02*
X102561000Y-135079500I0J-175500D01*
G01*
X102561000Y-135430500D01*
G75*
G02*
X102385500Y-135606000I-175500J0D01*
G01*
X100684500Y-135606000D01*
G75*
G02*
X100509000Y-135430500I0J175500D01*
G01*
G37*
G36*
G01*
X100509000Y-136700500D02*
X100509000Y-136349500D01*
G75*
G02*
X100684500Y-136174000I175500J0D01*
G01*
X102385500Y-136174000D01*
G75*
G02*
X102561000Y-136349500I0J-175500D01*
G01*
X102561000Y-136700500D01*
G75*
G02*
X102385500Y-136876000I-175500J0D01*
G01*
X100684500Y-136876000D01*
G75*
G02*
X100509000Y-136700500I0J175500D01*
G01*
G37*
G36*
G01*
X100509000Y-137970500D02*
X100509000Y-137619500D01*
G75*
G02*
X100684500Y-137444000I175500J0D01*
G01*
X102385500Y-137444000D01*
G75*
G02*
X102561000Y-137619500I0J-175500D01*
G01*
X102561000Y-137970500D01*
G75*
G02*
X102385500Y-138146000I-175500J0D01*
G01*
X100684500Y-138146000D01*
G75*
G02*
X100509000Y-137970500I0J175500D01*
G01*
G37*
G36*
G01*
X95559000Y-137970500D02*
X95559000Y-137619500D01*
G75*
G02*
X95734500Y-137444000I175500J0D01*
G01*
X97435500Y-137444000D01*
G75*
G02*
X97611000Y-137619500I0J-175500D01*
G01*
X97611000Y-137970500D01*
G75*
G02*
X97435500Y-138146000I-175500J0D01*
G01*
X95734500Y-138146000D01*
G75*
G02*
X95559000Y-137970500I0J175500D01*
G01*
G37*
G36*
G01*
X95559000Y-136700500D02*
X95559000Y-136349500D01*
G75*
G02*
X95734500Y-136174000I175500J0D01*
G01*
X97435500Y-136174000D01*
G75*
G02*
X97611000Y-136349500I0J-175500D01*
G01*
X97611000Y-136700500D01*
G75*
G02*
X97435500Y-136876000I-175500J0D01*
G01*
X95734500Y-136876000D01*
G75*
G02*
X95559000Y-136700500I0J175500D01*
G01*
G37*
G36*
G01*
X95559000Y-135430500D02*
X95559000Y-135079500D01*
G75*
G02*
X95734500Y-134904000I175500J0D01*
G01*
X97435500Y-134904000D01*
G75*
G02*
X97611000Y-135079500I0J-175500D01*
G01*
X97611000Y-135430500D01*
G75*
G02*
X97435500Y-135606000I-175500J0D01*
G01*
X95734500Y-135606000D01*
G75*
G02*
X95559000Y-135430500I0J175500D01*
G01*
G37*
G36*
G01*
X95559000Y-134160500D02*
X95559000Y-133809500D01*
G75*
G02*
X95734500Y-133634000I175500J0D01*
G01*
X97435500Y-133634000D01*
G75*
G02*
X97611000Y-133809500I0J-175500D01*
G01*
X97611000Y-134160500D01*
G75*
G02*
X97435500Y-134336000I-175500J0D01*
G01*
X95734500Y-134336000D01*
G75*
G02*
X95559000Y-134160500I0J175500D01*
G01*
G37*
G36*
G01*
X95559000Y-132890500D02*
X95559000Y-132539500D01*
G75*
G02*
X95734500Y-132364000I175500J0D01*
G01*
X97435500Y-132364000D01*
G75*
G02*
X97611000Y-132539500I0J-175500D01*
G01*
X97611000Y-132890500D01*
G75*
G02*
X97435500Y-133066000I-175500J0D01*
G01*
X95734500Y-133066000D01*
G75*
G02*
X95559000Y-132890500I0J175500D01*
G01*
G37*
G36*
G01*
X95559000Y-131620500D02*
X95559000Y-131269500D01*
G75*
G02*
X95734500Y-131094000I175500J0D01*
G01*
X97435500Y-131094000D01*
G75*
G02*
X97611000Y-131269500I0J-175500D01*
G01*
X97611000Y-131620500D01*
G75*
G02*
X97435500Y-131796000I-175500J0D01*
G01*
X95734500Y-131796000D01*
G75*
G02*
X95559000Y-131620500I0J175500D01*
G01*
G37*
G36*
G01*
X95559000Y-130350500D02*
X95559000Y-129999500D01*
G75*
G02*
X95734500Y-129824000I175500J0D01*
G01*
X97435500Y-129824000D01*
G75*
G02*
X97611000Y-129999500I0J-175500D01*
G01*
X97611000Y-130350500D01*
G75*
G02*
X97435500Y-130526000I-175500J0D01*
G01*
X95734500Y-130526000D01*
G75*
G02*
X95559000Y-130350500I0J175500D01*
G01*
G37*
G36*
G01*
X95559000Y-129080500D02*
X95559000Y-128729500D01*
G75*
G02*
X95734500Y-128554000I175500J0D01*
G01*
X97435500Y-128554000D01*
G75*
G02*
X97611000Y-128729500I0J-175500D01*
G01*
X97611000Y-129080500D01*
G75*
G02*
X97435500Y-129256000I-175500J0D01*
G01*
X95734500Y-129256000D01*
G75*
G02*
X95559000Y-129080500I0J175500D01*
G01*
G37*
G36*
G01*
X149064000Y-17300500D02*
X149064000Y-16699500D01*
G75*
G02*
X149289500Y-16474000I225500J0D01*
G01*
X149740500Y-16474000D01*
G75*
G02*
X149966000Y-16699500I0J-225500D01*
G01*
X149966000Y-17300500D01*
G75*
G02*
X149740500Y-17526000I-225500J0D01*
G01*
X149289500Y-17526000D01*
G75*
G02*
X149064000Y-17300500I0J225500D01*
G01*
G37*
G36*
G01*
X150714000Y-17300500D02*
X150714000Y-16699500D01*
G75*
G02*
X150939500Y-16474000I225500J0D01*
G01*
X151390500Y-16474000D01*
G75*
G02*
X151616000Y-16699500I0J-225500D01*
G01*
X151616000Y-17300500D01*
G75*
G02*
X151390500Y-17526000I-225500J0D01*
G01*
X150939500Y-17526000D01*
G75*
G02*
X150714000Y-17300500I0J225500D01*
G01*
G37*
G36*
G01*
X149064000Y-15300500D02*
X149064000Y-14699500D01*
G75*
G02*
X149289500Y-14474000I225500J0D01*
G01*
X149740500Y-14474000D01*
G75*
G02*
X149966000Y-14699500I0J-225500D01*
G01*
X149966000Y-15300500D01*
G75*
G02*
X149740500Y-15526000I-225500J0D01*
G01*
X149289500Y-15526000D01*
G75*
G02*
X149064000Y-15300500I0J225500D01*
G01*
G37*
G36*
G01*
X150714000Y-15300500D02*
X150714000Y-14699500D01*
G75*
G02*
X150939500Y-14474000I225500J0D01*
G01*
X151390500Y-14474000D01*
G75*
G02*
X151616000Y-14699500I0J-225500D01*
G01*
X151616000Y-15300500D01*
G75*
G02*
X151390500Y-15526000I-225500J0D01*
G01*
X150939500Y-15526000D01*
G75*
G02*
X150714000Y-15300500I0J225500D01*
G01*
G37*
D12*
X145020000Y-11100000D03*
X145870000Y-11100000D03*
X146720000Y-11100000D03*
X147570000Y-11100000D03*
X148420000Y-11100000D03*
X149270000Y-11100000D03*
X150120000Y-11100000D03*
X150970000Y-11100000D03*
X145870000Y-9750000D03*
X147570000Y-9750000D03*
X146720000Y-9750000D03*
X145020000Y-9750000D03*
X149270000Y-9750000D03*
X150120000Y-9750000D03*
X150970000Y-9750000D03*
X148420000Y-9750000D03*
D13*
X143670000Y-10120000D03*
X152320000Y-10120000D03*
D14*
X143670000Y-6740000D03*
X152320000Y-6740000D03*
G36*
G01*
X135244500Y-11399000D02*
X137045500Y-11399000D01*
G75*
G02*
X137946000Y-12299500I0J-900500D01*
G01*
X137946000Y-14100500D01*
G75*
G02*
X137045500Y-15001000I-900500J0D01*
G01*
X135244500Y-15001000D01*
G75*
G02*
X134344000Y-14100500I0J900500D01*
G01*
X134344000Y-12299500D01*
G75*
G02*
X135244500Y-11399000I900500J0D01*
G01*
G37*
G36*
G01*
X130419500Y-8649000D02*
X132470500Y-8649000D01*
G75*
G02*
X133246000Y-9424500I0J-775500D01*
G01*
X133246000Y-10975500D01*
G75*
G02*
X132470500Y-11751000I-775500J0D01*
G01*
X130419500Y-11751000D01*
G75*
G02*
X129644000Y-10975500I0J775500D01*
G01*
X129644000Y-9424500D01*
G75*
G02*
X130419500Y-8649000I775500J0D01*
G01*
G37*
G36*
G01*
X129695000Y-14399000D02*
X133195000Y-14399000D01*
G75*
G02*
X133246000Y-14450000I0J-51000D01*
G01*
X133246000Y-17950000D01*
G75*
G02*
X133195000Y-18001000I-51000J0D01*
G01*
X129695000Y-18001000D01*
G75*
G02*
X129644000Y-17950000I0J51000D01*
G01*
X129644000Y-14450000D01*
G75*
G02*
X129695000Y-14399000I51000J0D01*
G01*
G37*
D15*
X-85500000Y-118500000D03*
X-85500000Y-120500000D03*
X-85500000Y-122500000D03*
G36*
G01*
X-84845248Y-125151000D02*
X-86154752Y-125151000D01*
G75*
G02*
X-86426000Y-124879752I0J271248D01*
G01*
X-86426000Y-124120248D01*
G75*
G02*
X-86154752Y-123849000I271248J0D01*
G01*
X-84845248Y-123849000D01*
G75*
G02*
X-84574000Y-124120248I0J-271248D01*
G01*
X-84574000Y-124879752D01*
G75*
G02*
X-84845248Y-125151000I-271248J0D01*
G01*
G37*
X381500000Y-124500000D03*
X381500000Y-122500000D03*
X381500000Y-120500000D03*
G36*
G01*
X380845248Y-117849000D02*
X382154752Y-117849000D01*
G75*
G02*
X382426000Y-118120248I0J-271248D01*
G01*
X382426000Y-118879752D01*
G75*
G02*
X382154752Y-119151000I-271248J0D01*
G01*
X380845248Y-119151000D01*
G75*
G02*
X380574000Y-118879752I0J271248D01*
G01*
X380574000Y-118120248D01*
G75*
G02*
X380845248Y-117849000I271248J0D01*
G01*
G37*
X381500000Y-146000000D03*
X381500000Y-144000000D03*
X381500000Y-142000000D03*
X381500000Y-140000000D03*
X381500000Y-138000000D03*
X381500000Y-136000000D03*
X381500000Y-134000000D03*
X381500000Y-132000000D03*
G36*
G01*
X380845248Y-129349000D02*
X382154752Y-129349000D01*
G75*
G02*
X382426000Y-129620248I0J-271248D01*
G01*
X382426000Y-130379752D01*
G75*
G02*
X382154752Y-130651000I-271248J0D01*
G01*
X380845248Y-130651000D01*
G75*
G02*
X380574000Y-130379752I0J271248D01*
G01*
X380574000Y-129620248D01*
G75*
G02*
X380845248Y-129349000I271248J0D01*
G01*
G37*
X-85500000Y-130000000D03*
X-85500000Y-132000000D03*
X-85500000Y-134000000D03*
X-85500000Y-136000000D03*
X-85500000Y-138000000D03*
X-85500000Y-140000000D03*
X-85500000Y-142000000D03*
X-85500000Y-144000000D03*
G36*
G01*
X-84845248Y-146651000D02*
X-86154752Y-146651000D01*
G75*
G02*
X-86426000Y-146379752I0J271248D01*
G01*
X-86426000Y-145620248D01*
G75*
G02*
X-86154752Y-145349000I271248J0D01*
G01*
X-84845248Y-145349000D01*
G75*
G02*
X-84574000Y-145620248I0J-271248D01*
G01*
X-84574000Y-146379752D01*
G75*
G02*
X-84845248Y-146651000I-271248J0D01*
G01*
G37*
G36*
G01*
X324029000Y-129080500D02*
X324029000Y-128729500D01*
G75*
G02*
X324204500Y-128554000I175500J0D01*
G01*
X325905500Y-128554000D01*
G75*
G02*
X326081000Y-128729500I0J-175500D01*
G01*
X326081000Y-129080500D01*
G75*
G02*
X325905500Y-129256000I-175500J0D01*
G01*
X324204500Y-129256000D01*
G75*
G02*
X324029000Y-129080500I0J175500D01*
G01*
G37*
G36*
G01*
X324029000Y-130350500D02*
X324029000Y-129999500D01*
G75*
G02*
X324204500Y-129824000I175500J0D01*
G01*
X325905500Y-129824000D01*
G75*
G02*
X326081000Y-129999500I0J-175500D01*
G01*
X326081000Y-130350500D01*
G75*
G02*
X325905500Y-130526000I-175500J0D01*
G01*
X324204500Y-130526000D01*
G75*
G02*
X324029000Y-130350500I0J175500D01*
G01*
G37*
G36*
G01*
X324029000Y-131620500D02*
X324029000Y-131269500D01*
G75*
G02*
X324204500Y-131094000I175500J0D01*
G01*
X325905500Y-131094000D01*
G75*
G02*
X326081000Y-131269500I0J-175500D01*
G01*
X326081000Y-131620500D01*
G75*
G02*
X325905500Y-131796000I-175500J0D01*
G01*
X324204500Y-131796000D01*
G75*
G02*
X324029000Y-131620500I0J175500D01*
G01*
G37*
G36*
G01*
X324029000Y-132890500D02*
X324029000Y-132539500D01*
G75*
G02*
X324204500Y-132364000I175500J0D01*
G01*
X325905500Y-132364000D01*
G75*
G02*
X326081000Y-132539500I0J-175500D01*
G01*
X326081000Y-132890500D01*
G75*
G02*
X325905500Y-133066000I-175500J0D01*
G01*
X324204500Y-133066000D01*
G75*
G02*
X324029000Y-132890500I0J175500D01*
G01*
G37*
G36*
G01*
X324029000Y-134160500D02*
X324029000Y-133809500D01*
G75*
G02*
X324204500Y-133634000I175500J0D01*
G01*
X325905500Y-133634000D01*
G75*
G02*
X326081000Y-133809500I0J-175500D01*
G01*
X326081000Y-134160500D01*
G75*
G02*
X325905500Y-134336000I-175500J0D01*
G01*
X324204500Y-134336000D01*
G75*
G02*
X324029000Y-134160500I0J175500D01*
G01*
G37*
G36*
G01*
X324029000Y-135430500D02*
X324029000Y-135079500D01*
G75*
G02*
X324204500Y-134904000I175500J0D01*
G01*
X325905500Y-134904000D01*
G75*
G02*
X326081000Y-135079500I0J-175500D01*
G01*
X326081000Y-135430500D01*
G75*
G02*
X325905500Y-135606000I-175500J0D01*
G01*
X324204500Y-135606000D01*
G75*
G02*
X324029000Y-135430500I0J175500D01*
G01*
G37*
G36*
G01*
X324029000Y-136700500D02*
X324029000Y-136349500D01*
G75*
G02*
X324204500Y-136174000I175500J0D01*
G01*
X325905500Y-136174000D01*
G75*
G02*
X326081000Y-136349500I0J-175500D01*
G01*
X326081000Y-136700500D01*
G75*
G02*
X325905500Y-136876000I-175500J0D01*
G01*
X324204500Y-136876000D01*
G75*
G02*
X324029000Y-136700500I0J175500D01*
G01*
G37*
G36*
G01*
X324029000Y-137970500D02*
X324029000Y-137619500D01*
G75*
G02*
X324204500Y-137444000I175500J0D01*
G01*
X325905500Y-137444000D01*
G75*
G02*
X326081000Y-137619500I0J-175500D01*
G01*
X326081000Y-137970500D01*
G75*
G02*
X325905500Y-138146000I-175500J0D01*
G01*
X324204500Y-138146000D01*
G75*
G02*
X324029000Y-137970500I0J175500D01*
G01*
G37*
G36*
G01*
X319079000Y-137970500D02*
X319079000Y-137619500D01*
G75*
G02*
X319254500Y-137444000I175500J0D01*
G01*
X320955500Y-137444000D01*
G75*
G02*
X321131000Y-137619500I0J-175500D01*
G01*
X321131000Y-137970500D01*
G75*
G02*
X320955500Y-138146000I-175500J0D01*
G01*
X319254500Y-138146000D01*
G75*
G02*
X319079000Y-137970500I0J175500D01*
G01*
G37*
G36*
G01*
X319079000Y-136700500D02*
X319079000Y-136349500D01*
G75*
G02*
X319254500Y-136174000I175500J0D01*
G01*
X320955500Y-136174000D01*
G75*
G02*
X321131000Y-136349500I0J-175500D01*
G01*
X321131000Y-136700500D01*
G75*
G02*
X320955500Y-136876000I-175500J0D01*
G01*
X319254500Y-136876000D01*
G75*
G02*
X319079000Y-136700500I0J175500D01*
G01*
G37*
G36*
G01*
X319079000Y-135430500D02*
X319079000Y-135079500D01*
G75*
G02*
X319254500Y-134904000I175500J0D01*
G01*
X320955500Y-134904000D01*
G75*
G02*
X321131000Y-135079500I0J-175500D01*
G01*
X321131000Y-135430500D01*
G75*
G02*
X320955500Y-135606000I-175500J0D01*
G01*
X319254500Y-135606000D01*
G75*
G02*
X319079000Y-135430500I0J175500D01*
G01*
G37*
G36*
G01*
X319079000Y-134160500D02*
X319079000Y-133809500D01*
G75*
G02*
X319254500Y-133634000I175500J0D01*
G01*
X320955500Y-133634000D01*
G75*
G02*
X321131000Y-133809500I0J-175500D01*
G01*
X321131000Y-134160500D01*
G75*
G02*
X320955500Y-134336000I-175500J0D01*
G01*
X319254500Y-134336000D01*
G75*
G02*
X319079000Y-134160500I0J175500D01*
G01*
G37*
G36*
G01*
X319079000Y-132890500D02*
X319079000Y-132539500D01*
G75*
G02*
X319254500Y-132364000I175500J0D01*
G01*
X320955500Y-132364000D01*
G75*
G02*
X321131000Y-132539500I0J-175500D01*
G01*
X321131000Y-132890500D01*
G75*
G02*
X320955500Y-133066000I-175500J0D01*
G01*
X319254500Y-133066000D01*
G75*
G02*
X319079000Y-132890500I0J175500D01*
G01*
G37*
G36*
G01*
X319079000Y-131620500D02*
X319079000Y-131269500D01*
G75*
G02*
X319254500Y-131094000I175500J0D01*
G01*
X320955500Y-131094000D01*
G75*
G02*
X321131000Y-131269500I0J-175500D01*
G01*
X321131000Y-131620500D01*
G75*
G02*
X320955500Y-131796000I-175500J0D01*
G01*
X319254500Y-131796000D01*
G75*
G02*
X319079000Y-131620500I0J175500D01*
G01*
G37*
G36*
G01*
X319079000Y-130350500D02*
X319079000Y-129999500D01*
G75*
G02*
X319254500Y-129824000I175500J0D01*
G01*
X320955500Y-129824000D01*
G75*
G02*
X321131000Y-129999500I0J-175500D01*
G01*
X321131000Y-130350500D01*
G75*
G02*
X320955500Y-130526000I-175500J0D01*
G01*
X319254500Y-130526000D01*
G75*
G02*
X319079000Y-130350500I0J175500D01*
G01*
G37*
G36*
G01*
X319079000Y-129080500D02*
X319079000Y-128729500D01*
G75*
G02*
X319254500Y-128554000I175500J0D01*
G01*
X320955500Y-128554000D01*
G75*
G02*
X321131000Y-128729500I0J-175500D01*
G01*
X321131000Y-129080500D01*
G75*
G02*
X320955500Y-129256000I-175500J0D01*
G01*
X319254500Y-129256000D01*
G75*
G02*
X319079000Y-129080500I0J175500D01*
G01*
G37*
D16*
X284000000Y-132000000D03*
X178000000Y-132000000D03*
X118000000Y-132000000D03*
X12000000Y-132000000D03*
G36*
G01*
X321799000Y-127275500D02*
X321799000Y-126724500D01*
G75*
G02*
X322049500Y-126474000I250500J0D01*
G01*
X322550500Y-126474000D01*
G75*
G02*
X322801000Y-126724500I0J-250500D01*
G01*
X322801000Y-127275500D01*
G75*
G02*
X322550500Y-127526000I-250500J0D01*
G01*
X322049500Y-127526000D01*
G75*
G02*
X321799000Y-127275500I0J250500D01*
G01*
G37*
G36*
G01*
X323349000Y-127275500D02*
X323349000Y-126724500D01*
G75*
G02*
X323599500Y-126474000I250500J0D01*
G01*
X324100500Y-126474000D01*
G75*
G02*
X324351000Y-126724500I0J-250500D01*
G01*
X324351000Y-127275500D01*
G75*
G02*
X324100500Y-127526000I-250500J0D01*
G01*
X323599500Y-127526000D01*
G75*
G02*
X323349000Y-127275500I0J250500D01*
G01*
G37*
G36*
G01*
X-18080500Y-136454000D02*
X-17479500Y-136454000D01*
G75*
G02*
X-17254000Y-136679500I0J-225500D01*
G01*
X-17254000Y-137130500D01*
G75*
G02*
X-17479500Y-137356000I-225500J0D01*
G01*
X-18080500Y-137356000D01*
G75*
G02*
X-18306000Y-137130500I0J225500D01*
G01*
X-18306000Y-136679500D01*
G75*
G02*
X-18080500Y-136454000I225500J0D01*
G01*
G37*
G36*
G01*
X-18080500Y-134804000D02*
X-17479500Y-134804000D01*
G75*
G02*
X-17254000Y-135029500I0J-225500D01*
G01*
X-17254000Y-135480500D01*
G75*
G02*
X-17479500Y-135706000I-225500J0D01*
G01*
X-18080500Y-135706000D01*
G75*
G02*
X-18306000Y-135480500I0J225500D01*
G01*
X-18306000Y-135029500D01*
G75*
G02*
X-18080500Y-134804000I225500J0D01*
G01*
G37*
G36*
G01*
X-11251000Y-129080500D02*
X-11251000Y-128729500D01*
G75*
G02*
X-11075500Y-128554000I175500J0D01*
G01*
X-9374500Y-128554000D01*
G75*
G02*
X-9199000Y-128729500I0J-175500D01*
G01*
X-9199000Y-129080500D01*
G75*
G02*
X-9374500Y-129256000I-175500J0D01*
G01*
X-11075500Y-129256000D01*
G75*
G02*
X-11251000Y-129080500I0J175500D01*
G01*
G37*
G36*
G01*
X-11251000Y-130350500D02*
X-11251000Y-129999500D01*
G75*
G02*
X-11075500Y-129824000I175500J0D01*
G01*
X-9374500Y-129824000D01*
G75*
G02*
X-9199000Y-129999500I0J-175500D01*
G01*
X-9199000Y-130350500D01*
G75*
G02*
X-9374500Y-130526000I-175500J0D01*
G01*
X-11075500Y-130526000D01*
G75*
G02*
X-11251000Y-130350500I0J175500D01*
G01*
G37*
G36*
G01*
X-11251000Y-131620500D02*
X-11251000Y-131269500D01*
G75*
G02*
X-11075500Y-131094000I175500J0D01*
G01*
X-9374500Y-131094000D01*
G75*
G02*
X-9199000Y-131269500I0J-175500D01*
G01*
X-9199000Y-131620500D01*
G75*
G02*
X-9374500Y-131796000I-175500J0D01*
G01*
X-11075500Y-131796000D01*
G75*
G02*
X-11251000Y-131620500I0J175500D01*
G01*
G37*
G36*
G01*
X-11251000Y-132890500D02*
X-11251000Y-132539500D01*
G75*
G02*
X-11075500Y-132364000I175500J0D01*
G01*
X-9374500Y-132364000D01*
G75*
G02*
X-9199000Y-132539500I0J-175500D01*
G01*
X-9199000Y-132890500D01*
G75*
G02*
X-9374500Y-133066000I-175500J0D01*
G01*
X-11075500Y-133066000D01*
G75*
G02*
X-11251000Y-132890500I0J175500D01*
G01*
G37*
G36*
G01*
X-11251000Y-134160500D02*
X-11251000Y-133809500D01*
G75*
G02*
X-11075500Y-133634000I175500J0D01*
G01*
X-9374500Y-133634000D01*
G75*
G02*
X-9199000Y-133809500I0J-175500D01*
G01*
X-9199000Y-134160500D01*
G75*
G02*
X-9374500Y-134336000I-175500J0D01*
G01*
X-11075500Y-134336000D01*
G75*
G02*
X-11251000Y-134160500I0J175500D01*
G01*
G37*
G36*
G01*
X-11251000Y-135430500D02*
X-11251000Y-135079500D01*
G75*
G02*
X-11075500Y-134904000I175500J0D01*
G01*
X-9374500Y-134904000D01*
G75*
G02*
X-9199000Y-135079500I0J-175500D01*
G01*
X-9199000Y-135430500D01*
G75*
G02*
X-9374500Y-135606000I-175500J0D01*
G01*
X-11075500Y-135606000D01*
G75*
G02*
X-11251000Y-135430500I0J175500D01*
G01*
G37*
G36*
G01*
X-11251000Y-136700500D02*
X-11251000Y-136349500D01*
G75*
G02*
X-11075500Y-136174000I175500J0D01*
G01*
X-9374500Y-136174000D01*
G75*
G02*
X-9199000Y-136349500I0J-175500D01*
G01*
X-9199000Y-136700500D01*
G75*
G02*
X-9374500Y-136876000I-175500J0D01*
G01*
X-11075500Y-136876000D01*
G75*
G02*
X-11251000Y-136700500I0J175500D01*
G01*
G37*
G36*
G01*
X-11251000Y-137970500D02*
X-11251000Y-137619500D01*
G75*
G02*
X-11075500Y-137444000I175500J0D01*
G01*
X-9374500Y-137444000D01*
G75*
G02*
X-9199000Y-137619500I0J-175500D01*
G01*
X-9199000Y-137970500D01*
G75*
G02*
X-9374500Y-138146000I-175500J0D01*
G01*
X-11075500Y-138146000D01*
G75*
G02*
X-11251000Y-137970500I0J175500D01*
G01*
G37*
G36*
G01*
X-16201000Y-137970500D02*
X-16201000Y-137619500D01*
G75*
G02*
X-16025500Y-137444000I175500J0D01*
G01*
X-14324500Y-137444000D01*
G75*
G02*
X-14149000Y-137619500I0J-175500D01*
G01*
X-14149000Y-137970500D01*
G75*
G02*
X-14324500Y-138146000I-175500J0D01*
G01*
X-16025500Y-138146000D01*
G75*
G02*
X-16201000Y-137970500I0J175500D01*
G01*
G37*
G36*
G01*
X-16201000Y-136700500D02*
X-16201000Y-136349500D01*
G75*
G02*
X-16025500Y-136174000I175500J0D01*
G01*
X-14324500Y-136174000D01*
G75*
G02*
X-14149000Y-136349500I0J-175500D01*
G01*
X-14149000Y-136700500D01*
G75*
G02*
X-14324500Y-136876000I-175500J0D01*
G01*
X-16025500Y-136876000D01*
G75*
G02*
X-16201000Y-136700500I0J175500D01*
G01*
G37*
G36*
G01*
X-16201000Y-135430500D02*
X-16201000Y-135079500D01*
G75*
G02*
X-16025500Y-134904000I175500J0D01*
G01*
X-14324500Y-134904000D01*
G75*
G02*
X-14149000Y-135079500I0J-175500D01*
G01*
X-14149000Y-135430500D01*
G75*
G02*
X-14324500Y-135606000I-175500J0D01*
G01*
X-16025500Y-135606000D01*
G75*
G02*
X-16201000Y-135430500I0J175500D01*
G01*
G37*
G36*
G01*
X-16201000Y-134160500D02*
X-16201000Y-133809500D01*
G75*
G02*
X-16025500Y-133634000I175500J0D01*
G01*
X-14324500Y-133634000D01*
G75*
G02*
X-14149000Y-133809500I0J-175500D01*
G01*
X-14149000Y-134160500D01*
G75*
G02*
X-14324500Y-134336000I-175500J0D01*
G01*
X-16025500Y-134336000D01*
G75*
G02*
X-16201000Y-134160500I0J175500D01*
G01*
G37*
G36*
G01*
X-16201000Y-132890500D02*
X-16201000Y-132539500D01*
G75*
G02*
X-16025500Y-132364000I175500J0D01*
G01*
X-14324500Y-132364000D01*
G75*
G02*
X-14149000Y-132539500I0J-175500D01*
G01*
X-14149000Y-132890500D01*
G75*
G02*
X-14324500Y-133066000I-175500J0D01*
G01*
X-16025500Y-133066000D01*
G75*
G02*
X-16201000Y-132890500I0J175500D01*
G01*
G37*
G36*
G01*
X-16201000Y-131620500D02*
X-16201000Y-131269500D01*
G75*
G02*
X-16025500Y-131094000I175500J0D01*
G01*
X-14324500Y-131094000D01*
G75*
G02*
X-14149000Y-131269500I0J-175500D01*
G01*
X-14149000Y-131620500D01*
G75*
G02*
X-14324500Y-131796000I-175500J0D01*
G01*
X-16025500Y-131796000D01*
G75*
G02*
X-16201000Y-131620500I0J175500D01*
G01*
G37*
G36*
G01*
X-16201000Y-130350500D02*
X-16201000Y-129999500D01*
G75*
G02*
X-16025500Y-129824000I175500J0D01*
G01*
X-14324500Y-129824000D01*
G75*
G02*
X-14149000Y-129999500I0J-175500D01*
G01*
X-14149000Y-130350500D01*
G75*
G02*
X-14324500Y-130526000I-175500J0D01*
G01*
X-16025500Y-130526000D01*
G75*
G02*
X-16201000Y-130350500I0J175500D01*
G01*
G37*
G36*
G01*
X-16201000Y-129080500D02*
X-16201000Y-128729500D01*
G75*
G02*
X-16025500Y-128554000I175500J0D01*
G01*
X-14324500Y-128554000D01*
G75*
G02*
X-14149000Y-128729500I0J-175500D01*
G01*
X-14149000Y-129080500D01*
G75*
G02*
X-14324500Y-129256000I-175500J0D01*
G01*
X-16025500Y-129256000D01*
G75*
G02*
X-16201000Y-129080500I0J175500D01*
G01*
G37*
X-88000000Y-18000000D03*
G36*
G01*
X98279000Y-127275500D02*
X98279000Y-126724500D01*
G75*
G02*
X98529500Y-126474000I250500J0D01*
G01*
X99030500Y-126474000D01*
G75*
G02*
X99281000Y-126724500I0J-250500D01*
G01*
X99281000Y-127275500D01*
G75*
G02*
X99030500Y-127526000I-250500J0D01*
G01*
X98529500Y-127526000D01*
G75*
G02*
X98279000Y-127275500I0J250500D01*
G01*
G37*
G36*
G01*
X99829000Y-127275500D02*
X99829000Y-126724500D01*
G75*
G02*
X100079500Y-126474000I250500J0D01*
G01*
X100580500Y-126474000D01*
G75*
G02*
X100831000Y-126724500I0J-250500D01*
G01*
X100831000Y-127275500D01*
G75*
G02*
X100580500Y-127526000I-250500J0D01*
G01*
X100079500Y-127526000D01*
G75*
G02*
X99829000Y-127275500I0J250500D01*
G01*
G37*
G36*
G01*
X210039000Y-127275500D02*
X210039000Y-126724500D01*
G75*
G02*
X210289500Y-126474000I250500J0D01*
G01*
X210790500Y-126474000D01*
G75*
G02*
X211041000Y-126724500I0J-250500D01*
G01*
X211041000Y-127275500D01*
G75*
G02*
X210790500Y-127526000I-250500J0D01*
G01*
X210289500Y-127526000D01*
G75*
G02*
X210039000Y-127275500I0J250500D01*
G01*
G37*
G36*
G01*
X211589000Y-127275500D02*
X211589000Y-126724500D01*
G75*
G02*
X211839500Y-126474000I250500J0D01*
G01*
X212340500Y-126474000D01*
G75*
G02*
X212591000Y-126724500I0J-250500D01*
G01*
X212591000Y-127275500D01*
G75*
G02*
X212340500Y-127526000I-250500J0D01*
G01*
X211839500Y-127526000D01*
G75*
G02*
X211589000Y-127275500I0J250500D01*
G01*
G37*
G36*
G01*
X-13481000Y-127275500D02*
X-13481000Y-126724500D01*
G75*
G02*
X-13230500Y-126474000I250500J0D01*
G01*
X-12729500Y-126474000D01*
G75*
G02*
X-12479000Y-126724500I0J-250500D01*
G01*
X-12479000Y-127275500D01*
G75*
G02*
X-12729500Y-127526000I-250500J0D01*
G01*
X-13230500Y-127526000D01*
G75*
G02*
X-13481000Y-127275500I0J250500D01*
G01*
G37*
G36*
G01*
X-11931000Y-127275500D02*
X-11931000Y-126724500D01*
G75*
G02*
X-11680500Y-126474000I250500J0D01*
G01*
X-11179500Y-126474000D01*
G75*
G02*
X-10929000Y-126724500I0J-250500D01*
G01*
X-10929000Y-127275500D01*
G75*
G02*
X-11179500Y-127526000I-250500J0D01*
G01*
X-11680500Y-127526000D01*
G75*
G02*
X-11931000Y-127275500I0J250500D01*
G01*
G37*
G36*
G01*
X212269000Y-129080500D02*
X212269000Y-128729500D01*
G75*
G02*
X212444500Y-128554000I175500J0D01*
G01*
X214145500Y-128554000D01*
G75*
G02*
X214321000Y-128729500I0J-175500D01*
G01*
X214321000Y-129080500D01*
G75*
G02*
X214145500Y-129256000I-175500J0D01*
G01*
X212444500Y-129256000D01*
G75*
G02*
X212269000Y-129080500I0J175500D01*
G01*
G37*
G36*
G01*
X212269000Y-130350500D02*
X212269000Y-129999500D01*
G75*
G02*
X212444500Y-129824000I175500J0D01*
G01*
X214145500Y-129824000D01*
G75*
G02*
X214321000Y-129999500I0J-175500D01*
G01*
X214321000Y-130350500D01*
G75*
G02*
X214145500Y-130526000I-175500J0D01*
G01*
X212444500Y-130526000D01*
G75*
G02*
X212269000Y-130350500I0J175500D01*
G01*
G37*
G36*
G01*
X212269000Y-131620500D02*
X212269000Y-131269500D01*
G75*
G02*
X212444500Y-131094000I175500J0D01*
G01*
X214145500Y-131094000D01*
G75*
G02*
X214321000Y-131269500I0J-175500D01*
G01*
X214321000Y-131620500D01*
G75*
G02*
X214145500Y-131796000I-175500J0D01*
G01*
X212444500Y-131796000D01*
G75*
G02*
X212269000Y-131620500I0J175500D01*
G01*
G37*
G36*
G01*
X212269000Y-132890500D02*
X212269000Y-132539500D01*
G75*
G02*
X212444500Y-132364000I175500J0D01*
G01*
X214145500Y-132364000D01*
G75*
G02*
X214321000Y-132539500I0J-175500D01*
G01*
X214321000Y-132890500D01*
G75*
G02*
X214145500Y-133066000I-175500J0D01*
G01*
X212444500Y-133066000D01*
G75*
G02*
X212269000Y-132890500I0J175500D01*
G01*
G37*
G36*
G01*
X212269000Y-134160500D02*
X212269000Y-133809500D01*
G75*
G02*
X212444500Y-133634000I175500J0D01*
G01*
X214145500Y-133634000D01*
G75*
G02*
X214321000Y-133809500I0J-175500D01*
G01*
X214321000Y-134160500D01*
G75*
G02*
X214145500Y-134336000I-175500J0D01*
G01*
X212444500Y-134336000D01*
G75*
G02*
X212269000Y-134160500I0J175500D01*
G01*
G37*
G36*
G01*
X212269000Y-135430500D02*
X212269000Y-135079500D01*
G75*
G02*
X212444500Y-134904000I175500J0D01*
G01*
X214145500Y-134904000D01*
G75*
G02*
X214321000Y-135079500I0J-175500D01*
G01*
X214321000Y-135430500D01*
G75*
G02*
X214145500Y-135606000I-175500J0D01*
G01*
X212444500Y-135606000D01*
G75*
G02*
X212269000Y-135430500I0J175500D01*
G01*
G37*
G36*
G01*
X212269000Y-136700500D02*
X212269000Y-136349500D01*
G75*
G02*
X212444500Y-136174000I175500J0D01*
G01*
X214145500Y-136174000D01*
G75*
G02*
X214321000Y-136349500I0J-175500D01*
G01*
X214321000Y-136700500D01*
G75*
G02*
X214145500Y-136876000I-175500J0D01*
G01*
X212444500Y-136876000D01*
G75*
G02*
X212269000Y-136700500I0J175500D01*
G01*
G37*
G36*
G01*
X212269000Y-137970500D02*
X212269000Y-137619500D01*
G75*
G02*
X212444500Y-137444000I175500J0D01*
G01*
X214145500Y-137444000D01*
G75*
G02*
X214321000Y-137619500I0J-175500D01*
G01*
X214321000Y-137970500D01*
G75*
G02*
X214145500Y-138146000I-175500J0D01*
G01*
X212444500Y-138146000D01*
G75*
G02*
X212269000Y-137970500I0J175500D01*
G01*
G37*
G36*
G01*
X207319000Y-137970500D02*
X207319000Y-137619500D01*
G75*
G02*
X207494500Y-137444000I175500J0D01*
G01*
X209195500Y-137444000D01*
G75*
G02*
X209371000Y-137619500I0J-175500D01*
G01*
X209371000Y-137970500D01*
G75*
G02*
X209195500Y-138146000I-175500J0D01*
G01*
X207494500Y-138146000D01*
G75*
G02*
X207319000Y-137970500I0J175500D01*
G01*
G37*
G36*
G01*
X207319000Y-136700500D02*
X207319000Y-136349500D01*
G75*
G02*
X207494500Y-136174000I175500J0D01*
G01*
X209195500Y-136174000D01*
G75*
G02*
X209371000Y-136349500I0J-175500D01*
G01*
X209371000Y-136700500D01*
G75*
G02*
X209195500Y-136876000I-175500J0D01*
G01*
X207494500Y-136876000D01*
G75*
G02*
X207319000Y-136700500I0J175500D01*
G01*
G37*
G36*
G01*
X207319000Y-135430500D02*
X207319000Y-135079500D01*
G75*
G02*
X207494500Y-134904000I175500J0D01*
G01*
X209195500Y-134904000D01*
G75*
G02*
X209371000Y-135079500I0J-175500D01*
G01*
X209371000Y-135430500D01*
G75*
G02*
X209195500Y-135606000I-175500J0D01*
G01*
X207494500Y-135606000D01*
G75*
G02*
X207319000Y-135430500I0J175500D01*
G01*
G37*
G36*
G01*
X207319000Y-134160500D02*
X207319000Y-133809500D01*
G75*
G02*
X207494500Y-133634000I175500J0D01*
G01*
X209195500Y-133634000D01*
G75*
G02*
X209371000Y-133809500I0J-175500D01*
G01*
X209371000Y-134160500D01*
G75*
G02*
X209195500Y-134336000I-175500J0D01*
G01*
X207494500Y-134336000D01*
G75*
G02*
X207319000Y-134160500I0J175500D01*
G01*
G37*
G36*
G01*
X207319000Y-132890500D02*
X207319000Y-132539500D01*
G75*
G02*
X207494500Y-132364000I175500J0D01*
G01*
X209195500Y-132364000D01*
G75*
G02*
X209371000Y-132539500I0J-175500D01*
G01*
X209371000Y-132890500D01*
G75*
G02*
X209195500Y-133066000I-175500J0D01*
G01*
X207494500Y-133066000D01*
G75*
G02*
X207319000Y-132890500I0J175500D01*
G01*
G37*
G36*
G01*
X207319000Y-131620500D02*
X207319000Y-131269500D01*
G75*
G02*
X207494500Y-131094000I175500J0D01*
G01*
X209195500Y-131094000D01*
G75*
G02*
X209371000Y-131269500I0J-175500D01*
G01*
X209371000Y-131620500D01*
G75*
G02*
X209195500Y-131796000I-175500J0D01*
G01*
X207494500Y-131796000D01*
G75*
G02*
X207319000Y-131620500I0J175500D01*
G01*
G37*
G36*
G01*
X207319000Y-130350500D02*
X207319000Y-129999500D01*
G75*
G02*
X207494500Y-129824000I175500J0D01*
G01*
X209195500Y-129824000D01*
G75*
G02*
X209371000Y-129999500I0J-175500D01*
G01*
X209371000Y-130350500D01*
G75*
G02*
X209195500Y-130526000I-175500J0D01*
G01*
X207494500Y-130526000D01*
G75*
G02*
X207319000Y-130350500I0J175500D01*
G01*
G37*
G36*
G01*
X207319000Y-129080500D02*
X207319000Y-128729500D01*
G75*
G02*
X207494500Y-128554000I175500J0D01*
G01*
X209195500Y-128554000D01*
G75*
G02*
X209371000Y-128729500I0J-175500D01*
G01*
X209371000Y-129080500D01*
G75*
G02*
X209195500Y-129256000I-175500J0D01*
G01*
X207494500Y-129256000D01*
G75*
G02*
X207319000Y-129080500I0J175500D01*
G01*
G37*
G36*
G01*
X93679500Y-136454000D02*
X94280500Y-136454000D01*
G75*
G02*
X94506000Y-136679500I0J-225500D01*
G01*
X94506000Y-137130500D01*
G75*
G02*
X94280500Y-137356000I-225500J0D01*
G01*
X93679500Y-137356000D01*
G75*
G02*
X93454000Y-137130500I0J225500D01*
G01*
X93454000Y-136679500D01*
G75*
G02*
X93679500Y-136454000I225500J0D01*
G01*
G37*
G36*
G01*
X93679500Y-134804000D02*
X94280500Y-134804000D01*
G75*
G02*
X94506000Y-135029500I0J-225500D01*
G01*
X94506000Y-135480500D01*
G75*
G02*
X94280500Y-135706000I-225500J0D01*
G01*
X93679500Y-135706000D01*
G75*
G02*
X93454000Y-135480500I0J225500D01*
G01*
X93454000Y-135029500D01*
G75*
G02*
X93679500Y-134804000I225500J0D01*
G01*
G37*
G36*
G01*
X205439500Y-136454000D02*
X206040500Y-136454000D01*
G75*
G02*
X206266000Y-136679500I0J-225500D01*
G01*
X206266000Y-137130500D01*
G75*
G02*
X206040500Y-137356000I-225500J0D01*
G01*
X205439500Y-137356000D01*
G75*
G02*
X205214000Y-137130500I0J225500D01*
G01*
X205214000Y-136679500D01*
G75*
G02*
X205439500Y-136454000I225500J0D01*
G01*
G37*
G36*
G01*
X205439500Y-134804000D02*
X206040500Y-134804000D01*
G75*
G02*
X206266000Y-135029500I0J-225500D01*
G01*
X206266000Y-135480500D01*
G75*
G02*
X206040500Y-135706000I-225500J0D01*
G01*
X205439500Y-135706000D01*
G75*
G02*
X205214000Y-135480500I0J225500D01*
G01*
X205214000Y-135029500D01*
G75*
G02*
X205439500Y-134804000I225500J0D01*
G01*
G37*
G36*
G01*
X317199500Y-136454000D02*
X317800500Y-136454000D01*
G75*
G02*
X318026000Y-136679500I0J-225500D01*
G01*
X318026000Y-137130500D01*
G75*
G02*
X317800500Y-137356000I-225500J0D01*
G01*
X317199500Y-137356000D01*
G75*
G02*
X316974000Y-137130500I0J225500D01*
G01*
X316974000Y-136679500D01*
G75*
G02*
X317199500Y-136454000I225500J0D01*
G01*
G37*
G36*
G01*
X317199500Y-134804000D02*
X317800500Y-134804000D01*
G75*
G02*
X318026000Y-135029500I0J-225500D01*
G01*
X318026000Y-135480500D01*
G75*
G02*
X317800500Y-135706000I-225500J0D01*
G01*
X317199500Y-135706000D01*
G75*
G02*
X316974000Y-135480500I0J225500D01*
G01*
X316974000Y-135029500D01*
G75*
G02*
X317199500Y-134804000I225500J0D01*
G01*
G37*
X334000000Y-152000000D03*
X284000000Y-18000000D03*
X234000000Y-152000000D03*
X184000000Y-18000000D03*
X62000000Y-152000000D03*
X112000000Y-18000000D03*
X-38000000Y-152000000D03*
X12000000Y-18000000D03*
X371000000Y-136000000D03*
X384000000Y-18000000D03*
X-75000000Y-136000000D03*
D17*
G36*
X137947165Y-14098874D02*
G01*
X137948000Y-14100500D01*
X137948000Y-14156860D01*
X137947990Y-14157056D01*
X137931295Y-14326562D01*
X137931219Y-14326947D01*
X137883565Y-14484041D01*
X137883415Y-14484403D01*
X137806033Y-14629174D01*
X137805815Y-14629500D01*
X137701674Y-14756397D01*
X137701397Y-14756674D01*
X137574500Y-14860815D01*
X137574174Y-14861033D01*
X137429403Y-14938415D01*
X137429041Y-14938565D01*
X137271947Y-14986219D01*
X137271562Y-14986295D01*
X137102056Y-15002990D01*
X137101860Y-15003000D01*
X137045500Y-15003000D01*
X137043768Y-15002000D01*
X137043768Y-15000000D01*
X137045304Y-14999010D01*
X137220784Y-14981727D01*
X137389337Y-14930597D01*
X137544675Y-14847567D01*
X137680829Y-14735829D01*
X137792567Y-14599675D01*
X137875597Y-14444337D01*
X137926727Y-14275784D01*
X137944010Y-14100304D01*
X137945175Y-14098678D01*
X137947165Y-14098874D01*
G37*
G36*
X134345990Y-14100304D02*
G01*
X134363273Y-14275784D01*
X134414403Y-14444337D01*
X134497433Y-14599675D01*
X134609171Y-14735829D01*
X134745325Y-14847567D01*
X134900663Y-14930597D01*
X135069216Y-14981727D01*
X135244696Y-14999010D01*
X135246322Y-15000175D01*
X135246126Y-15002165D01*
X135244500Y-15003000D01*
X135188140Y-15003000D01*
X135187944Y-15002990D01*
X135018438Y-14986295D01*
X135018053Y-14986219D01*
X134860959Y-14938565D01*
X134860597Y-14938415D01*
X134715826Y-14861033D01*
X134715500Y-14860815D01*
X134588603Y-14756674D01*
X134588326Y-14756397D01*
X134484185Y-14629500D01*
X134483967Y-14629174D01*
X134406585Y-14484403D01*
X134406435Y-14484041D01*
X134358781Y-14326947D01*
X134358705Y-14326562D01*
X134342010Y-14157056D01*
X134342000Y-14156860D01*
X134342000Y-14100500D01*
X134343000Y-14098768D01*
X134345000Y-14098768D01*
X134345990Y-14100304D01*
G37*
G36*
X135246232Y-11398000D02*
G01*
X135246232Y-11400000D01*
X135244696Y-11400990D01*
X135069216Y-11418273D01*
X134900663Y-11469403D01*
X134745325Y-11552433D01*
X134609171Y-11664171D01*
X134497433Y-11800325D01*
X134414403Y-11955663D01*
X134363273Y-12124216D01*
X134345990Y-12299696D01*
X134344825Y-12301322D01*
X134342835Y-12301126D01*
X134342000Y-12299500D01*
X134342000Y-12243140D01*
X134342010Y-12242944D01*
X134358705Y-12073438D01*
X134358781Y-12073053D01*
X134406435Y-11915959D01*
X134406585Y-11915597D01*
X134483967Y-11770826D01*
X134484185Y-11770500D01*
X134588326Y-11643603D01*
X134588603Y-11643326D01*
X134715500Y-11539185D01*
X134715826Y-11538967D01*
X134860597Y-11461585D01*
X134860959Y-11461435D01*
X135018053Y-11413781D01*
X135018438Y-11413705D01*
X135187944Y-11397010D01*
X135188140Y-11397000D01*
X135244500Y-11397000D01*
X135246232Y-11398000D01*
G37*
G36*
X137102056Y-11397010D02*
G01*
X137271562Y-11413705D01*
X137271947Y-11413781D01*
X137429041Y-11461435D01*
X137429403Y-11461585D01*
X137574174Y-11538967D01*
X137574500Y-11539185D01*
X137701397Y-11643326D01*
X137701674Y-11643603D01*
X137805815Y-11770500D01*
X137806033Y-11770826D01*
X137883415Y-11915597D01*
X137883565Y-11915959D01*
X137931219Y-12073053D01*
X137931295Y-12073438D01*
X137947990Y-12242944D01*
X137948000Y-12243140D01*
X137948000Y-12299500D01*
X137947000Y-12301232D01*
X137945000Y-12301232D01*
X137944010Y-12299696D01*
X137926727Y-12124216D01*
X137875597Y-11955663D01*
X137792567Y-11800325D01*
X137680829Y-11664171D01*
X137544675Y-11552433D01*
X137389337Y-11469403D01*
X137220784Y-11418273D01*
X137045304Y-11400990D01*
X137043678Y-11399825D01*
X137043874Y-11397835D01*
X137045500Y-11397000D01*
X137101860Y-11397000D01*
X137102056Y-11397010D01*
G37*
G36*
X133247165Y-10973874D02*
G01*
X133248000Y-10975500D01*
X133248000Y-11031860D01*
X133247990Y-11032056D01*
X133233697Y-11177175D01*
X133233621Y-11177560D01*
X133193080Y-11311206D01*
X133192930Y-11311568D01*
X133127100Y-11434727D01*
X133126882Y-11435053D01*
X133038286Y-11543009D01*
X133038009Y-11543286D01*
X132930053Y-11631882D01*
X132929727Y-11632100D01*
X132806568Y-11697930D01*
X132806206Y-11698080D01*
X132672560Y-11738621D01*
X132672175Y-11738697D01*
X132527056Y-11752990D01*
X132526860Y-11753000D01*
X132470500Y-11753000D01*
X132468768Y-11752000D01*
X132468768Y-11750000D01*
X132470304Y-11749010D01*
X132621398Y-11734129D01*
X132766502Y-11690112D01*
X132900229Y-11618634D01*
X133017440Y-11522440D01*
X133113634Y-11405229D01*
X133185112Y-11271502D01*
X133229129Y-11126398D01*
X133244010Y-10975304D01*
X133245175Y-10973678D01*
X133247165Y-10973874D01*
G37*
G36*
X129645990Y-10975304D02*
G01*
X129660871Y-11126398D01*
X129704888Y-11271502D01*
X129776366Y-11405229D01*
X129872560Y-11522440D01*
X129989771Y-11618634D01*
X130123498Y-11690112D01*
X130268602Y-11734129D01*
X130419696Y-11749010D01*
X130421322Y-11750175D01*
X130421126Y-11752165D01*
X130419500Y-11753000D01*
X130363140Y-11753000D01*
X130362944Y-11752990D01*
X130217825Y-11738697D01*
X130217440Y-11738621D01*
X130083794Y-11698080D01*
X130083432Y-11697930D01*
X129960273Y-11632100D01*
X129959947Y-11631882D01*
X129851991Y-11543286D01*
X129851714Y-11543009D01*
X129763118Y-11435053D01*
X129762900Y-11434727D01*
X129697070Y-11311568D01*
X129696920Y-11311206D01*
X129656379Y-11177560D01*
X129656303Y-11177175D01*
X129642010Y-11032056D01*
X129642000Y-11031860D01*
X129642000Y-10975500D01*
X129643000Y-10973768D01*
X129645000Y-10973768D01*
X129645990Y-10975304D01*
G37*
G36*
X147896509Y-10866767D02*
G01*
X147908033Y-10880810D01*
X147926670Y-10896105D01*
X147947934Y-10907470D01*
X147971009Y-10914470D01*
X147995000Y-10916833D01*
X148018991Y-10914470D01*
X148042066Y-10907470D01*
X148063330Y-10896105D01*
X148081967Y-10880810D01*
X148093491Y-10866767D01*
X148095363Y-10866063D01*
X148096909Y-10867331D01*
X148096700Y-10869147D01*
X148068123Y-10911917D01*
X148038191Y-10984178D01*
X148022931Y-11060894D01*
X148022931Y-11139106D01*
X148038191Y-11215822D01*
X148068123Y-11288083D01*
X148096700Y-11330853D01*
X148096831Y-11332849D01*
X148095168Y-11333960D01*
X148093491Y-11333233D01*
X148081967Y-11319190D01*
X148063330Y-11303895D01*
X148042066Y-11292530D01*
X148018991Y-11285530D01*
X147995000Y-11283167D01*
X147971009Y-11285530D01*
X147947934Y-11292530D01*
X147926670Y-11303895D01*
X147908033Y-11319190D01*
X147896509Y-11333233D01*
X147894637Y-11333937D01*
X147893091Y-11332669D01*
X147893300Y-11330853D01*
X147921877Y-11288083D01*
X147951809Y-11215822D01*
X147967069Y-11139106D01*
X147967069Y-11060894D01*
X147951809Y-10984178D01*
X147921877Y-10911917D01*
X147893300Y-10869147D01*
X147893169Y-10867151D01*
X147894832Y-10866040D01*
X147896509Y-10866767D01*
G37*
G36*
X145346509Y-10866767D02*
G01*
X145358033Y-10880810D01*
X145376670Y-10896105D01*
X145397934Y-10907470D01*
X145421009Y-10914470D01*
X145445000Y-10916833D01*
X145468991Y-10914470D01*
X145492066Y-10907470D01*
X145513330Y-10896105D01*
X145531967Y-10880810D01*
X145543491Y-10866767D01*
X145545363Y-10866063D01*
X145546909Y-10867331D01*
X145546700Y-10869147D01*
X145518123Y-10911917D01*
X145488191Y-10984178D01*
X145472931Y-11060894D01*
X145472931Y-11139106D01*
X145488191Y-11215822D01*
X145518123Y-11288083D01*
X145546700Y-11330853D01*
X145546831Y-11332849D01*
X145545168Y-11333960D01*
X145543491Y-11333233D01*
X145531967Y-11319190D01*
X145513330Y-11303895D01*
X145492066Y-11292530D01*
X145468991Y-11285530D01*
X145445000Y-11283167D01*
X145421009Y-11285530D01*
X145397934Y-11292530D01*
X145376670Y-11303895D01*
X145358033Y-11319190D01*
X145346509Y-11333233D01*
X145344637Y-11333937D01*
X145343091Y-11332669D01*
X145343300Y-11330853D01*
X145371877Y-11288083D01*
X145401809Y-11215822D01*
X145417069Y-11139106D01*
X145417069Y-11060894D01*
X145401809Y-10984178D01*
X145371877Y-10911917D01*
X145343300Y-10869147D01*
X145343169Y-10867151D01*
X145344832Y-10866040D01*
X145346509Y-10866767D01*
G37*
G36*
X149596509Y-10866767D02*
G01*
X149608033Y-10880810D01*
X149626670Y-10896105D01*
X149647934Y-10907470D01*
X149671009Y-10914470D01*
X149695000Y-10916833D01*
X149718991Y-10914470D01*
X149742066Y-10907470D01*
X149763330Y-10896105D01*
X149781967Y-10880810D01*
X149793491Y-10866767D01*
X149795363Y-10866063D01*
X149796909Y-10867331D01*
X149796700Y-10869147D01*
X149768123Y-10911917D01*
X149738191Y-10984178D01*
X149722931Y-11060894D01*
X149722931Y-11139106D01*
X149738191Y-11215822D01*
X149768123Y-11288083D01*
X149796700Y-11330853D01*
X149796831Y-11332849D01*
X149795168Y-11333960D01*
X149793491Y-11333233D01*
X149781967Y-11319190D01*
X149763330Y-11303895D01*
X149742066Y-11292530D01*
X149718991Y-11285530D01*
X149695000Y-11283167D01*
X149671009Y-11285530D01*
X149647934Y-11292530D01*
X149626670Y-11303895D01*
X149608033Y-11319190D01*
X149596509Y-11333233D01*
X149594637Y-11333937D01*
X149593091Y-11332669D01*
X149593300Y-11330853D01*
X149621877Y-11288083D01*
X149651809Y-11215822D01*
X149667069Y-11139106D01*
X149667069Y-11060894D01*
X149651809Y-10984178D01*
X149621877Y-10911917D01*
X149593300Y-10869147D01*
X149593169Y-10867151D01*
X149594832Y-10866040D01*
X149596509Y-10866767D01*
G37*
G36*
X147046509Y-10866767D02*
G01*
X147058033Y-10880810D01*
X147076670Y-10896105D01*
X147097934Y-10907470D01*
X147121009Y-10914470D01*
X147145000Y-10916833D01*
X147168991Y-10914470D01*
X147192066Y-10907470D01*
X147213330Y-10896105D01*
X147231967Y-10880810D01*
X147243491Y-10866767D01*
X147245363Y-10866063D01*
X147246909Y-10867331D01*
X147246700Y-10869147D01*
X147218123Y-10911917D01*
X147188191Y-10984178D01*
X147172931Y-11060894D01*
X147172931Y-11139106D01*
X147188191Y-11215822D01*
X147218123Y-11288083D01*
X147246700Y-11330853D01*
X147246831Y-11332849D01*
X147245168Y-11333960D01*
X147243491Y-11333233D01*
X147231967Y-11319190D01*
X147213330Y-11303895D01*
X147192066Y-11292530D01*
X147168991Y-11285530D01*
X147145000Y-11283167D01*
X147121009Y-11285530D01*
X147097934Y-11292530D01*
X147076670Y-11303895D01*
X147058033Y-11319190D01*
X147046509Y-11333233D01*
X147044637Y-11333937D01*
X147043091Y-11332669D01*
X147043300Y-11330853D01*
X147071877Y-11288083D01*
X147101809Y-11215822D01*
X147117069Y-11139106D01*
X147117069Y-11060894D01*
X147101809Y-10984178D01*
X147071877Y-10911917D01*
X147043300Y-10869147D01*
X147043169Y-10867151D01*
X147044832Y-10866040D01*
X147046509Y-10866767D01*
G37*
G36*
X148746509Y-10866767D02*
G01*
X148758033Y-10880810D01*
X148776670Y-10896105D01*
X148797934Y-10907470D01*
X148821009Y-10914470D01*
X148845000Y-10916833D01*
X148868991Y-10914470D01*
X148892066Y-10907470D01*
X148913330Y-10896105D01*
X148931967Y-10880810D01*
X148943491Y-10866767D01*
X148945363Y-10866063D01*
X148946909Y-10867331D01*
X148946700Y-10869147D01*
X148918123Y-10911917D01*
X148888191Y-10984178D01*
X148872931Y-11060894D01*
X148872931Y-11139106D01*
X148888191Y-11215822D01*
X148918123Y-11288083D01*
X148946700Y-11330853D01*
X148946831Y-11332849D01*
X148945168Y-11333960D01*
X148943491Y-11333233D01*
X148931967Y-11319190D01*
X148913330Y-11303895D01*
X148892066Y-11292530D01*
X148868991Y-11285530D01*
X148845000Y-11283167D01*
X148821009Y-11285530D01*
X148797934Y-11292530D01*
X148776670Y-11303895D01*
X148758033Y-11319190D01*
X148746509Y-11333233D01*
X148744637Y-11333937D01*
X148743091Y-11332669D01*
X148743300Y-11330853D01*
X148771877Y-11288083D01*
X148801809Y-11215822D01*
X148817069Y-11139106D01*
X148817069Y-11060894D01*
X148801809Y-10984178D01*
X148771877Y-10911917D01*
X148743300Y-10869147D01*
X148743169Y-10867151D01*
X148744832Y-10866040D01*
X148746509Y-10866767D01*
G37*
G36*
X146196509Y-10866767D02*
G01*
X146208033Y-10880810D01*
X146226670Y-10896105D01*
X146247934Y-10907470D01*
X146271009Y-10914470D01*
X146295000Y-10916833D01*
X146318991Y-10914470D01*
X146342066Y-10907470D01*
X146363330Y-10896105D01*
X146381967Y-10880810D01*
X146393491Y-10866767D01*
X146395363Y-10866063D01*
X146396909Y-10867331D01*
X146396700Y-10869147D01*
X146368123Y-10911917D01*
X146338191Y-10984178D01*
X146322931Y-11060894D01*
X146322931Y-11139106D01*
X146338191Y-11215822D01*
X146368123Y-11288083D01*
X146396700Y-11330853D01*
X146396831Y-11332849D01*
X146395168Y-11333960D01*
X146393491Y-11333233D01*
X146381967Y-11319190D01*
X146363330Y-11303895D01*
X146342066Y-11292530D01*
X146318991Y-11285530D01*
X146295000Y-11283167D01*
X146271009Y-11285530D01*
X146247934Y-11292530D01*
X146226670Y-11303895D01*
X146208033Y-11319190D01*
X146196509Y-11333233D01*
X146194637Y-11333937D01*
X146193091Y-11332669D01*
X146193300Y-11330853D01*
X146221877Y-11288083D01*
X146251809Y-11215822D01*
X146267069Y-11139106D01*
X146267069Y-11060894D01*
X146251809Y-10984178D01*
X146221877Y-10911917D01*
X146193300Y-10869147D01*
X146193169Y-10867151D01*
X146194832Y-10866040D01*
X146196509Y-10866767D01*
G37*
G36*
X150446509Y-10866767D02*
G01*
X150458033Y-10880810D01*
X150476670Y-10896105D01*
X150497934Y-10907470D01*
X150521009Y-10914470D01*
X150545000Y-10916833D01*
X150568991Y-10914470D01*
X150592066Y-10907470D01*
X150613330Y-10896105D01*
X150631967Y-10880810D01*
X150643491Y-10866767D01*
X150645363Y-10866063D01*
X150646909Y-10867331D01*
X150646700Y-10869147D01*
X150618123Y-10911917D01*
X150588191Y-10984178D01*
X150572931Y-11060894D01*
X150572931Y-11139106D01*
X150588191Y-11215822D01*
X150618123Y-11288083D01*
X150646700Y-11330853D01*
X150646831Y-11332849D01*
X150645168Y-11333960D01*
X150643491Y-11333233D01*
X150631967Y-11319190D01*
X150613330Y-11303895D01*
X150592066Y-11292530D01*
X150568991Y-11285530D01*
X150545000Y-11283167D01*
X150521009Y-11285530D01*
X150497934Y-11292530D01*
X150476670Y-11303895D01*
X150458033Y-11319190D01*
X150446509Y-11333233D01*
X150444637Y-11333937D01*
X150443091Y-11332669D01*
X150443300Y-11330853D01*
X150471877Y-11288083D01*
X150501809Y-11215822D01*
X150517069Y-11139106D01*
X150517069Y-11060894D01*
X150501809Y-10984178D01*
X150471877Y-10911917D01*
X150443300Y-10869147D01*
X150443169Y-10867151D01*
X150444832Y-10866040D01*
X150446509Y-10866767D01*
G37*
G36*
X150446509Y-9516767D02*
G01*
X150458033Y-9530810D01*
X150476670Y-9546105D01*
X150497934Y-9557470D01*
X150521009Y-9564470D01*
X150545000Y-9566833D01*
X150568991Y-9564470D01*
X150592066Y-9557470D01*
X150613330Y-9546105D01*
X150631967Y-9530810D01*
X150643491Y-9516767D01*
X150645363Y-9516063D01*
X150646909Y-9517331D01*
X150646700Y-9519147D01*
X150618123Y-9561917D01*
X150588191Y-9634178D01*
X150572931Y-9710894D01*
X150572931Y-9789106D01*
X150588191Y-9865822D01*
X150618123Y-9938083D01*
X150646700Y-9980853D01*
X150646831Y-9982849D01*
X150645168Y-9983960D01*
X150643491Y-9983233D01*
X150631967Y-9969190D01*
X150613330Y-9953895D01*
X150592066Y-9942530D01*
X150568991Y-9935530D01*
X150545000Y-9933167D01*
X150521009Y-9935530D01*
X150497934Y-9942530D01*
X150476670Y-9953895D01*
X150458033Y-9969190D01*
X150446509Y-9983233D01*
X150444637Y-9983937D01*
X150443091Y-9982669D01*
X150443300Y-9980853D01*
X150471877Y-9938083D01*
X150501809Y-9865822D01*
X150517069Y-9789106D01*
X150517069Y-9710894D01*
X150501809Y-9634178D01*
X150471877Y-9561917D01*
X150443300Y-9519147D01*
X150443169Y-9517151D01*
X150444832Y-9516040D01*
X150446509Y-9516767D01*
G37*
G36*
X147896509Y-9516767D02*
G01*
X147908033Y-9530810D01*
X147926670Y-9546105D01*
X147947934Y-9557470D01*
X147971009Y-9564470D01*
X147995000Y-9566833D01*
X148018991Y-9564470D01*
X148042066Y-9557470D01*
X148063330Y-9546105D01*
X148081967Y-9530810D01*
X148093491Y-9516767D01*
X148095363Y-9516063D01*
X148096909Y-9517331D01*
X148096700Y-9519147D01*
X148068123Y-9561917D01*
X148038191Y-9634178D01*
X148022931Y-9710894D01*
X148022931Y-9789106D01*
X148038191Y-9865822D01*
X148068123Y-9938083D01*
X148096700Y-9980853D01*
X148096831Y-9982849D01*
X148095168Y-9983960D01*
X148093491Y-9983233D01*
X148081967Y-9969190D01*
X148063330Y-9953895D01*
X148042066Y-9942530D01*
X148018991Y-9935530D01*
X147995000Y-9933167D01*
X147971009Y-9935530D01*
X147947934Y-9942530D01*
X147926670Y-9953895D01*
X147908033Y-9969190D01*
X147896509Y-9983233D01*
X147894637Y-9983937D01*
X147893091Y-9982669D01*
X147893300Y-9980853D01*
X147921877Y-9938083D01*
X147951809Y-9865822D01*
X147967069Y-9789106D01*
X147967069Y-9710894D01*
X147951809Y-9634178D01*
X147921877Y-9561917D01*
X147893300Y-9519147D01*
X147893169Y-9517151D01*
X147894832Y-9516040D01*
X147896509Y-9516767D01*
G37*
G36*
X147046509Y-9516767D02*
G01*
X147058033Y-9530810D01*
X147076670Y-9546105D01*
X147097934Y-9557470D01*
X147121009Y-9564470D01*
X147145000Y-9566833D01*
X147168991Y-9564470D01*
X147192066Y-9557470D01*
X147213330Y-9546105D01*
X147231967Y-9530810D01*
X147243491Y-9516767D01*
X147245363Y-9516063D01*
X147246909Y-9517331D01*
X147246700Y-9519147D01*
X147218123Y-9561917D01*
X147188191Y-9634178D01*
X147172931Y-9710894D01*
X147172931Y-9789106D01*
X147188191Y-9865822D01*
X147218123Y-9938083D01*
X147246700Y-9980853D01*
X147246831Y-9982849D01*
X147245168Y-9983960D01*
X147243491Y-9983233D01*
X147231967Y-9969190D01*
X147213330Y-9953895D01*
X147192066Y-9942530D01*
X147168991Y-9935530D01*
X147145000Y-9933167D01*
X147121009Y-9935530D01*
X147097934Y-9942530D01*
X147076670Y-9953895D01*
X147058033Y-9969190D01*
X147046509Y-9983233D01*
X147044637Y-9983937D01*
X147043091Y-9982669D01*
X147043300Y-9980853D01*
X147071877Y-9938083D01*
X147101809Y-9865822D01*
X147117069Y-9789106D01*
X147117069Y-9710894D01*
X147101809Y-9634178D01*
X147071877Y-9561917D01*
X147043300Y-9519147D01*
X147043169Y-9517151D01*
X147044832Y-9516040D01*
X147046509Y-9516767D01*
G37*
G36*
X149596509Y-9516767D02*
G01*
X149608033Y-9530810D01*
X149626670Y-9546105D01*
X149647934Y-9557470D01*
X149671009Y-9564470D01*
X149695000Y-9566833D01*
X149718991Y-9564470D01*
X149742066Y-9557470D01*
X149763330Y-9546105D01*
X149781967Y-9530810D01*
X149793491Y-9516767D01*
X149795363Y-9516063D01*
X149796909Y-9517331D01*
X149796700Y-9519147D01*
X149768123Y-9561917D01*
X149738191Y-9634178D01*
X149722931Y-9710894D01*
X149722931Y-9789106D01*
X149738191Y-9865822D01*
X149768123Y-9938083D01*
X149796700Y-9980853D01*
X149796831Y-9982849D01*
X149795168Y-9983960D01*
X149793491Y-9983233D01*
X149781967Y-9969190D01*
X149763330Y-9953895D01*
X149742066Y-9942530D01*
X149718991Y-9935530D01*
X149695000Y-9933167D01*
X149671009Y-9935530D01*
X149647934Y-9942530D01*
X149626670Y-9953895D01*
X149608033Y-9969190D01*
X149596509Y-9983233D01*
X149594637Y-9983937D01*
X149593091Y-9982669D01*
X149593300Y-9980853D01*
X149621877Y-9938083D01*
X149651809Y-9865822D01*
X149667069Y-9789106D01*
X149667069Y-9710894D01*
X149651809Y-9634178D01*
X149621877Y-9561917D01*
X149593300Y-9519147D01*
X149593169Y-9517151D01*
X149594832Y-9516040D01*
X149596509Y-9516767D01*
G37*
G36*
X145346509Y-9516767D02*
G01*
X145358033Y-9530810D01*
X145376670Y-9546105D01*
X145397934Y-9557470D01*
X145421009Y-9564470D01*
X145445000Y-9566833D01*
X145468991Y-9564470D01*
X145492066Y-9557470D01*
X145513330Y-9546105D01*
X145531967Y-9530810D01*
X145543491Y-9516767D01*
X145545363Y-9516063D01*
X145546909Y-9517331D01*
X145546700Y-9519147D01*
X145518123Y-9561917D01*
X145488191Y-9634178D01*
X145472931Y-9710894D01*
X145472931Y-9789106D01*
X145488191Y-9865822D01*
X145518123Y-9938083D01*
X145546700Y-9980853D01*
X145546831Y-9982849D01*
X145545168Y-9983960D01*
X145543491Y-9983233D01*
X145531967Y-9969190D01*
X145513330Y-9953895D01*
X145492066Y-9942530D01*
X145468991Y-9935530D01*
X145445000Y-9933167D01*
X145421009Y-9935530D01*
X145397934Y-9942530D01*
X145376670Y-9953895D01*
X145358033Y-9969190D01*
X145346509Y-9983233D01*
X145344637Y-9983937D01*
X145343091Y-9982669D01*
X145343300Y-9980853D01*
X145371877Y-9938083D01*
X145401809Y-9865822D01*
X145417069Y-9789106D01*
X145417069Y-9710894D01*
X145401809Y-9634178D01*
X145371877Y-9561917D01*
X145343300Y-9519147D01*
X145343169Y-9517151D01*
X145344832Y-9516040D01*
X145346509Y-9516767D01*
G37*
G36*
X148746509Y-9516767D02*
G01*
X148758033Y-9530810D01*
X148776670Y-9546105D01*
X148797934Y-9557470D01*
X148821009Y-9564470D01*
X148845000Y-9566833D01*
X148868991Y-9564470D01*
X148892066Y-9557470D01*
X148913330Y-9546105D01*
X148931967Y-9530810D01*
X148943491Y-9516767D01*
X148945363Y-9516063D01*
X148946909Y-9517331D01*
X148946700Y-9519147D01*
X148918123Y-9561917D01*
X148888191Y-9634178D01*
X148872931Y-9710894D01*
X148872931Y-9789106D01*
X148888191Y-9865822D01*
X148918123Y-9938083D01*
X148946700Y-9980853D01*
X148946831Y-9982849D01*
X148945168Y-9983960D01*
X148943491Y-9983233D01*
X148931967Y-9969190D01*
X148913330Y-9953895D01*
X148892066Y-9942530D01*
X148868991Y-9935530D01*
X148845000Y-9933167D01*
X148821009Y-9935530D01*
X148797934Y-9942530D01*
X148776670Y-9953895D01*
X148758033Y-9969190D01*
X148746509Y-9983233D01*
X148744637Y-9983937D01*
X148743091Y-9982669D01*
X148743300Y-9980853D01*
X148771877Y-9938083D01*
X148801809Y-9865822D01*
X148817069Y-9789106D01*
X148817069Y-9710894D01*
X148801809Y-9634178D01*
X148771877Y-9561917D01*
X148743300Y-9519147D01*
X148743169Y-9517151D01*
X148744832Y-9516040D01*
X148746509Y-9516767D01*
G37*
G36*
X146196509Y-9516767D02*
G01*
X146208033Y-9530810D01*
X146226670Y-9546105D01*
X146247934Y-9557470D01*
X146271009Y-9564470D01*
X146295000Y-9566833D01*
X146318991Y-9564470D01*
X146342066Y-9557470D01*
X146363330Y-9546105D01*
X146381967Y-9530810D01*
X146393491Y-9516767D01*
X146395363Y-9516063D01*
X146396909Y-9517331D01*
X146396700Y-9519147D01*
X146368123Y-9561917D01*
X146338191Y-9634178D01*
X146322931Y-9710894D01*
X146322931Y-9789106D01*
X146338191Y-9865822D01*
X146368123Y-9938083D01*
X146396700Y-9980853D01*
X146396831Y-9982849D01*
X146395168Y-9983960D01*
X146393491Y-9983233D01*
X146381967Y-9969190D01*
X146363330Y-9953895D01*
X146342066Y-9942530D01*
X146318991Y-9935530D01*
X146295000Y-9933167D01*
X146271009Y-9935530D01*
X146247934Y-9942530D01*
X146226670Y-9953895D01*
X146208033Y-9969190D01*
X146196509Y-9983233D01*
X146194637Y-9983937D01*
X146193091Y-9982669D01*
X146193300Y-9980853D01*
X146221877Y-9938083D01*
X146251809Y-9865822D01*
X146267069Y-9789106D01*
X146267069Y-9710894D01*
X146251809Y-9634178D01*
X146221877Y-9561917D01*
X146193300Y-9519147D01*
X146193169Y-9517151D01*
X146194832Y-9516040D01*
X146196509Y-9516767D01*
G37*
G36*
X130421232Y-8648000D02*
G01*
X130421232Y-8650000D01*
X130419696Y-8650990D01*
X130268602Y-8665871D01*
X130123498Y-8709888D01*
X129989771Y-8781366D01*
X129872560Y-8877560D01*
X129776366Y-8994771D01*
X129704888Y-9128498D01*
X129660871Y-9273602D01*
X129645990Y-9424696D01*
X129644825Y-9426322D01*
X129642835Y-9426126D01*
X129642000Y-9424500D01*
X129642000Y-9368140D01*
X129642010Y-9367944D01*
X129656303Y-9222825D01*
X129656379Y-9222440D01*
X129696920Y-9088794D01*
X129697070Y-9088432D01*
X129762900Y-8965273D01*
X129763118Y-8964947D01*
X129851714Y-8856991D01*
X129851991Y-8856714D01*
X129959947Y-8768118D01*
X129960273Y-8767900D01*
X130083432Y-8702070D01*
X130083794Y-8701920D01*
X130217440Y-8661379D01*
X130217825Y-8661303D01*
X130362944Y-8647010D01*
X130363140Y-8647000D01*
X130419500Y-8647000D01*
X130421232Y-8648000D01*
G37*
G36*
X132527056Y-8647010D02*
G01*
X132672175Y-8661303D01*
X132672560Y-8661379D01*
X132806206Y-8701920D01*
X132806568Y-8702070D01*
X132929727Y-8767900D01*
X132930053Y-8768118D01*
X133038009Y-8856714D01*
X133038286Y-8856991D01*
X133126882Y-8964947D01*
X133127100Y-8965273D01*
X133192930Y-9088432D01*
X133193080Y-9088794D01*
X133233621Y-9222440D01*
X133233697Y-9222825D01*
X133247990Y-9367944D01*
X133248000Y-9368140D01*
X133248000Y-9424500D01*
X133247000Y-9426232D01*
X133245000Y-9426232D01*
X133244010Y-9424696D01*
X133229129Y-9273602D01*
X133185112Y-9128498D01*
X133113634Y-8994771D01*
X133017440Y-8877560D01*
X132900229Y-8781366D01*
X132766502Y-8709888D01*
X132621398Y-8665871D01*
X132470304Y-8650990D01*
X132468678Y-8649825D01*
X132468874Y-8647835D01*
X132470500Y-8647000D01*
X132526860Y-8647000D01*
X132527056Y-8647010D01*
G37*
M02*
