G04 #@! TF.GenerationSoftware,KiCad,Pcbnew,(5.1.7)-1*
G04 #@! TF.CreationDate,2021-02-27T15:40:24-05:00*
G04 #@! TF.ProjectId,OpeNITHM-full,4f70654e-4954-4484-9d2d-66756c6c2e6b,rev?*
G04 #@! TF.SameCoordinates,Original*
G04 #@! TF.FileFunction,Paste,Top*
G04 #@! TF.FilePolarity,Positive*
%FSLAX46Y46*%
G04 Gerber Fmt 4.6, Leading zero omitted, Abs format (unit mm)*
G04 Created by KiCad (PCBNEW (5.1.7)-1) date 2021-02-27 15:40:24*
%MOMM*%
%LPD*%
G01*
G04 APERTURE LIST*
%ADD10R,1.800000X2.500000*%
G04 APERTURE END LIST*
D10*
X124460000Y-12890000D03*
X124460000Y-8890000D03*
X140335000Y-12890000D03*
X140335000Y-8890000D03*
G36*
G01*
X100560000Y-129055000D02*
X100560000Y-128755000D01*
G75*
G02*
X100710000Y-128605000I150000J0D01*
G01*
X102360000Y-128605000D01*
G75*
G02*
X102510000Y-128755000I0J-150000D01*
G01*
X102510000Y-129055000D01*
G75*
G02*
X102360000Y-129205000I-150000J0D01*
G01*
X100710000Y-129205000D01*
G75*
G02*
X100560000Y-129055000I0J150000D01*
G01*
G37*
G36*
G01*
X100560000Y-130325000D02*
X100560000Y-130025000D01*
G75*
G02*
X100710000Y-129875000I150000J0D01*
G01*
X102360000Y-129875000D01*
G75*
G02*
X102510000Y-130025000I0J-150000D01*
G01*
X102510000Y-130325000D01*
G75*
G02*
X102360000Y-130475000I-150000J0D01*
G01*
X100710000Y-130475000D01*
G75*
G02*
X100560000Y-130325000I0J150000D01*
G01*
G37*
G36*
G01*
X100560000Y-131595000D02*
X100560000Y-131295000D01*
G75*
G02*
X100710000Y-131145000I150000J0D01*
G01*
X102360000Y-131145000D01*
G75*
G02*
X102510000Y-131295000I0J-150000D01*
G01*
X102510000Y-131595000D01*
G75*
G02*
X102360000Y-131745000I-150000J0D01*
G01*
X100710000Y-131745000D01*
G75*
G02*
X100560000Y-131595000I0J150000D01*
G01*
G37*
G36*
G01*
X100560000Y-132865000D02*
X100560000Y-132565000D01*
G75*
G02*
X100710000Y-132415000I150000J0D01*
G01*
X102360000Y-132415000D01*
G75*
G02*
X102510000Y-132565000I0J-150000D01*
G01*
X102510000Y-132865000D01*
G75*
G02*
X102360000Y-133015000I-150000J0D01*
G01*
X100710000Y-133015000D01*
G75*
G02*
X100560000Y-132865000I0J150000D01*
G01*
G37*
G36*
G01*
X100560000Y-134135000D02*
X100560000Y-133835000D01*
G75*
G02*
X100710000Y-133685000I150000J0D01*
G01*
X102360000Y-133685000D01*
G75*
G02*
X102510000Y-133835000I0J-150000D01*
G01*
X102510000Y-134135000D01*
G75*
G02*
X102360000Y-134285000I-150000J0D01*
G01*
X100710000Y-134285000D01*
G75*
G02*
X100560000Y-134135000I0J150000D01*
G01*
G37*
G36*
G01*
X100560000Y-135405000D02*
X100560000Y-135105000D01*
G75*
G02*
X100710000Y-134955000I150000J0D01*
G01*
X102360000Y-134955000D01*
G75*
G02*
X102510000Y-135105000I0J-150000D01*
G01*
X102510000Y-135405000D01*
G75*
G02*
X102360000Y-135555000I-150000J0D01*
G01*
X100710000Y-135555000D01*
G75*
G02*
X100560000Y-135405000I0J150000D01*
G01*
G37*
G36*
G01*
X100560000Y-136675000D02*
X100560000Y-136375000D01*
G75*
G02*
X100710000Y-136225000I150000J0D01*
G01*
X102360000Y-136225000D01*
G75*
G02*
X102510000Y-136375000I0J-150000D01*
G01*
X102510000Y-136675000D01*
G75*
G02*
X102360000Y-136825000I-150000J0D01*
G01*
X100710000Y-136825000D01*
G75*
G02*
X100560000Y-136675000I0J150000D01*
G01*
G37*
G36*
G01*
X100560000Y-137945000D02*
X100560000Y-137645000D01*
G75*
G02*
X100710000Y-137495000I150000J0D01*
G01*
X102360000Y-137495000D01*
G75*
G02*
X102510000Y-137645000I0J-150000D01*
G01*
X102510000Y-137945000D01*
G75*
G02*
X102360000Y-138095000I-150000J0D01*
G01*
X100710000Y-138095000D01*
G75*
G02*
X100560000Y-137945000I0J150000D01*
G01*
G37*
G36*
G01*
X95610000Y-137945000D02*
X95610000Y-137645000D01*
G75*
G02*
X95760000Y-137495000I150000J0D01*
G01*
X97410000Y-137495000D01*
G75*
G02*
X97560000Y-137645000I0J-150000D01*
G01*
X97560000Y-137945000D01*
G75*
G02*
X97410000Y-138095000I-150000J0D01*
G01*
X95760000Y-138095000D01*
G75*
G02*
X95610000Y-137945000I0J150000D01*
G01*
G37*
G36*
G01*
X95610000Y-136675000D02*
X95610000Y-136375000D01*
G75*
G02*
X95760000Y-136225000I150000J0D01*
G01*
X97410000Y-136225000D01*
G75*
G02*
X97560000Y-136375000I0J-150000D01*
G01*
X97560000Y-136675000D01*
G75*
G02*
X97410000Y-136825000I-150000J0D01*
G01*
X95760000Y-136825000D01*
G75*
G02*
X95610000Y-136675000I0J150000D01*
G01*
G37*
G36*
G01*
X95610000Y-135405000D02*
X95610000Y-135105000D01*
G75*
G02*
X95760000Y-134955000I150000J0D01*
G01*
X97410000Y-134955000D01*
G75*
G02*
X97560000Y-135105000I0J-150000D01*
G01*
X97560000Y-135405000D01*
G75*
G02*
X97410000Y-135555000I-150000J0D01*
G01*
X95760000Y-135555000D01*
G75*
G02*
X95610000Y-135405000I0J150000D01*
G01*
G37*
G36*
G01*
X95610000Y-134135000D02*
X95610000Y-133835000D01*
G75*
G02*
X95760000Y-133685000I150000J0D01*
G01*
X97410000Y-133685000D01*
G75*
G02*
X97560000Y-133835000I0J-150000D01*
G01*
X97560000Y-134135000D01*
G75*
G02*
X97410000Y-134285000I-150000J0D01*
G01*
X95760000Y-134285000D01*
G75*
G02*
X95610000Y-134135000I0J150000D01*
G01*
G37*
G36*
G01*
X95610000Y-132865000D02*
X95610000Y-132565000D01*
G75*
G02*
X95760000Y-132415000I150000J0D01*
G01*
X97410000Y-132415000D01*
G75*
G02*
X97560000Y-132565000I0J-150000D01*
G01*
X97560000Y-132865000D01*
G75*
G02*
X97410000Y-133015000I-150000J0D01*
G01*
X95760000Y-133015000D01*
G75*
G02*
X95610000Y-132865000I0J150000D01*
G01*
G37*
G36*
G01*
X95610000Y-131595000D02*
X95610000Y-131295000D01*
G75*
G02*
X95760000Y-131145000I150000J0D01*
G01*
X97410000Y-131145000D01*
G75*
G02*
X97560000Y-131295000I0J-150000D01*
G01*
X97560000Y-131595000D01*
G75*
G02*
X97410000Y-131745000I-150000J0D01*
G01*
X95760000Y-131745000D01*
G75*
G02*
X95610000Y-131595000I0J150000D01*
G01*
G37*
G36*
G01*
X95610000Y-130325000D02*
X95610000Y-130025000D01*
G75*
G02*
X95760000Y-129875000I150000J0D01*
G01*
X97410000Y-129875000D01*
G75*
G02*
X97560000Y-130025000I0J-150000D01*
G01*
X97560000Y-130325000D01*
G75*
G02*
X97410000Y-130475000I-150000J0D01*
G01*
X95760000Y-130475000D01*
G75*
G02*
X95610000Y-130325000I0J150000D01*
G01*
G37*
G36*
G01*
X95610000Y-129055000D02*
X95610000Y-128755000D01*
G75*
G02*
X95760000Y-128605000I150000J0D01*
G01*
X97410000Y-128605000D01*
G75*
G02*
X97560000Y-128755000I0J-150000D01*
G01*
X97560000Y-129055000D01*
G75*
G02*
X97410000Y-129205000I-150000J0D01*
G01*
X95760000Y-129205000D01*
G75*
G02*
X95610000Y-129055000I0J150000D01*
G01*
G37*
G36*
G01*
X149115000Y-17275000D02*
X149115000Y-16725000D01*
G75*
G02*
X149315000Y-16525000I200000J0D01*
G01*
X149715000Y-16525000D01*
G75*
G02*
X149915000Y-16725000I0J-200000D01*
G01*
X149915000Y-17275000D01*
G75*
G02*
X149715000Y-17475000I-200000J0D01*
G01*
X149315000Y-17475000D01*
G75*
G02*
X149115000Y-17275000I0J200000D01*
G01*
G37*
G36*
G01*
X150765000Y-17275000D02*
X150765000Y-16725000D01*
G75*
G02*
X150965000Y-16525000I200000J0D01*
G01*
X151365000Y-16525000D01*
G75*
G02*
X151565000Y-16725000I0J-200000D01*
G01*
X151565000Y-17275000D01*
G75*
G02*
X151365000Y-17475000I-200000J0D01*
G01*
X150965000Y-17475000D01*
G75*
G02*
X150765000Y-17275000I0J200000D01*
G01*
G37*
G36*
G01*
X149115000Y-15275000D02*
X149115000Y-14725000D01*
G75*
G02*
X149315000Y-14525000I200000J0D01*
G01*
X149715000Y-14525000D01*
G75*
G02*
X149915000Y-14725000I0J-200000D01*
G01*
X149915000Y-15275000D01*
G75*
G02*
X149715000Y-15475000I-200000J0D01*
G01*
X149315000Y-15475000D01*
G75*
G02*
X149115000Y-15275000I0J200000D01*
G01*
G37*
G36*
G01*
X150765000Y-15275000D02*
X150765000Y-14725000D01*
G75*
G02*
X150965000Y-14525000I200000J0D01*
G01*
X151365000Y-14525000D01*
G75*
G02*
X151565000Y-14725000I0J-200000D01*
G01*
X151565000Y-15275000D01*
G75*
G02*
X151365000Y-15475000I-200000J0D01*
G01*
X150965000Y-15475000D01*
G75*
G02*
X150765000Y-15275000I0J200000D01*
G01*
G37*
G36*
G01*
X324080000Y-129055000D02*
X324080000Y-128755000D01*
G75*
G02*
X324230000Y-128605000I150000J0D01*
G01*
X325880000Y-128605000D01*
G75*
G02*
X326030000Y-128755000I0J-150000D01*
G01*
X326030000Y-129055000D01*
G75*
G02*
X325880000Y-129205000I-150000J0D01*
G01*
X324230000Y-129205000D01*
G75*
G02*
X324080000Y-129055000I0J150000D01*
G01*
G37*
G36*
G01*
X324080000Y-130325000D02*
X324080000Y-130025000D01*
G75*
G02*
X324230000Y-129875000I150000J0D01*
G01*
X325880000Y-129875000D01*
G75*
G02*
X326030000Y-130025000I0J-150000D01*
G01*
X326030000Y-130325000D01*
G75*
G02*
X325880000Y-130475000I-150000J0D01*
G01*
X324230000Y-130475000D01*
G75*
G02*
X324080000Y-130325000I0J150000D01*
G01*
G37*
G36*
G01*
X324080000Y-131595000D02*
X324080000Y-131295000D01*
G75*
G02*
X324230000Y-131145000I150000J0D01*
G01*
X325880000Y-131145000D01*
G75*
G02*
X326030000Y-131295000I0J-150000D01*
G01*
X326030000Y-131595000D01*
G75*
G02*
X325880000Y-131745000I-150000J0D01*
G01*
X324230000Y-131745000D01*
G75*
G02*
X324080000Y-131595000I0J150000D01*
G01*
G37*
G36*
G01*
X324080000Y-132865000D02*
X324080000Y-132565000D01*
G75*
G02*
X324230000Y-132415000I150000J0D01*
G01*
X325880000Y-132415000D01*
G75*
G02*
X326030000Y-132565000I0J-150000D01*
G01*
X326030000Y-132865000D01*
G75*
G02*
X325880000Y-133015000I-150000J0D01*
G01*
X324230000Y-133015000D01*
G75*
G02*
X324080000Y-132865000I0J150000D01*
G01*
G37*
G36*
G01*
X324080000Y-134135000D02*
X324080000Y-133835000D01*
G75*
G02*
X324230000Y-133685000I150000J0D01*
G01*
X325880000Y-133685000D01*
G75*
G02*
X326030000Y-133835000I0J-150000D01*
G01*
X326030000Y-134135000D01*
G75*
G02*
X325880000Y-134285000I-150000J0D01*
G01*
X324230000Y-134285000D01*
G75*
G02*
X324080000Y-134135000I0J150000D01*
G01*
G37*
G36*
G01*
X324080000Y-135405000D02*
X324080000Y-135105000D01*
G75*
G02*
X324230000Y-134955000I150000J0D01*
G01*
X325880000Y-134955000D01*
G75*
G02*
X326030000Y-135105000I0J-150000D01*
G01*
X326030000Y-135405000D01*
G75*
G02*
X325880000Y-135555000I-150000J0D01*
G01*
X324230000Y-135555000D01*
G75*
G02*
X324080000Y-135405000I0J150000D01*
G01*
G37*
G36*
G01*
X324080000Y-136675000D02*
X324080000Y-136375000D01*
G75*
G02*
X324230000Y-136225000I150000J0D01*
G01*
X325880000Y-136225000D01*
G75*
G02*
X326030000Y-136375000I0J-150000D01*
G01*
X326030000Y-136675000D01*
G75*
G02*
X325880000Y-136825000I-150000J0D01*
G01*
X324230000Y-136825000D01*
G75*
G02*
X324080000Y-136675000I0J150000D01*
G01*
G37*
G36*
G01*
X324080000Y-137945000D02*
X324080000Y-137645000D01*
G75*
G02*
X324230000Y-137495000I150000J0D01*
G01*
X325880000Y-137495000D01*
G75*
G02*
X326030000Y-137645000I0J-150000D01*
G01*
X326030000Y-137945000D01*
G75*
G02*
X325880000Y-138095000I-150000J0D01*
G01*
X324230000Y-138095000D01*
G75*
G02*
X324080000Y-137945000I0J150000D01*
G01*
G37*
G36*
G01*
X319130000Y-137945000D02*
X319130000Y-137645000D01*
G75*
G02*
X319280000Y-137495000I150000J0D01*
G01*
X320930000Y-137495000D01*
G75*
G02*
X321080000Y-137645000I0J-150000D01*
G01*
X321080000Y-137945000D01*
G75*
G02*
X320930000Y-138095000I-150000J0D01*
G01*
X319280000Y-138095000D01*
G75*
G02*
X319130000Y-137945000I0J150000D01*
G01*
G37*
G36*
G01*
X319130000Y-136675000D02*
X319130000Y-136375000D01*
G75*
G02*
X319280000Y-136225000I150000J0D01*
G01*
X320930000Y-136225000D01*
G75*
G02*
X321080000Y-136375000I0J-150000D01*
G01*
X321080000Y-136675000D01*
G75*
G02*
X320930000Y-136825000I-150000J0D01*
G01*
X319280000Y-136825000D01*
G75*
G02*
X319130000Y-136675000I0J150000D01*
G01*
G37*
G36*
G01*
X319130000Y-135405000D02*
X319130000Y-135105000D01*
G75*
G02*
X319280000Y-134955000I150000J0D01*
G01*
X320930000Y-134955000D01*
G75*
G02*
X321080000Y-135105000I0J-150000D01*
G01*
X321080000Y-135405000D01*
G75*
G02*
X320930000Y-135555000I-150000J0D01*
G01*
X319280000Y-135555000D01*
G75*
G02*
X319130000Y-135405000I0J150000D01*
G01*
G37*
G36*
G01*
X319130000Y-134135000D02*
X319130000Y-133835000D01*
G75*
G02*
X319280000Y-133685000I150000J0D01*
G01*
X320930000Y-133685000D01*
G75*
G02*
X321080000Y-133835000I0J-150000D01*
G01*
X321080000Y-134135000D01*
G75*
G02*
X320930000Y-134285000I-150000J0D01*
G01*
X319280000Y-134285000D01*
G75*
G02*
X319130000Y-134135000I0J150000D01*
G01*
G37*
G36*
G01*
X319130000Y-132865000D02*
X319130000Y-132565000D01*
G75*
G02*
X319280000Y-132415000I150000J0D01*
G01*
X320930000Y-132415000D01*
G75*
G02*
X321080000Y-132565000I0J-150000D01*
G01*
X321080000Y-132865000D01*
G75*
G02*
X320930000Y-133015000I-150000J0D01*
G01*
X319280000Y-133015000D01*
G75*
G02*
X319130000Y-132865000I0J150000D01*
G01*
G37*
G36*
G01*
X319130000Y-131595000D02*
X319130000Y-131295000D01*
G75*
G02*
X319280000Y-131145000I150000J0D01*
G01*
X320930000Y-131145000D01*
G75*
G02*
X321080000Y-131295000I0J-150000D01*
G01*
X321080000Y-131595000D01*
G75*
G02*
X320930000Y-131745000I-150000J0D01*
G01*
X319280000Y-131745000D01*
G75*
G02*
X319130000Y-131595000I0J150000D01*
G01*
G37*
G36*
G01*
X319130000Y-130325000D02*
X319130000Y-130025000D01*
G75*
G02*
X319280000Y-129875000I150000J0D01*
G01*
X320930000Y-129875000D01*
G75*
G02*
X321080000Y-130025000I0J-150000D01*
G01*
X321080000Y-130325000D01*
G75*
G02*
X320930000Y-130475000I-150000J0D01*
G01*
X319280000Y-130475000D01*
G75*
G02*
X319130000Y-130325000I0J150000D01*
G01*
G37*
G36*
G01*
X319130000Y-129055000D02*
X319130000Y-128755000D01*
G75*
G02*
X319280000Y-128605000I150000J0D01*
G01*
X320930000Y-128605000D01*
G75*
G02*
X321080000Y-128755000I0J-150000D01*
G01*
X321080000Y-129055000D01*
G75*
G02*
X320930000Y-129205000I-150000J0D01*
G01*
X319280000Y-129205000D01*
G75*
G02*
X319130000Y-129055000I0J150000D01*
G01*
G37*
G36*
G01*
X321850000Y-127250000D02*
X321850000Y-126750000D01*
G75*
G02*
X322075000Y-126525000I225000J0D01*
G01*
X322525000Y-126525000D01*
G75*
G02*
X322750000Y-126750000I0J-225000D01*
G01*
X322750000Y-127250000D01*
G75*
G02*
X322525000Y-127475000I-225000J0D01*
G01*
X322075000Y-127475000D01*
G75*
G02*
X321850000Y-127250000I0J225000D01*
G01*
G37*
G36*
G01*
X323400000Y-127250000D02*
X323400000Y-126750000D01*
G75*
G02*
X323625000Y-126525000I225000J0D01*
G01*
X324075000Y-126525000D01*
G75*
G02*
X324300000Y-126750000I0J-225000D01*
G01*
X324300000Y-127250000D01*
G75*
G02*
X324075000Y-127475000I-225000J0D01*
G01*
X323625000Y-127475000D01*
G75*
G02*
X323400000Y-127250000I0J225000D01*
G01*
G37*
G36*
G01*
X-18055000Y-136505000D02*
X-17505000Y-136505000D01*
G75*
G02*
X-17305000Y-136705000I0J-200000D01*
G01*
X-17305000Y-137105000D01*
G75*
G02*
X-17505000Y-137305000I-200000J0D01*
G01*
X-18055000Y-137305000D01*
G75*
G02*
X-18255000Y-137105000I0J200000D01*
G01*
X-18255000Y-136705000D01*
G75*
G02*
X-18055000Y-136505000I200000J0D01*
G01*
G37*
G36*
G01*
X-18055000Y-134855000D02*
X-17505000Y-134855000D01*
G75*
G02*
X-17305000Y-135055000I0J-200000D01*
G01*
X-17305000Y-135455000D01*
G75*
G02*
X-17505000Y-135655000I-200000J0D01*
G01*
X-18055000Y-135655000D01*
G75*
G02*
X-18255000Y-135455000I0J200000D01*
G01*
X-18255000Y-135055000D01*
G75*
G02*
X-18055000Y-134855000I200000J0D01*
G01*
G37*
G36*
G01*
X-11200000Y-129055000D02*
X-11200000Y-128755000D01*
G75*
G02*
X-11050000Y-128605000I150000J0D01*
G01*
X-9400000Y-128605000D01*
G75*
G02*
X-9250000Y-128755000I0J-150000D01*
G01*
X-9250000Y-129055000D01*
G75*
G02*
X-9400000Y-129205000I-150000J0D01*
G01*
X-11050000Y-129205000D01*
G75*
G02*
X-11200000Y-129055000I0J150000D01*
G01*
G37*
G36*
G01*
X-11200000Y-130325000D02*
X-11200000Y-130025000D01*
G75*
G02*
X-11050000Y-129875000I150000J0D01*
G01*
X-9400000Y-129875000D01*
G75*
G02*
X-9250000Y-130025000I0J-150000D01*
G01*
X-9250000Y-130325000D01*
G75*
G02*
X-9400000Y-130475000I-150000J0D01*
G01*
X-11050000Y-130475000D01*
G75*
G02*
X-11200000Y-130325000I0J150000D01*
G01*
G37*
G36*
G01*
X-11200000Y-131595000D02*
X-11200000Y-131295000D01*
G75*
G02*
X-11050000Y-131145000I150000J0D01*
G01*
X-9400000Y-131145000D01*
G75*
G02*
X-9250000Y-131295000I0J-150000D01*
G01*
X-9250000Y-131595000D01*
G75*
G02*
X-9400000Y-131745000I-150000J0D01*
G01*
X-11050000Y-131745000D01*
G75*
G02*
X-11200000Y-131595000I0J150000D01*
G01*
G37*
G36*
G01*
X-11200000Y-132865000D02*
X-11200000Y-132565000D01*
G75*
G02*
X-11050000Y-132415000I150000J0D01*
G01*
X-9400000Y-132415000D01*
G75*
G02*
X-9250000Y-132565000I0J-150000D01*
G01*
X-9250000Y-132865000D01*
G75*
G02*
X-9400000Y-133015000I-150000J0D01*
G01*
X-11050000Y-133015000D01*
G75*
G02*
X-11200000Y-132865000I0J150000D01*
G01*
G37*
G36*
G01*
X-11200000Y-134135000D02*
X-11200000Y-133835000D01*
G75*
G02*
X-11050000Y-133685000I150000J0D01*
G01*
X-9400000Y-133685000D01*
G75*
G02*
X-9250000Y-133835000I0J-150000D01*
G01*
X-9250000Y-134135000D01*
G75*
G02*
X-9400000Y-134285000I-150000J0D01*
G01*
X-11050000Y-134285000D01*
G75*
G02*
X-11200000Y-134135000I0J150000D01*
G01*
G37*
G36*
G01*
X-11200000Y-135405000D02*
X-11200000Y-135105000D01*
G75*
G02*
X-11050000Y-134955000I150000J0D01*
G01*
X-9400000Y-134955000D01*
G75*
G02*
X-9250000Y-135105000I0J-150000D01*
G01*
X-9250000Y-135405000D01*
G75*
G02*
X-9400000Y-135555000I-150000J0D01*
G01*
X-11050000Y-135555000D01*
G75*
G02*
X-11200000Y-135405000I0J150000D01*
G01*
G37*
G36*
G01*
X-11200000Y-136675000D02*
X-11200000Y-136375000D01*
G75*
G02*
X-11050000Y-136225000I150000J0D01*
G01*
X-9400000Y-136225000D01*
G75*
G02*
X-9250000Y-136375000I0J-150000D01*
G01*
X-9250000Y-136675000D01*
G75*
G02*
X-9400000Y-136825000I-150000J0D01*
G01*
X-11050000Y-136825000D01*
G75*
G02*
X-11200000Y-136675000I0J150000D01*
G01*
G37*
G36*
G01*
X-11200000Y-137945000D02*
X-11200000Y-137645000D01*
G75*
G02*
X-11050000Y-137495000I150000J0D01*
G01*
X-9400000Y-137495000D01*
G75*
G02*
X-9250000Y-137645000I0J-150000D01*
G01*
X-9250000Y-137945000D01*
G75*
G02*
X-9400000Y-138095000I-150000J0D01*
G01*
X-11050000Y-138095000D01*
G75*
G02*
X-11200000Y-137945000I0J150000D01*
G01*
G37*
G36*
G01*
X-16150000Y-137945000D02*
X-16150000Y-137645000D01*
G75*
G02*
X-16000000Y-137495000I150000J0D01*
G01*
X-14350000Y-137495000D01*
G75*
G02*
X-14200000Y-137645000I0J-150000D01*
G01*
X-14200000Y-137945000D01*
G75*
G02*
X-14350000Y-138095000I-150000J0D01*
G01*
X-16000000Y-138095000D01*
G75*
G02*
X-16150000Y-137945000I0J150000D01*
G01*
G37*
G36*
G01*
X-16150000Y-136675000D02*
X-16150000Y-136375000D01*
G75*
G02*
X-16000000Y-136225000I150000J0D01*
G01*
X-14350000Y-136225000D01*
G75*
G02*
X-14200000Y-136375000I0J-150000D01*
G01*
X-14200000Y-136675000D01*
G75*
G02*
X-14350000Y-136825000I-150000J0D01*
G01*
X-16000000Y-136825000D01*
G75*
G02*
X-16150000Y-136675000I0J150000D01*
G01*
G37*
G36*
G01*
X-16150000Y-135405000D02*
X-16150000Y-135105000D01*
G75*
G02*
X-16000000Y-134955000I150000J0D01*
G01*
X-14350000Y-134955000D01*
G75*
G02*
X-14200000Y-135105000I0J-150000D01*
G01*
X-14200000Y-135405000D01*
G75*
G02*
X-14350000Y-135555000I-150000J0D01*
G01*
X-16000000Y-135555000D01*
G75*
G02*
X-16150000Y-135405000I0J150000D01*
G01*
G37*
G36*
G01*
X-16150000Y-134135000D02*
X-16150000Y-133835000D01*
G75*
G02*
X-16000000Y-133685000I150000J0D01*
G01*
X-14350000Y-133685000D01*
G75*
G02*
X-14200000Y-133835000I0J-150000D01*
G01*
X-14200000Y-134135000D01*
G75*
G02*
X-14350000Y-134285000I-150000J0D01*
G01*
X-16000000Y-134285000D01*
G75*
G02*
X-16150000Y-134135000I0J150000D01*
G01*
G37*
G36*
G01*
X-16150000Y-132865000D02*
X-16150000Y-132565000D01*
G75*
G02*
X-16000000Y-132415000I150000J0D01*
G01*
X-14350000Y-132415000D01*
G75*
G02*
X-14200000Y-132565000I0J-150000D01*
G01*
X-14200000Y-132865000D01*
G75*
G02*
X-14350000Y-133015000I-150000J0D01*
G01*
X-16000000Y-133015000D01*
G75*
G02*
X-16150000Y-132865000I0J150000D01*
G01*
G37*
G36*
G01*
X-16150000Y-131595000D02*
X-16150000Y-131295000D01*
G75*
G02*
X-16000000Y-131145000I150000J0D01*
G01*
X-14350000Y-131145000D01*
G75*
G02*
X-14200000Y-131295000I0J-150000D01*
G01*
X-14200000Y-131595000D01*
G75*
G02*
X-14350000Y-131745000I-150000J0D01*
G01*
X-16000000Y-131745000D01*
G75*
G02*
X-16150000Y-131595000I0J150000D01*
G01*
G37*
G36*
G01*
X-16150000Y-130325000D02*
X-16150000Y-130025000D01*
G75*
G02*
X-16000000Y-129875000I150000J0D01*
G01*
X-14350000Y-129875000D01*
G75*
G02*
X-14200000Y-130025000I0J-150000D01*
G01*
X-14200000Y-130325000D01*
G75*
G02*
X-14350000Y-130475000I-150000J0D01*
G01*
X-16000000Y-130475000D01*
G75*
G02*
X-16150000Y-130325000I0J150000D01*
G01*
G37*
G36*
G01*
X-16150000Y-129055000D02*
X-16150000Y-128755000D01*
G75*
G02*
X-16000000Y-128605000I150000J0D01*
G01*
X-14350000Y-128605000D01*
G75*
G02*
X-14200000Y-128755000I0J-150000D01*
G01*
X-14200000Y-129055000D01*
G75*
G02*
X-14350000Y-129205000I-150000J0D01*
G01*
X-16000000Y-129205000D01*
G75*
G02*
X-16150000Y-129055000I0J150000D01*
G01*
G37*
G36*
G01*
X98330000Y-127250000D02*
X98330000Y-126750000D01*
G75*
G02*
X98555000Y-126525000I225000J0D01*
G01*
X99005000Y-126525000D01*
G75*
G02*
X99230000Y-126750000I0J-225000D01*
G01*
X99230000Y-127250000D01*
G75*
G02*
X99005000Y-127475000I-225000J0D01*
G01*
X98555000Y-127475000D01*
G75*
G02*
X98330000Y-127250000I0J225000D01*
G01*
G37*
G36*
G01*
X99880000Y-127250000D02*
X99880000Y-126750000D01*
G75*
G02*
X100105000Y-126525000I225000J0D01*
G01*
X100555000Y-126525000D01*
G75*
G02*
X100780000Y-126750000I0J-225000D01*
G01*
X100780000Y-127250000D01*
G75*
G02*
X100555000Y-127475000I-225000J0D01*
G01*
X100105000Y-127475000D01*
G75*
G02*
X99880000Y-127250000I0J225000D01*
G01*
G37*
G36*
G01*
X210090000Y-127250000D02*
X210090000Y-126750000D01*
G75*
G02*
X210315000Y-126525000I225000J0D01*
G01*
X210765000Y-126525000D01*
G75*
G02*
X210990000Y-126750000I0J-225000D01*
G01*
X210990000Y-127250000D01*
G75*
G02*
X210765000Y-127475000I-225000J0D01*
G01*
X210315000Y-127475000D01*
G75*
G02*
X210090000Y-127250000I0J225000D01*
G01*
G37*
G36*
G01*
X211640000Y-127250000D02*
X211640000Y-126750000D01*
G75*
G02*
X211865000Y-126525000I225000J0D01*
G01*
X212315000Y-126525000D01*
G75*
G02*
X212540000Y-126750000I0J-225000D01*
G01*
X212540000Y-127250000D01*
G75*
G02*
X212315000Y-127475000I-225000J0D01*
G01*
X211865000Y-127475000D01*
G75*
G02*
X211640000Y-127250000I0J225000D01*
G01*
G37*
G36*
G01*
X-13430000Y-127250000D02*
X-13430000Y-126750000D01*
G75*
G02*
X-13205000Y-126525000I225000J0D01*
G01*
X-12755000Y-126525000D01*
G75*
G02*
X-12530000Y-126750000I0J-225000D01*
G01*
X-12530000Y-127250000D01*
G75*
G02*
X-12755000Y-127475000I-225000J0D01*
G01*
X-13205000Y-127475000D01*
G75*
G02*
X-13430000Y-127250000I0J225000D01*
G01*
G37*
G36*
G01*
X-11880000Y-127250000D02*
X-11880000Y-126750000D01*
G75*
G02*
X-11655000Y-126525000I225000J0D01*
G01*
X-11205000Y-126525000D01*
G75*
G02*
X-10980000Y-126750000I0J-225000D01*
G01*
X-10980000Y-127250000D01*
G75*
G02*
X-11205000Y-127475000I-225000J0D01*
G01*
X-11655000Y-127475000D01*
G75*
G02*
X-11880000Y-127250000I0J225000D01*
G01*
G37*
G36*
G01*
X212320000Y-129055000D02*
X212320000Y-128755000D01*
G75*
G02*
X212470000Y-128605000I150000J0D01*
G01*
X214120000Y-128605000D01*
G75*
G02*
X214270000Y-128755000I0J-150000D01*
G01*
X214270000Y-129055000D01*
G75*
G02*
X214120000Y-129205000I-150000J0D01*
G01*
X212470000Y-129205000D01*
G75*
G02*
X212320000Y-129055000I0J150000D01*
G01*
G37*
G36*
G01*
X212320000Y-130325000D02*
X212320000Y-130025000D01*
G75*
G02*
X212470000Y-129875000I150000J0D01*
G01*
X214120000Y-129875000D01*
G75*
G02*
X214270000Y-130025000I0J-150000D01*
G01*
X214270000Y-130325000D01*
G75*
G02*
X214120000Y-130475000I-150000J0D01*
G01*
X212470000Y-130475000D01*
G75*
G02*
X212320000Y-130325000I0J150000D01*
G01*
G37*
G36*
G01*
X212320000Y-131595000D02*
X212320000Y-131295000D01*
G75*
G02*
X212470000Y-131145000I150000J0D01*
G01*
X214120000Y-131145000D01*
G75*
G02*
X214270000Y-131295000I0J-150000D01*
G01*
X214270000Y-131595000D01*
G75*
G02*
X214120000Y-131745000I-150000J0D01*
G01*
X212470000Y-131745000D01*
G75*
G02*
X212320000Y-131595000I0J150000D01*
G01*
G37*
G36*
G01*
X212320000Y-132865000D02*
X212320000Y-132565000D01*
G75*
G02*
X212470000Y-132415000I150000J0D01*
G01*
X214120000Y-132415000D01*
G75*
G02*
X214270000Y-132565000I0J-150000D01*
G01*
X214270000Y-132865000D01*
G75*
G02*
X214120000Y-133015000I-150000J0D01*
G01*
X212470000Y-133015000D01*
G75*
G02*
X212320000Y-132865000I0J150000D01*
G01*
G37*
G36*
G01*
X212320000Y-134135000D02*
X212320000Y-133835000D01*
G75*
G02*
X212470000Y-133685000I150000J0D01*
G01*
X214120000Y-133685000D01*
G75*
G02*
X214270000Y-133835000I0J-150000D01*
G01*
X214270000Y-134135000D01*
G75*
G02*
X214120000Y-134285000I-150000J0D01*
G01*
X212470000Y-134285000D01*
G75*
G02*
X212320000Y-134135000I0J150000D01*
G01*
G37*
G36*
G01*
X212320000Y-135405000D02*
X212320000Y-135105000D01*
G75*
G02*
X212470000Y-134955000I150000J0D01*
G01*
X214120000Y-134955000D01*
G75*
G02*
X214270000Y-135105000I0J-150000D01*
G01*
X214270000Y-135405000D01*
G75*
G02*
X214120000Y-135555000I-150000J0D01*
G01*
X212470000Y-135555000D01*
G75*
G02*
X212320000Y-135405000I0J150000D01*
G01*
G37*
G36*
G01*
X212320000Y-136675000D02*
X212320000Y-136375000D01*
G75*
G02*
X212470000Y-136225000I150000J0D01*
G01*
X214120000Y-136225000D01*
G75*
G02*
X214270000Y-136375000I0J-150000D01*
G01*
X214270000Y-136675000D01*
G75*
G02*
X214120000Y-136825000I-150000J0D01*
G01*
X212470000Y-136825000D01*
G75*
G02*
X212320000Y-136675000I0J150000D01*
G01*
G37*
G36*
G01*
X212320000Y-137945000D02*
X212320000Y-137645000D01*
G75*
G02*
X212470000Y-137495000I150000J0D01*
G01*
X214120000Y-137495000D01*
G75*
G02*
X214270000Y-137645000I0J-150000D01*
G01*
X214270000Y-137945000D01*
G75*
G02*
X214120000Y-138095000I-150000J0D01*
G01*
X212470000Y-138095000D01*
G75*
G02*
X212320000Y-137945000I0J150000D01*
G01*
G37*
G36*
G01*
X207370000Y-137945000D02*
X207370000Y-137645000D01*
G75*
G02*
X207520000Y-137495000I150000J0D01*
G01*
X209170000Y-137495000D01*
G75*
G02*
X209320000Y-137645000I0J-150000D01*
G01*
X209320000Y-137945000D01*
G75*
G02*
X209170000Y-138095000I-150000J0D01*
G01*
X207520000Y-138095000D01*
G75*
G02*
X207370000Y-137945000I0J150000D01*
G01*
G37*
G36*
G01*
X207370000Y-136675000D02*
X207370000Y-136375000D01*
G75*
G02*
X207520000Y-136225000I150000J0D01*
G01*
X209170000Y-136225000D01*
G75*
G02*
X209320000Y-136375000I0J-150000D01*
G01*
X209320000Y-136675000D01*
G75*
G02*
X209170000Y-136825000I-150000J0D01*
G01*
X207520000Y-136825000D01*
G75*
G02*
X207370000Y-136675000I0J150000D01*
G01*
G37*
G36*
G01*
X207370000Y-135405000D02*
X207370000Y-135105000D01*
G75*
G02*
X207520000Y-134955000I150000J0D01*
G01*
X209170000Y-134955000D01*
G75*
G02*
X209320000Y-135105000I0J-150000D01*
G01*
X209320000Y-135405000D01*
G75*
G02*
X209170000Y-135555000I-150000J0D01*
G01*
X207520000Y-135555000D01*
G75*
G02*
X207370000Y-135405000I0J150000D01*
G01*
G37*
G36*
G01*
X207370000Y-134135000D02*
X207370000Y-133835000D01*
G75*
G02*
X207520000Y-133685000I150000J0D01*
G01*
X209170000Y-133685000D01*
G75*
G02*
X209320000Y-133835000I0J-150000D01*
G01*
X209320000Y-134135000D01*
G75*
G02*
X209170000Y-134285000I-150000J0D01*
G01*
X207520000Y-134285000D01*
G75*
G02*
X207370000Y-134135000I0J150000D01*
G01*
G37*
G36*
G01*
X207370000Y-132865000D02*
X207370000Y-132565000D01*
G75*
G02*
X207520000Y-132415000I150000J0D01*
G01*
X209170000Y-132415000D01*
G75*
G02*
X209320000Y-132565000I0J-150000D01*
G01*
X209320000Y-132865000D01*
G75*
G02*
X209170000Y-133015000I-150000J0D01*
G01*
X207520000Y-133015000D01*
G75*
G02*
X207370000Y-132865000I0J150000D01*
G01*
G37*
G36*
G01*
X207370000Y-131595000D02*
X207370000Y-131295000D01*
G75*
G02*
X207520000Y-131145000I150000J0D01*
G01*
X209170000Y-131145000D01*
G75*
G02*
X209320000Y-131295000I0J-150000D01*
G01*
X209320000Y-131595000D01*
G75*
G02*
X209170000Y-131745000I-150000J0D01*
G01*
X207520000Y-131745000D01*
G75*
G02*
X207370000Y-131595000I0J150000D01*
G01*
G37*
G36*
G01*
X207370000Y-130325000D02*
X207370000Y-130025000D01*
G75*
G02*
X207520000Y-129875000I150000J0D01*
G01*
X209170000Y-129875000D01*
G75*
G02*
X209320000Y-130025000I0J-150000D01*
G01*
X209320000Y-130325000D01*
G75*
G02*
X209170000Y-130475000I-150000J0D01*
G01*
X207520000Y-130475000D01*
G75*
G02*
X207370000Y-130325000I0J150000D01*
G01*
G37*
G36*
G01*
X207370000Y-129055000D02*
X207370000Y-128755000D01*
G75*
G02*
X207520000Y-128605000I150000J0D01*
G01*
X209170000Y-128605000D01*
G75*
G02*
X209320000Y-128755000I0J-150000D01*
G01*
X209320000Y-129055000D01*
G75*
G02*
X209170000Y-129205000I-150000J0D01*
G01*
X207520000Y-129205000D01*
G75*
G02*
X207370000Y-129055000I0J150000D01*
G01*
G37*
G36*
G01*
X93705000Y-136505000D02*
X94255000Y-136505000D01*
G75*
G02*
X94455000Y-136705000I0J-200000D01*
G01*
X94455000Y-137105000D01*
G75*
G02*
X94255000Y-137305000I-200000J0D01*
G01*
X93705000Y-137305000D01*
G75*
G02*
X93505000Y-137105000I0J200000D01*
G01*
X93505000Y-136705000D01*
G75*
G02*
X93705000Y-136505000I200000J0D01*
G01*
G37*
G36*
G01*
X93705000Y-134855000D02*
X94255000Y-134855000D01*
G75*
G02*
X94455000Y-135055000I0J-200000D01*
G01*
X94455000Y-135455000D01*
G75*
G02*
X94255000Y-135655000I-200000J0D01*
G01*
X93705000Y-135655000D01*
G75*
G02*
X93505000Y-135455000I0J200000D01*
G01*
X93505000Y-135055000D01*
G75*
G02*
X93705000Y-134855000I200000J0D01*
G01*
G37*
G36*
G01*
X205465000Y-136505000D02*
X206015000Y-136505000D01*
G75*
G02*
X206215000Y-136705000I0J-200000D01*
G01*
X206215000Y-137105000D01*
G75*
G02*
X206015000Y-137305000I-200000J0D01*
G01*
X205465000Y-137305000D01*
G75*
G02*
X205265000Y-137105000I0J200000D01*
G01*
X205265000Y-136705000D01*
G75*
G02*
X205465000Y-136505000I200000J0D01*
G01*
G37*
G36*
G01*
X205465000Y-134855000D02*
X206015000Y-134855000D01*
G75*
G02*
X206215000Y-135055000I0J-200000D01*
G01*
X206215000Y-135455000D01*
G75*
G02*
X206015000Y-135655000I-200000J0D01*
G01*
X205465000Y-135655000D01*
G75*
G02*
X205265000Y-135455000I0J200000D01*
G01*
X205265000Y-135055000D01*
G75*
G02*
X205465000Y-134855000I200000J0D01*
G01*
G37*
G36*
G01*
X317225000Y-136505000D02*
X317775000Y-136505000D01*
G75*
G02*
X317975000Y-136705000I0J-200000D01*
G01*
X317975000Y-137105000D01*
G75*
G02*
X317775000Y-137305000I-200000J0D01*
G01*
X317225000Y-137305000D01*
G75*
G02*
X317025000Y-137105000I0J200000D01*
G01*
X317025000Y-136705000D01*
G75*
G02*
X317225000Y-136505000I200000J0D01*
G01*
G37*
G36*
G01*
X317225000Y-134855000D02*
X317775000Y-134855000D01*
G75*
G02*
X317975000Y-135055000I0J-200000D01*
G01*
X317975000Y-135455000D01*
G75*
G02*
X317775000Y-135655000I-200000J0D01*
G01*
X317225000Y-135655000D01*
G75*
G02*
X317025000Y-135455000I0J200000D01*
G01*
X317025000Y-135055000D01*
G75*
G02*
X317225000Y-134855000I200000J0D01*
G01*
G37*
M02*
