M48
; DRILL file {KiCad (5.1.7)-1} date 02/27/21 15:40:25
; FORMAT={-:-/ absolute / inch / decimal}
; #@! TF.CreationDate,2021-02-27T15:40:25-05:00
; #@! TF.GenerationSoftware,Kicad,Pcbnew,(5.1.7)-1
; #@! TF.FileFunction,Plated,1,2,PTH
FMAT,2
INCH
T1C0.0157
T2C0.0236
T3C0.0295
T4C0.0394
T5C0.0433
%
G90
G05
T1
X-3.575Y-5.825
X-3.525Y-4.65
X-3.525Y-4.725
X-3.45Y-4.575
X-3.45Y-4.625
X-3.4Y-4.525
X-3.125Y-4.6
X-2.875Y-5.575
X-2.7795Y-4.8858
X-2.6181Y-4.5866
X-2.4409Y-4.3898
X-2.1457Y-5.0591
X-1.9291Y-2.7559
X-1.3386Y-4.3898
X-1.05Y-5.5
X-0.9252Y-5.315
X-0.9Y-5.5
X-0.8268Y-2.7559
X-0.675Y-5.075
X-0.675Y-5.125
X-0.675Y-5.2
X-0.675Y-5.25
X-0.5906Y-5.0
X-0.525Y-5.225
X-0.325Y-5.125
X-0.325Y-5.175
X-0.325Y-5.225
X-0.3Y-5.27
X-0.2362Y-4.3898
X-0.0197Y-5.315
X0.2756Y-2.7559
X0.8661Y-4.3898
X1.2402Y-6.1024
X1.2992Y-5.0591
X1.378Y-2.7559
X1.7913Y-4.5866
X1.9685Y-4.3898
X2.2638Y-5.0591
X2.4803Y-2.7559
X3.0709Y-4.3898
X3.3071Y-5.315
X3.55Y-5.35
X3.575Y-5.4
X3.5827Y-2.7559
X3.6Y-5.45
X3.725Y-5.075
X3.725Y-5.125
X3.725Y-5.2
X3.725Y-5.25
X3.8189Y-5.0
X3.875Y-5.225
X3.925Y-5.35
X3.925Y-5.4
X3.925Y-5.45
X4.075Y-5.125
X4.075Y-5.175
X4.075Y-5.225
X4.1Y-5.27
X4.1732Y-4.3898
X4.3898Y-5.315
X4.675Y-0.8
X4.685Y-2.7559
X4.7268Y-0.8268
X4.7638Y-6.063
X4.9089Y-0.8661
X5.025Y-5.85
X5.075Y-0.525
X5.2756Y-4.3898
X5.3543Y-0.8661
X5.375Y-5.35
X5.67Y-5.04
X5.7375Y-0.9375
X5.7583Y-0.5149
X5.7874Y-2.7559
X5.8098Y-0.7783
X5.825Y-0.9
X5.8433Y-0.7449
X5.875Y-5.175
X5.9Y-5.125
X5.925Y-5.4
X6.0173Y-0.5118
X6.05Y-5.125
X6.1Y-5.175
X6.2008Y-4.5866
X6.3583Y-0.2756
X6.378Y-4.3898
X6.475Y-5.6
X6.475Y-5.7
X6.525Y-0.7
X6.5945Y-0.4528
X6.625Y-5.45
X6.625Y-5.55
X6.6732Y-5.0394
X6.8898Y-2.7559
X6.8898Y-6.063
X7.4803Y-4.3898
X7.7165Y-5.315
X7.925Y-5.35
X7.95Y-5.4
X7.975Y-5.45
X7.9921Y-2.7559
X8.125Y-5.075
X8.125Y-5.125
X8.125Y-5.2
X8.125Y-5.25
X8.2087Y-5.0
X8.275Y-5.225
X8.325Y-5.35
X8.325Y-5.4
X8.325Y-5.45
X8.475Y-5.125
X8.475Y-5.175
X8.475Y-5.225
X8.5Y-5.275
X8.5827Y-4.3898
X8.7992Y-5.315
X9.0945Y-2.7559
X9.685Y-4.3898
X10.1181Y-5.0591
X10.1969Y-2.7559
X10.6102Y-4.5866
X10.7874Y-4.3898
X10.9843Y-6.1024
X11.0827Y-5.0591
X11.2992Y-2.7559
X11.8898Y-4.3898
X12.126Y-5.315
X12.325Y-5.35
X12.35Y-5.4
X12.375Y-5.45
X12.4016Y-2.7559
X12.525Y-5.075
X12.525Y-5.125
X12.525Y-5.2
X12.525Y-5.25
X12.6181Y-5.0
X12.675Y-5.225
X12.725Y-5.35
X12.725Y-5.4
X12.725Y-5.45
X12.875Y-5.125
X12.875Y-5.175
X12.875Y-5.225
X12.9Y-5.275
X12.9921Y-4.3898
X13.189Y-5.315
X13.5039Y-2.7559
X13.9961Y-5.4921
X14.0945Y-4.3898
X14.4882Y-5.0394
X14.6063Y-2.7559
X14.6735Y-4.8689
X14.8Y-5.8
X15.025Y-4.6
X15.1181Y-4.9016
X15.125Y-4.45
X15.175Y-4.5
X15.2Y-5.85
X5.7094Y-0.3839
X5.7094Y-0.437
X5.7429Y-0.3839
X5.7429Y-0.437
X5.7764Y-0.3839
X5.7764Y-0.437
X5.8098Y-0.3839
X5.8098Y-0.437
X5.8433Y-0.3839
X5.8433Y-0.437
X5.8768Y-0.3839
X5.8768Y-0.437
X5.9102Y-0.3839
X5.9102Y-0.437
X5.9437Y-0.3839
X5.9437Y-0.437
T3
X15.0197Y-5.1181
X15.0197Y-5.1969
X15.0197Y-5.2756
X15.0197Y-5.3543
X15.0197Y-5.4331
X15.0197Y-5.5118
X15.0197Y-5.5906
X15.0197Y-5.6693
X15.0197Y-5.748
X15.0197Y-4.6654
X15.0197Y-4.7441
X15.0197Y-4.8228
X15.0197Y-4.9016
X-3.3661Y-5.1181
X-3.3661Y-5.1969
X-3.3661Y-5.2756
X-3.3661Y-5.3543
X-3.3661Y-5.4331
X-3.3661Y-5.5118
X-3.3661Y-5.5906
X-3.3661Y-5.6693
X-3.3661Y-5.748
X-3.3661Y-4.6654
X-3.3661Y-4.7441
X-3.3661Y-4.8228
X-3.3661Y-4.9016
T4
X14.5736Y-4.9803
X14.6736Y-4.9803
X14.7736Y-4.9803
X14.5Y-0.7125
X14.5Y-0.8125
X14.6Y-0.7125
X14.6Y-0.8125
X14.7Y-0.7125
X14.7Y-0.8125
X14.8Y-0.7125
X14.8Y-0.8125
X14.9Y-0.7125
X14.9Y-0.8125
X-3.1201Y-4.9803
X-3.0201Y-4.9803
X-2.9201Y-4.9803
X5.0394Y-5.5
X5.0394Y-5.6
T5
X5.25Y-5.25
X5.25Y-5.85
X5.35Y-5.25
X5.35Y-5.45
X5.35Y-5.55
X5.35Y-5.75
X5.35Y-5.85
X5.45Y-5.25
X5.45Y-5.85
X5.55Y-5.25
X5.55Y-5.75
X5.55Y-5.85
X5.65Y-5.25
X5.65Y-5.75
X5.65Y-5.85
X5.75Y-5.25
X5.75Y-5.75
X5.75Y-5.85
X5.85Y-5.25
X5.85Y-5.85
X5.95Y-5.25
X5.95Y-5.85
X6.05Y-5.25
X6.05Y-5.85
X6.15Y-5.25
X6.15Y-5.85
X6.25Y-5.25
X6.25Y-5.85
X6.35Y-5.25
X6.35Y-5.85
X6.45Y-5.25
X6.45Y-5.85
X6.55Y-5.25
X6.55Y-5.35
X6.55Y-5.45
X6.55Y-5.55
X6.55Y-5.65
X6.55Y-5.75
X6.55Y-5.85
T2
G00X5.6563Y-0.2496
M15
G01X5.6563Y-0.2811
M16
G05
G00X5.6563Y-0.3689
M15
G01X5.6563Y-0.428
M16
G05
G00X5.9969Y-0.2496
M15
G01X5.9969Y-0.2811
M16
G05
G00X5.9969Y-0.3689
M15
G01X5.9969Y-0.428
M16
G05
T4
G00X5.2144Y-0.4016
M15
G01X5.1356Y-0.4016
M16
G05
G00X5.2144Y-0.6378
M15
G01X5.1356Y-0.6378
M16
G05
G00X5.36Y-0.4803
M15
G01X5.36Y-0.5591
M16
G05
T0
M30
