M48
; DRILL file {KiCad (5.1.9)-1} date 03/11/21 22:20:55
; FORMAT={-:-/ absolute / inch / decimal}
; #@! TF.CreationDate,2021-03-11T22:20:55-06:00
; #@! TF.GenerationSoftware,Kicad,Pcbnew,(5.1.9)-1
FMAT,2
INCH
T1C0.0295
T2C0.1260
%
G90
G05
T1
X2.6284Y-1.8506
X2.6284Y-1.9294
X2.6284Y-2.0081
X2.6284Y-2.0869
X2.6316Y-2.3359
X2.6316Y-2.4147
X2.6316Y-2.4934
X2.6316Y-2.5722
X2.6316Y-2.6509
X2.6316Y-2.7296
X2.6316Y-2.8084
X2.6316Y-2.8871
X2.6316Y-2.9659
X3.2374Y-1.8504
X3.2374Y-1.9291
X3.2374Y-2.0079
X3.2374Y-2.0866
X3.2378Y-2.3362
X3.2378Y-2.415
X3.2378Y-2.4937
X3.2378Y-2.5724
X3.2378Y-2.6512
X3.2378Y-2.7299
X3.2378Y-2.8087
X3.2378Y-2.8874
X3.2378Y-2.9661
T2
X2.9079Y-2.8654
X2.9087Y-1.961
T0
M30
