%TF.GenerationSoftware,KiCad,Pcbnew,(5.1.9)-1*%
%TF.CreationDate,2021-03-11T22:21:03-06:00*%
%TF.ProjectId,OpeNITHM-Tower-Extenders__Left-Tower,4f70654e-4954-4484-9d2d-546f7765722d,rev?*%
%TF.SameCoordinates,Original*%
%TF.FileFunction,Copper,L1,Top*%
%TF.FilePolarity,Positive*%
%FSLAX46Y46*%
G04 Gerber Fmt 4.6, Leading zero omitted, Abs format (unit mm)*
G04 Created by KiCad (PCBNEW (5.1.9)-1) date 2021-03-11 22:21:03*
%MOMM*%
%LPD*%
G01*
G04 APERTURE LIST*
%TA.AperFunction,ComponentPad*%
%ADD10O,1.750000X1.200000*%
%TD*%
%TA.AperFunction,ComponentPad*%
%ADD11C,5.600000*%
%TD*%
%TA.AperFunction,Conductor*%
%ADD12C,0.508000*%
%TD*%
G04 APERTURE END LIST*
D10*
%TO.P,J4,9*%
%TO.N,Net-(J3-Pad1)*%
X82240000Y-59340000D03*
%TO.P,J4,8*%
%TO.N,Net-(J3-Pad2)*%
X82240000Y-61340000D03*
%TO.P,J4,7*%
%TO.N,Net-(J3-Pad3)*%
X82240000Y-63340000D03*
%TO.P,J4,6*%
%TO.N,Net-(J3-Pad4)*%
X82240000Y-65340000D03*
%TO.P,J4,5*%
%TO.N,Net-(J3-Pad5)*%
X82240000Y-67340000D03*
%TO.P,J4,4*%
%TO.N,Net-(J3-Pad6)*%
X82240000Y-69340000D03*
%TO.P,J4,3*%
%TO.N,Net-(J3-Pad7)*%
X82240000Y-71340000D03*
%TO.P,J4,2*%
%TO.N,Net-(J3-Pad8)*%
X82240000Y-73340000D03*
%TO.P,J4,1*%
%TO.N,Net-(J3-Pad9)*%
%TA.AperFunction,ComponentPad*%
G36*
G01*
X82865001Y-75940000D02*
X81614999Y-75940000D01*
G75*
G02*
X81365000Y-75690001I0J249999D01*
G01*
X81365000Y-74989999D01*
G75*
G02*
X81614999Y-74740000I249999J0D01*
G01*
X82865001Y-74740000D01*
G75*
G02*
X83115000Y-74989999I0J-249999D01*
G01*
X83115000Y-75690001D01*
G75*
G02*
X82865001Y-75940000I-249999J0D01*
G01*
G37*
%TD.AperFunction*%
%TD*%
%TO.P,J2,4*%
%TO.N,Net-(J1-Pad1)*%
X82230000Y-47000000D03*
%TO.P,J2,3*%
%TO.N,Net-(J1-Pad2)*%
X82230000Y-49000000D03*
%TO.P,J2,2*%
%TO.N,Net-(J1-Pad3)*%
X82230000Y-51000000D03*
%TO.P,J2,1*%
%TO.N,Net-(J1-Pad4)*%
%TA.AperFunction,ComponentPad*%
G36*
G01*
X82855001Y-53600000D02*
X81604999Y-53600000D01*
G75*
G02*
X81355000Y-53350001I0J249999D01*
G01*
X81355000Y-52649999D01*
G75*
G02*
X81604999Y-52400000I249999J0D01*
G01*
X82855001Y-52400000D01*
G75*
G02*
X83105000Y-52649999I0J-249999D01*
G01*
X83105000Y-53350001D01*
G75*
G02*
X82855001Y-53600000I-249999J0D01*
G01*
G37*
%TD.AperFunction*%
%TD*%
D11*
%TO.P,H2,1*%
%TO.N,N/C*%
X73860000Y-72780000D03*
%TD*%
%TO.P,H1,1*%
%TO.N,N/C*%
X73880000Y-49810000D03*
%TD*%
D10*
%TO.P,J3,9*%
%TO.N,Net-(J3-Pad9)*%
X66842000Y-75333000D03*
%TO.P,J3,8*%
%TO.N,Net-(J3-Pad8)*%
X66842000Y-73333000D03*
%TO.P,J3,7*%
%TO.N,Net-(J3-Pad7)*%
X66842000Y-71333000D03*
%TO.P,J3,6*%
%TO.N,Net-(J3-Pad6)*%
X66842000Y-69333000D03*
%TO.P,J3,5*%
%TO.N,Net-(J3-Pad5)*%
X66842000Y-67333000D03*
%TO.P,J3,4*%
%TO.N,Net-(J3-Pad4)*%
X66842000Y-65333000D03*
%TO.P,J3,3*%
%TO.N,Net-(J3-Pad3)*%
X66842000Y-63333000D03*
%TO.P,J3,2*%
%TO.N,Net-(J3-Pad2)*%
X66842000Y-61333000D03*
%TO.P,J3,1*%
%TO.N,Net-(J3-Pad1)*%
%TA.AperFunction,ComponentPad*%
G36*
G01*
X66216999Y-58733000D02*
X67467001Y-58733000D01*
G75*
G02*
X67717000Y-58982999I0J-249999D01*
G01*
X67717000Y-59683001D01*
G75*
G02*
X67467001Y-59933000I-249999J0D01*
G01*
X66216999Y-59933000D01*
G75*
G02*
X65967000Y-59683001I0J249999D01*
G01*
X65967000Y-58982999D01*
G75*
G02*
X66216999Y-58733000I249999J0D01*
G01*
G37*
%TD.AperFunction*%
%TD*%
%TO.P,J1,4*%
%TO.N,Net-(J1-Pad4)*%
X66762000Y-53006000D03*
%TO.P,J1,3*%
%TO.N,Net-(J1-Pad3)*%
X66762000Y-51006000D03*
%TO.P,J1,2*%
%TO.N,Net-(J1-Pad2)*%
X66762000Y-49006000D03*
%TO.P,J1,1*%
%TO.N,Net-(J1-Pad1)*%
%TA.AperFunction,ComponentPad*%
G36*
G01*
X66136999Y-46406000D02*
X67387001Y-46406000D01*
G75*
G02*
X67637000Y-46655999I0J-249999D01*
G01*
X67637000Y-47356001D01*
G75*
G02*
X67387001Y-47606000I-249999J0D01*
G01*
X66136999Y-47606000D01*
G75*
G02*
X65887000Y-47356001I0J249999D01*
G01*
X65887000Y-46655999D01*
G75*
G02*
X66136999Y-46406000I249999J0D01*
G01*
G37*
%TD.AperFunction*%
%TD*%
D12*
%TO.N,Net-(J1-Pad4)*%
X66762000Y-53006000D02*
X66776000Y-53006000D01*
X66776000Y-53006000D02*
X68260000Y-54490000D01*
X80740000Y-54490000D02*
X82230000Y-53000000D01*
X68260000Y-54490000D02*
X80740000Y-54490000D01*
%TO.N,Net-(J1-Pad3)*%
X83270000Y-51000000D02*
X82230000Y-51000000D01*
X84160000Y-51890000D02*
X83270000Y-51000000D01*
X82960000Y-55790000D02*
X84160000Y-54590000D01*
X67060000Y-55790000D02*
X82960000Y-55790000D01*
X65060000Y-53790000D02*
X67060000Y-55790000D01*
X65060000Y-52090000D02*
X65060000Y-53790000D01*
X66144000Y-51006000D02*
X65060000Y-52090000D01*
X84160000Y-54590000D02*
X84160000Y-51890000D01*
X66762000Y-51006000D02*
X66144000Y-51006000D01*
%TO.N,Net-(J1-Pad2)*%
X83850000Y-49000000D02*
X82230000Y-49000000D01*
X84160000Y-48690000D02*
X83850000Y-49000000D01*
X65660000Y-44890000D02*
X83160000Y-44890000D01*
X64560000Y-45990000D02*
X65660000Y-44890000D01*
X84160000Y-45890000D02*
X84160000Y-48690000D01*
X64560000Y-47890000D02*
X64560000Y-45990000D01*
X83160000Y-44890000D02*
X84160000Y-45890000D01*
X65676000Y-49006000D02*
X64560000Y-47890000D01*
X66762000Y-49006000D02*
X65676000Y-49006000D01*
%TO.N,Net-(J1-Pad1)*%
X66762000Y-47006000D02*
X67778000Y-45990000D01*
X81220000Y-45990000D02*
X82230000Y-47000000D01*
X67778000Y-45990000D02*
X81220000Y-45990000D01*
%TO.N,Net-(J3-Pad8)*%
X84740000Y-76520000D02*
X84740000Y-74420000D01*
X83640000Y-77620000D02*
X84740000Y-76520000D01*
X83660000Y-73340000D02*
X82240000Y-73340000D01*
X65540000Y-77620000D02*
X83640000Y-77620000D01*
X64340000Y-76420000D02*
X65540000Y-77620000D01*
X64340000Y-74520000D02*
X64340000Y-76420000D01*
X84740000Y-74420000D02*
X83660000Y-73340000D01*
X65527000Y-73333000D02*
X64340000Y-74520000D01*
X66842000Y-73333000D02*
X65527000Y-73333000D01*
%TO.N,Net-(J3-Pad7)*%
X66842000Y-71333000D02*
X67927000Y-71333000D01*
X67927000Y-71333000D02*
X70040000Y-69220000D01*
X70040000Y-69220000D02*
X79040000Y-69220000D01*
X81160000Y-71340000D02*
X82240000Y-71340000D01*
X79040000Y-69220000D02*
X81160000Y-71340000D01*
%TO.N,Net-(J3-Pad6)*%
X67927000Y-69333000D02*
X70040000Y-67220000D01*
X66842000Y-69333000D02*
X67927000Y-69333000D01*
X79040000Y-67220000D02*
X81160000Y-69340000D01*
X81160000Y-69340000D02*
X82240000Y-69340000D01*
X70040000Y-67220000D02*
X79040000Y-67220000D01*
%TO.N,Net-(J3-Pad5)*%
X67927000Y-67333000D02*
X70040000Y-65220000D01*
X66842000Y-67333000D02*
X67927000Y-67333000D01*
X79040000Y-65220000D02*
X81160000Y-67340000D01*
X81160000Y-67340000D02*
X82240000Y-67340000D01*
X70040000Y-65220000D02*
X79040000Y-65220000D01*
%TO.N,Net-(J3-Pad4)*%
X67927000Y-65333000D02*
X70040000Y-63220000D01*
X66842000Y-65333000D02*
X67927000Y-65333000D01*
X79040000Y-63220000D02*
X81160000Y-65340000D01*
X81160000Y-65340000D02*
X82240000Y-65340000D01*
X70040000Y-63220000D02*
X79040000Y-63220000D01*
%TO.N,Net-(J3-Pad3)*%
X67927000Y-63333000D02*
X70040000Y-61220000D01*
X66842000Y-63333000D02*
X67927000Y-63333000D01*
X79040000Y-61220000D02*
X81160000Y-63340000D01*
X81160000Y-63340000D02*
X82240000Y-63340000D01*
X70040000Y-61220000D02*
X79040000Y-61220000D01*
%TO.N,Net-(J3-Pad2)*%
X67927000Y-61333000D02*
X70040000Y-59220000D01*
X66842000Y-61333000D02*
X67927000Y-61333000D01*
X79040000Y-59220000D02*
X81160000Y-61340000D01*
X81160000Y-61340000D02*
X82240000Y-61340000D01*
X70040000Y-59220000D02*
X79040000Y-59220000D01*
%TO.N,Net-(J3-Pad1)*%
X67927000Y-59333000D02*
X70040000Y-57220000D01*
X66842000Y-59333000D02*
X67927000Y-59333000D01*
X79040000Y-57220000D02*
X81160000Y-59340000D01*
X81160000Y-59340000D02*
X82240000Y-59340000D01*
X70040000Y-57220000D02*
X79040000Y-57220000D01*
X82233000Y-59333000D02*
X82240000Y-59340000D01*
%TO.N,Net-(J3-Pad9)*%
X66842000Y-75333000D02*
X66853000Y-75333000D01*
X67840000Y-76320000D02*
X70140000Y-76320000D01*
X66853000Y-75333000D02*
X67840000Y-76320000D01*
X69540000Y-76320000D02*
X70140000Y-76320000D01*
X81260000Y-76320000D02*
X82240000Y-75340000D01*
X70140000Y-76320000D02*
X81260000Y-76320000D01*
%TD*%
M02*
