%TF.GenerationSoftware,KiCad,Pcbnew,(5.1.7)-1*%
%TF.CreationDate,2021-02-22T22:43:04-05:00*%
%TF.ProjectId,LEDBoard_Panelize,4c454442-6f61-4726-945f-50616e656c69,rev?*%
%TF.SameCoordinates,Original*%
%TF.FileFunction,Copper,L1,Top*%
%TF.FilePolarity,Positive*%
%FSLAX46Y46*%
G04 Gerber Fmt 4.6, Leading zero omitted, Abs format (unit mm)*
G04 Created by KiCad (PCBNEW (5.1.7)-1) date 2021-02-22 22:43:04*
%MOMM*%
%LPD*%
G01*
G04 APERTURE LIST*
%TA.AperFunction,SMDPad,CuDef*%
%ADD10R,1.500000X0.900000*%
%TD*%
%TA.AperFunction,ComponentPad*%
%ADD11R,1.700000X1.700000*%
%TD*%
%TA.AperFunction,ComponentPad*%
%ADD12O,1.700000X1.700000*%
%TD*%
%TA.AperFunction,ViaPad*%
%ADD13C,0.800000*%
%TD*%
%TA.AperFunction,Conductor*%
%ADD14C,0.508000*%
%TD*%
G04 APERTURE END LIST*
%TO.P,C38,2*%
%TO.N,N/C*%
%TA.AperFunction,SMDPad,CuDef*%
G36*
G01*
X29916666Y-72925000D02*
X29416666Y-72925000D01*
G75*
G02*
X29191666Y-72700000I0J225000D01*
G01*
X29191666Y-72250000D01*
G75*
G02*
X29416666Y-72025000I225000J0D01*
G01*
X29916666Y-72025000D01*
G75*
G02*
X30141666Y-72250000I0J-225000D01*
G01*
X30141666Y-72700000D01*
G75*
G02*
X29916666Y-72925000I-225000J0D01*
G01*
G37*
%TD.AperFunction*%
%TO.P,C38,1*%
%TA.AperFunction,SMDPad,CuDef*%
G36*
G01*
X29916666Y-74475000D02*
X29416666Y-74475000D01*
G75*
G02*
X29191666Y-74250000I0J225000D01*
G01*
X29191666Y-73800000D01*
G75*
G02*
X29416666Y-73575000I225000J0D01*
G01*
X29916666Y-73575000D01*
G75*
G02*
X30141666Y-73800000I0J-225000D01*
G01*
X30141666Y-74250000D01*
G75*
G02*
X29916666Y-74475000I-225000J0D01*
G01*
G37*
%TD.AperFunction*%
%TD*%
%TO.P,C41,2*%
%TO.N,N/C*%
%TA.AperFunction,SMDPad,CuDef*%
G36*
G01*
X1916666Y-72925000D02*
X1416666Y-72925000D01*
G75*
G02*
X1191666Y-72700000I0J225000D01*
G01*
X1191666Y-72250000D01*
G75*
G02*
X1416666Y-72025000I225000J0D01*
G01*
X1916666Y-72025000D01*
G75*
G02*
X2141666Y-72250000I0J-225000D01*
G01*
X2141666Y-72700000D01*
G75*
G02*
X1916666Y-72925000I-225000J0D01*
G01*
G37*
%TD.AperFunction*%
%TO.P,C41,1*%
%TA.AperFunction,SMDPad,CuDef*%
G36*
G01*
X1916666Y-74475000D02*
X1416666Y-74475000D01*
G75*
G02*
X1191666Y-74250000I0J225000D01*
G01*
X1191666Y-73800000D01*
G75*
G02*
X1416666Y-73575000I225000J0D01*
G01*
X1916666Y-73575000D01*
G75*
G02*
X2141666Y-73800000I0J-225000D01*
G01*
X2141666Y-74250000D01*
G75*
G02*
X1916666Y-74475000I-225000J0D01*
G01*
G37*
%TD.AperFunction*%
%TD*%
%TO.P,C47,2*%
%TO.N,N/C*%
%TA.AperFunction,SMDPad,CuDef*%
G36*
G01*
X-54083334Y-72925000D02*
X-54583334Y-72925000D01*
G75*
G02*
X-54808334Y-72700000I0J225000D01*
G01*
X-54808334Y-72250000D01*
G75*
G02*
X-54583334Y-72025000I225000J0D01*
G01*
X-54083334Y-72025000D01*
G75*
G02*
X-53858334Y-72250000I0J-225000D01*
G01*
X-53858334Y-72700000D01*
G75*
G02*
X-54083334Y-72925000I-225000J0D01*
G01*
G37*
%TD.AperFunction*%
%TO.P,C47,1*%
%TA.AperFunction,SMDPad,CuDef*%
G36*
G01*
X-54083334Y-74475000D02*
X-54583334Y-74475000D01*
G75*
G02*
X-54808334Y-74250000I0J225000D01*
G01*
X-54808334Y-73800000D01*
G75*
G02*
X-54583334Y-73575000I225000J0D01*
G01*
X-54083334Y-73575000D01*
G75*
G02*
X-53858334Y-73800000I0J-225000D01*
G01*
X-53858334Y-74250000D01*
G75*
G02*
X-54083334Y-74475000I-225000J0D01*
G01*
G37*
%TD.AperFunction*%
%TD*%
%TO.P,C34,2*%
%TO.N,N/C*%
%TA.AperFunction,SMDPad,CuDef*%
G36*
G01*
X67250000Y-72925000D02*
X66750000Y-72925000D01*
G75*
G02*
X66525000Y-72700000I0J225000D01*
G01*
X66525000Y-72250000D01*
G75*
G02*
X66750000Y-72025000I225000J0D01*
G01*
X67250000Y-72025000D01*
G75*
G02*
X67475000Y-72250000I0J-225000D01*
G01*
X67475000Y-72700000D01*
G75*
G02*
X67250000Y-72925000I-225000J0D01*
G01*
G37*
%TD.AperFunction*%
%TO.P,C34,1*%
%TA.AperFunction,SMDPad,CuDef*%
G36*
G01*
X67250000Y-74475000D02*
X66750000Y-74475000D01*
G75*
G02*
X66525000Y-74250000I0J225000D01*
G01*
X66525000Y-73800000D01*
G75*
G02*
X66750000Y-73575000I225000J0D01*
G01*
X67250000Y-73575000D01*
G75*
G02*
X67475000Y-73800000I0J-225000D01*
G01*
X67475000Y-74250000D01*
G75*
G02*
X67250000Y-74475000I-225000J0D01*
G01*
G37*
%TD.AperFunction*%
%TD*%
%TO.P,C5,1*%
%TO.N,N/C*%
%TA.AperFunction,SMDPad,CuDef*%
G36*
G01*
X337916666Y-74475000D02*
X337416666Y-74475000D01*
G75*
G02*
X337191666Y-74250000I0J225000D01*
G01*
X337191666Y-73800000D01*
G75*
G02*
X337416666Y-73575000I225000J0D01*
G01*
X337916666Y-73575000D01*
G75*
G02*
X338141666Y-73800000I0J-225000D01*
G01*
X338141666Y-74250000D01*
G75*
G02*
X337916666Y-74475000I-225000J0D01*
G01*
G37*
%TD.AperFunction*%
%TO.P,C5,2*%
%TA.AperFunction,SMDPad,CuDef*%
G36*
G01*
X337916666Y-72925000D02*
X337416666Y-72925000D01*
G75*
G02*
X337191666Y-72700000I0J225000D01*
G01*
X337191666Y-72250000D01*
G75*
G02*
X337416666Y-72025000I225000J0D01*
G01*
X337916666Y-72025000D01*
G75*
G02*
X338141666Y-72250000I0J-225000D01*
G01*
X338141666Y-72700000D01*
G75*
G02*
X337916666Y-72925000I-225000J0D01*
G01*
G37*
%TD.AperFunction*%
%TD*%
D10*
%TO.P,D1,1*%
%TO.N,N/C*%
X340626666Y-72360000D03*
%TO.P,D1,2*%
X340626666Y-74140000D03*
%TO.P,D1,4*%
X343706666Y-72360000D03*
%TO.P,D1,3*%
X343706666Y-74140000D03*
%TD*%
%TO.P,D3,1*%
%TO.N,N/C*%
X321960000Y-72360000D03*
%TO.P,D3,2*%
X321960000Y-74140000D03*
%TO.P,D3,4*%
X325040000Y-72360000D03*
%TO.P,D3,3*%
X325040000Y-74140000D03*
%TD*%
%TO.P,C44,2*%
%TO.N,N/C*%
%TA.AperFunction,SMDPad,CuDef*%
G36*
G01*
X-26083334Y-72925000D02*
X-26583334Y-72925000D01*
G75*
G02*
X-26808334Y-72700000I0J225000D01*
G01*
X-26808334Y-72250000D01*
G75*
G02*
X-26583334Y-72025000I225000J0D01*
G01*
X-26083334Y-72025000D01*
G75*
G02*
X-25858334Y-72250000I0J-225000D01*
G01*
X-25858334Y-72700000D01*
G75*
G02*
X-26083334Y-72925000I-225000J0D01*
G01*
G37*
%TD.AperFunction*%
%TO.P,C44,1*%
%TA.AperFunction,SMDPad,CuDef*%
G36*
G01*
X-26083334Y-74475000D02*
X-26583334Y-74475000D01*
G75*
G02*
X-26808334Y-74250000I0J225000D01*
G01*
X-26808334Y-73800000D01*
G75*
G02*
X-26583334Y-73575000I225000J0D01*
G01*
X-26083334Y-73575000D01*
G75*
G02*
X-25858334Y-73800000I0J-225000D01*
G01*
X-25858334Y-74250000D01*
G75*
G02*
X-26083334Y-74475000I-225000J0D01*
G01*
G37*
%TD.AperFunction*%
%TD*%
%TO.P,C46,2*%
%TO.N,N/C*%
%TA.AperFunction,SMDPad,CuDef*%
G36*
G01*
X-44750000Y-72925000D02*
X-45250000Y-72925000D01*
G75*
G02*
X-45475000Y-72700000I0J225000D01*
G01*
X-45475000Y-72250000D01*
G75*
G02*
X-45250000Y-72025000I225000J0D01*
G01*
X-44750000Y-72025000D01*
G75*
G02*
X-44525000Y-72250000I0J-225000D01*
G01*
X-44525000Y-72700000D01*
G75*
G02*
X-44750000Y-72925000I-225000J0D01*
G01*
G37*
%TD.AperFunction*%
%TO.P,C46,1*%
%TA.AperFunction,SMDPad,CuDef*%
G36*
G01*
X-44750000Y-74475000D02*
X-45250000Y-74475000D01*
G75*
G02*
X-45475000Y-74250000I0J225000D01*
G01*
X-45475000Y-73800000D01*
G75*
G02*
X-45250000Y-73575000I225000J0D01*
G01*
X-44750000Y-73575000D01*
G75*
G02*
X-44525000Y-73800000I0J-225000D01*
G01*
X-44525000Y-74250000D01*
G75*
G02*
X-44750000Y-74475000I-225000J0D01*
G01*
G37*
%TD.AperFunction*%
%TD*%
%TO.P,C17,2*%
%TO.N,N/C*%
%TA.AperFunction,SMDPad,CuDef*%
G36*
G01*
X225916666Y-72925000D02*
X225416666Y-72925000D01*
G75*
G02*
X225191666Y-72700000I0J225000D01*
G01*
X225191666Y-72250000D01*
G75*
G02*
X225416666Y-72025000I225000J0D01*
G01*
X225916666Y-72025000D01*
G75*
G02*
X226141666Y-72250000I0J-225000D01*
G01*
X226141666Y-72700000D01*
G75*
G02*
X225916666Y-72925000I-225000J0D01*
G01*
G37*
%TD.AperFunction*%
%TO.P,C17,1*%
%TA.AperFunction,SMDPad,CuDef*%
G36*
G01*
X225916666Y-74475000D02*
X225416666Y-74475000D01*
G75*
G02*
X225191666Y-74250000I0J225000D01*
G01*
X225191666Y-73800000D01*
G75*
G02*
X225416666Y-73575000I225000J0D01*
G01*
X225916666Y-73575000D01*
G75*
G02*
X226141666Y-73800000I0J-225000D01*
G01*
X226141666Y-74250000D01*
G75*
G02*
X225916666Y-74475000I-225000J0D01*
G01*
G37*
%TD.AperFunction*%
%TD*%
%TO.P,C50,2*%
%TO.N,N/C*%
%TA.AperFunction,SMDPad,CuDef*%
G36*
G01*
X-82083334Y-72925000D02*
X-82583334Y-72925000D01*
G75*
G02*
X-82808334Y-72700000I0J225000D01*
G01*
X-82808334Y-72250000D01*
G75*
G02*
X-82583334Y-72025000I225000J0D01*
G01*
X-82083334Y-72025000D01*
G75*
G02*
X-81858334Y-72250000I0J-225000D01*
G01*
X-81858334Y-72700000D01*
G75*
G02*
X-82083334Y-72925000I-225000J0D01*
G01*
G37*
%TD.AperFunction*%
%TO.P,C50,1*%
%TA.AperFunction,SMDPad,CuDef*%
G36*
G01*
X-82083334Y-74475000D02*
X-82583334Y-74475000D01*
G75*
G02*
X-82808334Y-74250000I0J225000D01*
G01*
X-82808334Y-73800000D01*
G75*
G02*
X-82583334Y-73575000I225000J0D01*
G01*
X-82083334Y-73575000D01*
G75*
G02*
X-81858334Y-73800000I0J-225000D01*
G01*
X-81858334Y-74250000D01*
G75*
G02*
X-82083334Y-74475000I-225000J0D01*
G01*
G37*
%TD.AperFunction*%
%TD*%
%TO.P,D2,1*%
%TO.N,N/C*%
X331293333Y-72360000D03*
%TO.P,D2,2*%
X331293333Y-74140000D03*
%TO.P,D2,4*%
X334373333Y-72360000D03*
%TO.P,D2,3*%
X334373333Y-74140000D03*
%TD*%
%TO.P,C43,2*%
%TO.N,N/C*%
%TA.AperFunction,SMDPad,CuDef*%
G36*
G01*
X-16750000Y-72925000D02*
X-17250000Y-72925000D01*
G75*
G02*
X-17475000Y-72700000I0J225000D01*
G01*
X-17475000Y-72250000D01*
G75*
G02*
X-17250000Y-72025000I225000J0D01*
G01*
X-16750000Y-72025000D01*
G75*
G02*
X-16525000Y-72250000I0J-225000D01*
G01*
X-16525000Y-72700000D01*
G75*
G02*
X-16750000Y-72925000I-225000J0D01*
G01*
G37*
%TD.AperFunction*%
%TO.P,C43,1*%
%TA.AperFunction,SMDPad,CuDef*%
G36*
G01*
X-16750000Y-74475000D02*
X-17250000Y-74475000D01*
G75*
G02*
X-17475000Y-74250000I0J225000D01*
G01*
X-17475000Y-73800000D01*
G75*
G02*
X-17250000Y-73575000I225000J0D01*
G01*
X-16750000Y-73575000D01*
G75*
G02*
X-16525000Y-73800000I0J-225000D01*
G01*
X-16525000Y-74250000D01*
G75*
G02*
X-16750000Y-74475000I-225000J0D01*
G01*
G37*
%TD.AperFunction*%
%TD*%
%TO.P,C40,2*%
%TO.N,N/C*%
%TA.AperFunction,SMDPad,CuDef*%
G36*
G01*
X11250000Y-72925000D02*
X10750000Y-72925000D01*
G75*
G02*
X10525000Y-72700000I0J225000D01*
G01*
X10525000Y-72250000D01*
G75*
G02*
X10750000Y-72025000I225000J0D01*
G01*
X11250000Y-72025000D01*
G75*
G02*
X11475000Y-72250000I0J-225000D01*
G01*
X11475000Y-72700000D01*
G75*
G02*
X11250000Y-72925000I-225000J0D01*
G01*
G37*
%TD.AperFunction*%
%TO.P,C40,1*%
%TA.AperFunction,SMDPad,CuDef*%
G36*
G01*
X11250000Y-74475000D02*
X10750000Y-74475000D01*
G75*
G02*
X10525000Y-74250000I0J225000D01*
G01*
X10525000Y-73800000D01*
G75*
G02*
X10750000Y-73575000I225000J0D01*
G01*
X11250000Y-73575000D01*
G75*
G02*
X11475000Y-73800000I0J-225000D01*
G01*
X11475000Y-74250000D01*
G75*
G02*
X11250000Y-74475000I-225000J0D01*
G01*
G37*
%TD.AperFunction*%
%TD*%
%TO.P,C49,2*%
%TO.N,N/C*%
%TA.AperFunction,SMDPad,CuDef*%
G36*
G01*
X-72750000Y-72925000D02*
X-73250000Y-72925000D01*
G75*
G02*
X-73475000Y-72700000I0J225000D01*
G01*
X-73475000Y-72250000D01*
G75*
G02*
X-73250000Y-72025000I225000J0D01*
G01*
X-72750000Y-72025000D01*
G75*
G02*
X-72525000Y-72250000I0J-225000D01*
G01*
X-72525000Y-72700000D01*
G75*
G02*
X-72750000Y-72925000I-225000J0D01*
G01*
G37*
%TD.AperFunction*%
%TO.P,C49,1*%
%TA.AperFunction,SMDPad,CuDef*%
G36*
G01*
X-72750000Y-74475000D02*
X-73250000Y-74475000D01*
G75*
G02*
X-73475000Y-74250000I0J225000D01*
G01*
X-73475000Y-73800000D01*
G75*
G02*
X-73250000Y-73575000I225000J0D01*
G01*
X-72750000Y-73575000D01*
G75*
G02*
X-72525000Y-73800000I0J-225000D01*
G01*
X-72525000Y-74250000D01*
G75*
G02*
X-72750000Y-74475000I-225000J0D01*
G01*
G37*
%TD.AperFunction*%
%TD*%
%TO.P,C37,2*%
%TO.N,N/C*%
%TA.AperFunction,SMDPad,CuDef*%
G36*
G01*
X39250000Y-72925000D02*
X38750000Y-72925000D01*
G75*
G02*
X38525000Y-72700000I0J225000D01*
G01*
X38525000Y-72250000D01*
G75*
G02*
X38750000Y-72025000I225000J0D01*
G01*
X39250000Y-72025000D01*
G75*
G02*
X39475000Y-72250000I0J-225000D01*
G01*
X39475000Y-72700000D01*
G75*
G02*
X39250000Y-72925000I-225000J0D01*
G01*
G37*
%TD.AperFunction*%
%TO.P,C37,1*%
%TA.AperFunction,SMDPad,CuDef*%
G36*
G01*
X39250000Y-74475000D02*
X38750000Y-74475000D01*
G75*
G02*
X38525000Y-74250000I0J225000D01*
G01*
X38525000Y-73800000D01*
G75*
G02*
X38750000Y-73575000I225000J0D01*
G01*
X39250000Y-73575000D01*
G75*
G02*
X39475000Y-73800000I0J-225000D01*
G01*
X39475000Y-74250000D01*
G75*
G02*
X39250000Y-74475000I-225000J0D01*
G01*
G37*
%TD.AperFunction*%
%TD*%
%TO.P,C6,2*%
%TO.N,N/C*%
%TA.AperFunction,SMDPad,CuDef*%
G36*
G01*
X328583333Y-72925000D02*
X328083333Y-72925000D01*
G75*
G02*
X327858333Y-72700000I0J225000D01*
G01*
X327858333Y-72250000D01*
G75*
G02*
X328083333Y-72025000I225000J0D01*
G01*
X328583333Y-72025000D01*
G75*
G02*
X328808333Y-72250000I0J-225000D01*
G01*
X328808333Y-72700000D01*
G75*
G02*
X328583333Y-72925000I-225000J0D01*
G01*
G37*
%TD.AperFunction*%
%TO.P,C6,1*%
%TA.AperFunction,SMDPad,CuDef*%
G36*
G01*
X328583333Y-74475000D02*
X328083333Y-74475000D01*
G75*
G02*
X327858333Y-74250000I0J225000D01*
G01*
X327858333Y-73800000D01*
G75*
G02*
X328083333Y-73575000I225000J0D01*
G01*
X328583333Y-73575000D01*
G75*
G02*
X328808333Y-73800000I0J-225000D01*
G01*
X328808333Y-74250000D01*
G75*
G02*
X328583333Y-74475000I-225000J0D01*
G01*
G37*
%TD.AperFunction*%
%TD*%
%TO.P,D4,3*%
%TO.N,N/C*%
X315706666Y-74140000D03*
%TO.P,D4,4*%
X315706666Y-72360000D03*
%TO.P,D4,2*%
X312626666Y-74140000D03*
%TO.P,D4,1*%
X312626666Y-72360000D03*
%TD*%
%TO.P,D6,1*%
%TO.N,N/C*%
X293960000Y-72360000D03*
%TO.P,D6,2*%
X293960000Y-74140000D03*
%TO.P,D6,4*%
X297040000Y-72360000D03*
%TO.P,D6,3*%
X297040000Y-74140000D03*
%TD*%
%TO.P,D20,1*%
%TO.N,N/C*%
X163293333Y-72360000D03*
%TO.P,D20,2*%
X163293333Y-74140000D03*
%TO.P,D20,4*%
X166373333Y-72360000D03*
%TO.P,D20,3*%
X166373333Y-74140000D03*
%TD*%
%TO.P,D7,1*%
%TO.N,N/C*%
X284626666Y-72360000D03*
%TO.P,D7,2*%
X284626666Y-74140000D03*
%TO.P,D7,4*%
X287706666Y-72360000D03*
%TO.P,D7,3*%
X287706666Y-74140000D03*
%TD*%
%TO.P,D8,1*%
%TO.N,N/C*%
X275293333Y-72360000D03*
%TO.P,D8,2*%
X275293333Y-74140000D03*
%TO.P,D8,4*%
X278373333Y-72360000D03*
%TO.P,D8,3*%
X278373333Y-74140000D03*
%TD*%
%TO.P,D9,1*%
%TO.N,N/C*%
X265960000Y-72360000D03*
%TO.P,D9,2*%
X265960000Y-74140000D03*
%TO.P,D9,4*%
X269040000Y-72360000D03*
%TO.P,D9,3*%
X269040000Y-74140000D03*
%TD*%
%TO.P,D19,1*%
%TO.N,N/C*%
X172626666Y-72360000D03*
%TO.P,D19,2*%
X172626666Y-74140000D03*
%TO.P,D19,4*%
X175706666Y-72360000D03*
%TO.P,D19,3*%
X175706666Y-74140000D03*
%TD*%
%TO.P,D17,1*%
%TO.N,N/C*%
X191293333Y-72360000D03*
%TO.P,D17,2*%
X191293333Y-74140000D03*
%TO.P,D17,4*%
X194373333Y-72360000D03*
%TO.P,D17,3*%
X194373333Y-74140000D03*
%TD*%
%TO.P,D11,1*%
%TO.N,N/C*%
X247293333Y-72360000D03*
%TO.P,D11,2*%
X247293333Y-74140000D03*
%TO.P,D11,4*%
X250373333Y-72360000D03*
%TO.P,D11,3*%
X250373333Y-74140000D03*
%TD*%
%TO.P,D13,1*%
%TO.N,N/C*%
X228626666Y-72360000D03*
%TO.P,D13,2*%
X228626666Y-74140000D03*
%TO.P,D13,4*%
X231706666Y-72360000D03*
%TO.P,D13,3*%
X231706666Y-74140000D03*
%TD*%
%TO.P,D15,1*%
%TO.N,N/C*%
X209960000Y-72360000D03*
%TO.P,D15,2*%
X209960000Y-74140000D03*
%TO.P,D15,4*%
X213040000Y-72360000D03*
%TO.P,D15,3*%
X213040000Y-74140000D03*
%TD*%
%TO.P,D21,1*%
%TO.N,N/C*%
X153960000Y-72360000D03*
%TO.P,D21,2*%
X153960000Y-74140000D03*
%TO.P,D21,4*%
X157040000Y-72360000D03*
%TO.P,D21,3*%
X157040000Y-74140000D03*
%TD*%
%TO.P,D10,1*%
%TO.N,N/C*%
X256626666Y-72360000D03*
%TO.P,D10,2*%
X256626666Y-74140000D03*
%TO.P,D10,4*%
X259706666Y-72360000D03*
%TO.P,D10,3*%
X259706666Y-74140000D03*
%TD*%
%TO.P,D16,1*%
%TO.N,N/C*%
X200626666Y-72360000D03*
%TO.P,D16,2*%
X200626666Y-74140000D03*
%TO.P,D16,4*%
X203706666Y-72360000D03*
%TO.P,D16,3*%
X203706666Y-74140000D03*
%TD*%
%TO.P,D14,1*%
%TO.N,N/C*%
X219293333Y-72360000D03*
%TO.P,D14,2*%
X219293333Y-74140000D03*
%TO.P,D14,4*%
X222373333Y-72360000D03*
%TO.P,D14,3*%
X222373333Y-74140000D03*
%TD*%
%TO.P,D12,1*%
%TO.N,N/C*%
X237960000Y-72360000D03*
%TO.P,D12,2*%
X237960000Y-74140000D03*
%TO.P,D12,4*%
X241040000Y-72360000D03*
%TO.P,D12,3*%
X241040000Y-74140000D03*
%TD*%
%TO.P,D18,1*%
%TO.N,N/C*%
X181960000Y-72360000D03*
%TO.P,D18,2*%
X181960000Y-74140000D03*
%TO.P,D18,4*%
X185040000Y-72360000D03*
%TO.P,D18,3*%
X185040000Y-74140000D03*
%TD*%
%TO.P,D22,1*%
%TO.N,N/C*%
X144626666Y-72360000D03*
%TO.P,D22,2*%
X144626666Y-74140000D03*
%TO.P,D22,4*%
X147706666Y-72360000D03*
%TO.P,D22,3*%
X147706666Y-74140000D03*
%TD*%
%TO.P,D5,1*%
%TO.N,N/C*%
X303293333Y-72360000D03*
%TO.P,D5,2*%
X303293333Y-74140000D03*
%TO.P,D5,4*%
X306373333Y-72360000D03*
%TO.P,D5,3*%
X306373333Y-74140000D03*
%TD*%
%TO.P,C7,1*%
%TO.N,N/C*%
%TA.AperFunction,SMDPad,CuDef*%
G36*
G01*
X319250000Y-74475000D02*
X318750000Y-74475000D01*
G75*
G02*
X318525000Y-74250000I0J225000D01*
G01*
X318525000Y-73800000D01*
G75*
G02*
X318750000Y-73575000I225000J0D01*
G01*
X319250000Y-73575000D01*
G75*
G02*
X319475000Y-73800000I0J-225000D01*
G01*
X319475000Y-74250000D01*
G75*
G02*
X319250000Y-74475000I-225000J0D01*
G01*
G37*
%TD.AperFunction*%
%TO.P,C7,2*%
%TA.AperFunction,SMDPad,CuDef*%
G36*
G01*
X319250000Y-72925000D02*
X318750000Y-72925000D01*
G75*
G02*
X318525000Y-72700000I0J225000D01*
G01*
X318525000Y-72250000D01*
G75*
G02*
X318750000Y-72025000I225000J0D01*
G01*
X319250000Y-72025000D01*
G75*
G02*
X319475000Y-72250000I0J-225000D01*
G01*
X319475000Y-72700000D01*
G75*
G02*
X319250000Y-72925000I-225000J0D01*
G01*
G37*
%TD.AperFunction*%
%TD*%
%TO.P,C24,1*%
%TO.N,N/C*%
%TA.AperFunction,SMDPad,CuDef*%
G36*
G01*
X160583333Y-74475000D02*
X160083333Y-74475000D01*
G75*
G02*
X159858333Y-74250000I0J225000D01*
G01*
X159858333Y-73800000D01*
G75*
G02*
X160083333Y-73575000I225000J0D01*
G01*
X160583333Y-73575000D01*
G75*
G02*
X160808333Y-73800000I0J-225000D01*
G01*
X160808333Y-74250000D01*
G75*
G02*
X160583333Y-74475000I-225000J0D01*
G01*
G37*
%TD.AperFunction*%
%TO.P,C24,2*%
%TA.AperFunction,SMDPad,CuDef*%
G36*
G01*
X160583333Y-72925000D02*
X160083333Y-72925000D01*
G75*
G02*
X159858333Y-72700000I0J225000D01*
G01*
X159858333Y-72250000D01*
G75*
G02*
X160083333Y-72025000I225000J0D01*
G01*
X160583333Y-72025000D01*
G75*
G02*
X160808333Y-72250000I0J-225000D01*
G01*
X160808333Y-72700000D01*
G75*
G02*
X160583333Y-72925000I-225000J0D01*
G01*
G37*
%TD.AperFunction*%
%TD*%
%TO.P,C22,2*%
%TO.N,N/C*%
%TA.AperFunction,SMDPad,CuDef*%
G36*
G01*
X179250000Y-72925000D02*
X178750000Y-72925000D01*
G75*
G02*
X178525000Y-72700000I0J225000D01*
G01*
X178525000Y-72250000D01*
G75*
G02*
X178750000Y-72025000I225000J0D01*
G01*
X179250000Y-72025000D01*
G75*
G02*
X179475000Y-72250000I0J-225000D01*
G01*
X179475000Y-72700000D01*
G75*
G02*
X179250000Y-72925000I-225000J0D01*
G01*
G37*
%TD.AperFunction*%
%TO.P,C22,1*%
%TA.AperFunction,SMDPad,CuDef*%
G36*
G01*
X179250000Y-74475000D02*
X178750000Y-74475000D01*
G75*
G02*
X178525000Y-74250000I0J225000D01*
G01*
X178525000Y-73800000D01*
G75*
G02*
X178750000Y-73575000I225000J0D01*
G01*
X179250000Y-73575000D01*
G75*
G02*
X179475000Y-73800000I0J-225000D01*
G01*
X179475000Y-74250000D01*
G75*
G02*
X179250000Y-74475000I-225000J0D01*
G01*
G37*
%TD.AperFunction*%
%TD*%
%TO.P,C19,2*%
%TO.N,N/C*%
%TA.AperFunction,SMDPad,CuDef*%
G36*
G01*
X207250000Y-72925000D02*
X206750000Y-72925000D01*
G75*
G02*
X206525000Y-72700000I0J225000D01*
G01*
X206525000Y-72250000D01*
G75*
G02*
X206750000Y-72025000I225000J0D01*
G01*
X207250000Y-72025000D01*
G75*
G02*
X207475000Y-72250000I0J-225000D01*
G01*
X207475000Y-72700000D01*
G75*
G02*
X207250000Y-72925000I-225000J0D01*
G01*
G37*
%TD.AperFunction*%
%TO.P,C19,1*%
%TA.AperFunction,SMDPad,CuDef*%
G36*
G01*
X207250000Y-74475000D02*
X206750000Y-74475000D01*
G75*
G02*
X206525000Y-74250000I0J225000D01*
G01*
X206525000Y-73800000D01*
G75*
G02*
X206750000Y-73575000I225000J0D01*
G01*
X207250000Y-73575000D01*
G75*
G02*
X207475000Y-73800000I0J-225000D01*
G01*
X207475000Y-74250000D01*
G75*
G02*
X207250000Y-74475000I-225000J0D01*
G01*
G37*
%TD.AperFunction*%
%TD*%
%TO.P,C28,2*%
%TO.N,N/C*%
%TA.AperFunction,SMDPad,CuDef*%
G36*
G01*
X123250000Y-72925000D02*
X122750000Y-72925000D01*
G75*
G02*
X122525000Y-72700000I0J225000D01*
G01*
X122525000Y-72250000D01*
G75*
G02*
X122750000Y-72025000I225000J0D01*
G01*
X123250000Y-72025000D01*
G75*
G02*
X123475000Y-72250000I0J-225000D01*
G01*
X123475000Y-72700000D01*
G75*
G02*
X123250000Y-72925000I-225000J0D01*
G01*
G37*
%TD.AperFunction*%
%TO.P,C28,1*%
%TA.AperFunction,SMDPad,CuDef*%
G36*
G01*
X123250000Y-74475000D02*
X122750000Y-74475000D01*
G75*
G02*
X122525000Y-74250000I0J225000D01*
G01*
X122525000Y-73800000D01*
G75*
G02*
X122750000Y-73575000I225000J0D01*
G01*
X123250000Y-73575000D01*
G75*
G02*
X123475000Y-73800000I0J-225000D01*
G01*
X123475000Y-74250000D01*
G75*
G02*
X123250000Y-74475000I-225000J0D01*
G01*
G37*
%TD.AperFunction*%
%TD*%
%TO.P,C16,2*%
%TO.N,N/C*%
%TA.AperFunction,SMDPad,CuDef*%
G36*
G01*
X235250000Y-72925000D02*
X234750000Y-72925000D01*
G75*
G02*
X234525000Y-72700000I0J225000D01*
G01*
X234525000Y-72250000D01*
G75*
G02*
X234750000Y-72025000I225000J0D01*
G01*
X235250000Y-72025000D01*
G75*
G02*
X235475000Y-72250000I0J-225000D01*
G01*
X235475000Y-72700000D01*
G75*
G02*
X235250000Y-72925000I-225000J0D01*
G01*
G37*
%TD.AperFunction*%
%TO.P,C16,1*%
%TA.AperFunction,SMDPad,CuDef*%
G36*
G01*
X235250000Y-74475000D02*
X234750000Y-74475000D01*
G75*
G02*
X234525000Y-74250000I0J225000D01*
G01*
X234525000Y-73800000D01*
G75*
G02*
X234750000Y-73575000I225000J0D01*
G01*
X235250000Y-73575000D01*
G75*
G02*
X235475000Y-73800000I0J-225000D01*
G01*
X235475000Y-74250000D01*
G75*
G02*
X235250000Y-74475000I-225000J0D01*
G01*
G37*
%TD.AperFunction*%
%TD*%
%TO.P,C31,2*%
%TO.N,N/C*%
%TA.AperFunction,SMDPad,CuDef*%
G36*
G01*
X95250000Y-72925000D02*
X94750000Y-72925000D01*
G75*
G02*
X94525000Y-72700000I0J225000D01*
G01*
X94525000Y-72250000D01*
G75*
G02*
X94750000Y-72025000I225000J0D01*
G01*
X95250000Y-72025000D01*
G75*
G02*
X95475000Y-72250000I0J-225000D01*
G01*
X95475000Y-72700000D01*
G75*
G02*
X95250000Y-72925000I-225000J0D01*
G01*
G37*
%TD.AperFunction*%
%TO.P,C31,1*%
%TA.AperFunction,SMDPad,CuDef*%
G36*
G01*
X95250000Y-74475000D02*
X94750000Y-74475000D01*
G75*
G02*
X94525000Y-74250000I0J225000D01*
G01*
X94525000Y-73800000D01*
G75*
G02*
X94750000Y-73575000I225000J0D01*
G01*
X95250000Y-73575000D01*
G75*
G02*
X95475000Y-73800000I0J-225000D01*
G01*
X95475000Y-74250000D01*
G75*
G02*
X95250000Y-74475000I-225000J0D01*
G01*
G37*
%TD.AperFunction*%
%TD*%
%TO.P,C21,1*%
%TO.N,N/C*%
%TA.AperFunction,SMDPad,CuDef*%
G36*
G01*
X188583333Y-74475000D02*
X188083333Y-74475000D01*
G75*
G02*
X187858333Y-74250000I0J225000D01*
G01*
X187858333Y-73800000D01*
G75*
G02*
X188083333Y-73575000I225000J0D01*
G01*
X188583333Y-73575000D01*
G75*
G02*
X188808333Y-73800000I0J-225000D01*
G01*
X188808333Y-74250000D01*
G75*
G02*
X188583333Y-74475000I-225000J0D01*
G01*
G37*
%TD.AperFunction*%
%TO.P,C21,2*%
%TA.AperFunction,SMDPad,CuDef*%
G36*
G01*
X188583333Y-72925000D02*
X188083333Y-72925000D01*
G75*
G02*
X187858333Y-72700000I0J225000D01*
G01*
X187858333Y-72250000D01*
G75*
G02*
X188083333Y-72025000I225000J0D01*
G01*
X188583333Y-72025000D01*
G75*
G02*
X188808333Y-72250000I0J-225000D01*
G01*
X188808333Y-72700000D01*
G75*
G02*
X188583333Y-72925000I-225000J0D01*
G01*
G37*
%TD.AperFunction*%
%TD*%
%TO.P,C9,1*%
%TO.N,N/C*%
%TA.AperFunction,SMDPad,CuDef*%
G36*
G01*
X300583333Y-74475000D02*
X300083333Y-74475000D01*
G75*
G02*
X299858333Y-74250000I0J225000D01*
G01*
X299858333Y-73800000D01*
G75*
G02*
X300083333Y-73575000I225000J0D01*
G01*
X300583333Y-73575000D01*
G75*
G02*
X300808333Y-73800000I0J-225000D01*
G01*
X300808333Y-74250000D01*
G75*
G02*
X300583333Y-74475000I-225000J0D01*
G01*
G37*
%TD.AperFunction*%
%TO.P,C9,2*%
%TA.AperFunction,SMDPad,CuDef*%
G36*
G01*
X300583333Y-72925000D02*
X300083333Y-72925000D01*
G75*
G02*
X299858333Y-72700000I0J225000D01*
G01*
X299858333Y-72250000D01*
G75*
G02*
X300083333Y-72025000I225000J0D01*
G01*
X300583333Y-72025000D01*
G75*
G02*
X300808333Y-72250000I0J-225000D01*
G01*
X300808333Y-72700000D01*
G75*
G02*
X300583333Y-72925000I-225000J0D01*
G01*
G37*
%TD.AperFunction*%
%TD*%
%TO.P,C45,1*%
%TO.N,N/C*%
%TA.AperFunction,SMDPad,CuDef*%
G36*
G01*
X-35416667Y-74475000D02*
X-35916667Y-74475000D01*
G75*
G02*
X-36141667Y-74250000I0J225000D01*
G01*
X-36141667Y-73800000D01*
G75*
G02*
X-35916667Y-73575000I225000J0D01*
G01*
X-35416667Y-73575000D01*
G75*
G02*
X-35191667Y-73800000I0J-225000D01*
G01*
X-35191667Y-74250000D01*
G75*
G02*
X-35416667Y-74475000I-225000J0D01*
G01*
G37*
%TD.AperFunction*%
%TO.P,C45,2*%
%TA.AperFunction,SMDPad,CuDef*%
G36*
G01*
X-35416667Y-72925000D02*
X-35916667Y-72925000D01*
G75*
G02*
X-36141667Y-72700000I0J225000D01*
G01*
X-36141667Y-72250000D01*
G75*
G02*
X-35916667Y-72025000I225000J0D01*
G01*
X-35416667Y-72025000D01*
G75*
G02*
X-35191667Y-72250000I0J-225000D01*
G01*
X-35191667Y-72700000D01*
G75*
G02*
X-35416667Y-72925000I-225000J0D01*
G01*
G37*
%TD.AperFunction*%
%TD*%
%TO.P,C10,2*%
%TO.N,N/C*%
%TA.AperFunction,SMDPad,CuDef*%
G36*
G01*
X291250000Y-72925000D02*
X290750000Y-72925000D01*
G75*
G02*
X290525000Y-72700000I0J225000D01*
G01*
X290525000Y-72250000D01*
G75*
G02*
X290750000Y-72025000I225000J0D01*
G01*
X291250000Y-72025000D01*
G75*
G02*
X291475000Y-72250000I0J-225000D01*
G01*
X291475000Y-72700000D01*
G75*
G02*
X291250000Y-72925000I-225000J0D01*
G01*
G37*
%TD.AperFunction*%
%TO.P,C10,1*%
%TA.AperFunction,SMDPad,CuDef*%
G36*
G01*
X291250000Y-74475000D02*
X290750000Y-74475000D01*
G75*
G02*
X290525000Y-74250000I0J225000D01*
G01*
X290525000Y-73800000D01*
G75*
G02*
X290750000Y-73575000I225000J0D01*
G01*
X291250000Y-73575000D01*
G75*
G02*
X291475000Y-73800000I0J-225000D01*
G01*
X291475000Y-74250000D01*
G75*
G02*
X291250000Y-74475000I-225000J0D01*
G01*
G37*
%TD.AperFunction*%
%TD*%
%TO.P,C33,1*%
%TO.N,N/C*%
%TA.AperFunction,SMDPad,CuDef*%
G36*
G01*
X76583333Y-74475000D02*
X76083333Y-74475000D01*
G75*
G02*
X75858333Y-74250000I0J225000D01*
G01*
X75858333Y-73800000D01*
G75*
G02*
X76083333Y-73575000I225000J0D01*
G01*
X76583333Y-73575000D01*
G75*
G02*
X76808333Y-73800000I0J-225000D01*
G01*
X76808333Y-74250000D01*
G75*
G02*
X76583333Y-74475000I-225000J0D01*
G01*
G37*
%TD.AperFunction*%
%TO.P,C33,2*%
%TA.AperFunction,SMDPad,CuDef*%
G36*
G01*
X76583333Y-72925000D02*
X76083333Y-72925000D01*
G75*
G02*
X75858333Y-72700000I0J225000D01*
G01*
X75858333Y-72250000D01*
G75*
G02*
X76083333Y-72025000I225000J0D01*
G01*
X76583333Y-72025000D01*
G75*
G02*
X76808333Y-72250000I0J-225000D01*
G01*
X76808333Y-72700000D01*
G75*
G02*
X76583333Y-72925000I-225000J0D01*
G01*
G37*
%TD.AperFunction*%
%TD*%
%TO.P,C25,2*%
%TO.N,N/C*%
%TA.AperFunction,SMDPad,CuDef*%
G36*
G01*
X151250000Y-72925000D02*
X150750000Y-72925000D01*
G75*
G02*
X150525000Y-72700000I0J225000D01*
G01*
X150525000Y-72250000D01*
G75*
G02*
X150750000Y-72025000I225000J0D01*
G01*
X151250000Y-72025000D01*
G75*
G02*
X151475000Y-72250000I0J-225000D01*
G01*
X151475000Y-72700000D01*
G75*
G02*
X151250000Y-72925000I-225000J0D01*
G01*
G37*
%TD.AperFunction*%
%TO.P,C25,1*%
%TA.AperFunction,SMDPad,CuDef*%
G36*
G01*
X151250000Y-74475000D02*
X150750000Y-74475000D01*
G75*
G02*
X150525000Y-74250000I0J225000D01*
G01*
X150525000Y-73800000D01*
G75*
G02*
X150750000Y-73575000I225000J0D01*
G01*
X151250000Y-73575000D01*
G75*
G02*
X151475000Y-73800000I0J-225000D01*
G01*
X151475000Y-74250000D01*
G75*
G02*
X151250000Y-74475000I-225000J0D01*
G01*
G37*
%TD.AperFunction*%
%TD*%
%TO.P,C39,1*%
%TO.N,N/C*%
%TA.AperFunction,SMDPad,CuDef*%
G36*
G01*
X20583333Y-74475000D02*
X20083333Y-74475000D01*
G75*
G02*
X19858333Y-74250000I0J225000D01*
G01*
X19858333Y-73800000D01*
G75*
G02*
X20083333Y-73575000I225000J0D01*
G01*
X20583333Y-73575000D01*
G75*
G02*
X20808333Y-73800000I0J-225000D01*
G01*
X20808333Y-74250000D01*
G75*
G02*
X20583333Y-74475000I-225000J0D01*
G01*
G37*
%TD.AperFunction*%
%TO.P,C39,2*%
%TA.AperFunction,SMDPad,CuDef*%
G36*
G01*
X20583333Y-72925000D02*
X20083333Y-72925000D01*
G75*
G02*
X19858333Y-72700000I0J225000D01*
G01*
X19858333Y-72250000D01*
G75*
G02*
X20083333Y-72025000I225000J0D01*
G01*
X20583333Y-72025000D01*
G75*
G02*
X20808333Y-72250000I0J-225000D01*
G01*
X20808333Y-72700000D01*
G75*
G02*
X20583333Y-72925000I-225000J0D01*
G01*
G37*
%TD.AperFunction*%
%TD*%
%TO.P,C13,2*%
%TO.N,N/C*%
%TA.AperFunction,SMDPad,CuDef*%
G36*
G01*
X263250000Y-72925000D02*
X262750000Y-72925000D01*
G75*
G02*
X262525000Y-72700000I0J225000D01*
G01*
X262525000Y-72250000D01*
G75*
G02*
X262750000Y-72025000I225000J0D01*
G01*
X263250000Y-72025000D01*
G75*
G02*
X263475000Y-72250000I0J-225000D01*
G01*
X263475000Y-72700000D01*
G75*
G02*
X263250000Y-72925000I-225000J0D01*
G01*
G37*
%TD.AperFunction*%
%TO.P,C13,1*%
%TA.AperFunction,SMDPad,CuDef*%
G36*
G01*
X263250000Y-74475000D02*
X262750000Y-74475000D01*
G75*
G02*
X262525000Y-74250000I0J225000D01*
G01*
X262525000Y-73800000D01*
G75*
G02*
X262750000Y-73575000I225000J0D01*
G01*
X263250000Y-73575000D01*
G75*
G02*
X263475000Y-73800000I0J-225000D01*
G01*
X263475000Y-74250000D01*
G75*
G02*
X263250000Y-74475000I-225000J0D01*
G01*
G37*
%TD.AperFunction*%
%TD*%
%TO.P,C30,1*%
%TO.N,N/C*%
%TA.AperFunction,SMDPad,CuDef*%
G36*
G01*
X104583333Y-74475000D02*
X104083333Y-74475000D01*
G75*
G02*
X103858333Y-74250000I0J225000D01*
G01*
X103858333Y-73800000D01*
G75*
G02*
X104083333Y-73575000I225000J0D01*
G01*
X104583333Y-73575000D01*
G75*
G02*
X104808333Y-73800000I0J-225000D01*
G01*
X104808333Y-74250000D01*
G75*
G02*
X104583333Y-74475000I-225000J0D01*
G01*
G37*
%TD.AperFunction*%
%TO.P,C30,2*%
%TA.AperFunction,SMDPad,CuDef*%
G36*
G01*
X104583333Y-72925000D02*
X104083333Y-72925000D01*
G75*
G02*
X103858333Y-72700000I0J225000D01*
G01*
X103858333Y-72250000D01*
G75*
G02*
X104083333Y-72025000I225000J0D01*
G01*
X104583333Y-72025000D01*
G75*
G02*
X104808333Y-72250000I0J-225000D01*
G01*
X104808333Y-72700000D01*
G75*
G02*
X104583333Y-72925000I-225000J0D01*
G01*
G37*
%TD.AperFunction*%
%TD*%
%TO.P,C51,1*%
%TO.N,N/C*%
%TA.AperFunction,SMDPad,CuDef*%
G36*
G01*
X-91416667Y-74475000D02*
X-91916667Y-74475000D01*
G75*
G02*
X-92141667Y-74250000I0J225000D01*
G01*
X-92141667Y-73800000D01*
G75*
G02*
X-91916667Y-73575000I225000J0D01*
G01*
X-91416667Y-73575000D01*
G75*
G02*
X-91191667Y-73800000I0J-225000D01*
G01*
X-91191667Y-74250000D01*
G75*
G02*
X-91416667Y-74475000I-225000J0D01*
G01*
G37*
%TD.AperFunction*%
%TO.P,C51,2*%
%TA.AperFunction,SMDPad,CuDef*%
G36*
G01*
X-91416667Y-72925000D02*
X-91916667Y-72925000D01*
G75*
G02*
X-92141667Y-72700000I0J225000D01*
G01*
X-92141667Y-72250000D01*
G75*
G02*
X-91916667Y-72025000I225000J0D01*
G01*
X-91416667Y-72025000D01*
G75*
G02*
X-91191667Y-72250000I0J-225000D01*
G01*
X-91191667Y-72700000D01*
G75*
G02*
X-91416667Y-72925000I-225000J0D01*
G01*
G37*
%TD.AperFunction*%
%TD*%
%TO.P,C26,2*%
%TO.N,N/C*%
%TA.AperFunction,SMDPad,CuDef*%
G36*
G01*
X141916666Y-72925000D02*
X141416666Y-72925000D01*
G75*
G02*
X141191666Y-72700000I0J225000D01*
G01*
X141191666Y-72250000D01*
G75*
G02*
X141416666Y-72025000I225000J0D01*
G01*
X141916666Y-72025000D01*
G75*
G02*
X142141666Y-72250000I0J-225000D01*
G01*
X142141666Y-72700000D01*
G75*
G02*
X141916666Y-72925000I-225000J0D01*
G01*
G37*
%TD.AperFunction*%
%TO.P,C26,1*%
%TA.AperFunction,SMDPad,CuDef*%
G36*
G01*
X141916666Y-74475000D02*
X141416666Y-74475000D01*
G75*
G02*
X141191666Y-74250000I0J225000D01*
G01*
X141191666Y-73800000D01*
G75*
G02*
X141416666Y-73575000I225000J0D01*
G01*
X141916666Y-73575000D01*
G75*
G02*
X142141666Y-73800000I0J-225000D01*
G01*
X142141666Y-74250000D01*
G75*
G02*
X141916666Y-74475000I-225000J0D01*
G01*
G37*
%TD.AperFunction*%
%TD*%
%TO.P,C11,2*%
%TO.N,N/C*%
%TA.AperFunction,SMDPad,CuDef*%
G36*
G01*
X281916666Y-72925000D02*
X281416666Y-72925000D01*
G75*
G02*
X281191666Y-72700000I0J225000D01*
G01*
X281191666Y-72250000D01*
G75*
G02*
X281416666Y-72025000I225000J0D01*
G01*
X281916666Y-72025000D01*
G75*
G02*
X282141666Y-72250000I0J-225000D01*
G01*
X282141666Y-72700000D01*
G75*
G02*
X281916666Y-72925000I-225000J0D01*
G01*
G37*
%TD.AperFunction*%
%TO.P,C11,1*%
%TA.AperFunction,SMDPad,CuDef*%
G36*
G01*
X281916666Y-74475000D02*
X281416666Y-74475000D01*
G75*
G02*
X281191666Y-74250000I0J225000D01*
G01*
X281191666Y-73800000D01*
G75*
G02*
X281416666Y-73575000I225000J0D01*
G01*
X281916666Y-73575000D01*
G75*
G02*
X282141666Y-73800000I0J-225000D01*
G01*
X282141666Y-74250000D01*
G75*
G02*
X281916666Y-74475000I-225000J0D01*
G01*
G37*
%TD.AperFunction*%
%TD*%
%TO.P,C35,2*%
%TO.N,N/C*%
%TA.AperFunction,SMDPad,CuDef*%
G36*
G01*
X57916666Y-72925000D02*
X57416666Y-72925000D01*
G75*
G02*
X57191666Y-72700000I0J225000D01*
G01*
X57191666Y-72250000D01*
G75*
G02*
X57416666Y-72025000I225000J0D01*
G01*
X57916666Y-72025000D01*
G75*
G02*
X58141666Y-72250000I0J-225000D01*
G01*
X58141666Y-72700000D01*
G75*
G02*
X57916666Y-72925000I-225000J0D01*
G01*
G37*
%TD.AperFunction*%
%TO.P,C35,1*%
%TA.AperFunction,SMDPad,CuDef*%
G36*
G01*
X57916666Y-74475000D02*
X57416666Y-74475000D01*
G75*
G02*
X57191666Y-74250000I0J225000D01*
G01*
X57191666Y-73800000D01*
G75*
G02*
X57416666Y-73575000I225000J0D01*
G01*
X57916666Y-73575000D01*
G75*
G02*
X58141666Y-73800000I0J-225000D01*
G01*
X58141666Y-74250000D01*
G75*
G02*
X57916666Y-74475000I-225000J0D01*
G01*
G37*
%TD.AperFunction*%
%TD*%
%TO.P,C20,2*%
%TO.N,N/C*%
%TA.AperFunction,SMDPad,CuDef*%
G36*
G01*
X197916666Y-72925000D02*
X197416666Y-72925000D01*
G75*
G02*
X197191666Y-72700000I0J225000D01*
G01*
X197191666Y-72250000D01*
G75*
G02*
X197416666Y-72025000I225000J0D01*
G01*
X197916666Y-72025000D01*
G75*
G02*
X198141666Y-72250000I0J-225000D01*
G01*
X198141666Y-72700000D01*
G75*
G02*
X197916666Y-72925000I-225000J0D01*
G01*
G37*
%TD.AperFunction*%
%TO.P,C20,1*%
%TA.AperFunction,SMDPad,CuDef*%
G36*
G01*
X197916666Y-74475000D02*
X197416666Y-74475000D01*
G75*
G02*
X197191666Y-74250000I0J225000D01*
G01*
X197191666Y-73800000D01*
G75*
G02*
X197416666Y-73575000I225000J0D01*
G01*
X197916666Y-73575000D01*
G75*
G02*
X198141666Y-73800000I0J-225000D01*
G01*
X198141666Y-74250000D01*
G75*
G02*
X197916666Y-74475000I-225000J0D01*
G01*
G37*
%TD.AperFunction*%
%TD*%
%TO.P,C23,2*%
%TO.N,N/C*%
%TA.AperFunction,SMDPad,CuDef*%
G36*
G01*
X169916666Y-72925000D02*
X169416666Y-72925000D01*
G75*
G02*
X169191666Y-72700000I0J225000D01*
G01*
X169191666Y-72250000D01*
G75*
G02*
X169416666Y-72025000I225000J0D01*
G01*
X169916666Y-72025000D01*
G75*
G02*
X170141666Y-72250000I0J-225000D01*
G01*
X170141666Y-72700000D01*
G75*
G02*
X169916666Y-72925000I-225000J0D01*
G01*
G37*
%TD.AperFunction*%
%TO.P,C23,1*%
%TA.AperFunction,SMDPad,CuDef*%
G36*
G01*
X169916666Y-74475000D02*
X169416666Y-74475000D01*
G75*
G02*
X169191666Y-74250000I0J225000D01*
G01*
X169191666Y-73800000D01*
G75*
G02*
X169416666Y-73575000I225000J0D01*
G01*
X169916666Y-73575000D01*
G75*
G02*
X170141666Y-73800000I0J-225000D01*
G01*
X170141666Y-74250000D01*
G75*
G02*
X169916666Y-74475000I-225000J0D01*
G01*
G37*
%TD.AperFunction*%
%TD*%
%TO.P,C36,1*%
%TO.N,N/C*%
%TA.AperFunction,SMDPad,CuDef*%
G36*
G01*
X48583333Y-74475000D02*
X48083333Y-74475000D01*
G75*
G02*
X47858333Y-74250000I0J225000D01*
G01*
X47858333Y-73800000D01*
G75*
G02*
X48083333Y-73575000I225000J0D01*
G01*
X48583333Y-73575000D01*
G75*
G02*
X48808333Y-73800000I0J-225000D01*
G01*
X48808333Y-74250000D01*
G75*
G02*
X48583333Y-74475000I-225000J0D01*
G01*
G37*
%TD.AperFunction*%
%TO.P,C36,2*%
%TA.AperFunction,SMDPad,CuDef*%
G36*
G01*
X48583333Y-72925000D02*
X48083333Y-72925000D01*
G75*
G02*
X47858333Y-72700000I0J225000D01*
G01*
X47858333Y-72250000D01*
G75*
G02*
X48083333Y-72025000I225000J0D01*
G01*
X48583333Y-72025000D01*
G75*
G02*
X48808333Y-72250000I0J-225000D01*
G01*
X48808333Y-72700000D01*
G75*
G02*
X48583333Y-72925000I-225000J0D01*
G01*
G37*
%TD.AperFunction*%
%TD*%
%TO.P,C15,1*%
%TO.N,N/C*%
%TA.AperFunction,SMDPad,CuDef*%
G36*
G01*
X244583333Y-74475000D02*
X244083333Y-74475000D01*
G75*
G02*
X243858333Y-74250000I0J225000D01*
G01*
X243858333Y-73800000D01*
G75*
G02*
X244083333Y-73575000I225000J0D01*
G01*
X244583333Y-73575000D01*
G75*
G02*
X244808333Y-73800000I0J-225000D01*
G01*
X244808333Y-74250000D01*
G75*
G02*
X244583333Y-74475000I-225000J0D01*
G01*
G37*
%TD.AperFunction*%
%TO.P,C15,2*%
%TA.AperFunction,SMDPad,CuDef*%
G36*
G01*
X244583333Y-72925000D02*
X244083333Y-72925000D01*
G75*
G02*
X243858333Y-72700000I0J225000D01*
G01*
X243858333Y-72250000D01*
G75*
G02*
X244083333Y-72025000I225000J0D01*
G01*
X244583333Y-72025000D01*
G75*
G02*
X244808333Y-72250000I0J-225000D01*
G01*
X244808333Y-72700000D01*
G75*
G02*
X244583333Y-72925000I-225000J0D01*
G01*
G37*
%TD.AperFunction*%
%TD*%
%TO.P,C8,2*%
%TO.N,N/C*%
%TA.AperFunction,SMDPad,CuDef*%
G36*
G01*
X309916666Y-72925000D02*
X309416666Y-72925000D01*
G75*
G02*
X309191666Y-72700000I0J225000D01*
G01*
X309191666Y-72250000D01*
G75*
G02*
X309416666Y-72025000I225000J0D01*
G01*
X309916666Y-72025000D01*
G75*
G02*
X310141666Y-72250000I0J-225000D01*
G01*
X310141666Y-72700000D01*
G75*
G02*
X309916666Y-72925000I-225000J0D01*
G01*
G37*
%TD.AperFunction*%
%TO.P,C8,1*%
%TA.AperFunction,SMDPad,CuDef*%
G36*
G01*
X309916666Y-74475000D02*
X309416666Y-74475000D01*
G75*
G02*
X309191666Y-74250000I0J225000D01*
G01*
X309191666Y-73800000D01*
G75*
G02*
X309416666Y-73575000I225000J0D01*
G01*
X309916666Y-73575000D01*
G75*
G02*
X310141666Y-73800000I0J-225000D01*
G01*
X310141666Y-74250000D01*
G75*
G02*
X309916666Y-74475000I-225000J0D01*
G01*
G37*
%TD.AperFunction*%
%TD*%
%TO.P,C42,1*%
%TO.N,N/C*%
%TA.AperFunction,SMDPad,CuDef*%
G36*
G01*
X-7416667Y-74475000D02*
X-7916667Y-74475000D01*
G75*
G02*
X-8141667Y-74250000I0J225000D01*
G01*
X-8141667Y-73800000D01*
G75*
G02*
X-7916667Y-73575000I225000J0D01*
G01*
X-7416667Y-73575000D01*
G75*
G02*
X-7191667Y-73800000I0J-225000D01*
G01*
X-7191667Y-74250000D01*
G75*
G02*
X-7416667Y-74475000I-225000J0D01*
G01*
G37*
%TD.AperFunction*%
%TO.P,C42,2*%
%TA.AperFunction,SMDPad,CuDef*%
G36*
G01*
X-7416667Y-72925000D02*
X-7916667Y-72925000D01*
G75*
G02*
X-8141667Y-72700000I0J225000D01*
G01*
X-8141667Y-72250000D01*
G75*
G02*
X-7916667Y-72025000I225000J0D01*
G01*
X-7416667Y-72025000D01*
G75*
G02*
X-7191667Y-72250000I0J-225000D01*
G01*
X-7191667Y-72700000D01*
G75*
G02*
X-7416667Y-72925000I-225000J0D01*
G01*
G37*
%TD.AperFunction*%
%TD*%
%TO.P,C18,1*%
%TO.N,N/C*%
%TA.AperFunction,SMDPad,CuDef*%
G36*
G01*
X216583333Y-74475000D02*
X216083333Y-74475000D01*
G75*
G02*
X215858333Y-74250000I0J225000D01*
G01*
X215858333Y-73800000D01*
G75*
G02*
X216083333Y-73575000I225000J0D01*
G01*
X216583333Y-73575000D01*
G75*
G02*
X216808333Y-73800000I0J-225000D01*
G01*
X216808333Y-74250000D01*
G75*
G02*
X216583333Y-74475000I-225000J0D01*
G01*
G37*
%TD.AperFunction*%
%TO.P,C18,2*%
%TA.AperFunction,SMDPad,CuDef*%
G36*
G01*
X216583333Y-72925000D02*
X216083333Y-72925000D01*
G75*
G02*
X215858333Y-72700000I0J225000D01*
G01*
X215858333Y-72250000D01*
G75*
G02*
X216083333Y-72025000I225000J0D01*
G01*
X216583333Y-72025000D01*
G75*
G02*
X216808333Y-72250000I0J-225000D01*
G01*
X216808333Y-72700000D01*
G75*
G02*
X216583333Y-72925000I-225000J0D01*
G01*
G37*
%TD.AperFunction*%
%TD*%
%TO.P,C48,1*%
%TO.N,N/C*%
%TA.AperFunction,SMDPad,CuDef*%
G36*
G01*
X-63416667Y-74475000D02*
X-63916667Y-74475000D01*
G75*
G02*
X-64141667Y-74250000I0J225000D01*
G01*
X-64141667Y-73800000D01*
G75*
G02*
X-63916667Y-73575000I225000J0D01*
G01*
X-63416667Y-73575000D01*
G75*
G02*
X-63191667Y-73800000I0J-225000D01*
G01*
X-63191667Y-74250000D01*
G75*
G02*
X-63416667Y-74475000I-225000J0D01*
G01*
G37*
%TD.AperFunction*%
%TO.P,C48,2*%
%TA.AperFunction,SMDPad,CuDef*%
G36*
G01*
X-63416667Y-72925000D02*
X-63916667Y-72925000D01*
G75*
G02*
X-64141667Y-72700000I0J225000D01*
G01*
X-64141667Y-72250000D01*
G75*
G02*
X-63916667Y-72025000I225000J0D01*
G01*
X-63416667Y-72025000D01*
G75*
G02*
X-63191667Y-72250000I0J-225000D01*
G01*
X-63191667Y-72700000D01*
G75*
G02*
X-63416667Y-72925000I-225000J0D01*
G01*
G37*
%TD.AperFunction*%
%TD*%
%TO.P,C32,2*%
%TO.N,N/C*%
%TA.AperFunction,SMDPad,CuDef*%
G36*
G01*
X85916666Y-72925000D02*
X85416666Y-72925000D01*
G75*
G02*
X85191666Y-72700000I0J225000D01*
G01*
X85191666Y-72250000D01*
G75*
G02*
X85416666Y-72025000I225000J0D01*
G01*
X85916666Y-72025000D01*
G75*
G02*
X86141666Y-72250000I0J-225000D01*
G01*
X86141666Y-72700000D01*
G75*
G02*
X85916666Y-72925000I-225000J0D01*
G01*
G37*
%TD.AperFunction*%
%TO.P,C32,1*%
%TA.AperFunction,SMDPad,CuDef*%
G36*
G01*
X85916666Y-74475000D02*
X85416666Y-74475000D01*
G75*
G02*
X85191666Y-74250000I0J225000D01*
G01*
X85191666Y-73800000D01*
G75*
G02*
X85416666Y-73575000I225000J0D01*
G01*
X85916666Y-73575000D01*
G75*
G02*
X86141666Y-73800000I0J-225000D01*
G01*
X86141666Y-74250000D01*
G75*
G02*
X85916666Y-74475000I-225000J0D01*
G01*
G37*
%TD.AperFunction*%
%TD*%
%TO.P,C12,1*%
%TO.N,N/C*%
%TA.AperFunction,SMDPad,CuDef*%
G36*
G01*
X272583333Y-74475000D02*
X272083333Y-74475000D01*
G75*
G02*
X271858333Y-74250000I0J225000D01*
G01*
X271858333Y-73800000D01*
G75*
G02*
X272083333Y-73575000I225000J0D01*
G01*
X272583333Y-73575000D01*
G75*
G02*
X272808333Y-73800000I0J-225000D01*
G01*
X272808333Y-74250000D01*
G75*
G02*
X272583333Y-74475000I-225000J0D01*
G01*
G37*
%TD.AperFunction*%
%TO.P,C12,2*%
%TA.AperFunction,SMDPad,CuDef*%
G36*
G01*
X272583333Y-72925000D02*
X272083333Y-72925000D01*
G75*
G02*
X271858333Y-72700000I0J225000D01*
G01*
X271858333Y-72250000D01*
G75*
G02*
X272083333Y-72025000I225000J0D01*
G01*
X272583333Y-72025000D01*
G75*
G02*
X272808333Y-72250000I0J-225000D01*
G01*
X272808333Y-72700000D01*
G75*
G02*
X272583333Y-72925000I-225000J0D01*
G01*
G37*
%TD.AperFunction*%
%TD*%
%TO.P,C14,2*%
%TO.N,N/C*%
%TA.AperFunction,SMDPad,CuDef*%
G36*
G01*
X253916666Y-72925000D02*
X253416666Y-72925000D01*
G75*
G02*
X253191666Y-72700000I0J225000D01*
G01*
X253191666Y-72250000D01*
G75*
G02*
X253416666Y-72025000I225000J0D01*
G01*
X253916666Y-72025000D01*
G75*
G02*
X254141666Y-72250000I0J-225000D01*
G01*
X254141666Y-72700000D01*
G75*
G02*
X253916666Y-72925000I-225000J0D01*
G01*
G37*
%TD.AperFunction*%
%TO.P,C14,1*%
%TA.AperFunction,SMDPad,CuDef*%
G36*
G01*
X253916666Y-74475000D02*
X253416666Y-74475000D01*
G75*
G02*
X253191666Y-74250000I0J225000D01*
G01*
X253191666Y-73800000D01*
G75*
G02*
X253416666Y-73575000I225000J0D01*
G01*
X253916666Y-73575000D01*
G75*
G02*
X254141666Y-73800000I0J-225000D01*
G01*
X254141666Y-74250000D01*
G75*
G02*
X253916666Y-74475000I-225000J0D01*
G01*
G37*
%TD.AperFunction*%
%TD*%
%TO.P,C29,2*%
%TO.N,N/C*%
%TA.AperFunction,SMDPad,CuDef*%
G36*
G01*
X113916666Y-72925000D02*
X113416666Y-72925000D01*
G75*
G02*
X113191666Y-72700000I0J225000D01*
G01*
X113191666Y-72250000D01*
G75*
G02*
X113416666Y-72025000I225000J0D01*
G01*
X113916666Y-72025000D01*
G75*
G02*
X114141666Y-72250000I0J-225000D01*
G01*
X114141666Y-72700000D01*
G75*
G02*
X113916666Y-72925000I-225000J0D01*
G01*
G37*
%TD.AperFunction*%
%TO.P,C29,1*%
%TA.AperFunction,SMDPad,CuDef*%
G36*
G01*
X113916666Y-74475000D02*
X113416666Y-74475000D01*
G75*
G02*
X113191666Y-74250000I0J225000D01*
G01*
X113191666Y-73800000D01*
G75*
G02*
X113416666Y-73575000I225000J0D01*
G01*
X113916666Y-73575000D01*
G75*
G02*
X114141666Y-73800000I0J-225000D01*
G01*
X114141666Y-74250000D01*
G75*
G02*
X113916666Y-74475000I-225000J0D01*
G01*
G37*
%TD.AperFunction*%
%TD*%
%TO.P,C27,1*%
%TO.N,N/C*%
%TA.AperFunction,SMDPad,CuDef*%
G36*
G01*
X132583333Y-74475000D02*
X132083333Y-74475000D01*
G75*
G02*
X131858333Y-74250000I0J225000D01*
G01*
X131858333Y-73800000D01*
G75*
G02*
X132083333Y-73575000I225000J0D01*
G01*
X132583333Y-73575000D01*
G75*
G02*
X132808333Y-73800000I0J-225000D01*
G01*
X132808333Y-74250000D01*
G75*
G02*
X132583333Y-74475000I-225000J0D01*
G01*
G37*
%TD.AperFunction*%
%TO.P,C27,2*%
%TA.AperFunction,SMDPad,CuDef*%
G36*
G01*
X132583333Y-72925000D02*
X132083333Y-72925000D01*
G75*
G02*
X131858333Y-72700000I0J225000D01*
G01*
X131858333Y-72250000D01*
G75*
G02*
X132083333Y-72025000I225000J0D01*
G01*
X132583333Y-72025000D01*
G75*
G02*
X132808333Y-72250000I0J-225000D01*
G01*
X132808333Y-72700000D01*
G75*
G02*
X132583333Y-72925000I-225000J0D01*
G01*
G37*
%TD.AperFunction*%
%TD*%
%TO.P,D47,1*%
%TO.N,N/C*%
X-88706667Y-72360000D03*
%TO.P,D47,2*%
X-88706667Y-74140000D03*
%TO.P,D47,4*%
X-85626667Y-72360000D03*
%TO.P,D47,3*%
X-85626667Y-74140000D03*
%TD*%
%TO.P,D44,1*%
%TO.N,N/C*%
X-60706667Y-72360000D03*
%TO.P,D44,2*%
X-60706667Y-74140000D03*
%TO.P,D44,4*%
X-57626667Y-72360000D03*
%TO.P,D44,3*%
X-57626667Y-74140000D03*
%TD*%
D11*
%TO.P,J2,1*%
%TO.N,N/C*%
X-99746667Y-73550000D03*
D12*
%TO.P,J2,2*%
X-97206667Y-73550000D03*
%TO.P,J2,3*%
X-94666667Y-73550000D03*
%TD*%
D11*
%TO.P,J1,1*%
%TO.N,N/C*%
X349666666Y-73550000D03*
D12*
%TO.P,J1,2*%
X352206666Y-73550000D03*
%TO.P,J1,3*%
X354746666Y-73550000D03*
%TD*%
D10*
%TO.P,D45,1*%
%TO.N,N/C*%
X-70040000Y-72360000D03*
%TO.P,D45,2*%
X-70040000Y-74140000D03*
%TO.P,D45,4*%
X-66960000Y-72360000D03*
%TO.P,D45,3*%
X-66960000Y-74140000D03*
%TD*%
%TO.P,D41,1*%
%TO.N,N/C*%
X-32706667Y-72360000D03*
%TO.P,D41,2*%
X-32706667Y-74140000D03*
%TO.P,D41,4*%
X-29626667Y-72360000D03*
%TO.P,D41,3*%
X-29626667Y-74140000D03*
%TD*%
%TO.P,D46,1*%
%TO.N,N/C*%
X-79373334Y-72360000D03*
%TO.P,D46,2*%
X-79373334Y-74140000D03*
%TO.P,D46,4*%
X-76293334Y-72360000D03*
%TO.P,D46,3*%
X-76293334Y-74140000D03*
%TD*%
%TO.P,D42,1*%
%TO.N,N/C*%
X-42040000Y-72360000D03*
%TO.P,D42,2*%
X-42040000Y-74140000D03*
%TO.P,D42,4*%
X-38960000Y-72360000D03*
%TO.P,D42,3*%
X-38960000Y-74140000D03*
%TD*%
%TO.P,D43,1*%
%TO.N,N/C*%
X-51373334Y-72360000D03*
%TO.P,D43,2*%
X-51373334Y-74140000D03*
%TO.P,D43,4*%
X-48293334Y-72360000D03*
%TO.P,D43,3*%
X-48293334Y-74140000D03*
%TD*%
%TO.P,D32,1*%
%TO.N,N/C*%
X51293333Y-72360000D03*
%TO.P,D32,2*%
X51293333Y-74140000D03*
%TO.P,D32,4*%
X54373333Y-72360000D03*
%TO.P,D32,3*%
X54373333Y-74140000D03*
%TD*%
%TO.P,D27,1*%
%TO.N,N/C*%
X97960000Y-72360000D03*
%TO.P,D27,2*%
X97960000Y-74140000D03*
%TO.P,D27,4*%
X101040000Y-72360000D03*
%TO.P,D27,3*%
X101040000Y-74140000D03*
%TD*%
%TO.P,D31,1*%
%TO.N,N/C*%
X60626666Y-72360000D03*
%TO.P,D31,2*%
X60626666Y-74140000D03*
%TO.P,D31,4*%
X63706666Y-72360000D03*
%TO.P,D31,3*%
X63706666Y-74140000D03*
%TD*%
%TO.P,D37,1*%
%TO.N,N/C*%
X4626666Y-72360000D03*
%TO.P,D37,2*%
X4626666Y-74140000D03*
%TO.P,D37,4*%
X7706666Y-72360000D03*
%TO.P,D37,3*%
X7706666Y-74140000D03*
%TD*%
%TO.P,D34,1*%
%TO.N,N/C*%
X32626666Y-72360000D03*
%TO.P,D34,2*%
X32626666Y-74140000D03*
%TO.P,D34,4*%
X35706666Y-72360000D03*
%TO.P,D34,3*%
X35706666Y-74140000D03*
%TD*%
%TO.P,D38,1*%
%TO.N,N/C*%
X-4706667Y-72360000D03*
%TO.P,D38,2*%
X-4706667Y-74140000D03*
%TO.P,D38,4*%
X-1626667Y-72360000D03*
%TO.P,D38,3*%
X-1626667Y-74140000D03*
%TD*%
%TO.P,D35,1*%
%TO.N,N/C*%
X23293333Y-72360000D03*
%TO.P,D35,2*%
X23293333Y-74140000D03*
%TO.P,D35,4*%
X26373333Y-72360000D03*
%TO.P,D35,3*%
X26373333Y-74140000D03*
%TD*%
%TO.P,D36,1*%
%TO.N,N/C*%
X13960000Y-72360000D03*
%TO.P,D36,2*%
X13960000Y-74140000D03*
%TO.P,D36,4*%
X17040000Y-72360000D03*
%TO.P,D36,3*%
X17040000Y-74140000D03*
%TD*%
%TO.P,D40,1*%
%TO.N,N/C*%
X-23373334Y-72360000D03*
%TO.P,D40,2*%
X-23373334Y-74140000D03*
%TO.P,D40,4*%
X-20293334Y-72360000D03*
%TO.P,D40,3*%
X-20293334Y-74140000D03*
%TD*%
%TO.P,D24,1*%
%TO.N,N/C*%
X125960000Y-72360000D03*
%TO.P,D24,2*%
X125960000Y-74140000D03*
%TO.P,D24,4*%
X129040000Y-72360000D03*
%TO.P,D24,3*%
X129040000Y-74140000D03*
%TD*%
%TO.P,D23,1*%
%TO.N,N/C*%
X135293333Y-72360000D03*
%TO.P,D23,2*%
X135293333Y-74140000D03*
%TO.P,D23,4*%
X138373333Y-72360000D03*
%TO.P,D23,3*%
X138373333Y-74140000D03*
%TD*%
%TO.P,D28,1*%
%TO.N,N/C*%
X88626666Y-72360000D03*
%TO.P,D28,2*%
X88626666Y-74140000D03*
%TO.P,D28,4*%
X91706666Y-72360000D03*
%TO.P,D28,3*%
X91706666Y-74140000D03*
%TD*%
%TO.P,D30,1*%
%TO.N,N/C*%
X69960000Y-72360000D03*
%TO.P,D30,2*%
X69960000Y-74140000D03*
%TO.P,D30,4*%
X73040000Y-72360000D03*
%TO.P,D30,3*%
X73040000Y-74140000D03*
%TD*%
%TO.P,D39,1*%
%TO.N,N/C*%
X-14040000Y-72360000D03*
%TO.P,D39,2*%
X-14040000Y-74140000D03*
%TO.P,D39,4*%
X-10960000Y-72360000D03*
%TO.P,D39,3*%
X-10960000Y-74140000D03*
%TD*%
%TO.P,D25,1*%
%TO.N,N/C*%
X116626666Y-72360000D03*
%TO.P,D25,2*%
X116626666Y-74140000D03*
%TO.P,D25,4*%
X119706666Y-72360000D03*
%TO.P,D25,3*%
X119706666Y-74140000D03*
%TD*%
%TO.P,D26,1*%
%TO.N,N/C*%
X107293333Y-72360000D03*
%TO.P,D26,2*%
X107293333Y-74140000D03*
%TO.P,D26,4*%
X110373333Y-72360000D03*
%TO.P,D26,3*%
X110373333Y-74140000D03*
%TD*%
%TO.P,D29,1*%
%TO.N,N/C*%
X79293333Y-72360000D03*
%TO.P,D29,2*%
X79293333Y-74140000D03*
%TO.P,D29,4*%
X82373333Y-72360000D03*
%TO.P,D29,3*%
X82373333Y-74140000D03*
%TD*%
%TO.P,D33,1*%
%TO.N,N/C*%
X41960000Y-72360000D03*
%TO.P,D33,2*%
X41960000Y-74140000D03*
%TO.P,D33,4*%
X45040000Y-72360000D03*
%TO.P,D33,3*%
X45040000Y-74140000D03*
%TD*%
D12*
%TO.P,J1,3*%
%TO.N,+5V*%
X-99746666Y-89450000D03*
%TO.P,J1,2*%
%TO.N,/DI*%
X-97206666Y-89450000D03*
D11*
%TO.P,J1,1*%
%TO.N,GND*%
X-94666666Y-89450000D03*
%TD*%
D12*
%TO.P,J2,3*%
%TO.N,GND*%
X349666667Y-89450000D03*
%TO.P,J2,2*%
%TO.N,/DO*%
X352206667Y-89450000D03*
D11*
%TO.P,J2,1*%
%TO.N,+5V*%
X354746667Y-89450000D03*
%TD*%
D10*
%TO.P,D47,3*%
%TO.N,GND*%
X340626667Y-88860000D03*
%TO.P,D47,4*%
%TO.N,Net-(D45-Pad2)*%
X340626667Y-90640000D03*
%TO.P,D47,2*%
%TO.N,/DO*%
X343706667Y-88860000D03*
%TO.P,D47,1*%
%TO.N,+5V*%
X343706667Y-90640000D03*
%TD*%
%TO.P,D46,3*%
%TO.N,GND*%
X331293334Y-88860000D03*
%TO.P,D46,4*%
%TO.N,Net-(D45-Pad2)*%
X331293334Y-90640000D03*
%TO.P,D46,2*%
%TO.N,Net-(D46-Pad2)*%
X334373334Y-88860000D03*
%TO.P,D46,1*%
%TO.N,+5V*%
X334373334Y-90640000D03*
%TD*%
%TO.P,D45,3*%
%TO.N,GND*%
X321960000Y-88860000D03*
%TO.P,D45,4*%
%TO.N,Net-(D44-Pad2)*%
X321960000Y-90640000D03*
%TO.P,D45,2*%
%TO.N,Net-(D45-Pad2)*%
X325040000Y-88860000D03*
%TO.P,D45,1*%
%TO.N,+5V*%
X325040000Y-90640000D03*
%TD*%
%TO.P,D44,3*%
%TO.N,GND*%
X312626667Y-88860000D03*
%TO.P,D44,4*%
%TO.N,Net-(D42-Pad2)*%
X312626667Y-90640000D03*
%TO.P,D44,2*%
%TO.N,Net-(D44-Pad2)*%
X315706667Y-88860000D03*
%TO.P,D44,1*%
%TO.N,+5V*%
X315706667Y-90640000D03*
%TD*%
%TO.P,D43,3*%
%TO.N,GND*%
X303293334Y-88860000D03*
%TO.P,D43,4*%
%TO.N,Net-(D42-Pad2)*%
X303293334Y-90640000D03*
%TO.P,D43,2*%
%TO.N,Net-(D43-Pad2)*%
X306373334Y-88860000D03*
%TO.P,D43,1*%
%TO.N,+5V*%
X306373334Y-90640000D03*
%TD*%
%TO.P,D42,3*%
%TO.N,GND*%
X293960000Y-88860000D03*
%TO.P,D42,4*%
%TO.N,Net-(D41-Pad2)*%
X293960000Y-90640000D03*
%TO.P,D42,2*%
%TO.N,Net-(D42-Pad2)*%
X297040000Y-88860000D03*
%TO.P,D42,1*%
%TO.N,+5V*%
X297040000Y-90640000D03*
%TD*%
%TO.P,D41,3*%
%TO.N,GND*%
X284626667Y-88860000D03*
%TO.P,D41,4*%
%TO.N,Net-(D39-Pad2)*%
X284626667Y-90640000D03*
%TO.P,D41,2*%
%TO.N,Net-(D41-Pad2)*%
X287706667Y-88860000D03*
%TO.P,D41,1*%
%TO.N,+5V*%
X287706667Y-90640000D03*
%TD*%
%TO.P,D40,3*%
%TO.N,GND*%
X275293334Y-88860000D03*
%TO.P,D40,4*%
%TO.N,Net-(D39-Pad2)*%
X275293334Y-90640000D03*
%TO.P,D40,2*%
%TO.N,Net-(D40-Pad2)*%
X278373334Y-88860000D03*
%TO.P,D40,1*%
%TO.N,+5V*%
X278373334Y-90640000D03*
%TD*%
%TO.P,D39,3*%
%TO.N,GND*%
X265960000Y-88860000D03*
%TO.P,D39,4*%
%TO.N,Net-(D38-Pad2)*%
X265960000Y-90640000D03*
%TO.P,D39,2*%
%TO.N,Net-(D39-Pad2)*%
X269040000Y-88860000D03*
%TO.P,D39,1*%
%TO.N,+5V*%
X269040000Y-90640000D03*
%TD*%
%TO.P,D38,3*%
%TO.N,GND*%
X256626667Y-88860000D03*
%TO.P,D38,4*%
%TO.N,Net-(D36-Pad2)*%
X256626667Y-90640000D03*
%TO.P,D38,2*%
%TO.N,Net-(D38-Pad2)*%
X259706667Y-88860000D03*
%TO.P,D38,1*%
%TO.N,+5V*%
X259706667Y-90640000D03*
%TD*%
%TO.P,D37,3*%
%TO.N,GND*%
X247293334Y-88860000D03*
%TO.P,D37,4*%
%TO.N,Net-(D36-Pad2)*%
X247293334Y-90640000D03*
%TO.P,D37,2*%
%TO.N,Net-(D37-Pad2)*%
X250373334Y-88860000D03*
%TO.P,D37,1*%
%TO.N,+5V*%
X250373334Y-90640000D03*
%TD*%
%TO.P,D36,3*%
%TO.N,GND*%
X237960000Y-88860000D03*
%TO.P,D36,4*%
%TO.N,Net-(D35-Pad2)*%
X237960000Y-90640000D03*
%TO.P,D36,2*%
%TO.N,Net-(D36-Pad2)*%
X241040000Y-88860000D03*
%TO.P,D36,1*%
%TO.N,+5V*%
X241040000Y-90640000D03*
%TD*%
%TO.P,D35,3*%
%TO.N,GND*%
X228626667Y-88860000D03*
%TO.P,D35,4*%
%TO.N,Net-(D33-Pad2)*%
X228626667Y-90640000D03*
%TO.P,D35,2*%
%TO.N,Net-(D35-Pad2)*%
X231706667Y-88860000D03*
%TO.P,D35,1*%
%TO.N,+5V*%
X231706667Y-90640000D03*
%TD*%
%TO.P,D34,3*%
%TO.N,GND*%
X219293334Y-88860000D03*
%TO.P,D34,4*%
%TO.N,Net-(D33-Pad2)*%
X219293334Y-90640000D03*
%TO.P,D34,2*%
%TO.N,Net-(D34-Pad2)*%
X222373334Y-88860000D03*
%TO.P,D34,1*%
%TO.N,+5V*%
X222373334Y-90640000D03*
%TD*%
%TO.P,D33,3*%
%TO.N,GND*%
X209960000Y-88860000D03*
%TO.P,D33,4*%
%TO.N,Net-(D32-Pad2)*%
X209960000Y-90640000D03*
%TO.P,D33,2*%
%TO.N,Net-(D33-Pad2)*%
X213040000Y-88860000D03*
%TO.P,D33,1*%
%TO.N,+5V*%
X213040000Y-90640000D03*
%TD*%
%TO.P,D32,3*%
%TO.N,GND*%
X200626667Y-88860000D03*
%TO.P,D32,4*%
%TO.N,Net-(D30-Pad2)*%
X200626667Y-90640000D03*
%TO.P,D32,2*%
%TO.N,Net-(D32-Pad2)*%
X203706667Y-88860000D03*
%TO.P,D32,1*%
%TO.N,+5V*%
X203706667Y-90640000D03*
%TD*%
%TO.P,D31,3*%
%TO.N,GND*%
X191293334Y-88860000D03*
%TO.P,D31,4*%
%TO.N,Net-(D30-Pad2)*%
X191293334Y-90640000D03*
%TO.P,D31,2*%
%TO.N,Net-(D31-Pad2)*%
X194373334Y-88860000D03*
%TO.P,D31,1*%
%TO.N,+5V*%
X194373334Y-90640000D03*
%TD*%
%TO.P,D30,3*%
%TO.N,GND*%
X181960000Y-88860000D03*
%TO.P,D30,4*%
%TO.N,Net-(D29-Pad2)*%
X181960000Y-90640000D03*
%TO.P,D30,2*%
%TO.N,Net-(D30-Pad2)*%
X185040000Y-88860000D03*
%TO.P,D30,1*%
%TO.N,+5V*%
X185040000Y-90640000D03*
%TD*%
%TO.P,D29,3*%
%TO.N,GND*%
X172626667Y-88860000D03*
%TO.P,D29,4*%
%TO.N,Net-(D27-Pad2)*%
X172626667Y-90640000D03*
%TO.P,D29,2*%
%TO.N,Net-(D29-Pad2)*%
X175706667Y-88860000D03*
%TO.P,D29,1*%
%TO.N,+5V*%
X175706667Y-90640000D03*
%TD*%
%TO.P,D28,3*%
%TO.N,GND*%
X163293334Y-88860000D03*
%TO.P,D28,4*%
%TO.N,Net-(D27-Pad2)*%
X163293334Y-90640000D03*
%TO.P,D28,2*%
%TO.N,Net-(D28-Pad2)*%
X166373334Y-88860000D03*
%TO.P,D28,1*%
%TO.N,+5V*%
X166373334Y-90640000D03*
%TD*%
%TO.P,D27,3*%
%TO.N,GND*%
X153960000Y-88860000D03*
%TO.P,D27,4*%
%TO.N,Net-(D26-Pad2)*%
X153960000Y-90640000D03*
%TO.P,D27,2*%
%TO.N,Net-(D27-Pad2)*%
X157040000Y-88860000D03*
%TO.P,D27,1*%
%TO.N,+5V*%
X157040000Y-90640000D03*
%TD*%
%TO.P,D26,3*%
%TO.N,GND*%
X144626667Y-88860000D03*
%TO.P,D26,4*%
%TO.N,Net-(D24-Pad2)*%
X144626667Y-90640000D03*
%TO.P,D26,2*%
%TO.N,Net-(D26-Pad2)*%
X147706667Y-88860000D03*
%TO.P,D26,1*%
%TO.N,+5V*%
X147706667Y-90640000D03*
%TD*%
%TO.P,D25,3*%
%TO.N,GND*%
X135293334Y-88860000D03*
%TO.P,D25,4*%
%TO.N,Net-(D24-Pad2)*%
X135293334Y-90640000D03*
%TO.P,D25,2*%
%TO.N,Net-(D25-Pad2)*%
X138373334Y-88860000D03*
%TO.P,D25,1*%
%TO.N,+5V*%
X138373334Y-90640000D03*
%TD*%
%TO.P,D24,3*%
%TO.N,GND*%
X125960000Y-88860000D03*
%TO.P,D24,4*%
%TO.N,Net-(D23-Pad2)*%
X125960000Y-90640000D03*
%TO.P,D24,2*%
%TO.N,Net-(D24-Pad2)*%
X129040000Y-88860000D03*
%TO.P,D24,1*%
%TO.N,+5V*%
X129040000Y-90640000D03*
%TD*%
%TO.P,D23,3*%
%TO.N,GND*%
X116626667Y-88860000D03*
%TO.P,D23,4*%
%TO.N,Net-(D21-Pad2)*%
X116626667Y-90640000D03*
%TO.P,D23,2*%
%TO.N,Net-(D23-Pad2)*%
X119706667Y-88860000D03*
%TO.P,D23,1*%
%TO.N,+5V*%
X119706667Y-90640000D03*
%TD*%
%TO.P,D22,3*%
%TO.N,GND*%
X107293334Y-88860000D03*
%TO.P,D22,4*%
%TO.N,Net-(D21-Pad2)*%
X107293334Y-90640000D03*
%TO.P,D22,2*%
%TO.N,Net-(D22-Pad2)*%
X110373334Y-88860000D03*
%TO.P,D22,1*%
%TO.N,+5V*%
X110373334Y-90640000D03*
%TD*%
%TO.P,D21,3*%
%TO.N,GND*%
X97960000Y-88860000D03*
%TO.P,D21,4*%
%TO.N,Net-(D20-Pad2)*%
X97960000Y-90640000D03*
%TO.P,D21,2*%
%TO.N,Net-(D21-Pad2)*%
X101040000Y-88860000D03*
%TO.P,D21,1*%
%TO.N,+5V*%
X101040000Y-90640000D03*
%TD*%
%TO.P,D20,3*%
%TO.N,GND*%
X88626667Y-88860000D03*
%TO.P,D20,4*%
%TO.N,Net-(D18-Pad2)*%
X88626667Y-90640000D03*
%TO.P,D20,2*%
%TO.N,Net-(D20-Pad2)*%
X91706667Y-88860000D03*
%TO.P,D20,1*%
%TO.N,+5V*%
X91706667Y-90640000D03*
%TD*%
%TO.P,D19,3*%
%TO.N,GND*%
X79293334Y-88860000D03*
%TO.P,D19,4*%
%TO.N,Net-(D18-Pad2)*%
X79293334Y-90640000D03*
%TO.P,D19,2*%
%TO.N,Net-(D19-Pad2)*%
X82373334Y-88860000D03*
%TO.P,D19,1*%
%TO.N,+5V*%
X82373334Y-90640000D03*
%TD*%
%TO.P,D18,3*%
%TO.N,GND*%
X69960000Y-88860000D03*
%TO.P,D18,4*%
%TO.N,Net-(D17-Pad2)*%
X69960000Y-90640000D03*
%TO.P,D18,2*%
%TO.N,Net-(D18-Pad2)*%
X73040000Y-88860000D03*
%TO.P,D18,1*%
%TO.N,+5V*%
X73040000Y-90640000D03*
%TD*%
%TO.P,D17,3*%
%TO.N,GND*%
X60626667Y-88860000D03*
%TO.P,D17,4*%
%TO.N,Net-(D15-Pad2)*%
X60626667Y-90640000D03*
%TO.P,D17,2*%
%TO.N,Net-(D17-Pad2)*%
X63706667Y-88860000D03*
%TO.P,D17,1*%
%TO.N,+5V*%
X63706667Y-90640000D03*
%TD*%
%TO.P,D16,3*%
%TO.N,GND*%
X51293334Y-88860000D03*
%TO.P,D16,4*%
%TO.N,Net-(D15-Pad2)*%
X51293334Y-90640000D03*
%TO.P,D16,2*%
%TO.N,Net-(D16-Pad2)*%
X54373334Y-88860000D03*
%TO.P,D16,1*%
%TO.N,+5V*%
X54373334Y-90640000D03*
%TD*%
%TO.P,D15,3*%
%TO.N,GND*%
X41960000Y-88860000D03*
%TO.P,D15,4*%
%TO.N,Net-(D14-Pad2)*%
X41960000Y-90640000D03*
%TO.P,D15,2*%
%TO.N,Net-(D15-Pad2)*%
X45040000Y-88860000D03*
%TO.P,D15,1*%
%TO.N,+5V*%
X45040000Y-90640000D03*
%TD*%
%TO.P,D14,3*%
%TO.N,GND*%
X32626667Y-88860000D03*
%TO.P,D14,4*%
%TO.N,Net-(D12-Pad2)*%
X32626667Y-90640000D03*
%TO.P,D14,2*%
%TO.N,Net-(D14-Pad2)*%
X35706667Y-88860000D03*
%TO.P,D14,1*%
%TO.N,+5V*%
X35706667Y-90640000D03*
%TD*%
%TO.P,D13,3*%
%TO.N,GND*%
X23293334Y-88860000D03*
%TO.P,D13,4*%
%TO.N,Net-(D12-Pad2)*%
X23293334Y-90640000D03*
%TO.P,D13,2*%
%TO.N,Net-(D13-Pad2)*%
X26373334Y-88860000D03*
%TO.P,D13,1*%
%TO.N,+5V*%
X26373334Y-90640000D03*
%TD*%
%TO.P,D12,3*%
%TO.N,GND*%
X13960000Y-88860000D03*
%TO.P,D12,4*%
%TO.N,Net-(D11-Pad2)*%
X13960000Y-90640000D03*
%TO.P,D12,2*%
%TO.N,Net-(D12-Pad2)*%
X17040000Y-88860000D03*
%TO.P,D12,1*%
%TO.N,+5V*%
X17040000Y-90640000D03*
%TD*%
%TO.P,D11,3*%
%TO.N,GND*%
X4626667Y-88860000D03*
%TO.P,D11,4*%
%TO.N,Net-(D10-Pad4)*%
X4626667Y-90640000D03*
%TO.P,D11,2*%
%TO.N,Net-(D11-Pad2)*%
X7706667Y-88860000D03*
%TO.P,D11,1*%
%TO.N,+5V*%
X7706667Y-90640000D03*
%TD*%
%TO.P,D10,3*%
%TO.N,GND*%
X-4706666Y-88860000D03*
%TO.P,D10,4*%
%TO.N,Net-(D10-Pad4)*%
X-4706666Y-90640000D03*
%TO.P,D10,2*%
%TO.N,Net-(D10-Pad2)*%
X-1626666Y-88860000D03*
%TO.P,D10,1*%
%TO.N,+5V*%
X-1626666Y-90640000D03*
%TD*%
%TO.P,D9,3*%
%TO.N,GND*%
X-14040000Y-88860000D03*
%TO.P,D9,4*%
%TO.N,Net-(D8-Pad2)*%
X-14040000Y-90640000D03*
%TO.P,D9,2*%
%TO.N,Net-(D10-Pad4)*%
X-10960000Y-88860000D03*
%TO.P,D9,1*%
%TO.N,+5V*%
X-10960000Y-90640000D03*
%TD*%
%TO.P,D8,3*%
%TO.N,GND*%
X-23373333Y-88860000D03*
%TO.P,D8,4*%
%TO.N,Net-(D6-Pad2)*%
X-23373333Y-90640000D03*
%TO.P,D8,2*%
%TO.N,Net-(D8-Pad2)*%
X-20293333Y-88860000D03*
%TO.P,D8,1*%
%TO.N,+5V*%
X-20293333Y-90640000D03*
%TD*%
%TO.P,D7,3*%
%TO.N,GND*%
X-32706666Y-88860000D03*
%TO.P,D7,4*%
%TO.N,Net-(D6-Pad2)*%
X-32706666Y-90640000D03*
%TO.P,D7,2*%
%TO.N,Net-(D7-Pad2)*%
X-29626666Y-88860000D03*
%TO.P,D7,1*%
%TO.N,+5V*%
X-29626666Y-90640000D03*
%TD*%
%TO.P,D6,3*%
%TO.N,GND*%
X-42040000Y-88860000D03*
%TO.P,D6,4*%
%TO.N,Net-(D5-Pad2)*%
X-42040000Y-90640000D03*
%TO.P,D6,2*%
%TO.N,Net-(D6-Pad2)*%
X-38960000Y-88860000D03*
%TO.P,D6,1*%
%TO.N,+5V*%
X-38960000Y-90640000D03*
%TD*%
%TO.P,D5,3*%
%TO.N,GND*%
X-51373333Y-88860000D03*
%TO.P,D5,4*%
%TO.N,Net-(D3-Pad2)*%
X-51373333Y-90640000D03*
%TO.P,D5,2*%
%TO.N,Net-(D5-Pad2)*%
X-48293333Y-88860000D03*
%TO.P,D5,1*%
%TO.N,+5V*%
X-48293333Y-90640000D03*
%TD*%
%TO.P,D4,1*%
%TO.N,+5V*%
X-57626666Y-90640000D03*
%TO.P,D4,2*%
%TO.N,Net-(D4-Pad2)*%
X-57626666Y-88860000D03*
%TO.P,D4,4*%
%TO.N,Net-(D3-Pad2)*%
X-60706666Y-90640000D03*
%TO.P,D4,3*%
%TO.N,GND*%
X-60706666Y-88860000D03*
%TD*%
%TO.P,D3,3*%
%TO.N,GND*%
X-70040000Y-88860000D03*
%TO.P,D3,4*%
%TO.N,Net-(D2-Pad2)*%
X-70040000Y-90640000D03*
%TO.P,D3,2*%
%TO.N,Net-(D3-Pad2)*%
X-66960000Y-88860000D03*
%TO.P,D3,1*%
%TO.N,+5V*%
X-66960000Y-90640000D03*
%TD*%
%TO.P,D2,3*%
%TO.N,GND*%
X-79373333Y-88860000D03*
%TO.P,D2,4*%
%TO.N,/DI*%
X-79373333Y-90640000D03*
%TO.P,D2,2*%
%TO.N,Net-(D2-Pad2)*%
X-76293333Y-88860000D03*
%TO.P,D2,1*%
%TO.N,+5V*%
X-76293333Y-90640000D03*
%TD*%
%TO.P,D1,3*%
%TO.N,GND*%
X-88706666Y-88860000D03*
%TO.P,D1,4*%
%TO.N,/DI*%
X-88706666Y-90640000D03*
%TO.P,D1,2*%
%TO.N,Net-(D1-Pad2)*%
X-85626666Y-88860000D03*
%TO.P,D1,1*%
%TO.N,+5V*%
X-85626666Y-90640000D03*
%TD*%
%TO.P,C5,2*%
%TO.N,+5V*%
%TA.AperFunction,SMDPad,CuDef*%
G36*
G01*
X-82916666Y-90075000D02*
X-82416666Y-90075000D01*
G75*
G02*
X-82191666Y-90300000I0J-225000D01*
G01*
X-82191666Y-90750000D01*
G75*
G02*
X-82416666Y-90975000I-225000J0D01*
G01*
X-82916666Y-90975000D01*
G75*
G02*
X-83141666Y-90750000I0J225000D01*
G01*
X-83141666Y-90300000D01*
G75*
G02*
X-82916666Y-90075000I225000J0D01*
G01*
G37*
%TD.AperFunction*%
%TO.P,C5,1*%
%TO.N,GND*%
%TA.AperFunction,SMDPad,CuDef*%
G36*
G01*
X-82916666Y-88525000D02*
X-82416666Y-88525000D01*
G75*
G02*
X-82191666Y-88750000I0J-225000D01*
G01*
X-82191666Y-89200000D01*
G75*
G02*
X-82416666Y-89425000I-225000J0D01*
G01*
X-82916666Y-89425000D01*
G75*
G02*
X-83141666Y-89200000I0J225000D01*
G01*
X-83141666Y-88750000D01*
G75*
G02*
X-82916666Y-88525000I225000J0D01*
G01*
G37*
%TD.AperFunction*%
%TD*%
%TO.P,C6,1*%
%TO.N,GND*%
%TA.AperFunction,SMDPad,CuDef*%
G36*
G01*
X-73583333Y-88525000D02*
X-73083333Y-88525000D01*
G75*
G02*
X-72858333Y-88750000I0J-225000D01*
G01*
X-72858333Y-89200000D01*
G75*
G02*
X-73083333Y-89425000I-225000J0D01*
G01*
X-73583333Y-89425000D01*
G75*
G02*
X-73808333Y-89200000I0J225000D01*
G01*
X-73808333Y-88750000D01*
G75*
G02*
X-73583333Y-88525000I225000J0D01*
G01*
G37*
%TD.AperFunction*%
%TO.P,C6,2*%
%TO.N,+5V*%
%TA.AperFunction,SMDPad,CuDef*%
G36*
G01*
X-73583333Y-90075000D02*
X-73083333Y-90075000D01*
G75*
G02*
X-72858333Y-90300000I0J-225000D01*
G01*
X-72858333Y-90750000D01*
G75*
G02*
X-73083333Y-90975000I-225000J0D01*
G01*
X-73583333Y-90975000D01*
G75*
G02*
X-73808333Y-90750000I0J225000D01*
G01*
X-73808333Y-90300000D01*
G75*
G02*
X-73583333Y-90075000I225000J0D01*
G01*
G37*
%TD.AperFunction*%
%TD*%
%TO.P,C44,1*%
%TO.N,GND*%
%TA.AperFunction,SMDPad,CuDef*%
G36*
G01*
X281083334Y-88525000D02*
X281583334Y-88525000D01*
G75*
G02*
X281808334Y-88750000I0J-225000D01*
G01*
X281808334Y-89200000D01*
G75*
G02*
X281583334Y-89425000I-225000J0D01*
G01*
X281083334Y-89425000D01*
G75*
G02*
X280858334Y-89200000I0J225000D01*
G01*
X280858334Y-88750000D01*
G75*
G02*
X281083334Y-88525000I225000J0D01*
G01*
G37*
%TD.AperFunction*%
%TO.P,C44,2*%
%TO.N,+5V*%
%TA.AperFunction,SMDPad,CuDef*%
G36*
G01*
X281083334Y-90075000D02*
X281583334Y-90075000D01*
G75*
G02*
X281808334Y-90300000I0J-225000D01*
G01*
X281808334Y-90750000D01*
G75*
G02*
X281583334Y-90975000I-225000J0D01*
G01*
X281083334Y-90975000D01*
G75*
G02*
X280858334Y-90750000I0J225000D01*
G01*
X280858334Y-90300000D01*
G75*
G02*
X281083334Y-90075000I225000J0D01*
G01*
G37*
%TD.AperFunction*%
%TD*%
%TO.P,C47,1*%
%TO.N,GND*%
%TA.AperFunction,SMDPad,CuDef*%
G36*
G01*
X309083334Y-88525000D02*
X309583334Y-88525000D01*
G75*
G02*
X309808334Y-88750000I0J-225000D01*
G01*
X309808334Y-89200000D01*
G75*
G02*
X309583334Y-89425000I-225000J0D01*
G01*
X309083334Y-89425000D01*
G75*
G02*
X308858334Y-89200000I0J225000D01*
G01*
X308858334Y-88750000D01*
G75*
G02*
X309083334Y-88525000I225000J0D01*
G01*
G37*
%TD.AperFunction*%
%TO.P,C47,2*%
%TO.N,+5V*%
%TA.AperFunction,SMDPad,CuDef*%
G36*
G01*
X309083334Y-90075000D02*
X309583334Y-90075000D01*
G75*
G02*
X309808334Y-90300000I0J-225000D01*
G01*
X309808334Y-90750000D01*
G75*
G02*
X309583334Y-90975000I-225000J0D01*
G01*
X309083334Y-90975000D01*
G75*
G02*
X308858334Y-90750000I0J225000D01*
G01*
X308858334Y-90300000D01*
G75*
G02*
X309083334Y-90075000I225000J0D01*
G01*
G37*
%TD.AperFunction*%
%TD*%
%TO.P,C50,1*%
%TO.N,GND*%
%TA.AperFunction,SMDPad,CuDef*%
G36*
G01*
X337083334Y-88525000D02*
X337583334Y-88525000D01*
G75*
G02*
X337808334Y-88750000I0J-225000D01*
G01*
X337808334Y-89200000D01*
G75*
G02*
X337583334Y-89425000I-225000J0D01*
G01*
X337083334Y-89425000D01*
G75*
G02*
X336858334Y-89200000I0J225000D01*
G01*
X336858334Y-88750000D01*
G75*
G02*
X337083334Y-88525000I225000J0D01*
G01*
G37*
%TD.AperFunction*%
%TO.P,C50,2*%
%TO.N,+5V*%
%TA.AperFunction,SMDPad,CuDef*%
G36*
G01*
X337083334Y-90075000D02*
X337583334Y-90075000D01*
G75*
G02*
X337808334Y-90300000I0J-225000D01*
G01*
X337808334Y-90750000D01*
G75*
G02*
X337583334Y-90975000I-225000J0D01*
G01*
X337083334Y-90975000D01*
G75*
G02*
X336858334Y-90750000I0J225000D01*
G01*
X336858334Y-90300000D01*
G75*
G02*
X337083334Y-90075000I225000J0D01*
G01*
G37*
%TD.AperFunction*%
%TD*%
%TO.P,C37,1*%
%TO.N,GND*%
%TA.AperFunction,SMDPad,CuDef*%
G36*
G01*
X215750000Y-88525000D02*
X216250000Y-88525000D01*
G75*
G02*
X216475000Y-88750000I0J-225000D01*
G01*
X216475000Y-89200000D01*
G75*
G02*
X216250000Y-89425000I-225000J0D01*
G01*
X215750000Y-89425000D01*
G75*
G02*
X215525000Y-89200000I0J225000D01*
G01*
X215525000Y-88750000D01*
G75*
G02*
X215750000Y-88525000I225000J0D01*
G01*
G37*
%TD.AperFunction*%
%TO.P,C37,2*%
%TO.N,+5V*%
%TA.AperFunction,SMDPad,CuDef*%
G36*
G01*
X215750000Y-90075000D02*
X216250000Y-90075000D01*
G75*
G02*
X216475000Y-90300000I0J-225000D01*
G01*
X216475000Y-90750000D01*
G75*
G02*
X216250000Y-90975000I-225000J0D01*
G01*
X215750000Y-90975000D01*
G75*
G02*
X215525000Y-90750000I0J225000D01*
G01*
X215525000Y-90300000D01*
G75*
G02*
X215750000Y-90075000I225000J0D01*
G01*
G37*
%TD.AperFunction*%
%TD*%
%TO.P,C49,1*%
%TO.N,GND*%
%TA.AperFunction,SMDPad,CuDef*%
G36*
G01*
X327750000Y-88525000D02*
X328250000Y-88525000D01*
G75*
G02*
X328475000Y-88750000I0J-225000D01*
G01*
X328475000Y-89200000D01*
G75*
G02*
X328250000Y-89425000I-225000J0D01*
G01*
X327750000Y-89425000D01*
G75*
G02*
X327525000Y-89200000I0J225000D01*
G01*
X327525000Y-88750000D01*
G75*
G02*
X327750000Y-88525000I225000J0D01*
G01*
G37*
%TD.AperFunction*%
%TO.P,C49,2*%
%TO.N,+5V*%
%TA.AperFunction,SMDPad,CuDef*%
G36*
G01*
X327750000Y-90075000D02*
X328250000Y-90075000D01*
G75*
G02*
X328475000Y-90300000I0J-225000D01*
G01*
X328475000Y-90750000D01*
G75*
G02*
X328250000Y-90975000I-225000J0D01*
G01*
X327750000Y-90975000D01*
G75*
G02*
X327525000Y-90750000I0J225000D01*
G01*
X327525000Y-90300000D01*
G75*
G02*
X327750000Y-90075000I225000J0D01*
G01*
G37*
%TD.AperFunction*%
%TD*%
%TO.P,C43,1*%
%TO.N,GND*%
%TA.AperFunction,SMDPad,CuDef*%
G36*
G01*
X271750000Y-88525000D02*
X272250000Y-88525000D01*
G75*
G02*
X272475000Y-88750000I0J-225000D01*
G01*
X272475000Y-89200000D01*
G75*
G02*
X272250000Y-89425000I-225000J0D01*
G01*
X271750000Y-89425000D01*
G75*
G02*
X271525000Y-89200000I0J225000D01*
G01*
X271525000Y-88750000D01*
G75*
G02*
X271750000Y-88525000I225000J0D01*
G01*
G37*
%TD.AperFunction*%
%TO.P,C43,2*%
%TO.N,+5V*%
%TA.AperFunction,SMDPad,CuDef*%
G36*
G01*
X271750000Y-90075000D02*
X272250000Y-90075000D01*
G75*
G02*
X272475000Y-90300000I0J-225000D01*
G01*
X272475000Y-90750000D01*
G75*
G02*
X272250000Y-90975000I-225000J0D01*
G01*
X271750000Y-90975000D01*
G75*
G02*
X271525000Y-90750000I0J225000D01*
G01*
X271525000Y-90300000D01*
G75*
G02*
X271750000Y-90075000I225000J0D01*
G01*
G37*
%TD.AperFunction*%
%TD*%
%TO.P,C46,1*%
%TO.N,GND*%
%TA.AperFunction,SMDPad,CuDef*%
G36*
G01*
X299750000Y-88525000D02*
X300250000Y-88525000D01*
G75*
G02*
X300475000Y-88750000I0J-225000D01*
G01*
X300475000Y-89200000D01*
G75*
G02*
X300250000Y-89425000I-225000J0D01*
G01*
X299750000Y-89425000D01*
G75*
G02*
X299525000Y-89200000I0J225000D01*
G01*
X299525000Y-88750000D01*
G75*
G02*
X299750000Y-88525000I225000J0D01*
G01*
G37*
%TD.AperFunction*%
%TO.P,C46,2*%
%TO.N,+5V*%
%TA.AperFunction,SMDPad,CuDef*%
G36*
G01*
X299750000Y-90075000D02*
X300250000Y-90075000D01*
G75*
G02*
X300475000Y-90300000I0J-225000D01*
G01*
X300475000Y-90750000D01*
G75*
G02*
X300250000Y-90975000I-225000J0D01*
G01*
X299750000Y-90975000D01*
G75*
G02*
X299525000Y-90750000I0J225000D01*
G01*
X299525000Y-90300000D01*
G75*
G02*
X299750000Y-90075000I225000J0D01*
G01*
G37*
%TD.AperFunction*%
%TD*%
%TO.P,C34,1*%
%TO.N,GND*%
%TA.AperFunction,SMDPad,CuDef*%
G36*
G01*
X187750000Y-88525000D02*
X188250000Y-88525000D01*
G75*
G02*
X188475000Y-88750000I0J-225000D01*
G01*
X188475000Y-89200000D01*
G75*
G02*
X188250000Y-89425000I-225000J0D01*
G01*
X187750000Y-89425000D01*
G75*
G02*
X187525000Y-89200000I0J225000D01*
G01*
X187525000Y-88750000D01*
G75*
G02*
X187750000Y-88525000I225000J0D01*
G01*
G37*
%TD.AperFunction*%
%TO.P,C34,2*%
%TO.N,+5V*%
%TA.AperFunction,SMDPad,CuDef*%
G36*
G01*
X187750000Y-90075000D02*
X188250000Y-90075000D01*
G75*
G02*
X188475000Y-90300000I0J-225000D01*
G01*
X188475000Y-90750000D01*
G75*
G02*
X188250000Y-90975000I-225000J0D01*
G01*
X187750000Y-90975000D01*
G75*
G02*
X187525000Y-90750000I0J225000D01*
G01*
X187525000Y-90300000D01*
G75*
G02*
X187750000Y-90075000I225000J0D01*
G01*
G37*
%TD.AperFunction*%
%TD*%
%TO.P,C40,1*%
%TO.N,GND*%
%TA.AperFunction,SMDPad,CuDef*%
G36*
G01*
X243750000Y-88525000D02*
X244250000Y-88525000D01*
G75*
G02*
X244475000Y-88750000I0J-225000D01*
G01*
X244475000Y-89200000D01*
G75*
G02*
X244250000Y-89425000I-225000J0D01*
G01*
X243750000Y-89425000D01*
G75*
G02*
X243525000Y-89200000I0J225000D01*
G01*
X243525000Y-88750000D01*
G75*
G02*
X243750000Y-88525000I225000J0D01*
G01*
G37*
%TD.AperFunction*%
%TO.P,C40,2*%
%TO.N,+5V*%
%TA.AperFunction,SMDPad,CuDef*%
G36*
G01*
X243750000Y-90075000D02*
X244250000Y-90075000D01*
G75*
G02*
X244475000Y-90300000I0J-225000D01*
G01*
X244475000Y-90750000D01*
G75*
G02*
X244250000Y-90975000I-225000J0D01*
G01*
X243750000Y-90975000D01*
G75*
G02*
X243525000Y-90750000I0J225000D01*
G01*
X243525000Y-90300000D01*
G75*
G02*
X243750000Y-90075000I225000J0D01*
G01*
G37*
%TD.AperFunction*%
%TD*%
%TO.P,C41,1*%
%TO.N,GND*%
%TA.AperFunction,SMDPad,CuDef*%
G36*
G01*
X253083334Y-88525000D02*
X253583334Y-88525000D01*
G75*
G02*
X253808334Y-88750000I0J-225000D01*
G01*
X253808334Y-89200000D01*
G75*
G02*
X253583334Y-89425000I-225000J0D01*
G01*
X253083334Y-89425000D01*
G75*
G02*
X252858334Y-89200000I0J225000D01*
G01*
X252858334Y-88750000D01*
G75*
G02*
X253083334Y-88525000I225000J0D01*
G01*
G37*
%TD.AperFunction*%
%TO.P,C41,2*%
%TO.N,+5V*%
%TA.AperFunction,SMDPad,CuDef*%
G36*
G01*
X253083334Y-90075000D02*
X253583334Y-90075000D01*
G75*
G02*
X253808334Y-90300000I0J-225000D01*
G01*
X253808334Y-90750000D01*
G75*
G02*
X253583334Y-90975000I-225000J0D01*
G01*
X253083334Y-90975000D01*
G75*
G02*
X252858334Y-90750000I0J225000D01*
G01*
X252858334Y-90300000D01*
G75*
G02*
X253083334Y-90075000I225000J0D01*
G01*
G37*
%TD.AperFunction*%
%TD*%
%TO.P,C17,1*%
%TO.N,GND*%
%TA.AperFunction,SMDPad,CuDef*%
G36*
G01*
X29083334Y-88525000D02*
X29583334Y-88525000D01*
G75*
G02*
X29808334Y-88750000I0J-225000D01*
G01*
X29808334Y-89200000D01*
G75*
G02*
X29583334Y-89425000I-225000J0D01*
G01*
X29083334Y-89425000D01*
G75*
G02*
X28858334Y-89200000I0J225000D01*
G01*
X28858334Y-88750000D01*
G75*
G02*
X29083334Y-88525000I225000J0D01*
G01*
G37*
%TD.AperFunction*%
%TO.P,C17,2*%
%TO.N,+5V*%
%TA.AperFunction,SMDPad,CuDef*%
G36*
G01*
X29083334Y-90075000D02*
X29583334Y-90075000D01*
G75*
G02*
X29808334Y-90300000I0J-225000D01*
G01*
X29808334Y-90750000D01*
G75*
G02*
X29583334Y-90975000I-225000J0D01*
G01*
X29083334Y-90975000D01*
G75*
G02*
X28858334Y-90750000I0J225000D01*
G01*
X28858334Y-90300000D01*
G75*
G02*
X29083334Y-90075000I225000J0D01*
G01*
G37*
%TD.AperFunction*%
%TD*%
%TO.P,C38,1*%
%TO.N,GND*%
%TA.AperFunction,SMDPad,CuDef*%
G36*
G01*
X225083334Y-88525000D02*
X225583334Y-88525000D01*
G75*
G02*
X225808334Y-88750000I0J-225000D01*
G01*
X225808334Y-89200000D01*
G75*
G02*
X225583334Y-89425000I-225000J0D01*
G01*
X225083334Y-89425000D01*
G75*
G02*
X224858334Y-89200000I0J225000D01*
G01*
X224858334Y-88750000D01*
G75*
G02*
X225083334Y-88525000I225000J0D01*
G01*
G37*
%TD.AperFunction*%
%TO.P,C38,2*%
%TO.N,+5V*%
%TA.AperFunction,SMDPad,CuDef*%
G36*
G01*
X225083334Y-90075000D02*
X225583334Y-90075000D01*
G75*
G02*
X225808334Y-90300000I0J-225000D01*
G01*
X225808334Y-90750000D01*
G75*
G02*
X225583334Y-90975000I-225000J0D01*
G01*
X225083334Y-90975000D01*
G75*
G02*
X224858334Y-90750000I0J225000D01*
G01*
X224858334Y-90300000D01*
G75*
G02*
X225083334Y-90075000I225000J0D01*
G01*
G37*
%TD.AperFunction*%
%TD*%
%TO.P,C35,1*%
%TO.N,GND*%
%TA.AperFunction,SMDPad,CuDef*%
G36*
G01*
X197083334Y-88525000D02*
X197583334Y-88525000D01*
G75*
G02*
X197808334Y-88750000I0J-225000D01*
G01*
X197808334Y-89200000D01*
G75*
G02*
X197583334Y-89425000I-225000J0D01*
G01*
X197083334Y-89425000D01*
G75*
G02*
X196858334Y-89200000I0J225000D01*
G01*
X196858334Y-88750000D01*
G75*
G02*
X197083334Y-88525000I225000J0D01*
G01*
G37*
%TD.AperFunction*%
%TO.P,C35,2*%
%TO.N,+5V*%
%TA.AperFunction,SMDPad,CuDef*%
G36*
G01*
X197083334Y-90075000D02*
X197583334Y-90075000D01*
G75*
G02*
X197808334Y-90300000I0J-225000D01*
G01*
X197808334Y-90750000D01*
G75*
G02*
X197583334Y-90975000I-225000J0D01*
G01*
X197083334Y-90975000D01*
G75*
G02*
X196858334Y-90750000I0J225000D01*
G01*
X196858334Y-90300000D01*
G75*
G02*
X197083334Y-90075000I225000J0D01*
G01*
G37*
%TD.AperFunction*%
%TD*%
%TO.P,C14,1*%
%TO.N,GND*%
%TA.AperFunction,SMDPad,CuDef*%
G36*
G01*
X1083334Y-88525000D02*
X1583334Y-88525000D01*
G75*
G02*
X1808334Y-88750000I0J-225000D01*
G01*
X1808334Y-89200000D01*
G75*
G02*
X1583334Y-89425000I-225000J0D01*
G01*
X1083334Y-89425000D01*
G75*
G02*
X858334Y-89200000I0J225000D01*
G01*
X858334Y-88750000D01*
G75*
G02*
X1083334Y-88525000I225000J0D01*
G01*
G37*
%TD.AperFunction*%
%TO.P,C14,2*%
%TO.N,+5V*%
%TA.AperFunction,SMDPad,CuDef*%
G36*
G01*
X1083334Y-90075000D02*
X1583334Y-90075000D01*
G75*
G02*
X1808334Y-90300000I0J-225000D01*
G01*
X1808334Y-90750000D01*
G75*
G02*
X1583334Y-90975000I-225000J0D01*
G01*
X1083334Y-90975000D01*
G75*
G02*
X858334Y-90750000I0J225000D01*
G01*
X858334Y-90300000D01*
G75*
G02*
X1083334Y-90075000I225000J0D01*
G01*
G37*
%TD.AperFunction*%
%TD*%
%TO.P,C11,1*%
%TO.N,GND*%
%TA.AperFunction,SMDPad,CuDef*%
G36*
G01*
X-26916666Y-88525000D02*
X-26416666Y-88525000D01*
G75*
G02*
X-26191666Y-88750000I0J-225000D01*
G01*
X-26191666Y-89200000D01*
G75*
G02*
X-26416666Y-89425000I-225000J0D01*
G01*
X-26916666Y-89425000D01*
G75*
G02*
X-27141666Y-89200000I0J225000D01*
G01*
X-27141666Y-88750000D01*
G75*
G02*
X-26916666Y-88525000I225000J0D01*
G01*
G37*
%TD.AperFunction*%
%TO.P,C11,2*%
%TO.N,+5V*%
%TA.AperFunction,SMDPad,CuDef*%
G36*
G01*
X-26916666Y-90075000D02*
X-26416666Y-90075000D01*
G75*
G02*
X-26191666Y-90300000I0J-225000D01*
G01*
X-26191666Y-90750000D01*
G75*
G02*
X-26416666Y-90975000I-225000J0D01*
G01*
X-26916666Y-90975000D01*
G75*
G02*
X-27141666Y-90750000I0J225000D01*
G01*
X-27141666Y-90300000D01*
G75*
G02*
X-26916666Y-90075000I225000J0D01*
G01*
G37*
%TD.AperFunction*%
%TD*%
%TO.P,C32,1*%
%TO.N,GND*%
%TA.AperFunction,SMDPad,CuDef*%
G36*
G01*
X169083334Y-88525000D02*
X169583334Y-88525000D01*
G75*
G02*
X169808334Y-88750000I0J-225000D01*
G01*
X169808334Y-89200000D01*
G75*
G02*
X169583334Y-89425000I-225000J0D01*
G01*
X169083334Y-89425000D01*
G75*
G02*
X168858334Y-89200000I0J225000D01*
G01*
X168858334Y-88750000D01*
G75*
G02*
X169083334Y-88525000I225000J0D01*
G01*
G37*
%TD.AperFunction*%
%TO.P,C32,2*%
%TO.N,+5V*%
%TA.AperFunction,SMDPad,CuDef*%
G36*
G01*
X169083334Y-90075000D02*
X169583334Y-90075000D01*
G75*
G02*
X169808334Y-90300000I0J-225000D01*
G01*
X169808334Y-90750000D01*
G75*
G02*
X169583334Y-90975000I-225000J0D01*
G01*
X169083334Y-90975000D01*
G75*
G02*
X168858334Y-90750000I0J225000D01*
G01*
X168858334Y-90300000D01*
G75*
G02*
X169083334Y-90075000I225000J0D01*
G01*
G37*
%TD.AperFunction*%
%TD*%
%TO.P,C29,1*%
%TO.N,GND*%
%TA.AperFunction,SMDPad,CuDef*%
G36*
G01*
X141083334Y-88525000D02*
X141583334Y-88525000D01*
G75*
G02*
X141808334Y-88750000I0J-225000D01*
G01*
X141808334Y-89200000D01*
G75*
G02*
X141583334Y-89425000I-225000J0D01*
G01*
X141083334Y-89425000D01*
G75*
G02*
X140858334Y-89200000I0J225000D01*
G01*
X140858334Y-88750000D01*
G75*
G02*
X141083334Y-88525000I225000J0D01*
G01*
G37*
%TD.AperFunction*%
%TO.P,C29,2*%
%TO.N,+5V*%
%TA.AperFunction,SMDPad,CuDef*%
G36*
G01*
X141083334Y-90075000D02*
X141583334Y-90075000D01*
G75*
G02*
X141808334Y-90300000I0J-225000D01*
G01*
X141808334Y-90750000D01*
G75*
G02*
X141583334Y-90975000I-225000J0D01*
G01*
X141083334Y-90975000D01*
G75*
G02*
X140858334Y-90750000I0J225000D01*
G01*
X140858334Y-90300000D01*
G75*
G02*
X141083334Y-90075000I225000J0D01*
G01*
G37*
%TD.AperFunction*%
%TD*%
%TO.P,C26,1*%
%TO.N,GND*%
%TA.AperFunction,SMDPad,CuDef*%
G36*
G01*
X113083334Y-88525000D02*
X113583334Y-88525000D01*
G75*
G02*
X113808334Y-88750000I0J-225000D01*
G01*
X113808334Y-89200000D01*
G75*
G02*
X113583334Y-89425000I-225000J0D01*
G01*
X113083334Y-89425000D01*
G75*
G02*
X112858334Y-89200000I0J225000D01*
G01*
X112858334Y-88750000D01*
G75*
G02*
X113083334Y-88525000I225000J0D01*
G01*
G37*
%TD.AperFunction*%
%TO.P,C26,2*%
%TO.N,+5V*%
%TA.AperFunction,SMDPad,CuDef*%
G36*
G01*
X113083334Y-90075000D02*
X113583334Y-90075000D01*
G75*
G02*
X113808334Y-90300000I0J-225000D01*
G01*
X113808334Y-90750000D01*
G75*
G02*
X113583334Y-90975000I-225000J0D01*
G01*
X113083334Y-90975000D01*
G75*
G02*
X112858334Y-90750000I0J225000D01*
G01*
X112858334Y-90300000D01*
G75*
G02*
X113083334Y-90075000I225000J0D01*
G01*
G37*
%TD.AperFunction*%
%TD*%
%TO.P,C23,1*%
%TO.N,GND*%
%TA.AperFunction,SMDPad,CuDef*%
G36*
G01*
X85083334Y-88525000D02*
X85583334Y-88525000D01*
G75*
G02*
X85808334Y-88750000I0J-225000D01*
G01*
X85808334Y-89200000D01*
G75*
G02*
X85583334Y-89425000I-225000J0D01*
G01*
X85083334Y-89425000D01*
G75*
G02*
X84858334Y-89200000I0J225000D01*
G01*
X84858334Y-88750000D01*
G75*
G02*
X85083334Y-88525000I225000J0D01*
G01*
G37*
%TD.AperFunction*%
%TO.P,C23,2*%
%TO.N,+5V*%
%TA.AperFunction,SMDPad,CuDef*%
G36*
G01*
X85083334Y-90075000D02*
X85583334Y-90075000D01*
G75*
G02*
X85808334Y-90300000I0J-225000D01*
G01*
X85808334Y-90750000D01*
G75*
G02*
X85583334Y-90975000I-225000J0D01*
G01*
X85083334Y-90975000D01*
G75*
G02*
X84858334Y-90750000I0J225000D01*
G01*
X84858334Y-90300000D01*
G75*
G02*
X85083334Y-90075000I225000J0D01*
G01*
G37*
%TD.AperFunction*%
%TD*%
%TO.P,C20,1*%
%TO.N,GND*%
%TA.AperFunction,SMDPad,CuDef*%
G36*
G01*
X57083334Y-88525000D02*
X57583334Y-88525000D01*
G75*
G02*
X57808334Y-88750000I0J-225000D01*
G01*
X57808334Y-89200000D01*
G75*
G02*
X57583334Y-89425000I-225000J0D01*
G01*
X57083334Y-89425000D01*
G75*
G02*
X56858334Y-89200000I0J225000D01*
G01*
X56858334Y-88750000D01*
G75*
G02*
X57083334Y-88525000I225000J0D01*
G01*
G37*
%TD.AperFunction*%
%TO.P,C20,2*%
%TO.N,+5V*%
%TA.AperFunction,SMDPad,CuDef*%
G36*
G01*
X57083334Y-90075000D02*
X57583334Y-90075000D01*
G75*
G02*
X57808334Y-90300000I0J-225000D01*
G01*
X57808334Y-90750000D01*
G75*
G02*
X57583334Y-90975000I-225000J0D01*
G01*
X57083334Y-90975000D01*
G75*
G02*
X56858334Y-90750000I0J225000D01*
G01*
X56858334Y-90300000D01*
G75*
G02*
X57083334Y-90075000I225000J0D01*
G01*
G37*
%TD.AperFunction*%
%TD*%
%TO.P,C8,1*%
%TO.N,GND*%
%TA.AperFunction,SMDPad,CuDef*%
G36*
G01*
X-54916666Y-88525000D02*
X-54416666Y-88525000D01*
G75*
G02*
X-54191666Y-88750000I0J-225000D01*
G01*
X-54191666Y-89200000D01*
G75*
G02*
X-54416666Y-89425000I-225000J0D01*
G01*
X-54916666Y-89425000D01*
G75*
G02*
X-55141666Y-89200000I0J225000D01*
G01*
X-55141666Y-88750000D01*
G75*
G02*
X-54916666Y-88525000I225000J0D01*
G01*
G37*
%TD.AperFunction*%
%TO.P,C8,2*%
%TO.N,+5V*%
%TA.AperFunction,SMDPad,CuDef*%
G36*
G01*
X-54916666Y-90075000D02*
X-54416666Y-90075000D01*
G75*
G02*
X-54191666Y-90300000I0J-225000D01*
G01*
X-54191666Y-90750000D01*
G75*
G02*
X-54416666Y-90975000I-225000J0D01*
G01*
X-54916666Y-90975000D01*
G75*
G02*
X-55141666Y-90750000I0J225000D01*
G01*
X-55141666Y-90300000D01*
G75*
G02*
X-54916666Y-90075000I225000J0D01*
G01*
G37*
%TD.AperFunction*%
%TD*%
%TO.P,C27,2*%
%TO.N,+5V*%
%TA.AperFunction,SMDPad,CuDef*%
G36*
G01*
X122416667Y-90075000D02*
X122916667Y-90075000D01*
G75*
G02*
X123141667Y-90300000I0J-225000D01*
G01*
X123141667Y-90750000D01*
G75*
G02*
X122916667Y-90975000I-225000J0D01*
G01*
X122416667Y-90975000D01*
G75*
G02*
X122191667Y-90750000I0J225000D01*
G01*
X122191667Y-90300000D01*
G75*
G02*
X122416667Y-90075000I225000J0D01*
G01*
G37*
%TD.AperFunction*%
%TO.P,C27,1*%
%TO.N,GND*%
%TA.AperFunction,SMDPad,CuDef*%
G36*
G01*
X122416667Y-88525000D02*
X122916667Y-88525000D01*
G75*
G02*
X123141667Y-88750000I0J-225000D01*
G01*
X123141667Y-89200000D01*
G75*
G02*
X122916667Y-89425000I-225000J0D01*
G01*
X122416667Y-89425000D01*
G75*
G02*
X122191667Y-89200000I0J225000D01*
G01*
X122191667Y-88750000D01*
G75*
G02*
X122416667Y-88525000I225000J0D01*
G01*
G37*
%TD.AperFunction*%
%TD*%
%TO.P,C48,2*%
%TO.N,+5V*%
%TA.AperFunction,SMDPad,CuDef*%
G36*
G01*
X318416667Y-90075000D02*
X318916667Y-90075000D01*
G75*
G02*
X319141667Y-90300000I0J-225000D01*
G01*
X319141667Y-90750000D01*
G75*
G02*
X318916667Y-90975000I-225000J0D01*
G01*
X318416667Y-90975000D01*
G75*
G02*
X318191667Y-90750000I0J225000D01*
G01*
X318191667Y-90300000D01*
G75*
G02*
X318416667Y-90075000I225000J0D01*
G01*
G37*
%TD.AperFunction*%
%TO.P,C48,1*%
%TO.N,GND*%
%TA.AperFunction,SMDPad,CuDef*%
G36*
G01*
X318416667Y-88525000D02*
X318916667Y-88525000D01*
G75*
G02*
X319141667Y-88750000I0J-225000D01*
G01*
X319141667Y-89200000D01*
G75*
G02*
X318916667Y-89425000I-225000J0D01*
G01*
X318416667Y-89425000D01*
G75*
G02*
X318191667Y-89200000I0J225000D01*
G01*
X318191667Y-88750000D01*
G75*
G02*
X318416667Y-88525000I225000J0D01*
G01*
G37*
%TD.AperFunction*%
%TD*%
%TO.P,C30,2*%
%TO.N,+5V*%
%TA.AperFunction,SMDPad,CuDef*%
G36*
G01*
X150416667Y-90075000D02*
X150916667Y-90075000D01*
G75*
G02*
X151141667Y-90300000I0J-225000D01*
G01*
X151141667Y-90750000D01*
G75*
G02*
X150916667Y-90975000I-225000J0D01*
G01*
X150416667Y-90975000D01*
G75*
G02*
X150191667Y-90750000I0J225000D01*
G01*
X150191667Y-90300000D01*
G75*
G02*
X150416667Y-90075000I225000J0D01*
G01*
G37*
%TD.AperFunction*%
%TO.P,C30,1*%
%TO.N,GND*%
%TA.AperFunction,SMDPad,CuDef*%
G36*
G01*
X150416667Y-88525000D02*
X150916667Y-88525000D01*
G75*
G02*
X151141667Y-88750000I0J-225000D01*
G01*
X151141667Y-89200000D01*
G75*
G02*
X150916667Y-89425000I-225000J0D01*
G01*
X150416667Y-89425000D01*
G75*
G02*
X150191667Y-89200000I0J225000D01*
G01*
X150191667Y-88750000D01*
G75*
G02*
X150416667Y-88525000I225000J0D01*
G01*
G37*
%TD.AperFunction*%
%TD*%
%TO.P,C51,2*%
%TO.N,+5V*%
%TA.AperFunction,SMDPad,CuDef*%
G36*
G01*
X346416667Y-90075000D02*
X346916667Y-90075000D01*
G75*
G02*
X347141667Y-90300000I0J-225000D01*
G01*
X347141667Y-90750000D01*
G75*
G02*
X346916667Y-90975000I-225000J0D01*
G01*
X346416667Y-90975000D01*
G75*
G02*
X346191667Y-90750000I0J225000D01*
G01*
X346191667Y-90300000D01*
G75*
G02*
X346416667Y-90075000I225000J0D01*
G01*
G37*
%TD.AperFunction*%
%TO.P,C51,1*%
%TO.N,GND*%
%TA.AperFunction,SMDPad,CuDef*%
G36*
G01*
X346416667Y-88525000D02*
X346916667Y-88525000D01*
G75*
G02*
X347141667Y-88750000I0J-225000D01*
G01*
X347141667Y-89200000D01*
G75*
G02*
X346916667Y-89425000I-225000J0D01*
G01*
X346416667Y-89425000D01*
G75*
G02*
X346191667Y-89200000I0J225000D01*
G01*
X346191667Y-88750000D01*
G75*
G02*
X346416667Y-88525000I225000J0D01*
G01*
G37*
%TD.AperFunction*%
%TD*%
%TO.P,C12,2*%
%TO.N,+5V*%
%TA.AperFunction,SMDPad,CuDef*%
G36*
G01*
X-17583333Y-90075000D02*
X-17083333Y-90075000D01*
G75*
G02*
X-16858333Y-90300000I0J-225000D01*
G01*
X-16858333Y-90750000D01*
G75*
G02*
X-17083333Y-90975000I-225000J0D01*
G01*
X-17583333Y-90975000D01*
G75*
G02*
X-17808333Y-90750000I0J225000D01*
G01*
X-17808333Y-90300000D01*
G75*
G02*
X-17583333Y-90075000I225000J0D01*
G01*
G37*
%TD.AperFunction*%
%TO.P,C12,1*%
%TO.N,GND*%
%TA.AperFunction,SMDPad,CuDef*%
G36*
G01*
X-17583333Y-88525000D02*
X-17083333Y-88525000D01*
G75*
G02*
X-16858333Y-88750000I0J-225000D01*
G01*
X-16858333Y-89200000D01*
G75*
G02*
X-17083333Y-89425000I-225000J0D01*
G01*
X-17583333Y-89425000D01*
G75*
G02*
X-17808333Y-89200000I0J225000D01*
G01*
X-17808333Y-88750000D01*
G75*
G02*
X-17583333Y-88525000I225000J0D01*
G01*
G37*
%TD.AperFunction*%
%TD*%
%TO.P,C36,2*%
%TO.N,+5V*%
%TA.AperFunction,SMDPad,CuDef*%
G36*
G01*
X206416667Y-90075000D02*
X206916667Y-90075000D01*
G75*
G02*
X207141667Y-90300000I0J-225000D01*
G01*
X207141667Y-90750000D01*
G75*
G02*
X206916667Y-90975000I-225000J0D01*
G01*
X206416667Y-90975000D01*
G75*
G02*
X206191667Y-90750000I0J225000D01*
G01*
X206191667Y-90300000D01*
G75*
G02*
X206416667Y-90075000I225000J0D01*
G01*
G37*
%TD.AperFunction*%
%TO.P,C36,1*%
%TO.N,GND*%
%TA.AperFunction,SMDPad,CuDef*%
G36*
G01*
X206416667Y-88525000D02*
X206916667Y-88525000D01*
G75*
G02*
X207141667Y-88750000I0J-225000D01*
G01*
X207141667Y-89200000D01*
G75*
G02*
X206916667Y-89425000I-225000J0D01*
G01*
X206416667Y-89425000D01*
G75*
G02*
X206191667Y-89200000I0J225000D01*
G01*
X206191667Y-88750000D01*
G75*
G02*
X206416667Y-88525000I225000J0D01*
G01*
G37*
%TD.AperFunction*%
%TD*%
%TO.P,C18,2*%
%TO.N,+5V*%
%TA.AperFunction,SMDPad,CuDef*%
G36*
G01*
X38416667Y-90075000D02*
X38916667Y-90075000D01*
G75*
G02*
X39141667Y-90300000I0J-225000D01*
G01*
X39141667Y-90750000D01*
G75*
G02*
X38916667Y-90975000I-225000J0D01*
G01*
X38416667Y-90975000D01*
G75*
G02*
X38191667Y-90750000I0J225000D01*
G01*
X38191667Y-90300000D01*
G75*
G02*
X38416667Y-90075000I225000J0D01*
G01*
G37*
%TD.AperFunction*%
%TO.P,C18,1*%
%TO.N,GND*%
%TA.AperFunction,SMDPad,CuDef*%
G36*
G01*
X38416667Y-88525000D02*
X38916667Y-88525000D01*
G75*
G02*
X39141667Y-88750000I0J-225000D01*
G01*
X39141667Y-89200000D01*
G75*
G02*
X38916667Y-89425000I-225000J0D01*
G01*
X38416667Y-89425000D01*
G75*
G02*
X38191667Y-89200000I0J225000D01*
G01*
X38191667Y-88750000D01*
G75*
G02*
X38416667Y-88525000I225000J0D01*
G01*
G37*
%TD.AperFunction*%
%TD*%
%TO.P,C42,2*%
%TO.N,+5V*%
%TA.AperFunction,SMDPad,CuDef*%
G36*
G01*
X262416667Y-90075000D02*
X262916667Y-90075000D01*
G75*
G02*
X263141667Y-90300000I0J-225000D01*
G01*
X263141667Y-90750000D01*
G75*
G02*
X262916667Y-90975000I-225000J0D01*
G01*
X262416667Y-90975000D01*
G75*
G02*
X262191667Y-90750000I0J225000D01*
G01*
X262191667Y-90300000D01*
G75*
G02*
X262416667Y-90075000I225000J0D01*
G01*
G37*
%TD.AperFunction*%
%TO.P,C42,1*%
%TO.N,GND*%
%TA.AperFunction,SMDPad,CuDef*%
G36*
G01*
X262416667Y-88525000D02*
X262916667Y-88525000D01*
G75*
G02*
X263141667Y-88750000I0J-225000D01*
G01*
X263141667Y-89200000D01*
G75*
G02*
X262916667Y-89425000I-225000J0D01*
G01*
X262416667Y-89425000D01*
G75*
G02*
X262191667Y-89200000I0J225000D01*
G01*
X262191667Y-88750000D01*
G75*
G02*
X262416667Y-88525000I225000J0D01*
G01*
G37*
%TD.AperFunction*%
%TD*%
%TO.P,C15,2*%
%TO.N,+5V*%
%TA.AperFunction,SMDPad,CuDef*%
G36*
G01*
X10416667Y-90075000D02*
X10916667Y-90075000D01*
G75*
G02*
X11141667Y-90300000I0J-225000D01*
G01*
X11141667Y-90750000D01*
G75*
G02*
X10916667Y-90975000I-225000J0D01*
G01*
X10416667Y-90975000D01*
G75*
G02*
X10191667Y-90750000I0J225000D01*
G01*
X10191667Y-90300000D01*
G75*
G02*
X10416667Y-90075000I225000J0D01*
G01*
G37*
%TD.AperFunction*%
%TO.P,C15,1*%
%TO.N,GND*%
%TA.AperFunction,SMDPad,CuDef*%
G36*
G01*
X10416667Y-88525000D02*
X10916667Y-88525000D01*
G75*
G02*
X11141667Y-88750000I0J-225000D01*
G01*
X11141667Y-89200000D01*
G75*
G02*
X10916667Y-89425000I-225000J0D01*
G01*
X10416667Y-89425000D01*
G75*
G02*
X10191667Y-89200000I0J225000D01*
G01*
X10191667Y-88750000D01*
G75*
G02*
X10416667Y-88525000I225000J0D01*
G01*
G37*
%TD.AperFunction*%
%TD*%
%TO.P,C33,2*%
%TO.N,+5V*%
%TA.AperFunction,SMDPad,CuDef*%
G36*
G01*
X178416667Y-90075000D02*
X178916667Y-90075000D01*
G75*
G02*
X179141667Y-90300000I0J-225000D01*
G01*
X179141667Y-90750000D01*
G75*
G02*
X178916667Y-90975000I-225000J0D01*
G01*
X178416667Y-90975000D01*
G75*
G02*
X178191667Y-90750000I0J225000D01*
G01*
X178191667Y-90300000D01*
G75*
G02*
X178416667Y-90075000I225000J0D01*
G01*
G37*
%TD.AperFunction*%
%TO.P,C33,1*%
%TO.N,GND*%
%TA.AperFunction,SMDPad,CuDef*%
G36*
G01*
X178416667Y-88525000D02*
X178916667Y-88525000D01*
G75*
G02*
X179141667Y-88750000I0J-225000D01*
G01*
X179141667Y-89200000D01*
G75*
G02*
X178916667Y-89425000I-225000J0D01*
G01*
X178416667Y-89425000D01*
G75*
G02*
X178191667Y-89200000I0J225000D01*
G01*
X178191667Y-88750000D01*
G75*
G02*
X178416667Y-88525000I225000J0D01*
G01*
G37*
%TD.AperFunction*%
%TD*%
%TO.P,C39,2*%
%TO.N,+5V*%
%TA.AperFunction,SMDPad,CuDef*%
G36*
G01*
X234416667Y-90075000D02*
X234916667Y-90075000D01*
G75*
G02*
X235141667Y-90300000I0J-225000D01*
G01*
X235141667Y-90750000D01*
G75*
G02*
X234916667Y-90975000I-225000J0D01*
G01*
X234416667Y-90975000D01*
G75*
G02*
X234191667Y-90750000I0J225000D01*
G01*
X234191667Y-90300000D01*
G75*
G02*
X234416667Y-90075000I225000J0D01*
G01*
G37*
%TD.AperFunction*%
%TO.P,C39,1*%
%TO.N,GND*%
%TA.AperFunction,SMDPad,CuDef*%
G36*
G01*
X234416667Y-88525000D02*
X234916667Y-88525000D01*
G75*
G02*
X235141667Y-88750000I0J-225000D01*
G01*
X235141667Y-89200000D01*
G75*
G02*
X234916667Y-89425000I-225000J0D01*
G01*
X234416667Y-89425000D01*
G75*
G02*
X234191667Y-89200000I0J225000D01*
G01*
X234191667Y-88750000D01*
G75*
G02*
X234416667Y-88525000I225000J0D01*
G01*
G37*
%TD.AperFunction*%
%TD*%
%TO.P,C24,2*%
%TO.N,+5V*%
%TA.AperFunction,SMDPad,CuDef*%
G36*
G01*
X94416667Y-90075000D02*
X94916667Y-90075000D01*
G75*
G02*
X95141667Y-90300000I0J-225000D01*
G01*
X95141667Y-90750000D01*
G75*
G02*
X94916667Y-90975000I-225000J0D01*
G01*
X94416667Y-90975000D01*
G75*
G02*
X94191667Y-90750000I0J225000D01*
G01*
X94191667Y-90300000D01*
G75*
G02*
X94416667Y-90075000I225000J0D01*
G01*
G37*
%TD.AperFunction*%
%TO.P,C24,1*%
%TO.N,GND*%
%TA.AperFunction,SMDPad,CuDef*%
G36*
G01*
X94416667Y-88525000D02*
X94916667Y-88525000D01*
G75*
G02*
X95141667Y-88750000I0J-225000D01*
G01*
X95141667Y-89200000D01*
G75*
G02*
X94916667Y-89425000I-225000J0D01*
G01*
X94416667Y-89425000D01*
G75*
G02*
X94191667Y-89200000I0J225000D01*
G01*
X94191667Y-88750000D01*
G75*
G02*
X94416667Y-88525000I225000J0D01*
G01*
G37*
%TD.AperFunction*%
%TD*%
%TO.P,C21,2*%
%TO.N,+5V*%
%TA.AperFunction,SMDPad,CuDef*%
G36*
G01*
X66416667Y-90075000D02*
X66916667Y-90075000D01*
G75*
G02*
X67141667Y-90300000I0J-225000D01*
G01*
X67141667Y-90750000D01*
G75*
G02*
X66916667Y-90975000I-225000J0D01*
G01*
X66416667Y-90975000D01*
G75*
G02*
X66191667Y-90750000I0J225000D01*
G01*
X66191667Y-90300000D01*
G75*
G02*
X66416667Y-90075000I225000J0D01*
G01*
G37*
%TD.AperFunction*%
%TO.P,C21,1*%
%TO.N,GND*%
%TA.AperFunction,SMDPad,CuDef*%
G36*
G01*
X66416667Y-88525000D02*
X66916667Y-88525000D01*
G75*
G02*
X67141667Y-88750000I0J-225000D01*
G01*
X67141667Y-89200000D01*
G75*
G02*
X66916667Y-89425000I-225000J0D01*
G01*
X66416667Y-89425000D01*
G75*
G02*
X66191667Y-89200000I0J225000D01*
G01*
X66191667Y-88750000D01*
G75*
G02*
X66416667Y-88525000I225000J0D01*
G01*
G37*
%TD.AperFunction*%
%TD*%
%TO.P,C9,2*%
%TO.N,+5V*%
%TA.AperFunction,SMDPad,CuDef*%
G36*
G01*
X-45583333Y-90075000D02*
X-45083333Y-90075000D01*
G75*
G02*
X-44858333Y-90300000I0J-225000D01*
G01*
X-44858333Y-90750000D01*
G75*
G02*
X-45083333Y-90975000I-225000J0D01*
G01*
X-45583333Y-90975000D01*
G75*
G02*
X-45808333Y-90750000I0J225000D01*
G01*
X-45808333Y-90300000D01*
G75*
G02*
X-45583333Y-90075000I225000J0D01*
G01*
G37*
%TD.AperFunction*%
%TO.P,C9,1*%
%TO.N,GND*%
%TA.AperFunction,SMDPad,CuDef*%
G36*
G01*
X-45583333Y-88525000D02*
X-45083333Y-88525000D01*
G75*
G02*
X-44858333Y-88750000I0J-225000D01*
G01*
X-44858333Y-89200000D01*
G75*
G02*
X-45083333Y-89425000I-225000J0D01*
G01*
X-45583333Y-89425000D01*
G75*
G02*
X-45808333Y-89200000I0J225000D01*
G01*
X-45808333Y-88750000D01*
G75*
G02*
X-45583333Y-88525000I225000J0D01*
G01*
G37*
%TD.AperFunction*%
%TD*%
%TO.P,C45,2*%
%TO.N,+5V*%
%TA.AperFunction,SMDPad,CuDef*%
G36*
G01*
X290416667Y-90075000D02*
X290916667Y-90075000D01*
G75*
G02*
X291141667Y-90300000I0J-225000D01*
G01*
X291141667Y-90750000D01*
G75*
G02*
X290916667Y-90975000I-225000J0D01*
G01*
X290416667Y-90975000D01*
G75*
G02*
X290191667Y-90750000I0J225000D01*
G01*
X290191667Y-90300000D01*
G75*
G02*
X290416667Y-90075000I225000J0D01*
G01*
G37*
%TD.AperFunction*%
%TO.P,C45,1*%
%TO.N,GND*%
%TA.AperFunction,SMDPad,CuDef*%
G36*
G01*
X290416667Y-88525000D02*
X290916667Y-88525000D01*
G75*
G02*
X291141667Y-88750000I0J-225000D01*
G01*
X291141667Y-89200000D01*
G75*
G02*
X290916667Y-89425000I-225000J0D01*
G01*
X290416667Y-89425000D01*
G75*
G02*
X290191667Y-89200000I0J225000D01*
G01*
X290191667Y-88750000D01*
G75*
G02*
X290416667Y-88525000I225000J0D01*
G01*
G37*
%TD.AperFunction*%
%TD*%
%TO.P,C31,1*%
%TO.N,GND*%
%TA.AperFunction,SMDPad,CuDef*%
G36*
G01*
X159750000Y-88525000D02*
X160250000Y-88525000D01*
G75*
G02*
X160475000Y-88750000I0J-225000D01*
G01*
X160475000Y-89200000D01*
G75*
G02*
X160250000Y-89425000I-225000J0D01*
G01*
X159750000Y-89425000D01*
G75*
G02*
X159525000Y-89200000I0J225000D01*
G01*
X159525000Y-88750000D01*
G75*
G02*
X159750000Y-88525000I225000J0D01*
G01*
G37*
%TD.AperFunction*%
%TO.P,C31,2*%
%TO.N,+5V*%
%TA.AperFunction,SMDPad,CuDef*%
G36*
G01*
X159750000Y-90075000D02*
X160250000Y-90075000D01*
G75*
G02*
X160475000Y-90300000I0J-225000D01*
G01*
X160475000Y-90750000D01*
G75*
G02*
X160250000Y-90975000I-225000J0D01*
G01*
X159750000Y-90975000D01*
G75*
G02*
X159525000Y-90750000I0J225000D01*
G01*
X159525000Y-90300000D01*
G75*
G02*
X159750000Y-90075000I225000J0D01*
G01*
G37*
%TD.AperFunction*%
%TD*%
%TO.P,C25,1*%
%TO.N,GND*%
%TA.AperFunction,SMDPad,CuDef*%
G36*
G01*
X103750000Y-88525000D02*
X104250000Y-88525000D01*
G75*
G02*
X104475000Y-88750000I0J-225000D01*
G01*
X104475000Y-89200000D01*
G75*
G02*
X104250000Y-89425000I-225000J0D01*
G01*
X103750000Y-89425000D01*
G75*
G02*
X103525000Y-89200000I0J225000D01*
G01*
X103525000Y-88750000D01*
G75*
G02*
X103750000Y-88525000I225000J0D01*
G01*
G37*
%TD.AperFunction*%
%TO.P,C25,2*%
%TO.N,+5V*%
%TA.AperFunction,SMDPad,CuDef*%
G36*
G01*
X103750000Y-90075000D02*
X104250000Y-90075000D01*
G75*
G02*
X104475000Y-90300000I0J-225000D01*
G01*
X104475000Y-90750000D01*
G75*
G02*
X104250000Y-90975000I-225000J0D01*
G01*
X103750000Y-90975000D01*
G75*
G02*
X103525000Y-90750000I0J225000D01*
G01*
X103525000Y-90300000D01*
G75*
G02*
X103750000Y-90075000I225000J0D01*
G01*
G37*
%TD.AperFunction*%
%TD*%
%TO.P,C7,2*%
%TO.N,+5V*%
%TA.AperFunction,SMDPad,CuDef*%
G36*
G01*
X-64250000Y-90075000D02*
X-63750000Y-90075000D01*
G75*
G02*
X-63525000Y-90300000I0J-225000D01*
G01*
X-63525000Y-90750000D01*
G75*
G02*
X-63750000Y-90975000I-225000J0D01*
G01*
X-64250000Y-90975000D01*
G75*
G02*
X-64475000Y-90750000I0J225000D01*
G01*
X-64475000Y-90300000D01*
G75*
G02*
X-64250000Y-90075000I225000J0D01*
G01*
G37*
%TD.AperFunction*%
%TO.P,C7,1*%
%TO.N,GND*%
%TA.AperFunction,SMDPad,CuDef*%
G36*
G01*
X-64250000Y-88525000D02*
X-63750000Y-88525000D01*
G75*
G02*
X-63525000Y-88750000I0J-225000D01*
G01*
X-63525000Y-89200000D01*
G75*
G02*
X-63750000Y-89425000I-225000J0D01*
G01*
X-64250000Y-89425000D01*
G75*
G02*
X-64475000Y-89200000I0J225000D01*
G01*
X-64475000Y-88750000D01*
G75*
G02*
X-64250000Y-88525000I225000J0D01*
G01*
G37*
%TD.AperFunction*%
%TD*%
%TO.P,C19,1*%
%TO.N,GND*%
%TA.AperFunction,SMDPad,CuDef*%
G36*
G01*
X47750000Y-88525000D02*
X48250000Y-88525000D01*
G75*
G02*
X48475000Y-88750000I0J-225000D01*
G01*
X48475000Y-89200000D01*
G75*
G02*
X48250000Y-89425000I-225000J0D01*
G01*
X47750000Y-89425000D01*
G75*
G02*
X47525000Y-89200000I0J225000D01*
G01*
X47525000Y-88750000D01*
G75*
G02*
X47750000Y-88525000I225000J0D01*
G01*
G37*
%TD.AperFunction*%
%TO.P,C19,2*%
%TO.N,+5V*%
%TA.AperFunction,SMDPad,CuDef*%
G36*
G01*
X47750000Y-90075000D02*
X48250000Y-90075000D01*
G75*
G02*
X48475000Y-90300000I0J-225000D01*
G01*
X48475000Y-90750000D01*
G75*
G02*
X48250000Y-90975000I-225000J0D01*
G01*
X47750000Y-90975000D01*
G75*
G02*
X47525000Y-90750000I0J225000D01*
G01*
X47525000Y-90300000D01*
G75*
G02*
X47750000Y-90075000I225000J0D01*
G01*
G37*
%TD.AperFunction*%
%TD*%
%TO.P,C16,1*%
%TO.N,GND*%
%TA.AperFunction,SMDPad,CuDef*%
G36*
G01*
X19750000Y-88525000D02*
X20250000Y-88525000D01*
G75*
G02*
X20475000Y-88750000I0J-225000D01*
G01*
X20475000Y-89200000D01*
G75*
G02*
X20250000Y-89425000I-225000J0D01*
G01*
X19750000Y-89425000D01*
G75*
G02*
X19525000Y-89200000I0J225000D01*
G01*
X19525000Y-88750000D01*
G75*
G02*
X19750000Y-88525000I225000J0D01*
G01*
G37*
%TD.AperFunction*%
%TO.P,C16,2*%
%TO.N,+5V*%
%TA.AperFunction,SMDPad,CuDef*%
G36*
G01*
X19750000Y-90075000D02*
X20250000Y-90075000D01*
G75*
G02*
X20475000Y-90300000I0J-225000D01*
G01*
X20475000Y-90750000D01*
G75*
G02*
X20250000Y-90975000I-225000J0D01*
G01*
X19750000Y-90975000D01*
G75*
G02*
X19525000Y-90750000I0J225000D01*
G01*
X19525000Y-90300000D01*
G75*
G02*
X19750000Y-90075000I225000J0D01*
G01*
G37*
%TD.AperFunction*%
%TD*%
%TO.P,C28,1*%
%TO.N,GND*%
%TA.AperFunction,SMDPad,CuDef*%
G36*
G01*
X131750000Y-88525000D02*
X132250000Y-88525000D01*
G75*
G02*
X132475000Y-88750000I0J-225000D01*
G01*
X132475000Y-89200000D01*
G75*
G02*
X132250000Y-89425000I-225000J0D01*
G01*
X131750000Y-89425000D01*
G75*
G02*
X131525000Y-89200000I0J225000D01*
G01*
X131525000Y-88750000D01*
G75*
G02*
X131750000Y-88525000I225000J0D01*
G01*
G37*
%TD.AperFunction*%
%TO.P,C28,2*%
%TO.N,+5V*%
%TA.AperFunction,SMDPad,CuDef*%
G36*
G01*
X131750000Y-90075000D02*
X132250000Y-90075000D01*
G75*
G02*
X132475000Y-90300000I0J-225000D01*
G01*
X132475000Y-90750000D01*
G75*
G02*
X132250000Y-90975000I-225000J0D01*
G01*
X131750000Y-90975000D01*
G75*
G02*
X131525000Y-90750000I0J225000D01*
G01*
X131525000Y-90300000D01*
G75*
G02*
X131750000Y-90075000I225000J0D01*
G01*
G37*
%TD.AperFunction*%
%TD*%
%TO.P,C22,1*%
%TO.N,GND*%
%TA.AperFunction,SMDPad,CuDef*%
G36*
G01*
X75750000Y-88525000D02*
X76250000Y-88525000D01*
G75*
G02*
X76475000Y-88750000I0J-225000D01*
G01*
X76475000Y-89200000D01*
G75*
G02*
X76250000Y-89425000I-225000J0D01*
G01*
X75750000Y-89425000D01*
G75*
G02*
X75525000Y-89200000I0J225000D01*
G01*
X75525000Y-88750000D01*
G75*
G02*
X75750000Y-88525000I225000J0D01*
G01*
G37*
%TD.AperFunction*%
%TO.P,C22,2*%
%TO.N,+5V*%
%TA.AperFunction,SMDPad,CuDef*%
G36*
G01*
X75750000Y-90075000D02*
X76250000Y-90075000D01*
G75*
G02*
X76475000Y-90300000I0J-225000D01*
G01*
X76475000Y-90750000D01*
G75*
G02*
X76250000Y-90975000I-225000J0D01*
G01*
X75750000Y-90975000D01*
G75*
G02*
X75525000Y-90750000I0J225000D01*
G01*
X75525000Y-90300000D01*
G75*
G02*
X75750000Y-90075000I225000J0D01*
G01*
G37*
%TD.AperFunction*%
%TD*%
%TO.P,C13,1*%
%TO.N,GND*%
%TA.AperFunction,SMDPad,CuDef*%
G36*
G01*
X-8250000Y-88525000D02*
X-7750000Y-88525000D01*
G75*
G02*
X-7525000Y-88750000I0J-225000D01*
G01*
X-7525000Y-89200000D01*
G75*
G02*
X-7750000Y-89425000I-225000J0D01*
G01*
X-8250000Y-89425000D01*
G75*
G02*
X-8475000Y-89200000I0J225000D01*
G01*
X-8475000Y-88750000D01*
G75*
G02*
X-8250000Y-88525000I225000J0D01*
G01*
G37*
%TD.AperFunction*%
%TO.P,C13,2*%
%TO.N,+5V*%
%TA.AperFunction,SMDPad,CuDef*%
G36*
G01*
X-8250000Y-90075000D02*
X-7750000Y-90075000D01*
G75*
G02*
X-7525000Y-90300000I0J-225000D01*
G01*
X-7525000Y-90750000D01*
G75*
G02*
X-7750000Y-90975000I-225000J0D01*
G01*
X-8250000Y-90975000D01*
G75*
G02*
X-8475000Y-90750000I0J225000D01*
G01*
X-8475000Y-90300000D01*
G75*
G02*
X-8250000Y-90075000I225000J0D01*
G01*
G37*
%TD.AperFunction*%
%TD*%
%TO.P,C10,1*%
%TO.N,GND*%
%TA.AperFunction,SMDPad,CuDef*%
G36*
G01*
X-36250000Y-88525000D02*
X-35750000Y-88525000D01*
G75*
G02*
X-35525000Y-88750000I0J-225000D01*
G01*
X-35525000Y-89200000D01*
G75*
G02*
X-35750000Y-89425000I-225000J0D01*
G01*
X-36250000Y-89425000D01*
G75*
G02*
X-36475000Y-89200000I0J225000D01*
G01*
X-36475000Y-88750000D01*
G75*
G02*
X-36250000Y-88525000I225000J0D01*
G01*
G37*
%TD.AperFunction*%
%TO.P,C10,2*%
%TO.N,+5V*%
%TA.AperFunction,SMDPad,CuDef*%
G36*
G01*
X-36250000Y-90075000D02*
X-35750000Y-90075000D01*
G75*
G02*
X-35525000Y-90300000I0J-225000D01*
G01*
X-35525000Y-90750000D01*
G75*
G02*
X-35750000Y-90975000I-225000J0D01*
G01*
X-36250000Y-90975000D01*
G75*
G02*
X-36475000Y-90750000I0J225000D01*
G01*
X-36475000Y-90300000D01*
G75*
G02*
X-36250000Y-90075000I225000J0D01*
G01*
G37*
%TD.AperFunction*%
%TD*%
D13*
%TO.N,*%
X310916667Y-72250000D03*
X245583336Y-72250000D03*
X292250001Y-72250000D03*
X236250003Y-72250000D03*
X226916670Y-72250000D03*
X217583337Y-72250000D03*
X273583335Y-72250000D03*
X320250000Y-72250000D03*
X301583334Y-72250000D03*
X208250004Y-72250000D03*
X264250002Y-72250000D03*
X198916671Y-72250000D03*
X282916668Y-72250000D03*
X189583338Y-72250000D03*
X254916669Y-72250000D03*
X68250009Y-72250000D03*
X105583341Y-72250000D03*
X21583344Y-72250000D03*
X-43749987Y-72250000D03*
X77583342Y-72250000D03*
X-71749986Y-72250000D03*
X40250010Y-72250000D03*
X2916678Y-72250000D03*
X180250005Y-72250000D03*
X96250008Y-72250000D03*
X152250006Y-72250000D03*
X49583343Y-72250000D03*
X133583340Y-72250000D03*
X124250007Y-72250000D03*
X-34416654Y-72250000D03*
X12250011Y-72250000D03*
X-81083319Y-72250000D03*
X170916672Y-72250000D03*
X142916673Y-72250000D03*
X-6416655Y-72250000D03*
X329583333Y-72250000D03*
X161583339Y-72250000D03*
X-15749988Y-72250000D03*
X-90416652Y-72250000D03*
X86916675Y-72250000D03*
X-25083321Y-72250000D03*
X30916677Y-72250000D03*
X-53083320Y-72250000D03*
X338916666Y-72250000D03*
X58916676Y-72250000D03*
X114916674Y-72250000D03*
X-62416653Y-72250000D03*
X345499999Y-73250000D03*
X336166666Y-73250000D03*
X-90416667Y-73250000D03*
X317500000Y-74250000D03*
X308166667Y-74250000D03*
X289500001Y-74250000D03*
X261500002Y-74250000D03*
X298833334Y-74250000D03*
X205500004Y-74250000D03*
X270833335Y-74250000D03*
X158833339Y-74250000D03*
X149500006Y-74250000D03*
X140166673Y-74250000D03*
X130833340Y-74250000D03*
X242833336Y-74250000D03*
X121500007Y-74250000D03*
X224166670Y-74250000D03*
X112166674Y-74250000D03*
X168166672Y-74250000D03*
X93500008Y-74250000D03*
X84166675Y-74250000D03*
X74833342Y-74250000D03*
X186833338Y-74250000D03*
X214833337Y-74250000D03*
X177500005Y-74250000D03*
X102833341Y-74250000D03*
X252166669Y-74250000D03*
X233500003Y-74250000D03*
X196166671Y-74250000D03*
X65500009Y-74250000D03*
X56166676Y-74250000D03*
X280166668Y-74250000D03*
X336166666Y-74250000D03*
X-83833319Y-74250000D03*
X-65166653Y-74250000D03*
X-9166655Y-74250000D03*
X166678Y-74250000D03*
X-37166654Y-74250000D03*
X-93000000Y-74250000D03*
X18833344Y-74250000D03*
X326833333Y-74250000D03*
X-27833321Y-74250000D03*
X37500010Y-74250000D03*
X-74499986Y-74250000D03*
X-46499987Y-74250000D03*
X9500011Y-74250000D03*
X46833343Y-74250000D03*
X28166677Y-74250000D03*
X345499999Y-74250000D03*
X-18499988Y-74250000D03*
X-55833320Y-74250000D03*
X326833333Y-73250000D03*
X329583333Y-73250000D03*
X317500000Y-73250000D03*
X320250000Y-73250000D03*
X308166666Y-73250000D03*
X301583333Y-73250000D03*
X298833333Y-73250000D03*
X289500000Y-73250000D03*
X280166666Y-73250000D03*
X292250000Y-73250000D03*
X273583333Y-73250000D03*
X270833333Y-73250000D03*
X261500000Y-73250000D03*
X252166666Y-73250000D03*
X264250000Y-73250000D03*
X242833333Y-73250000D03*
X245583333Y-73250000D03*
X224166666Y-73250000D03*
X236250000Y-73250000D03*
X233500000Y-73250000D03*
X214833333Y-73250000D03*
X217583333Y-73250000D03*
X205500000Y-73250000D03*
X208250000Y-73250000D03*
X196166666Y-73250000D03*
X186833333Y-73250000D03*
X189583333Y-73250000D03*
X180250000Y-73250000D03*
X168166666Y-73250000D03*
X177500000Y-73250000D03*
X161583333Y-73250000D03*
X158833333Y-73250000D03*
X140166666Y-73250000D03*
X149500000Y-73250000D03*
X152250000Y-73250000D03*
X133583333Y-73250000D03*
X130833333Y-73250000D03*
X112166666Y-73250000D03*
X124250000Y-73250000D03*
X121500000Y-73250000D03*
X105583333Y-73250000D03*
X102833333Y-73250000D03*
X84166666Y-73250000D03*
X96250000Y-73250000D03*
X93500000Y-73250000D03*
X74833333Y-73250000D03*
X77583333Y-73250000D03*
X68250000Y-73250000D03*
X65500000Y-73250000D03*
X56166666Y-73250000D03*
X49583333Y-73250000D03*
X46833333Y-73250000D03*
X40250000Y-73250000D03*
X28166666Y-73250000D03*
X37500000Y-73250000D03*
X18833333Y-73250000D03*
X21583333Y-73250000D03*
X9500000Y-73250000D03*
X166666Y-73250000D03*
X12250000Y-73250000D03*
X-9166667Y-73250000D03*
X-6416667Y-73250000D03*
X-18500000Y-73250000D03*
X-15750000Y-73250000D03*
X-27833334Y-73250000D03*
X-37166667Y-73250000D03*
X-34416667Y-73250000D03*
X-46500000Y-73250000D03*
X-43750000Y-73250000D03*
X-55833334Y-73250000D03*
X-62416667Y-73250000D03*
X-65166667Y-73250000D03*
X-74500000Y-73250000D03*
X-71750000Y-73250000D03*
X-83833334Y-73250000D03*
%TO.N,+5V*%
X-65250000Y-90750000D03*
X-55916667Y-90750000D03*
X-46583334Y-90750000D03*
X-37250001Y-90750000D03*
X-27916668Y-90750000D03*
X-18583335Y-90750000D03*
X-9250002Y-90750000D03*
X83331Y-90750000D03*
X9416664Y-90750000D03*
X18749997Y-90750000D03*
X28083330Y-90750000D03*
X37416663Y-90750000D03*
X46749996Y-90750000D03*
X56083329Y-90750000D03*
X65416662Y-90750000D03*
X74749995Y-90750000D03*
X84083328Y-90750000D03*
X93416661Y-90750000D03*
X102749994Y-90750000D03*
X112083327Y-90750000D03*
X121416660Y-90750000D03*
X130749993Y-90750000D03*
X140083326Y-90750000D03*
X149416659Y-90750000D03*
X158749992Y-90750000D03*
X168083325Y-90750000D03*
X177416658Y-90750000D03*
X186749991Y-90750000D03*
X196083324Y-90750000D03*
X205416657Y-90750000D03*
X214749990Y-90750000D03*
X224083323Y-90750000D03*
X233416656Y-90750000D03*
X242749989Y-90750000D03*
X252083322Y-90750000D03*
X261416655Y-90750000D03*
X270749988Y-90750000D03*
X280083321Y-90750000D03*
X289416654Y-90750000D03*
X298749987Y-90750000D03*
X308083320Y-90750000D03*
X317416653Y-90750000D03*
X326749986Y-90750000D03*
X336083319Y-90750000D03*
X345416652Y-90750000D03*
X-74583333Y-90750000D03*
X-83916666Y-90750000D03*
%TO.N,/DI*%
X-81166666Y-89750000D03*
X-90499999Y-89750000D03*
%TO.N,/DO*%
X345416667Y-89750000D03*
%TO.N,GND*%
X-62500000Y-88750000D03*
X-53166667Y-88750000D03*
X-43833334Y-88750000D03*
X-34500001Y-88750000D03*
X-25166668Y-88750000D03*
X-15833335Y-88750000D03*
X-6500002Y-88750000D03*
X2833331Y-88750000D03*
X12166664Y-88750000D03*
X21499997Y-88750000D03*
X30833330Y-88750000D03*
X40166663Y-88750000D03*
X49499996Y-88750000D03*
X58833329Y-88750000D03*
X68166662Y-88750000D03*
X77499995Y-88750000D03*
X86833328Y-88750000D03*
X96166661Y-88750000D03*
X105499994Y-88750000D03*
X114833327Y-88750000D03*
X124166660Y-88750000D03*
X133499993Y-88750000D03*
X142833326Y-88750000D03*
X152166659Y-88750000D03*
X161499992Y-88750000D03*
X170833325Y-88750000D03*
X180166658Y-88750000D03*
X189499991Y-88750000D03*
X198833324Y-88750000D03*
X208166657Y-88750000D03*
X217499990Y-88750000D03*
X226833323Y-88750000D03*
X236166656Y-88750000D03*
X245499989Y-88750000D03*
X254833322Y-88750000D03*
X264166655Y-88750000D03*
X273499988Y-88750000D03*
X282833321Y-88750000D03*
X292166654Y-88750000D03*
X301499987Y-88750000D03*
X310833320Y-88750000D03*
X320166653Y-88750000D03*
X329499986Y-88750000D03*
X338833319Y-88750000D03*
X-71833333Y-88750000D03*
X-81166666Y-88750000D03*
X-90499999Y-88750000D03*
X348000000Y-88750000D03*
%TO.N,Net-(D2-Pad2)*%
X-74583333Y-89750000D03*
X-71833333Y-89750000D03*
%TO.N,Net-(D3-Pad2)*%
X-65250000Y-89750000D03*
X-62500000Y-89750000D03*
X-53166666Y-89750000D03*
%TO.N,Net-(D5-Pad2)*%
X-46583333Y-89750000D03*
X-43833333Y-89750000D03*
%TO.N,Net-(D6-Pad2)*%
X-25166666Y-89750000D03*
X-37250000Y-89750000D03*
X-34500000Y-89750000D03*
%TO.N,Net-(D8-Pad2)*%
X-18583333Y-89750000D03*
X-15833333Y-89750000D03*
%TO.N,Net-(D10-Pad4)*%
X2833334Y-89750000D03*
X-9250000Y-89750000D03*
X-6500000Y-89750000D03*
%TO.N,Net-(D11-Pad2)*%
X9416667Y-89750000D03*
X12166667Y-89750000D03*
%TO.N,Net-(D12-Pad2)*%
X30833334Y-89750000D03*
X18750000Y-89750000D03*
X21500000Y-89750000D03*
%TO.N,Net-(D14-Pad2)*%
X37416667Y-89750000D03*
X40166667Y-89750000D03*
%TO.N,Net-(D15-Pad2)*%
X58833334Y-89750000D03*
X46750000Y-89750000D03*
X49500000Y-89750000D03*
%TO.N,Net-(D17-Pad2)*%
X65416667Y-89750000D03*
X68166667Y-89750000D03*
%TO.N,Net-(D18-Pad2)*%
X86833334Y-89750000D03*
X74750000Y-89750000D03*
X77500000Y-89750000D03*
%TO.N,Net-(D20-Pad2)*%
X93416667Y-89750000D03*
X96166667Y-89750000D03*
%TO.N,Net-(D21-Pad2)*%
X114833334Y-89750000D03*
X102750000Y-89750000D03*
X105500000Y-89750000D03*
%TO.N,Net-(D23-Pad2)*%
X121416667Y-89750000D03*
X124166667Y-89750000D03*
%TO.N,Net-(D24-Pad2)*%
X142833334Y-89750000D03*
X130750000Y-89750000D03*
X133500000Y-89750000D03*
%TO.N,Net-(D26-Pad2)*%
X149416667Y-89750000D03*
X152166667Y-89750000D03*
%TO.N,Net-(D27-Pad2)*%
X170833334Y-89750000D03*
X158750000Y-89750000D03*
X161500000Y-89750000D03*
%TO.N,Net-(D29-Pad2)*%
X177416667Y-89750000D03*
X180166667Y-89750000D03*
%TO.N,Net-(D30-Pad2)*%
X198833334Y-89750000D03*
X186750000Y-89750000D03*
X189500000Y-89750000D03*
%TO.N,Net-(D32-Pad2)*%
X205416667Y-89750000D03*
X208166667Y-89750000D03*
%TO.N,Net-(D33-Pad2)*%
X226833334Y-89750000D03*
X214750000Y-89750000D03*
X217500000Y-89750000D03*
%TO.N,Net-(D35-Pad2)*%
X233416667Y-89750000D03*
X236166667Y-89750000D03*
%TO.N,Net-(D36-Pad2)*%
X254833334Y-89750000D03*
X242750000Y-89750000D03*
X245500000Y-89750000D03*
%TO.N,Net-(D38-Pad2)*%
X261416667Y-89750000D03*
X264166667Y-89750000D03*
%TO.N,Net-(D39-Pad2)*%
X282833334Y-89750000D03*
X270750000Y-89750000D03*
X273500000Y-89750000D03*
%TO.N,Net-(D41-Pad2)*%
X289416667Y-89750000D03*
X292166667Y-89750000D03*
%TO.N,Net-(D42-Pad2)*%
X310833334Y-89750000D03*
X298750000Y-89750000D03*
X301500000Y-89750000D03*
%TO.N,Net-(D44-Pad2)*%
X317416667Y-89750000D03*
X320166667Y-89750000D03*
%TO.N,Net-(D45-Pad2)*%
X338833334Y-89750000D03*
X326750000Y-89750000D03*
X329500000Y-89750000D03*
%TD*%
D14*
%TO.N,*%
X-71749986Y-72250000D02*
X-70149986Y-72250000D01*
X-81083319Y-72250000D02*
X-79483319Y-72250000D01*
X-62416653Y-72250000D02*
X-60816653Y-72250000D01*
X60516676Y-72250000D02*
X60626676Y-72360000D01*
X41850010Y-72250000D02*
X41960010Y-72360000D01*
X4516678Y-72250000D02*
X4626678Y-72360000D01*
X-23483321Y-72250000D02*
X-23373321Y-72360000D01*
X-32816654Y-72250000D02*
X-32706654Y-72360000D01*
X-51483320Y-72250000D02*
X-51373320Y-72360000D01*
X-60816653Y-72250000D02*
X-60706653Y-72360000D01*
X-70149986Y-72250000D02*
X-70039986Y-72360000D01*
X-79483319Y-72250000D02*
X-79373319Y-72360000D01*
X219183337Y-72250000D02*
X219293337Y-72360000D01*
X310916667Y-72250000D02*
X309891666Y-72250000D01*
X301583334Y-72250000D02*
X300558333Y-72250000D01*
X292250001Y-72250000D02*
X291225000Y-72250000D01*
X181850005Y-72250000D02*
X181960005Y-72360000D01*
X125850007Y-72250000D02*
X125960007Y-72360000D01*
X69850009Y-72250000D02*
X69960009Y-72360000D01*
X293850001Y-72250000D02*
X293960001Y-72360000D01*
X265850002Y-72250000D02*
X265960002Y-72360000D01*
X228516670Y-72250000D02*
X228626670Y-72360000D01*
X13850011Y-72250000D02*
X13960011Y-72360000D01*
X-88816652Y-72250000D02*
X-88706652Y-72360000D01*
X116516674Y-72250000D02*
X116626674Y-72360000D01*
X256516669Y-72250000D02*
X256626669Y-72360000D01*
X51183343Y-72250000D02*
X51293343Y-72360000D01*
X23183344Y-72250000D02*
X23293344Y-72360000D01*
X135183340Y-72250000D02*
X135293340Y-72360000D01*
X79183342Y-72250000D02*
X79293342Y-72360000D01*
X32516677Y-72250000D02*
X32626677Y-72360000D01*
X237850003Y-72250000D02*
X237960003Y-72360000D01*
X247183336Y-72250000D02*
X247293336Y-72360000D01*
X163183339Y-72250000D02*
X163293339Y-72360000D01*
X209850004Y-72250000D02*
X209960004Y-72360000D01*
X153850006Y-72250000D02*
X153960006Y-72360000D01*
X88516675Y-72250000D02*
X88626675Y-72360000D01*
X-4816655Y-72250000D02*
X-4706655Y-72360000D01*
X-14149988Y-72250000D02*
X-14039988Y-72360000D01*
X303183334Y-72250000D02*
X303293334Y-72360000D01*
X275183335Y-72250000D02*
X275293335Y-72360000D01*
X200516671Y-72250000D02*
X200626671Y-72360000D01*
X191183338Y-72250000D02*
X191293338Y-72360000D01*
X144516673Y-72250000D02*
X144626673Y-72360000D01*
X107183341Y-72250000D02*
X107293341Y-72360000D01*
X-42149987Y-72250000D02*
X-42039987Y-72360000D01*
X172516672Y-72250000D02*
X172626672Y-72360000D01*
X312516667Y-72250000D02*
X312626667Y-72360000D01*
X97850008Y-72250000D02*
X97960008Y-72360000D01*
X284516668Y-72250000D02*
X284626668Y-72360000D01*
X-90416652Y-72250000D02*
X-88816652Y-72250000D01*
X104558340Y-72250000D02*
X104333340Y-72475000D01*
X254916669Y-72250000D02*
X253891668Y-72250000D01*
X2916678Y-72250000D02*
X1891677Y-72250000D01*
X236250003Y-72250000D02*
X235225002Y-72250000D01*
X133583340Y-72250000D02*
X132558339Y-72250000D01*
X225891669Y-72250000D02*
X225666669Y-72475000D01*
X160558338Y-72250000D02*
X160333338Y-72475000D01*
X86916675Y-72250000D02*
X85891674Y-72250000D01*
X58916676Y-72250000D02*
X57891675Y-72250000D01*
X105583341Y-72250000D02*
X104558340Y-72250000D01*
X-25083321Y-72250000D02*
X-26108322Y-72250000D01*
X40250010Y-72250000D02*
X39225009Y-72250000D01*
X-71749986Y-72250000D02*
X-72774987Y-72250000D01*
X-90416652Y-72250000D02*
X-91441653Y-72250000D01*
X272558334Y-72250000D02*
X272333334Y-72475000D01*
X207225003Y-72250000D02*
X207000003Y-72475000D01*
X189583338Y-72250000D02*
X188558337Y-72250000D01*
X226916670Y-72250000D02*
X225891669Y-72250000D01*
X170916672Y-72250000D02*
X169891671Y-72250000D01*
X68250009Y-72250000D02*
X67225008Y-72250000D01*
X235225002Y-72250000D02*
X235000002Y-72475000D01*
X291225000Y-72250000D02*
X291000000Y-72475000D01*
X-62416653Y-72250000D02*
X-63441654Y-72250000D01*
X273583335Y-72250000D02*
X272558334Y-72250000D01*
X264250002Y-72250000D02*
X263225001Y-72250000D01*
X217583337Y-72250000D02*
X216558336Y-72250000D01*
X208250004Y-72250000D02*
X207225003Y-72250000D01*
X180250005Y-72250000D02*
X179225004Y-72250000D01*
X245583336Y-72250000D02*
X244558335Y-72250000D01*
X142916673Y-72250000D02*
X141891672Y-72250000D01*
X152250006Y-72250000D02*
X151225005Y-72250000D01*
X282916668Y-72250000D02*
X281891667Y-72250000D01*
X77583342Y-72250000D02*
X76558341Y-72250000D01*
X96250008Y-72250000D02*
X95225007Y-72250000D01*
X21583344Y-72250000D02*
X20558343Y-72250000D01*
X12250011Y-72250000D02*
X11225010Y-72250000D01*
X-81083319Y-72250000D02*
X-82108320Y-72250000D01*
X309891666Y-72250000D02*
X309666666Y-72475000D01*
X253891668Y-72250000D02*
X253666668Y-72475000D01*
X-43749987Y-72250000D02*
X-44774988Y-72250000D01*
X197891670Y-72250000D02*
X197666670Y-72475000D01*
X263225001Y-72250000D02*
X263000001Y-72475000D01*
X188558337Y-72250000D02*
X188333337Y-72475000D01*
X179225004Y-72250000D02*
X179000004Y-72475000D01*
X169891671Y-72250000D02*
X169666671Y-72475000D01*
X151225005Y-72250000D02*
X151000005Y-72475000D01*
X123225006Y-72250000D02*
X123000006Y-72475000D01*
X49583343Y-72250000D02*
X48558342Y-72250000D01*
X-15749988Y-72250000D02*
X-16774989Y-72250000D01*
X-6416655Y-72250000D02*
X-7441656Y-72250000D01*
X-53083320Y-72250000D02*
X-54108321Y-72250000D01*
X281891667Y-72250000D02*
X281666667Y-72475000D01*
X216558336Y-72250000D02*
X216333336Y-72475000D01*
X124250007Y-72250000D02*
X123225006Y-72250000D01*
X114916674Y-72250000D02*
X113891673Y-72250000D01*
X161583339Y-72250000D02*
X160558338Y-72250000D01*
X-34416654Y-72250000D02*
X-35441655Y-72250000D01*
X141891672Y-72250000D02*
X141666672Y-72475000D01*
X132558339Y-72250000D02*
X132333339Y-72475000D01*
X198916671Y-72250000D02*
X197891670Y-72250000D01*
X30916677Y-72250000D02*
X29891676Y-72250000D01*
X300558333Y-72250000D02*
X300333333Y-72475000D01*
X244558335Y-72250000D02*
X244333335Y-72475000D01*
X113891673Y-72250000D02*
X113666673Y-72475000D01*
X-91666667Y-72475000D02*
X-91895668Y-72245999D01*
X-63441654Y-72250000D02*
X-63666654Y-72475000D01*
X29891676Y-72250000D02*
X29666676Y-72475000D01*
X39225009Y-72250000D02*
X39000009Y-72475000D01*
X-72774987Y-72250000D02*
X-72999987Y-72475000D01*
X-91441653Y-72250000D02*
X-91666653Y-72475000D01*
X-82108320Y-72250000D02*
X-82333320Y-72475000D01*
X-16774989Y-72250000D02*
X-16999989Y-72475000D01*
X20558343Y-72250000D02*
X20333343Y-72475000D01*
X329583333Y-72250000D02*
X328558332Y-72250000D01*
X-98442666Y-72245999D02*
X-99746667Y-73550000D01*
X57891675Y-72250000D02*
X57666675Y-72475000D01*
X-91895668Y-72245999D02*
X-98442666Y-72245999D01*
X338916666Y-72250000D02*
X340516666Y-72250000D01*
X-44774988Y-72250000D02*
X-44999988Y-72475000D01*
X331183333Y-72250000D02*
X331293333Y-72360000D01*
X340516666Y-72250000D02*
X340626666Y-72360000D01*
X95225007Y-72250000D02*
X95000007Y-72475000D01*
X338916666Y-72250000D02*
X337891665Y-72250000D01*
X1891677Y-72250000D02*
X1666677Y-72475000D01*
X67225008Y-72250000D02*
X67000008Y-72475000D01*
X85891674Y-72250000D02*
X85666674Y-72475000D01*
X48558342Y-72250000D02*
X48333342Y-72475000D01*
X11225010Y-72250000D02*
X11000010Y-72475000D01*
X-7441656Y-72250000D02*
X-7666656Y-72475000D01*
X-26108322Y-72250000D02*
X-26333322Y-72475000D01*
X-35441655Y-72250000D02*
X-35666655Y-72475000D01*
X-54108321Y-72250000D02*
X-54333321Y-72475000D01*
X337891665Y-72250000D02*
X337666665Y-72475000D01*
X329583333Y-72250000D02*
X331183333Y-72250000D01*
X328558332Y-72250000D02*
X328333332Y-72475000D01*
X76558341Y-72250000D02*
X76333341Y-72475000D01*
X254916669Y-72250000D02*
X256516669Y-72250000D01*
X321850000Y-72250000D02*
X321960000Y-72360000D01*
X236250003Y-72250000D02*
X237850003Y-72250000D01*
X292250001Y-72250000D02*
X293850001Y-72250000D01*
X245583336Y-72250000D02*
X247183336Y-72250000D01*
X226916670Y-72250000D02*
X228516670Y-72250000D01*
X217583337Y-72250000D02*
X219183337Y-72250000D01*
X319224999Y-72250000D02*
X318999999Y-72475000D01*
X320250000Y-72250000D02*
X321850000Y-72250000D01*
X273583335Y-72250000D02*
X275183335Y-72250000D01*
X328558333Y-72250000D02*
X331183333Y-72250000D01*
X331183333Y-72250000D02*
X331293333Y-72360000D01*
X328333333Y-72475000D02*
X328558333Y-72250000D01*
X301583334Y-72250000D02*
X303183334Y-72250000D01*
X320250000Y-72250000D02*
X319224999Y-72250000D01*
X282916668Y-72250000D02*
X284516668Y-72250000D01*
X310916667Y-72250000D02*
X312516667Y-72250000D01*
X264250002Y-72250000D02*
X265850002Y-72250000D01*
X58916676Y-72250000D02*
X60516676Y-72250000D01*
X152250006Y-72250000D02*
X153850006Y-72250000D01*
X-25083321Y-72250000D02*
X-23483321Y-72250000D01*
X-34416654Y-72250000D02*
X-32816654Y-72250000D01*
X-43749987Y-72250000D02*
X-42149987Y-72250000D01*
X96250008Y-72250000D02*
X97850008Y-72250000D01*
X170916672Y-72250000D02*
X172516672Y-72250000D01*
X-53083320Y-72250000D02*
X-51483320Y-72250000D01*
X30916677Y-72250000D02*
X32516677Y-72250000D01*
X77583342Y-72250000D02*
X79183342Y-72250000D01*
X189583338Y-72250000D02*
X191183338Y-72250000D01*
X161583339Y-72250000D02*
X163183339Y-72250000D01*
X133583340Y-72250000D02*
X135183340Y-72250000D01*
X208250004Y-72250000D02*
X209850004Y-72250000D01*
X124250007Y-72250000D02*
X125850007Y-72250000D01*
X105583341Y-72250000D02*
X107183341Y-72250000D01*
X114916674Y-72250000D02*
X116516674Y-72250000D01*
X68250009Y-72250000D02*
X69850009Y-72250000D01*
X49583343Y-72250000D02*
X51183343Y-72250000D01*
X40250010Y-72250000D02*
X41850010Y-72250000D01*
X86916675Y-72250000D02*
X88516675Y-72250000D01*
X12250011Y-72250000D02*
X13850011Y-72250000D01*
X2916678Y-72250000D02*
X4516678Y-72250000D01*
X-6416655Y-72250000D02*
X-4816655Y-72250000D01*
X198916671Y-72250000D02*
X200516671Y-72250000D01*
X180250005Y-72250000D02*
X181850005Y-72250000D01*
X21583344Y-72250000D02*
X23183344Y-72250000D01*
X-15749988Y-72250000D02*
X-14149988Y-72250000D01*
X142916673Y-72250000D02*
X144516673Y-72250000D01*
X352206666Y-73550000D02*
X350902665Y-72245999D01*
X347449464Y-73250000D02*
X345499999Y-73250000D01*
X348453465Y-72245999D02*
X347449464Y-73250000D01*
X344609999Y-72360000D02*
X345499999Y-73250000D01*
X334373332Y-72360000D02*
X335276666Y-72360000D01*
X335276666Y-72360000D02*
X336166666Y-73250000D01*
X343706665Y-72360000D02*
X344609999Y-72360000D01*
X350902665Y-72245999D02*
X348453465Y-72245999D01*
X-89526667Y-74140000D02*
X-90416667Y-73250000D01*
X-88706667Y-74140000D02*
X-89526667Y-74140000D01*
X130833340Y-74250000D02*
X132108339Y-74250000D01*
X328108333Y-74250000D02*
X325150000Y-74250000D01*
X300108333Y-74250000D02*
X300333333Y-74025000D01*
X37500010Y-74250000D02*
X38775009Y-74250000D01*
X-46499987Y-74250000D02*
X-45224988Y-74250000D01*
X317500000Y-74250000D02*
X318774999Y-74250000D01*
X317500000Y-74250000D02*
X315816666Y-74250000D01*
X242833336Y-74250000D02*
X244108335Y-74250000D01*
X140166673Y-74250000D02*
X141441672Y-74250000D01*
X270833335Y-74250000D02*
X272108334Y-74250000D01*
X177500005Y-74250000D02*
X178775004Y-74250000D01*
X149500006Y-74250000D02*
X150775005Y-74250000D01*
X196166671Y-74250000D02*
X197441670Y-74250000D01*
X93500008Y-74250000D02*
X94775007Y-74250000D01*
X65500009Y-74250000D02*
X66775008Y-74250000D01*
X56166676Y-74250000D02*
X57441675Y-74250000D01*
X84166675Y-74250000D02*
X85441674Y-74250000D01*
X318774999Y-74250000D02*
X318999999Y-74025000D01*
X46833343Y-74250000D02*
X48108342Y-74250000D01*
X280166668Y-74250000D02*
X281441667Y-74250000D01*
X-27833321Y-74250000D02*
X-26558322Y-74250000D01*
X281441667Y-74250000D02*
X281666667Y-74025000D01*
X-83833319Y-74250000D02*
X-82558320Y-74250000D01*
X325150000Y-74250000D02*
X325040000Y-74140000D01*
X-18499988Y-74250000D02*
X-17224989Y-74250000D01*
X262775001Y-74250000D02*
X263000001Y-74025000D01*
X253441668Y-74250000D02*
X253666668Y-74025000D01*
X216108336Y-74250000D02*
X216333336Y-74025000D01*
X289500001Y-74250000D02*
X290775000Y-74250000D01*
X28166677Y-74250000D02*
X29441676Y-74250000D01*
X168166672Y-74250000D02*
X169441671Y-74250000D01*
X18833344Y-74250000D02*
X20108343Y-74250000D01*
X9500011Y-74250000D02*
X10775010Y-74250000D01*
X166678Y-74250000D02*
X1441677Y-74250000D01*
X315816666Y-74250000D02*
X315706666Y-74140000D01*
X308166667Y-74250000D02*
X309441666Y-74250000D01*
X261500002Y-74250000D02*
X262775001Y-74250000D01*
X-37166654Y-74250000D02*
X-35891655Y-74250000D01*
X252166669Y-74250000D02*
X253441668Y-74250000D01*
X112166674Y-74250000D02*
X113441673Y-74250000D01*
X-74499986Y-74250000D02*
X-73224987Y-74250000D01*
X290775000Y-74250000D02*
X291000000Y-74025000D01*
X272108334Y-74250000D02*
X272333334Y-74025000D01*
X158833339Y-74250000D02*
X160108338Y-74250000D01*
X205500004Y-74250000D02*
X206775003Y-74250000D01*
X102833341Y-74250000D02*
X104108340Y-74250000D01*
X186833338Y-74250000D02*
X188108337Y-74250000D01*
X328333333Y-74025000D02*
X328108333Y-74250000D01*
X121500007Y-74250000D02*
X122775006Y-74250000D01*
X244108335Y-74250000D02*
X244333335Y-74025000D01*
X234775002Y-74250000D02*
X235000002Y-74025000D01*
X225441669Y-74250000D02*
X225666669Y-74025000D01*
X206775003Y-74250000D02*
X207000003Y-74025000D01*
X-9166655Y-74250000D02*
X-7891656Y-74250000D01*
X74833342Y-74250000D02*
X76108341Y-74250000D01*
X233500003Y-74250000D02*
X234775002Y-74250000D01*
X214833337Y-74250000D02*
X216108336Y-74250000D01*
X-55833320Y-74250000D02*
X-54558321Y-74250000D01*
X-65166653Y-74250000D02*
X-63891654Y-74250000D01*
X298833334Y-74250000D02*
X300108333Y-74250000D01*
X309441666Y-74250000D02*
X309666666Y-74025000D01*
X224166670Y-74250000D02*
X225441669Y-74250000D01*
X196166671Y-74250000D02*
X194483337Y-74250000D01*
X149500006Y-74250000D02*
X147816672Y-74250000D01*
X160108338Y-74250000D02*
X160333338Y-74025000D01*
X57441675Y-74250000D02*
X57666675Y-74025000D01*
X280166668Y-74250000D02*
X278483334Y-74250000D01*
X158833339Y-74250000D02*
X157150005Y-74250000D01*
X84166675Y-74250000D02*
X82483341Y-74250000D01*
X65500009Y-74250000D02*
X63816675Y-74250000D01*
X289500001Y-74250000D02*
X287816667Y-74250000D01*
X121500007Y-74250000D02*
X119816673Y-74250000D01*
X20108343Y-74250000D02*
X20333343Y-74025000D01*
X-35891655Y-74250000D02*
X-35666655Y-74025000D01*
X-26558322Y-74250000D02*
X-26333322Y-74025000D01*
X130833340Y-74250000D02*
X129150006Y-74250000D01*
X56166676Y-74250000D02*
X54483342Y-74250000D01*
X46833343Y-74250000D02*
X45150009Y-74250000D01*
X93500008Y-74250000D02*
X91816674Y-74250000D01*
X76108341Y-74250000D02*
X76333341Y-74025000D01*
X-45224988Y-74250000D02*
X-44999988Y-74025000D01*
X308166667Y-74250000D02*
X306483333Y-74250000D01*
X270833335Y-74250000D02*
X269150001Y-74250000D01*
X-7891656Y-74250000D02*
X-7666656Y-74025000D01*
X85441674Y-74250000D02*
X85666674Y-74025000D01*
X150775005Y-74250000D02*
X151000005Y-74025000D01*
X-82558320Y-74250000D02*
X-82333320Y-74025000D01*
X186833338Y-74250000D02*
X185150004Y-74250000D01*
X177500005Y-74250000D02*
X175816671Y-74250000D01*
X233500003Y-74250000D02*
X231816669Y-74250000D01*
X122775006Y-74250000D02*
X123000006Y-74025000D01*
X66775008Y-74250000D02*
X67000008Y-74025000D01*
X252166669Y-74250000D02*
X250483335Y-74250000D01*
X10775010Y-74250000D02*
X11000010Y-74025000D01*
X214833337Y-74250000D02*
X213150003Y-74250000D01*
X261500002Y-74250000D02*
X259816668Y-74250000D01*
X140166673Y-74250000D02*
X138483339Y-74250000D01*
X112166674Y-74250000D02*
X110483340Y-74250000D01*
X102833341Y-74250000D02*
X101150007Y-74250000D01*
X178775004Y-74250000D02*
X179000004Y-74025000D01*
X205500004Y-74250000D02*
X203816670Y-74250000D01*
X74833342Y-74250000D02*
X73150008Y-74250000D01*
X37500010Y-74250000D02*
X35816676Y-74250000D01*
X28166677Y-74250000D02*
X26483343Y-74250000D01*
X18833344Y-74250000D02*
X17150010Y-74250000D01*
X9500011Y-74250000D02*
X7816677Y-74250000D01*
X169441671Y-74250000D02*
X169666671Y-74025000D01*
X48108342Y-74250000D02*
X48333342Y-74025000D01*
X197441670Y-74250000D02*
X197666670Y-74025000D01*
X141441672Y-74250000D02*
X141666672Y-74025000D01*
X113441673Y-74250000D02*
X113666673Y-74025000D01*
X104108340Y-74250000D02*
X104333340Y-74025000D01*
X94775007Y-74250000D02*
X95000007Y-74025000D01*
X38775009Y-74250000D02*
X39000009Y-74025000D01*
X29441676Y-74250000D02*
X29666676Y-74025000D01*
X1441677Y-74250000D02*
X1666677Y-74025000D01*
X-17224989Y-74250000D02*
X-16999989Y-74025000D01*
X-63891654Y-74250000D02*
X-63666654Y-74025000D01*
X-73224987Y-74250000D02*
X-72999987Y-74025000D01*
X298833334Y-74250000D02*
X297150000Y-74250000D01*
X242833336Y-74250000D02*
X241150002Y-74250000D01*
X224166670Y-74250000D02*
X222483336Y-74250000D01*
X168166672Y-74250000D02*
X166483338Y-74250000D01*
X132108339Y-74250000D02*
X132333339Y-74025000D01*
X188108337Y-74250000D02*
X188333337Y-74025000D01*
X-54558321Y-74250000D02*
X-54333321Y-74025000D01*
X82483341Y-74250000D02*
X82373341Y-74140000D01*
X147816672Y-74250000D02*
X147706672Y-74140000D01*
X35816676Y-74250000D02*
X35706676Y-74140000D01*
X-38849988Y-74250000D02*
X-38959988Y-74140000D01*
X-85516653Y-74250000D02*
X-85626653Y-74140000D01*
X-27833321Y-74250000D02*
X-29516655Y-74250000D01*
X278483334Y-74250000D02*
X278373334Y-74140000D01*
X231816669Y-74250000D02*
X231706669Y-74140000D01*
X-74499986Y-74250000D02*
X-76183320Y-74250000D01*
X222483336Y-74250000D02*
X222373336Y-74140000D01*
X-37166654Y-74250000D02*
X-38849988Y-74250000D01*
X203816670Y-74250000D02*
X203706670Y-74140000D01*
X91816674Y-74250000D02*
X91706674Y-74140000D01*
X-10849989Y-74250000D02*
X-10959989Y-74140000D01*
X-57516654Y-74250000D02*
X-57626654Y-74140000D01*
X326833333Y-74250000D02*
X328108332Y-74250000D01*
X-83833319Y-74250000D02*
X-85516653Y-74250000D01*
X297150000Y-74250000D02*
X297040000Y-74140000D01*
X157150005Y-74250000D02*
X157040005Y-74140000D01*
X343816665Y-74250000D02*
X343706665Y-74140000D01*
X-1516656Y-74250000D02*
X-1626656Y-74140000D01*
X336166666Y-74250000D02*
X334483332Y-74250000D01*
X54483342Y-74250000D02*
X54373342Y-74140000D01*
X138483339Y-74250000D02*
X138373339Y-74140000D01*
X-55833320Y-74250000D02*
X-57516654Y-74250000D01*
X-65166653Y-74250000D02*
X-66849987Y-74250000D01*
X306483333Y-74250000D02*
X306373333Y-74140000D01*
X129150006Y-74250000D02*
X129040006Y-74140000D01*
X166483338Y-74250000D02*
X166373338Y-74140000D01*
X73150008Y-74250000D02*
X73040008Y-74140000D01*
X7816677Y-74250000D02*
X7706677Y-74140000D01*
X194483337Y-74250000D02*
X194373337Y-74140000D01*
X250483335Y-74250000D02*
X250373335Y-74140000D01*
X119816673Y-74250000D02*
X119706673Y-74140000D01*
X-66849987Y-74250000D02*
X-66959987Y-74140000D01*
X26483343Y-74250000D02*
X26373343Y-74140000D01*
X-20183322Y-74250000D02*
X-20293322Y-74140000D01*
X336166666Y-74250000D02*
X337441665Y-74250000D01*
X110483340Y-74250000D02*
X110373340Y-74140000D01*
X328108332Y-74250000D02*
X328333332Y-74025000D01*
X326833333Y-74250000D02*
X325149999Y-74250000D01*
X-18499988Y-74250000D02*
X-20183322Y-74250000D01*
X325149999Y-74250000D02*
X325039999Y-74140000D01*
X213150003Y-74250000D02*
X213040003Y-74140000D01*
X241150002Y-74250000D02*
X241040002Y-74140000D01*
X63816675Y-74250000D02*
X63706675Y-74140000D01*
X101150007Y-74250000D02*
X101040007Y-74140000D01*
X-29516655Y-74250000D02*
X-29626655Y-74140000D01*
X175816671Y-74250000D02*
X175706671Y-74140000D01*
X269150001Y-74250000D02*
X269040001Y-74140000D01*
X334483332Y-74250000D02*
X334373332Y-74140000D01*
X259816668Y-74250000D02*
X259706668Y-74140000D01*
X287816667Y-74250000D02*
X287706667Y-74140000D01*
X185150004Y-74250000D02*
X185040004Y-74140000D01*
X45150009Y-74250000D02*
X45040009Y-74140000D01*
X-76183320Y-74250000D02*
X-76293320Y-74140000D01*
X-46499987Y-74250000D02*
X-48183321Y-74250000D01*
X166678Y-74250000D02*
X-1516656Y-74250000D01*
X-48183321Y-74250000D02*
X-48293321Y-74140000D01*
X345499999Y-74250000D02*
X343816665Y-74250000D01*
X17150010Y-74250000D02*
X17040010Y-74140000D01*
X-9166655Y-74250000D02*
X-10849989Y-74250000D01*
X337441665Y-74250000D02*
X337666665Y-74025000D01*
X-93000000Y-74250000D02*
X-91891667Y-74250000D01*
X-91891667Y-74250000D02*
X-91666667Y-74025000D01*
X325039999Y-72360000D02*
X325943333Y-72360000D01*
X330473333Y-74140000D02*
X329583333Y-73250000D01*
X325943333Y-72360000D02*
X326833333Y-73250000D01*
X331293333Y-74140000D02*
X330473333Y-74140000D01*
X307276666Y-72360000D02*
X308166666Y-73250000D01*
X321960000Y-74140000D02*
X321140000Y-74140000D01*
X306373332Y-72360000D02*
X307276666Y-72360000D01*
X315706666Y-72360000D02*
X316610000Y-72360000D01*
X316610000Y-72360000D02*
X317500000Y-73250000D01*
X321140000Y-74140000D02*
X320250000Y-73250000D01*
X320250000Y-73250000D02*
X320250000Y-73250000D01*
X320250000Y-73250000D02*
X320250000Y-73250000D01*
X302473333Y-74140000D02*
X301583333Y-73250000D01*
X297943333Y-72360000D02*
X298833333Y-73250000D01*
X297039999Y-72360000D02*
X297943333Y-72360000D01*
X303293333Y-74140000D02*
X302473333Y-74140000D01*
X278373332Y-72360000D02*
X279276666Y-72360000D01*
X287706666Y-72360000D02*
X288610000Y-72360000D01*
X293960000Y-74140000D02*
X293140000Y-74140000D01*
X279276666Y-72360000D02*
X280166666Y-73250000D01*
X293140000Y-74140000D02*
X292250000Y-73250000D01*
X288610000Y-72360000D02*
X289500000Y-73250000D01*
X269039999Y-72360000D02*
X269943333Y-72360000D01*
X269943333Y-72360000D02*
X270833333Y-73250000D01*
X275293333Y-74140000D02*
X274473333Y-74140000D01*
X274473333Y-74140000D02*
X273583333Y-73250000D01*
X251276666Y-72360000D02*
X252166666Y-73250000D01*
X265960000Y-74140000D02*
X265140000Y-74140000D01*
X260610000Y-72360000D02*
X261500000Y-73250000D01*
X265140000Y-74140000D02*
X264250000Y-73250000D01*
X250373332Y-72360000D02*
X251276666Y-72360000D01*
X259706666Y-72360000D02*
X260610000Y-72360000D01*
X241039999Y-72360000D02*
X241943333Y-72360000D01*
X247293333Y-74140000D02*
X246473333Y-74140000D01*
X246473333Y-74140000D02*
X245583333Y-73250000D01*
X241943333Y-72360000D02*
X242833333Y-73250000D01*
X223276666Y-72360000D02*
X224166666Y-73250000D01*
X222373332Y-72360000D02*
X223276666Y-72360000D01*
X231706666Y-72360000D02*
X232610000Y-72360000D01*
X232610000Y-72360000D02*
X233500000Y-73250000D01*
X237140000Y-74140000D02*
X236250000Y-73250000D01*
X237960000Y-74140000D02*
X237140000Y-74140000D01*
X213039999Y-72360000D02*
X213943333Y-72360000D01*
X218473333Y-74140000D02*
X217583333Y-73250000D01*
X219293333Y-74140000D02*
X218473333Y-74140000D01*
X213943333Y-72360000D02*
X214833333Y-73250000D01*
X209960000Y-74140000D02*
X209140000Y-74140000D01*
X195276666Y-72360000D02*
X196166666Y-73250000D01*
X204610000Y-72360000D02*
X205500000Y-73250000D01*
X209140000Y-74140000D02*
X208250000Y-73250000D01*
X194373332Y-72360000D02*
X195276666Y-72360000D01*
X203706666Y-72360000D02*
X204610000Y-72360000D01*
X190473333Y-74140000D02*
X189583333Y-73250000D01*
X185039999Y-72360000D02*
X185943333Y-72360000D01*
X185943333Y-72360000D02*
X186833333Y-73250000D01*
X191293333Y-74140000D02*
X190473333Y-74140000D01*
X181960000Y-74140000D02*
X181140000Y-74140000D01*
X176610000Y-72360000D02*
X177500000Y-73250000D01*
X167276666Y-72360000D02*
X168166666Y-73250000D01*
X175706666Y-72360000D02*
X176610000Y-72360000D01*
X181140000Y-74140000D02*
X180250000Y-73250000D01*
X166373332Y-72360000D02*
X167276666Y-72360000D01*
X157039999Y-72360000D02*
X157943333Y-72360000D01*
X157943333Y-72360000D02*
X158833333Y-73250000D01*
X163293333Y-74140000D02*
X162473333Y-74140000D01*
X162473333Y-74140000D02*
X161583333Y-73250000D01*
X148610000Y-72360000D02*
X149500000Y-73250000D01*
X139276666Y-72360000D02*
X140166666Y-73250000D01*
X153960000Y-74140000D02*
X153140000Y-74140000D01*
X138373332Y-72360000D02*
X139276666Y-72360000D01*
X147706666Y-72360000D02*
X148610000Y-72360000D01*
X153140000Y-74140000D02*
X152250000Y-73250000D01*
X134473333Y-74140000D02*
X133583333Y-73250000D01*
X129943333Y-72360000D02*
X130833333Y-73250000D01*
X129039999Y-72360000D02*
X129943333Y-72360000D01*
X135293333Y-74140000D02*
X134473333Y-74140000D01*
X119706666Y-72360000D02*
X120610000Y-72360000D01*
X111276666Y-72360000D02*
X112166666Y-73250000D01*
X125960000Y-74140000D02*
X125140000Y-74140000D01*
X125140000Y-74140000D02*
X124250000Y-73250000D01*
X120610000Y-72360000D02*
X121500000Y-73250000D01*
X110373332Y-72360000D02*
X111276666Y-72360000D01*
X101039999Y-72360000D02*
X101943333Y-72360000D01*
X106473333Y-74140000D02*
X105583333Y-73250000D01*
X107293333Y-74140000D02*
X106473333Y-74140000D01*
X101943333Y-72360000D02*
X102833333Y-73250000D01*
X82373332Y-72360000D02*
X83276666Y-72360000D01*
X83276666Y-72360000D02*
X84166666Y-73250000D01*
X91706666Y-72360000D02*
X92610000Y-72360000D01*
X97140000Y-74140000D02*
X96250000Y-73250000D01*
X97960000Y-74140000D02*
X97140000Y-74140000D01*
X92610000Y-72360000D02*
X93500000Y-73250000D01*
X79293333Y-74140000D02*
X78473333Y-74140000D01*
X73943333Y-72360000D02*
X74833333Y-73250000D01*
X78473333Y-74140000D02*
X77583333Y-73250000D01*
X73039999Y-72360000D02*
X73943333Y-72360000D01*
X69140000Y-74140000D02*
X68250000Y-73250000D01*
X54373332Y-72360000D02*
X55276666Y-72360000D01*
X55276666Y-72360000D02*
X56166666Y-73250000D01*
X64610000Y-72360000D02*
X65500000Y-73250000D01*
X69960000Y-74140000D02*
X69140000Y-74140000D01*
X63706666Y-72360000D02*
X64610000Y-72360000D01*
X45039999Y-72360000D02*
X45943333Y-72360000D01*
X51293333Y-74140000D02*
X50473333Y-74140000D01*
X50473333Y-74140000D02*
X49583333Y-73250000D01*
X45943333Y-72360000D02*
X46833333Y-73250000D01*
X35706666Y-72360000D02*
X36610000Y-72360000D01*
X41960000Y-74140000D02*
X41140000Y-74140000D01*
X26373332Y-72360000D02*
X27276666Y-72360000D01*
X36610000Y-72360000D02*
X37500000Y-73250000D01*
X41140000Y-74140000D02*
X40250000Y-73250000D01*
X27276666Y-72360000D02*
X28166666Y-73250000D01*
X23293333Y-74140000D02*
X22473333Y-74140000D01*
X17943333Y-72360000D02*
X18833333Y-73250000D01*
X17039999Y-72360000D02*
X17943333Y-72360000D01*
X22473333Y-74140000D02*
X21583333Y-73250000D01*
X7706666Y-72360000D02*
X8610000Y-72360000D01*
X-723334Y-72360000D02*
X166666Y-73250000D01*
X13140000Y-74140000D02*
X12250000Y-73250000D01*
X13960000Y-74140000D02*
X13140000Y-74140000D01*
X-1626668Y-72360000D02*
X-723334Y-72360000D01*
X8610000Y-72360000D02*
X9500000Y-73250000D01*
X-10960001Y-72360000D02*
X-10056667Y-72360000D01*
X-5526667Y-74140000D02*
X-6416667Y-73250000D01*
X-4706667Y-74140000D02*
X-5526667Y-74140000D01*
X-10056667Y-72360000D02*
X-9166667Y-73250000D01*
X-28723334Y-72360000D02*
X-27833334Y-73250000D01*
X-20293334Y-72360000D02*
X-19390000Y-72360000D01*
X-19390000Y-72360000D02*
X-18500000Y-73250000D01*
X-29626668Y-72360000D02*
X-28723334Y-72360000D01*
X-14040000Y-74140000D02*
X-14860000Y-74140000D01*
X-14860000Y-74140000D02*
X-15750000Y-73250000D01*
X-33526667Y-74140000D02*
X-34416667Y-73250000D01*
X-32706667Y-74140000D02*
X-33526667Y-74140000D01*
X-38056667Y-72360000D02*
X-37166667Y-73250000D01*
X-38960001Y-72360000D02*
X-38056667Y-72360000D01*
X-48293334Y-72360000D02*
X-47390000Y-72360000D01*
X-57626668Y-72360000D02*
X-56723334Y-72360000D01*
X-56723334Y-72360000D02*
X-55833334Y-73250000D01*
X-47390000Y-72360000D02*
X-46500000Y-73250000D01*
X-42860000Y-74140000D02*
X-43750000Y-73250000D01*
X-42040000Y-74140000D02*
X-42860000Y-74140000D01*
X-60706667Y-74140000D02*
X-61526667Y-74140000D01*
X-61526667Y-74140000D02*
X-62416667Y-73250000D01*
X-66056667Y-72360000D02*
X-65166667Y-73250000D01*
X-66960001Y-72360000D02*
X-66056667Y-72360000D01*
X-75390000Y-72360000D02*
X-74500000Y-73250000D01*
X-76293334Y-72360000D02*
X-75390000Y-72360000D01*
X-70860000Y-74140000D02*
X-71750000Y-73250000D01*
X-85626668Y-72360000D02*
X-84723334Y-72360000D01*
X-84723334Y-72360000D02*
X-83833334Y-73250000D01*
X-70040000Y-74140000D02*
X-70860000Y-74140000D01*
%TO.N,+5V*%
X-76183333Y-90750000D02*
X-76293333Y-90640000D01*
X-73558333Y-90750000D02*
X-76183333Y-90750000D01*
X-73333333Y-90525000D02*
X-73558333Y-90750000D01*
X-64224999Y-90750000D02*
X-63999999Y-90525000D01*
X-65250000Y-90750000D02*
X-64224999Y-90750000D01*
X-66850000Y-90750000D02*
X-66960000Y-90640000D01*
X-65250000Y-90750000D02*
X-66850000Y-90750000D01*
X-55916667Y-90750000D02*
X-57516667Y-90750000D01*
X-46583334Y-90750000D02*
X-48183334Y-90750000D01*
X-37250001Y-90750000D02*
X-38850001Y-90750000D01*
X-27916668Y-90750000D02*
X-29516668Y-90750000D01*
X-18583335Y-90750000D02*
X-20183335Y-90750000D01*
X-9250002Y-90750000D02*
X-10850002Y-90750000D01*
X83331Y-90750000D02*
X-1516669Y-90750000D01*
X9416664Y-90750000D02*
X7816664Y-90750000D01*
X18749997Y-90750000D02*
X17149997Y-90750000D01*
X28083330Y-90750000D02*
X26483330Y-90750000D01*
X37416663Y-90750000D02*
X35816663Y-90750000D01*
X46749996Y-90750000D02*
X45149996Y-90750000D01*
X56083329Y-90750000D02*
X54483329Y-90750000D01*
X65416662Y-90750000D02*
X63816662Y-90750000D01*
X74749995Y-90750000D02*
X73149995Y-90750000D01*
X84083328Y-90750000D02*
X82483328Y-90750000D01*
X93416661Y-90750000D02*
X91816661Y-90750000D01*
X102749994Y-90750000D02*
X101149994Y-90750000D01*
X112083327Y-90750000D02*
X110483327Y-90750000D01*
X121416660Y-90750000D02*
X119816660Y-90750000D01*
X130749993Y-90750000D02*
X129149993Y-90750000D01*
X140083326Y-90750000D02*
X138483326Y-90750000D01*
X149416659Y-90750000D02*
X147816659Y-90750000D01*
X158749992Y-90750000D02*
X157149992Y-90750000D01*
X168083325Y-90750000D02*
X166483325Y-90750000D01*
X177416658Y-90750000D02*
X175816658Y-90750000D01*
X186749991Y-90750000D02*
X185149991Y-90750000D01*
X196083324Y-90750000D02*
X194483324Y-90750000D01*
X205416657Y-90750000D02*
X203816657Y-90750000D01*
X214749990Y-90750000D02*
X213149990Y-90750000D01*
X224083323Y-90750000D02*
X222483323Y-90750000D01*
X233416656Y-90750000D02*
X231816656Y-90750000D01*
X242749989Y-90750000D02*
X241149989Y-90750000D01*
X252083322Y-90750000D02*
X250483322Y-90750000D01*
X261416655Y-90750000D02*
X259816655Y-90750000D01*
X270749988Y-90750000D02*
X269149988Y-90750000D01*
X280083321Y-90750000D02*
X278483321Y-90750000D01*
X289416654Y-90750000D02*
X287816654Y-90750000D01*
X298749987Y-90750000D02*
X297149987Y-90750000D01*
X308083320Y-90750000D02*
X306483320Y-90750000D01*
X317416653Y-90750000D02*
X315816653Y-90750000D01*
X326749986Y-90750000D02*
X325149986Y-90750000D01*
X336083319Y-90750000D02*
X334483319Y-90750000D01*
X345416652Y-90750000D02*
X343816652Y-90750000D01*
X-57516667Y-90750000D02*
X-57626667Y-90640000D01*
X-48183334Y-90750000D02*
X-48293334Y-90640000D01*
X-38850001Y-90750000D02*
X-38960001Y-90640000D01*
X-29516668Y-90750000D02*
X-29626668Y-90640000D01*
X-20183335Y-90750000D02*
X-20293335Y-90640000D01*
X-10850002Y-90750000D02*
X-10960002Y-90640000D01*
X-1516669Y-90750000D02*
X-1626669Y-90640000D01*
X7816664Y-90750000D02*
X7706664Y-90640000D01*
X17149997Y-90750000D02*
X17039997Y-90640000D01*
X26483330Y-90750000D02*
X26373330Y-90640000D01*
X35816663Y-90750000D02*
X35706663Y-90640000D01*
X45149996Y-90750000D02*
X45039996Y-90640000D01*
X54483329Y-90750000D02*
X54373329Y-90640000D01*
X63816662Y-90750000D02*
X63706662Y-90640000D01*
X73149995Y-90750000D02*
X73039995Y-90640000D01*
X82483328Y-90750000D02*
X82373328Y-90640000D01*
X91816661Y-90750000D02*
X91706661Y-90640000D01*
X101149994Y-90750000D02*
X101039994Y-90640000D01*
X110483327Y-90750000D02*
X110373327Y-90640000D01*
X119816660Y-90750000D02*
X119706660Y-90640000D01*
X129149993Y-90750000D02*
X129039993Y-90640000D01*
X138483326Y-90750000D02*
X138373326Y-90640000D01*
X147816659Y-90750000D02*
X147706659Y-90640000D01*
X157149992Y-90750000D02*
X157039992Y-90640000D01*
X166483325Y-90750000D02*
X166373325Y-90640000D01*
X175816658Y-90750000D02*
X175706658Y-90640000D01*
X185149991Y-90750000D02*
X185039991Y-90640000D01*
X194483324Y-90750000D02*
X194373324Y-90640000D01*
X203816657Y-90750000D02*
X203706657Y-90640000D01*
X213149990Y-90750000D02*
X213039990Y-90640000D01*
X222483323Y-90750000D02*
X222373323Y-90640000D01*
X231816656Y-90750000D02*
X231706656Y-90640000D01*
X241149989Y-90750000D02*
X241039989Y-90640000D01*
X250483322Y-90750000D02*
X250373322Y-90640000D01*
X259816655Y-90750000D02*
X259706655Y-90640000D01*
X269149988Y-90750000D02*
X269039988Y-90640000D01*
X278483321Y-90750000D02*
X278373321Y-90640000D01*
X287816654Y-90750000D02*
X287706654Y-90640000D01*
X297149987Y-90750000D02*
X297039987Y-90640000D01*
X306483320Y-90750000D02*
X306373320Y-90640000D01*
X315816653Y-90750000D02*
X315706653Y-90640000D01*
X325149986Y-90750000D02*
X325039986Y-90640000D01*
X334483319Y-90750000D02*
X334373319Y-90640000D01*
X343816652Y-90750000D02*
X343706652Y-90640000D01*
X-55916667Y-90750000D02*
X-54891666Y-90750000D01*
X-46583334Y-90750000D02*
X-45558333Y-90750000D01*
X-37250001Y-90750000D02*
X-36225000Y-90750000D01*
X-27916668Y-90750000D02*
X-26891667Y-90750000D01*
X-18583335Y-90750000D02*
X-17558334Y-90750000D01*
X-9250002Y-90750000D02*
X-8225001Y-90750000D01*
X83331Y-90750000D02*
X1108332Y-90750000D01*
X9416664Y-90750000D02*
X10441665Y-90750000D01*
X18749997Y-90750000D02*
X19774998Y-90750000D01*
X28083330Y-90750000D02*
X29108331Y-90750000D01*
X37416663Y-90750000D02*
X38441664Y-90750000D01*
X46749996Y-90750000D02*
X47774997Y-90750000D01*
X56083329Y-90750000D02*
X57108330Y-90750000D01*
X65416662Y-90750000D02*
X66441663Y-90750000D01*
X74749995Y-90750000D02*
X75774996Y-90750000D01*
X84083328Y-90750000D02*
X85108329Y-90750000D01*
X93416661Y-90750000D02*
X94441662Y-90750000D01*
X102749994Y-90750000D02*
X103774995Y-90750000D01*
X112083327Y-90750000D02*
X113108328Y-90750000D01*
X121416660Y-90750000D02*
X122441661Y-90750000D01*
X130749993Y-90750000D02*
X131774994Y-90750000D01*
X140083326Y-90750000D02*
X141108327Y-90750000D01*
X149416659Y-90750000D02*
X150441660Y-90750000D01*
X158749992Y-90750000D02*
X159774993Y-90750000D01*
X168083325Y-90750000D02*
X169108326Y-90750000D01*
X177416658Y-90750000D02*
X178441659Y-90750000D01*
X186749991Y-90750000D02*
X187774992Y-90750000D01*
X196083324Y-90750000D02*
X197108325Y-90750000D01*
X205416657Y-90750000D02*
X206441658Y-90750000D01*
X214749990Y-90750000D02*
X215774991Y-90750000D01*
X224083323Y-90750000D02*
X225108324Y-90750000D01*
X233416656Y-90750000D02*
X234441657Y-90750000D01*
X242749989Y-90750000D02*
X243774990Y-90750000D01*
X252083322Y-90750000D02*
X253108323Y-90750000D01*
X261416655Y-90750000D02*
X262441656Y-90750000D01*
X270749988Y-90750000D02*
X271774989Y-90750000D01*
X280083321Y-90750000D02*
X281108322Y-90750000D01*
X289416654Y-90750000D02*
X290441655Y-90750000D01*
X298749987Y-90750000D02*
X299774988Y-90750000D01*
X308083320Y-90750000D02*
X309108321Y-90750000D01*
X317416653Y-90750000D02*
X318441654Y-90750000D01*
X326749986Y-90750000D02*
X327774987Y-90750000D01*
X336083319Y-90750000D02*
X337108320Y-90750000D01*
X345416652Y-90750000D02*
X346441653Y-90750000D01*
X-54891666Y-90750000D02*
X-54666666Y-90525000D01*
X-45558333Y-90750000D02*
X-45333333Y-90525000D01*
X-36225000Y-90750000D02*
X-36000000Y-90525000D01*
X-26891667Y-90750000D02*
X-26666667Y-90525000D01*
X-17558334Y-90750000D02*
X-17333334Y-90525000D01*
X-8225001Y-90750000D02*
X-8000001Y-90525000D01*
X1108332Y-90750000D02*
X1333332Y-90525000D01*
X10441665Y-90750000D02*
X10666665Y-90525000D01*
X19774998Y-90750000D02*
X19999998Y-90525000D01*
X29108331Y-90750000D02*
X29333331Y-90525000D01*
X38441664Y-90750000D02*
X38666664Y-90525000D01*
X47774997Y-90750000D02*
X47999997Y-90525000D01*
X57108330Y-90750000D02*
X57333330Y-90525000D01*
X66441663Y-90750000D02*
X66666663Y-90525000D01*
X75774996Y-90750000D02*
X75999996Y-90525000D01*
X85108329Y-90750000D02*
X85333329Y-90525000D01*
X94441662Y-90750000D02*
X94666662Y-90525000D01*
X103774995Y-90750000D02*
X103999995Y-90525000D01*
X113108328Y-90750000D02*
X113333328Y-90525000D01*
X122441661Y-90750000D02*
X122666661Y-90525000D01*
X131774994Y-90750000D02*
X131999994Y-90525000D01*
X141108327Y-90750000D02*
X141333327Y-90525000D01*
X150441660Y-90750000D02*
X150666660Y-90525000D01*
X159774993Y-90750000D02*
X159999993Y-90525000D01*
X169108326Y-90750000D02*
X169333326Y-90525000D01*
X178441659Y-90750000D02*
X178666659Y-90525000D01*
X187774992Y-90750000D02*
X187999992Y-90525000D01*
X197108325Y-90750000D02*
X197333325Y-90525000D01*
X206441658Y-90750000D02*
X206666658Y-90525000D01*
X215774991Y-90750000D02*
X215999991Y-90525000D01*
X225108324Y-90750000D02*
X225333324Y-90525000D01*
X234441657Y-90750000D02*
X234666657Y-90525000D01*
X243774990Y-90750000D02*
X243999990Y-90525000D01*
X253108323Y-90750000D02*
X253333323Y-90525000D01*
X262441656Y-90750000D02*
X262666656Y-90525000D01*
X271774989Y-90750000D02*
X271999989Y-90525000D01*
X281108322Y-90750000D02*
X281333322Y-90525000D01*
X290441655Y-90750000D02*
X290666655Y-90525000D01*
X299774988Y-90750000D02*
X299999988Y-90525000D01*
X309108321Y-90750000D02*
X309333321Y-90525000D01*
X318441654Y-90750000D02*
X318666654Y-90525000D01*
X327774987Y-90750000D02*
X327999987Y-90525000D01*
X337108320Y-90750000D02*
X337333320Y-90525000D01*
X346441653Y-90750000D02*
X346666653Y-90525000D01*
X-82891665Y-90750000D02*
X-82666665Y-90525000D01*
X-83916666Y-90750000D02*
X-82891665Y-90750000D01*
X-85516666Y-90750000D02*
X-85626666Y-90640000D01*
X-83916666Y-90750000D02*
X-85516666Y-90750000D01*
X-74583333Y-90750000D02*
X-76183333Y-90750000D01*
X-76183333Y-90750000D02*
X-76293333Y-90640000D01*
X-74583333Y-90750000D02*
X-73558332Y-90750000D01*
X-73558332Y-90750000D02*
X-73333332Y-90525000D01*
X353442666Y-90754001D02*
X354746667Y-89450000D01*
X346895668Y-90754001D02*
X353442666Y-90754001D01*
X346666667Y-90525000D02*
X346895668Y-90754001D01*
%TO.N,/DI*%
X-79373332Y-90640000D02*
X-80276666Y-90640000D01*
X-80276666Y-90640000D02*
X-81166666Y-89750000D01*
X-89609999Y-90640000D02*
X-90499999Y-89750000D01*
X-88706665Y-90640000D02*
X-89609999Y-90640000D01*
X-97206666Y-89450000D02*
X-95902665Y-90754001D01*
X-92449464Y-89750000D02*
X-90499999Y-89750000D01*
X-93453465Y-90754001D02*
X-92449464Y-89750000D01*
X-95902665Y-90754001D02*
X-93453465Y-90754001D01*
%TO.N,/DO*%
X344526667Y-88860000D02*
X345416667Y-89750000D01*
X343706667Y-88860000D02*
X344526667Y-88860000D01*
%TO.N,GND*%
X-70150000Y-88750000D02*
X-70040000Y-88860000D01*
X-73108333Y-88750000D02*
X-70150000Y-88750000D01*
X-73333333Y-88975000D02*
X-73108333Y-88750000D01*
X-63774999Y-88750000D02*
X-63999999Y-88975000D01*
X-62500000Y-88750000D02*
X-63774999Y-88750000D01*
X-60816666Y-88750000D02*
X-60706666Y-88860000D01*
X-62500000Y-88750000D02*
X-60816666Y-88750000D01*
X-53166667Y-88750000D02*
X-54441666Y-88750000D01*
X-43833334Y-88750000D02*
X-45108333Y-88750000D01*
X-34500001Y-88750000D02*
X-35775000Y-88750000D01*
X-25166668Y-88750000D02*
X-26441667Y-88750000D01*
X-15833335Y-88750000D02*
X-17108334Y-88750000D01*
X-6500002Y-88750000D02*
X-7775001Y-88750000D01*
X2833331Y-88750000D02*
X1558332Y-88750000D01*
X12166664Y-88750000D02*
X10891665Y-88750000D01*
X21499997Y-88750000D02*
X20224998Y-88750000D01*
X30833330Y-88750000D02*
X29558331Y-88750000D01*
X40166663Y-88750000D02*
X38891664Y-88750000D01*
X49499996Y-88750000D02*
X48224997Y-88750000D01*
X58833329Y-88750000D02*
X57558330Y-88750000D01*
X68166662Y-88750000D02*
X66891663Y-88750000D01*
X77499995Y-88750000D02*
X76224996Y-88750000D01*
X86833328Y-88750000D02*
X85558329Y-88750000D01*
X96166661Y-88750000D02*
X94891662Y-88750000D01*
X105499994Y-88750000D02*
X104224995Y-88750000D01*
X114833327Y-88750000D02*
X113558328Y-88750000D01*
X124166660Y-88750000D02*
X122891661Y-88750000D01*
X133499993Y-88750000D02*
X132224994Y-88750000D01*
X142833326Y-88750000D02*
X141558327Y-88750000D01*
X152166659Y-88750000D02*
X150891660Y-88750000D01*
X161499992Y-88750000D02*
X160224993Y-88750000D01*
X170833325Y-88750000D02*
X169558326Y-88750000D01*
X180166658Y-88750000D02*
X178891659Y-88750000D01*
X189499991Y-88750000D02*
X188224992Y-88750000D01*
X198833324Y-88750000D02*
X197558325Y-88750000D01*
X208166657Y-88750000D02*
X206891658Y-88750000D01*
X217499990Y-88750000D02*
X216224991Y-88750000D01*
X226833323Y-88750000D02*
X225558324Y-88750000D01*
X236166656Y-88750000D02*
X234891657Y-88750000D01*
X245499989Y-88750000D02*
X244224990Y-88750000D01*
X254833322Y-88750000D02*
X253558323Y-88750000D01*
X264166655Y-88750000D02*
X262891656Y-88750000D01*
X273499988Y-88750000D02*
X272224989Y-88750000D01*
X282833321Y-88750000D02*
X281558322Y-88750000D01*
X292166654Y-88750000D02*
X290891655Y-88750000D01*
X301499987Y-88750000D02*
X300224988Y-88750000D01*
X310833320Y-88750000D02*
X309558321Y-88750000D01*
X320166653Y-88750000D02*
X318891654Y-88750000D01*
X329499986Y-88750000D02*
X328224987Y-88750000D01*
X338833319Y-88750000D02*
X337558320Y-88750000D01*
X-54441666Y-88750000D02*
X-54666666Y-88975000D01*
X-45108333Y-88750000D02*
X-45333333Y-88975000D01*
X-35775000Y-88750000D02*
X-36000000Y-88975000D01*
X-26441667Y-88750000D02*
X-26666667Y-88975000D01*
X-17108334Y-88750000D02*
X-17333334Y-88975000D01*
X-7775001Y-88750000D02*
X-8000001Y-88975000D01*
X1558332Y-88750000D02*
X1333332Y-88975000D01*
X10891665Y-88750000D02*
X10666665Y-88975000D01*
X20224998Y-88750000D02*
X19999998Y-88975000D01*
X29558331Y-88750000D02*
X29333331Y-88975000D01*
X38891664Y-88750000D02*
X38666664Y-88975000D01*
X48224997Y-88750000D02*
X47999997Y-88975000D01*
X57558330Y-88750000D02*
X57333330Y-88975000D01*
X66891663Y-88750000D02*
X66666663Y-88975000D01*
X76224996Y-88750000D02*
X75999996Y-88975000D01*
X85558329Y-88750000D02*
X85333329Y-88975000D01*
X94891662Y-88750000D02*
X94666662Y-88975000D01*
X104224995Y-88750000D02*
X103999995Y-88975000D01*
X113558328Y-88750000D02*
X113333328Y-88975000D01*
X122891661Y-88750000D02*
X122666661Y-88975000D01*
X132224994Y-88750000D02*
X131999994Y-88975000D01*
X141558327Y-88750000D02*
X141333327Y-88975000D01*
X150891660Y-88750000D02*
X150666660Y-88975000D01*
X160224993Y-88750000D02*
X159999993Y-88975000D01*
X169558326Y-88750000D02*
X169333326Y-88975000D01*
X178891659Y-88750000D02*
X178666659Y-88975000D01*
X188224992Y-88750000D02*
X187999992Y-88975000D01*
X197558325Y-88750000D02*
X197333325Y-88975000D01*
X206891658Y-88750000D02*
X206666658Y-88975000D01*
X216224991Y-88750000D02*
X215999991Y-88975000D01*
X225558324Y-88750000D02*
X225333324Y-88975000D01*
X234891657Y-88750000D02*
X234666657Y-88975000D01*
X244224990Y-88750000D02*
X243999990Y-88975000D01*
X253558323Y-88750000D02*
X253333323Y-88975000D01*
X262891656Y-88750000D02*
X262666656Y-88975000D01*
X272224989Y-88750000D02*
X271999989Y-88975000D01*
X281558322Y-88750000D02*
X281333322Y-88975000D01*
X290891655Y-88750000D02*
X290666655Y-88975000D01*
X300224988Y-88750000D02*
X299999988Y-88975000D01*
X309558321Y-88750000D02*
X309333321Y-88975000D01*
X318891654Y-88750000D02*
X318666654Y-88975000D01*
X328224987Y-88750000D02*
X327999987Y-88975000D01*
X337558320Y-88750000D02*
X337333320Y-88975000D01*
X-53166667Y-88750000D02*
X-51483333Y-88750000D01*
X-43833334Y-88750000D02*
X-42150000Y-88750000D01*
X-34500001Y-88750000D02*
X-32816667Y-88750000D01*
X-25166668Y-88750000D02*
X-23483334Y-88750000D01*
X-15833335Y-88750000D02*
X-14150001Y-88750000D01*
X-6500002Y-88750000D02*
X-4816668Y-88750000D01*
X2833331Y-88750000D02*
X4516665Y-88750000D01*
X12166664Y-88750000D02*
X13849998Y-88750000D01*
X21499997Y-88750000D02*
X23183331Y-88750000D01*
X30833330Y-88750000D02*
X32516664Y-88750000D01*
X40166663Y-88750000D02*
X41849997Y-88750000D01*
X49499996Y-88750000D02*
X51183330Y-88750000D01*
X58833329Y-88750000D02*
X60516663Y-88750000D01*
X68166662Y-88750000D02*
X69849996Y-88750000D01*
X77499995Y-88750000D02*
X79183329Y-88750000D01*
X86833328Y-88750000D02*
X88516662Y-88750000D01*
X96166661Y-88750000D02*
X97849995Y-88750000D01*
X105499994Y-88750000D02*
X107183328Y-88750000D01*
X114833327Y-88750000D02*
X116516661Y-88750000D01*
X124166660Y-88750000D02*
X125849994Y-88750000D01*
X133499993Y-88750000D02*
X135183327Y-88750000D01*
X142833326Y-88750000D02*
X144516660Y-88750000D01*
X152166659Y-88750000D02*
X153849993Y-88750000D01*
X161499992Y-88750000D02*
X163183326Y-88750000D01*
X170833325Y-88750000D02*
X172516659Y-88750000D01*
X180166658Y-88750000D02*
X181849992Y-88750000D01*
X189499991Y-88750000D02*
X191183325Y-88750000D01*
X198833324Y-88750000D02*
X200516658Y-88750000D01*
X208166657Y-88750000D02*
X209849991Y-88750000D01*
X217499990Y-88750000D02*
X219183324Y-88750000D01*
X226833323Y-88750000D02*
X228516657Y-88750000D01*
X236166656Y-88750000D02*
X237849990Y-88750000D01*
X245499989Y-88750000D02*
X247183323Y-88750000D01*
X254833322Y-88750000D02*
X256516656Y-88750000D01*
X264166655Y-88750000D02*
X265849989Y-88750000D01*
X273499988Y-88750000D02*
X275183322Y-88750000D01*
X282833321Y-88750000D02*
X284516655Y-88750000D01*
X292166654Y-88750000D02*
X293849988Y-88750000D01*
X301499987Y-88750000D02*
X303183321Y-88750000D01*
X310833320Y-88750000D02*
X312516654Y-88750000D01*
X320166653Y-88750000D02*
X321849987Y-88750000D01*
X329499986Y-88750000D02*
X331183320Y-88750000D01*
X338833319Y-88750000D02*
X340516653Y-88750000D01*
X-51483333Y-88750000D02*
X-51373333Y-88860000D01*
X-42150000Y-88750000D02*
X-42040000Y-88860000D01*
X-32816667Y-88750000D02*
X-32706667Y-88860000D01*
X-23483334Y-88750000D02*
X-23373334Y-88860000D01*
X-14150001Y-88750000D02*
X-14040001Y-88860000D01*
X-4816668Y-88750000D02*
X-4706668Y-88860000D01*
X4516665Y-88750000D02*
X4626665Y-88860000D01*
X13849998Y-88750000D02*
X13959998Y-88860000D01*
X23183331Y-88750000D02*
X23293331Y-88860000D01*
X32516664Y-88750000D02*
X32626664Y-88860000D01*
X41849997Y-88750000D02*
X41959997Y-88860000D01*
X51183330Y-88750000D02*
X51293330Y-88860000D01*
X60516663Y-88750000D02*
X60626663Y-88860000D01*
X69849996Y-88750000D02*
X69959996Y-88860000D01*
X79183329Y-88750000D02*
X79293329Y-88860000D01*
X88516662Y-88750000D02*
X88626662Y-88860000D01*
X97849995Y-88750000D02*
X97959995Y-88860000D01*
X107183328Y-88750000D02*
X107293328Y-88860000D01*
X116516661Y-88750000D02*
X116626661Y-88860000D01*
X125849994Y-88750000D02*
X125959994Y-88860000D01*
X135183327Y-88750000D02*
X135293327Y-88860000D01*
X144516660Y-88750000D02*
X144626660Y-88860000D01*
X153849993Y-88750000D02*
X153959993Y-88860000D01*
X163183326Y-88750000D02*
X163293326Y-88860000D01*
X172516659Y-88750000D02*
X172626659Y-88860000D01*
X181849992Y-88750000D02*
X181959992Y-88860000D01*
X191183325Y-88750000D02*
X191293325Y-88860000D01*
X200516658Y-88750000D02*
X200626658Y-88860000D01*
X209849991Y-88750000D02*
X209959991Y-88860000D01*
X219183324Y-88750000D02*
X219293324Y-88860000D01*
X228516657Y-88750000D02*
X228626657Y-88860000D01*
X237849990Y-88750000D02*
X237959990Y-88860000D01*
X247183323Y-88750000D02*
X247293323Y-88860000D01*
X256516656Y-88750000D02*
X256626656Y-88860000D01*
X265849989Y-88750000D02*
X265959989Y-88860000D01*
X275183322Y-88750000D02*
X275293322Y-88860000D01*
X284516655Y-88750000D02*
X284626655Y-88860000D01*
X293849988Y-88750000D02*
X293959988Y-88860000D01*
X303183321Y-88750000D02*
X303293321Y-88860000D01*
X312516654Y-88750000D02*
X312626654Y-88860000D01*
X321849987Y-88750000D02*
X321959987Y-88860000D01*
X331183320Y-88750000D02*
X331293320Y-88860000D01*
X340516653Y-88750000D02*
X340626653Y-88860000D01*
X-81166666Y-88750000D02*
X-82441665Y-88750000D01*
X-82441665Y-88750000D02*
X-82666665Y-88975000D01*
X-81166666Y-88750000D02*
X-79483332Y-88750000D01*
X-79483332Y-88750000D02*
X-79373332Y-88860000D01*
X-71833333Y-88750000D02*
X-73108332Y-88750000D01*
X-73108332Y-88750000D02*
X-73333332Y-88975000D01*
X-71833333Y-88750000D02*
X-70149999Y-88750000D01*
X-70149999Y-88750000D02*
X-70039999Y-88860000D01*
X-88816665Y-88750000D02*
X-88706665Y-88860000D01*
X-90499999Y-88750000D02*
X-88816665Y-88750000D01*
X346891667Y-88750000D02*
X346666667Y-88975000D01*
X348000000Y-88750000D02*
X346891667Y-88750000D01*
%TO.N,Net-(D2-Pad2)*%
X-76293333Y-88860000D02*
X-75473333Y-88860000D01*
X-75473333Y-88860000D02*
X-74583333Y-89750000D01*
X-70943333Y-90640000D02*
X-71833333Y-89750000D01*
X-70039999Y-90640000D02*
X-70943333Y-90640000D01*
%TO.N,Net-(D3-Pad2)*%
X-65250000Y-89750000D02*
X-65250000Y-89750000D01*
X-65250000Y-89750000D02*
X-65250000Y-89750000D01*
X-61610000Y-90640000D02*
X-62500000Y-89750000D01*
X-60706666Y-90640000D02*
X-61610000Y-90640000D01*
X-66140000Y-88860000D02*
X-65250000Y-89750000D01*
X-66960000Y-88860000D02*
X-66140000Y-88860000D01*
X-52276666Y-90640000D02*
X-53166666Y-89750000D01*
X-51373332Y-90640000D02*
X-52276666Y-90640000D01*
%TO.N,Net-(D5-Pad2)*%
X-42039999Y-90640000D02*
X-42943333Y-90640000D01*
X-47473333Y-88860000D02*
X-46583333Y-89750000D01*
X-48293333Y-88860000D02*
X-47473333Y-88860000D01*
X-42943333Y-90640000D02*
X-43833333Y-89750000D01*
%TO.N,Net-(D6-Pad2)*%
X-24276666Y-90640000D02*
X-25166666Y-89750000D01*
X-23373332Y-90640000D02*
X-24276666Y-90640000D01*
X-32706666Y-90640000D02*
X-33610000Y-90640000D01*
X-33610000Y-90640000D02*
X-34500000Y-89750000D01*
X-38140000Y-88860000D02*
X-37250000Y-89750000D01*
X-38960000Y-88860000D02*
X-38140000Y-88860000D01*
%TO.N,Net-(D8-Pad2)*%
X-14039999Y-90640000D02*
X-14943333Y-90640000D01*
X-19473333Y-88860000D02*
X-18583333Y-89750000D01*
X-20293333Y-88860000D02*
X-19473333Y-88860000D01*
X-14943333Y-90640000D02*
X-15833333Y-89750000D01*
%TO.N,Net-(D10-Pad4)*%
X3723334Y-90640000D02*
X2833334Y-89750000D01*
X4626668Y-90640000D02*
X3723334Y-90640000D01*
X-4706666Y-90640000D02*
X-5610000Y-90640000D01*
X-5610000Y-90640000D02*
X-6500000Y-89750000D01*
X-10140000Y-88860000D02*
X-9250000Y-89750000D01*
X-10960000Y-88860000D02*
X-10140000Y-88860000D01*
%TO.N,Net-(D11-Pad2)*%
X13960001Y-90640000D02*
X13056667Y-90640000D01*
X8526667Y-88860000D02*
X9416667Y-89750000D01*
X7706667Y-88860000D02*
X8526667Y-88860000D01*
X13056667Y-90640000D02*
X12166667Y-89750000D01*
%TO.N,Net-(D12-Pad2)*%
X31723334Y-90640000D02*
X30833334Y-89750000D01*
X32626668Y-90640000D02*
X31723334Y-90640000D01*
X23293334Y-90640000D02*
X22390000Y-90640000D01*
X22390000Y-90640000D02*
X21500000Y-89750000D01*
X17860000Y-88860000D02*
X18750000Y-89750000D01*
X17040000Y-88860000D02*
X17860000Y-88860000D01*
%TO.N,Net-(D14-Pad2)*%
X41960001Y-90640000D02*
X41056667Y-90640000D01*
X36526667Y-88860000D02*
X37416667Y-89750000D01*
X35706667Y-88860000D02*
X36526667Y-88860000D01*
X41056667Y-90640000D02*
X40166667Y-89750000D01*
%TO.N,Net-(D15-Pad2)*%
X59723334Y-90640000D02*
X58833334Y-89750000D01*
X60626668Y-90640000D02*
X59723334Y-90640000D01*
X51293334Y-90640000D02*
X50390000Y-90640000D01*
X50390000Y-90640000D02*
X49500000Y-89750000D01*
X45860000Y-88860000D02*
X46750000Y-89750000D01*
X45040000Y-88860000D02*
X45860000Y-88860000D01*
%TO.N,Net-(D17-Pad2)*%
X69960001Y-90640000D02*
X69056667Y-90640000D01*
X64526667Y-88860000D02*
X65416667Y-89750000D01*
X63706667Y-88860000D02*
X64526667Y-88860000D01*
X69056667Y-90640000D02*
X68166667Y-89750000D01*
%TO.N,Net-(D18-Pad2)*%
X87723334Y-90640000D02*
X86833334Y-89750000D01*
X88626668Y-90640000D02*
X87723334Y-90640000D01*
X79293334Y-90640000D02*
X78390000Y-90640000D01*
X78390000Y-90640000D02*
X77500000Y-89750000D01*
X73860000Y-88860000D02*
X74750000Y-89750000D01*
X73040000Y-88860000D02*
X73860000Y-88860000D01*
%TO.N,Net-(D20-Pad2)*%
X97960001Y-90640000D02*
X97056667Y-90640000D01*
X92526667Y-88860000D02*
X93416667Y-89750000D01*
X91706667Y-88860000D02*
X92526667Y-88860000D01*
X97056667Y-90640000D02*
X96166667Y-89750000D01*
%TO.N,Net-(D21-Pad2)*%
X115723334Y-90640000D02*
X114833334Y-89750000D01*
X116626668Y-90640000D02*
X115723334Y-90640000D01*
X107293334Y-90640000D02*
X106390000Y-90640000D01*
X106390000Y-90640000D02*
X105500000Y-89750000D01*
X101860000Y-88860000D02*
X102750000Y-89750000D01*
X101040000Y-88860000D02*
X101860000Y-88860000D01*
%TO.N,Net-(D23-Pad2)*%
X125960001Y-90640000D02*
X125056667Y-90640000D01*
X120526667Y-88860000D02*
X121416667Y-89750000D01*
X119706667Y-88860000D02*
X120526667Y-88860000D01*
X125056667Y-90640000D02*
X124166667Y-89750000D01*
%TO.N,Net-(D24-Pad2)*%
X143723334Y-90640000D02*
X142833334Y-89750000D01*
X144626668Y-90640000D02*
X143723334Y-90640000D01*
X135293334Y-90640000D02*
X134390000Y-90640000D01*
X134390000Y-90640000D02*
X133500000Y-89750000D01*
X129860000Y-88860000D02*
X130750000Y-89750000D01*
X129040000Y-88860000D02*
X129860000Y-88860000D01*
%TO.N,Net-(D26-Pad2)*%
X153960001Y-90640000D02*
X153056667Y-90640000D01*
X148526667Y-88860000D02*
X149416667Y-89750000D01*
X147706667Y-88860000D02*
X148526667Y-88860000D01*
X153056667Y-90640000D02*
X152166667Y-89750000D01*
%TO.N,Net-(D27-Pad2)*%
X171723334Y-90640000D02*
X170833334Y-89750000D01*
X172626668Y-90640000D02*
X171723334Y-90640000D01*
X163293334Y-90640000D02*
X162390000Y-90640000D01*
X162390000Y-90640000D02*
X161500000Y-89750000D01*
X157860000Y-88860000D02*
X158750000Y-89750000D01*
X157040000Y-88860000D02*
X157860000Y-88860000D01*
%TO.N,Net-(D29-Pad2)*%
X181960001Y-90640000D02*
X181056667Y-90640000D01*
X176526667Y-88860000D02*
X177416667Y-89750000D01*
X175706667Y-88860000D02*
X176526667Y-88860000D01*
X181056667Y-90640000D02*
X180166667Y-89750000D01*
%TO.N,Net-(D30-Pad2)*%
X199723334Y-90640000D02*
X198833334Y-89750000D01*
X200626668Y-90640000D02*
X199723334Y-90640000D01*
X191293334Y-90640000D02*
X190390000Y-90640000D01*
X190390000Y-90640000D02*
X189500000Y-89750000D01*
X185860000Y-88860000D02*
X186750000Y-89750000D01*
X185040000Y-88860000D02*
X185860000Y-88860000D01*
%TO.N,Net-(D32-Pad2)*%
X209960001Y-90640000D02*
X209056667Y-90640000D01*
X204526667Y-88860000D02*
X205416667Y-89750000D01*
X203706667Y-88860000D02*
X204526667Y-88860000D01*
X209056667Y-90640000D02*
X208166667Y-89750000D01*
%TO.N,Net-(D33-Pad2)*%
X227723334Y-90640000D02*
X226833334Y-89750000D01*
X228626668Y-90640000D02*
X227723334Y-90640000D01*
X219293334Y-90640000D02*
X218390000Y-90640000D01*
X218390000Y-90640000D02*
X217500000Y-89750000D01*
X213860000Y-88860000D02*
X214750000Y-89750000D01*
X213040000Y-88860000D02*
X213860000Y-88860000D01*
%TO.N,Net-(D35-Pad2)*%
X237960001Y-90640000D02*
X237056667Y-90640000D01*
X232526667Y-88860000D02*
X233416667Y-89750000D01*
X231706667Y-88860000D02*
X232526667Y-88860000D01*
X237056667Y-90640000D02*
X236166667Y-89750000D01*
%TO.N,Net-(D36-Pad2)*%
X255723334Y-90640000D02*
X254833334Y-89750000D01*
X256626668Y-90640000D02*
X255723334Y-90640000D01*
X247293334Y-90640000D02*
X246390000Y-90640000D01*
X246390000Y-90640000D02*
X245500000Y-89750000D01*
X241860000Y-88860000D02*
X242750000Y-89750000D01*
X241040000Y-88860000D02*
X241860000Y-88860000D01*
%TO.N,Net-(D38-Pad2)*%
X265960001Y-90640000D02*
X265056667Y-90640000D01*
X260526667Y-88860000D02*
X261416667Y-89750000D01*
X259706667Y-88860000D02*
X260526667Y-88860000D01*
X265056667Y-90640000D02*
X264166667Y-89750000D01*
%TO.N,Net-(D39-Pad2)*%
X283723334Y-90640000D02*
X282833334Y-89750000D01*
X284626668Y-90640000D02*
X283723334Y-90640000D01*
X275293334Y-90640000D02*
X274390000Y-90640000D01*
X274390000Y-90640000D02*
X273500000Y-89750000D01*
X269860000Y-88860000D02*
X270750000Y-89750000D01*
X269040000Y-88860000D02*
X269860000Y-88860000D01*
%TO.N,Net-(D41-Pad2)*%
X293960001Y-90640000D02*
X293056667Y-90640000D01*
X288526667Y-88860000D02*
X289416667Y-89750000D01*
X287706667Y-88860000D02*
X288526667Y-88860000D01*
X293056667Y-90640000D02*
X292166667Y-89750000D01*
%TO.N,Net-(D42-Pad2)*%
X311723334Y-90640000D02*
X310833334Y-89750000D01*
X312626668Y-90640000D02*
X311723334Y-90640000D01*
X303293334Y-90640000D02*
X302390000Y-90640000D01*
X302390000Y-90640000D02*
X301500000Y-89750000D01*
X297860000Y-88860000D02*
X298750000Y-89750000D01*
X297040000Y-88860000D02*
X297860000Y-88860000D01*
%TO.N,Net-(D44-Pad2)*%
X321960001Y-90640000D02*
X321056667Y-90640000D01*
X316526667Y-88860000D02*
X317416667Y-89750000D01*
X315706667Y-88860000D02*
X316526667Y-88860000D01*
X321056667Y-90640000D02*
X320166667Y-89750000D01*
%TO.N,Net-(D45-Pad2)*%
X339723334Y-90640000D02*
X338833334Y-89750000D01*
X340626668Y-90640000D02*
X339723334Y-90640000D01*
X331293334Y-90640000D02*
X330390000Y-90640000D01*
X330390000Y-90640000D02*
X329500000Y-89750000D01*
X325860000Y-88860000D02*
X326750000Y-89750000D01*
X325040000Y-88860000D02*
X325860000Y-88860000D01*
%TD*%
M02*
