%TF.GenerationSoftware,KiCad,Pcbnew,(5.1.7)-1*%
%TF.CreationDate,2021-02-22T22:43:04-05:00*%
%TF.ProjectId,LEDBoard_Panelize,4c454442-6f61-4726-945f-50616e656c69,rev?*%
%TF.SameCoordinates,Original*%
%TF.FileFunction,Copper,L2,Bot*%
%TF.FilePolarity,Positive*%
%FSLAX46Y46*%
G04 Gerber Fmt 4.6, Leading zero omitted, Abs format (unit mm)*
G04 Created by KiCad (PCBNEW (5.1.7)-1) date 2021-02-22 22:43:04*
%MOMM*%
%LPD*%
G01*
G04 APERTURE LIST*
%TA.AperFunction,ComponentPad*%
%ADD10R,1.700000X1.700000*%
%TD*%
%TA.AperFunction,ComponentPad*%
%ADD11O,1.700000X1.700000*%
%TD*%
%TA.AperFunction,ViaPad*%
%ADD12C,0.800000*%
%TD*%
%TA.AperFunction,Conductor*%
%ADD13C,0.508000*%
%TD*%
G04 APERTURE END LIST*
D10*
%TO.P,J2,1*%
%TO.N,N/C*%
X-99746667Y-73550000D03*
D11*
%TO.P,J2,2*%
X-97206667Y-73550000D03*
%TO.P,J2,3*%
X-94666667Y-73550000D03*
%TD*%
D10*
%TO.P,J1,1*%
%TO.N,N/C*%
X349666666Y-73550000D03*
D11*
%TO.P,J1,2*%
X352206666Y-73550000D03*
%TO.P,J1,3*%
X354746666Y-73550000D03*
%TD*%
%TO.P,J1,3*%
%TO.N,+5V*%
X-99746666Y-89450000D03*
%TO.P,J1,2*%
%TO.N,/DI*%
X-97206666Y-89450000D03*
D10*
%TO.P,J1,1*%
%TO.N,GND*%
X-94666666Y-89450000D03*
%TD*%
D11*
%TO.P,J2,3*%
%TO.N,GND*%
X349666667Y-89450000D03*
%TO.P,J2,2*%
%TO.N,/DO*%
X352206667Y-89450000D03*
D10*
%TO.P,J2,1*%
%TO.N,+5V*%
X354746667Y-89450000D03*
%TD*%
D12*
%TO.N,*%
X310916667Y-72250000D03*
X245583336Y-72250000D03*
X292250001Y-72250000D03*
X236250003Y-72250000D03*
X226916670Y-72250000D03*
X217583337Y-72250000D03*
X273583335Y-72250000D03*
X320250000Y-72250000D03*
X301583334Y-72250000D03*
X208250004Y-72250000D03*
X264250002Y-72250000D03*
X198916671Y-72250000D03*
X282916668Y-72250000D03*
X189583338Y-72250000D03*
X254916669Y-72250000D03*
X68250009Y-72250000D03*
X105583341Y-72250000D03*
X21583344Y-72250000D03*
X-43749987Y-72250000D03*
X77583342Y-72250000D03*
X-71749986Y-72250000D03*
X40250010Y-72250000D03*
X2916678Y-72250000D03*
X180250005Y-72250000D03*
X96250008Y-72250000D03*
X152250006Y-72250000D03*
X49583343Y-72250000D03*
X133583340Y-72250000D03*
X124250007Y-72250000D03*
X-34416654Y-72250000D03*
X12250011Y-72250000D03*
X-81083319Y-72250000D03*
X170916672Y-72250000D03*
X142916673Y-72250000D03*
X-6416655Y-72250000D03*
X329583333Y-72250000D03*
X161583339Y-72250000D03*
X-15749988Y-72250000D03*
X-90416652Y-72250000D03*
X86916675Y-72250000D03*
X-25083321Y-72250000D03*
X30916677Y-72250000D03*
X-53083320Y-72250000D03*
X338916666Y-72250000D03*
X58916676Y-72250000D03*
X114916674Y-72250000D03*
X-62416653Y-72250000D03*
X345499999Y-73250000D03*
X336166666Y-73250000D03*
X-90416667Y-73250000D03*
X317500000Y-74250000D03*
X308166667Y-74250000D03*
X289500001Y-74250000D03*
X261500002Y-74250000D03*
X298833334Y-74250000D03*
X205500004Y-74250000D03*
X270833335Y-74250000D03*
X158833339Y-74250000D03*
X149500006Y-74250000D03*
X140166673Y-74250000D03*
X130833340Y-74250000D03*
X242833336Y-74250000D03*
X121500007Y-74250000D03*
X224166670Y-74250000D03*
X112166674Y-74250000D03*
X168166672Y-74250000D03*
X93500008Y-74250000D03*
X84166675Y-74250000D03*
X74833342Y-74250000D03*
X186833338Y-74250000D03*
X214833337Y-74250000D03*
X177500005Y-74250000D03*
X102833341Y-74250000D03*
X252166669Y-74250000D03*
X233500003Y-74250000D03*
X196166671Y-74250000D03*
X65500009Y-74250000D03*
X56166676Y-74250000D03*
X280166668Y-74250000D03*
X336166666Y-74250000D03*
X-83833319Y-74250000D03*
X-65166653Y-74250000D03*
X-9166655Y-74250000D03*
X166678Y-74250000D03*
X-37166654Y-74250000D03*
X-93000000Y-74250000D03*
X18833344Y-74250000D03*
X326833333Y-74250000D03*
X-27833321Y-74250000D03*
X37500010Y-74250000D03*
X-74499986Y-74250000D03*
X-46499987Y-74250000D03*
X9500011Y-74250000D03*
X46833343Y-74250000D03*
X28166677Y-74250000D03*
X345499999Y-74250000D03*
X-18499988Y-74250000D03*
X-55833320Y-74250000D03*
X326833333Y-73250000D03*
X329583333Y-73250000D03*
X317500000Y-73250000D03*
X320250000Y-73250000D03*
X308166666Y-73250000D03*
X301583333Y-73250000D03*
X298833333Y-73250000D03*
X289500000Y-73250000D03*
X280166666Y-73250000D03*
X292250000Y-73250000D03*
X273583333Y-73250000D03*
X270833333Y-73250000D03*
X261500000Y-73250000D03*
X252166666Y-73250000D03*
X264250000Y-73250000D03*
X242833333Y-73250000D03*
X245583333Y-73250000D03*
X224166666Y-73250000D03*
X236250000Y-73250000D03*
X233500000Y-73250000D03*
X214833333Y-73250000D03*
X217583333Y-73250000D03*
X205500000Y-73250000D03*
X208250000Y-73250000D03*
X196166666Y-73250000D03*
X186833333Y-73250000D03*
X189583333Y-73250000D03*
X180250000Y-73250000D03*
X168166666Y-73250000D03*
X177500000Y-73250000D03*
X161583333Y-73250000D03*
X158833333Y-73250000D03*
X140166666Y-73250000D03*
X149500000Y-73250000D03*
X152250000Y-73250000D03*
X133583333Y-73250000D03*
X130833333Y-73250000D03*
X112166666Y-73250000D03*
X124250000Y-73250000D03*
X121500000Y-73250000D03*
X105583333Y-73250000D03*
X102833333Y-73250000D03*
X84166666Y-73250000D03*
X96250000Y-73250000D03*
X93500000Y-73250000D03*
X74833333Y-73250000D03*
X77583333Y-73250000D03*
X68250000Y-73250000D03*
X65500000Y-73250000D03*
X56166666Y-73250000D03*
X49583333Y-73250000D03*
X46833333Y-73250000D03*
X40250000Y-73250000D03*
X28166666Y-73250000D03*
X37500000Y-73250000D03*
X18833333Y-73250000D03*
X21583333Y-73250000D03*
X9500000Y-73250000D03*
X166666Y-73250000D03*
X12250000Y-73250000D03*
X-9166667Y-73250000D03*
X-6416667Y-73250000D03*
X-18500000Y-73250000D03*
X-15750000Y-73250000D03*
X-27833334Y-73250000D03*
X-37166667Y-73250000D03*
X-34416667Y-73250000D03*
X-46500000Y-73250000D03*
X-43750000Y-73250000D03*
X-55833334Y-73250000D03*
X-62416667Y-73250000D03*
X-65166667Y-73250000D03*
X-74500000Y-73250000D03*
X-71750000Y-73250000D03*
X-83833334Y-73250000D03*
%TO.N,+5V*%
X-65250000Y-90750000D03*
X-55916667Y-90750000D03*
X-46583334Y-90750000D03*
X-37250001Y-90750000D03*
X-27916668Y-90750000D03*
X-18583335Y-90750000D03*
X-9250002Y-90750000D03*
X83331Y-90750000D03*
X9416664Y-90750000D03*
X18749997Y-90750000D03*
X28083330Y-90750000D03*
X37416663Y-90750000D03*
X46749996Y-90750000D03*
X56083329Y-90750000D03*
X65416662Y-90750000D03*
X74749995Y-90750000D03*
X84083328Y-90750000D03*
X93416661Y-90750000D03*
X102749994Y-90750000D03*
X112083327Y-90750000D03*
X121416660Y-90750000D03*
X130749993Y-90750000D03*
X140083326Y-90750000D03*
X149416659Y-90750000D03*
X158749992Y-90750000D03*
X168083325Y-90750000D03*
X177416658Y-90750000D03*
X186749991Y-90750000D03*
X196083324Y-90750000D03*
X205416657Y-90750000D03*
X214749990Y-90750000D03*
X224083323Y-90750000D03*
X233416656Y-90750000D03*
X242749989Y-90750000D03*
X252083322Y-90750000D03*
X261416655Y-90750000D03*
X270749988Y-90750000D03*
X280083321Y-90750000D03*
X289416654Y-90750000D03*
X298749987Y-90750000D03*
X308083320Y-90750000D03*
X317416653Y-90750000D03*
X326749986Y-90750000D03*
X336083319Y-90750000D03*
X345416652Y-90750000D03*
X-74583333Y-90750000D03*
X-83916666Y-90750000D03*
%TO.N,/DI*%
X-81166666Y-89750000D03*
X-90499999Y-89750000D03*
%TO.N,/DO*%
X345416667Y-89750000D03*
%TO.N,GND*%
X-62500000Y-88750000D03*
X-53166667Y-88750000D03*
X-43833334Y-88750000D03*
X-34500001Y-88750000D03*
X-25166668Y-88750000D03*
X-15833335Y-88750000D03*
X-6500002Y-88750000D03*
X2833331Y-88750000D03*
X12166664Y-88750000D03*
X21499997Y-88750000D03*
X30833330Y-88750000D03*
X40166663Y-88750000D03*
X49499996Y-88750000D03*
X58833329Y-88750000D03*
X68166662Y-88750000D03*
X77499995Y-88750000D03*
X86833328Y-88750000D03*
X96166661Y-88750000D03*
X105499994Y-88750000D03*
X114833327Y-88750000D03*
X124166660Y-88750000D03*
X133499993Y-88750000D03*
X142833326Y-88750000D03*
X152166659Y-88750000D03*
X161499992Y-88750000D03*
X170833325Y-88750000D03*
X180166658Y-88750000D03*
X189499991Y-88750000D03*
X198833324Y-88750000D03*
X208166657Y-88750000D03*
X217499990Y-88750000D03*
X226833323Y-88750000D03*
X236166656Y-88750000D03*
X245499989Y-88750000D03*
X254833322Y-88750000D03*
X264166655Y-88750000D03*
X273499988Y-88750000D03*
X282833321Y-88750000D03*
X292166654Y-88750000D03*
X301499987Y-88750000D03*
X310833320Y-88750000D03*
X320166653Y-88750000D03*
X329499986Y-88750000D03*
X338833319Y-88750000D03*
X-71833333Y-88750000D03*
X-81166666Y-88750000D03*
X-90499999Y-88750000D03*
X348000000Y-88750000D03*
%TO.N,Net-(D2-Pad2)*%
X-74583333Y-89750000D03*
X-71833333Y-89750000D03*
%TO.N,Net-(D3-Pad2)*%
X-65250000Y-89750000D03*
X-62500000Y-89750000D03*
X-53166666Y-89750000D03*
%TO.N,Net-(D5-Pad2)*%
X-46583333Y-89750000D03*
X-43833333Y-89750000D03*
%TO.N,Net-(D6-Pad2)*%
X-25166666Y-89750000D03*
X-37250000Y-89750000D03*
X-34500000Y-89750000D03*
%TO.N,Net-(D8-Pad2)*%
X-18583333Y-89750000D03*
X-15833333Y-89750000D03*
%TO.N,Net-(D10-Pad4)*%
X2833334Y-89750000D03*
X-9250000Y-89750000D03*
X-6500000Y-89750000D03*
%TO.N,Net-(D11-Pad2)*%
X9416667Y-89750000D03*
X12166667Y-89750000D03*
%TO.N,Net-(D12-Pad2)*%
X30833334Y-89750000D03*
X18750000Y-89750000D03*
X21500000Y-89750000D03*
%TO.N,Net-(D14-Pad2)*%
X37416667Y-89750000D03*
X40166667Y-89750000D03*
%TO.N,Net-(D15-Pad2)*%
X58833334Y-89750000D03*
X46750000Y-89750000D03*
X49500000Y-89750000D03*
%TO.N,Net-(D17-Pad2)*%
X65416667Y-89750000D03*
X68166667Y-89750000D03*
%TO.N,Net-(D18-Pad2)*%
X86833334Y-89750000D03*
X74750000Y-89750000D03*
X77500000Y-89750000D03*
%TO.N,Net-(D20-Pad2)*%
X93416667Y-89750000D03*
X96166667Y-89750000D03*
%TO.N,Net-(D21-Pad2)*%
X114833334Y-89750000D03*
X102750000Y-89750000D03*
X105500000Y-89750000D03*
%TO.N,Net-(D23-Pad2)*%
X121416667Y-89750000D03*
X124166667Y-89750000D03*
%TO.N,Net-(D24-Pad2)*%
X142833334Y-89750000D03*
X130750000Y-89750000D03*
X133500000Y-89750000D03*
%TO.N,Net-(D26-Pad2)*%
X149416667Y-89750000D03*
X152166667Y-89750000D03*
%TO.N,Net-(D27-Pad2)*%
X170833334Y-89750000D03*
X158750000Y-89750000D03*
X161500000Y-89750000D03*
%TO.N,Net-(D29-Pad2)*%
X177416667Y-89750000D03*
X180166667Y-89750000D03*
%TO.N,Net-(D30-Pad2)*%
X198833334Y-89750000D03*
X186750000Y-89750000D03*
X189500000Y-89750000D03*
%TO.N,Net-(D32-Pad2)*%
X205416667Y-89750000D03*
X208166667Y-89750000D03*
%TO.N,Net-(D33-Pad2)*%
X226833334Y-89750000D03*
X214750000Y-89750000D03*
X217500000Y-89750000D03*
%TO.N,Net-(D35-Pad2)*%
X233416667Y-89750000D03*
X236166667Y-89750000D03*
%TO.N,Net-(D36-Pad2)*%
X254833334Y-89750000D03*
X242750000Y-89750000D03*
X245500000Y-89750000D03*
%TO.N,Net-(D38-Pad2)*%
X261416667Y-89750000D03*
X264166667Y-89750000D03*
%TO.N,Net-(D39-Pad2)*%
X282833334Y-89750000D03*
X270750000Y-89750000D03*
X273500000Y-89750000D03*
%TO.N,Net-(D41-Pad2)*%
X289416667Y-89750000D03*
X292166667Y-89750000D03*
%TO.N,Net-(D42-Pad2)*%
X310833334Y-89750000D03*
X298750000Y-89750000D03*
X301500000Y-89750000D03*
%TO.N,Net-(D44-Pad2)*%
X317416667Y-89750000D03*
X320166667Y-89750000D03*
%TO.N,Net-(D45-Pad2)*%
X338833334Y-89750000D03*
X326750000Y-89750000D03*
X329500000Y-89750000D03*
%TD*%
D13*
%TO.N,*%
X345250000Y-72250000D02*
X348449464Y-72250000D01*
X353442665Y-72245999D02*
X354746666Y-73550000D01*
X348453465Y-72245999D02*
X353442665Y-72245999D01*
X348449464Y-72250000D02*
X348453465Y-72245999D01*
X345250000Y-72250000D02*
X345499999Y-72250000D01*
X344500000Y-72250000D02*
X345250000Y-72250000D01*
X317500000Y-72250000D02*
X317500000Y-72250000D01*
X344500000Y-72250000D02*
X320250000Y-72250000D01*
X-91750000Y-72250000D02*
X-91750000Y-72250000D01*
X320250000Y-72250000D02*
X317500000Y-72250000D01*
X317500000Y-72250000D02*
X-91750000Y-72250000D01*
X338916666Y-73250000D02*
X345499999Y-73250000D01*
X338916666Y-73250000D02*
X336166666Y-73250000D01*
X336166666Y-73250000D02*
X336166666Y-73250000D01*
X345499999Y-73250000D02*
X345499999Y-73250000D01*
X-95902666Y-72245999D02*
X-97206667Y-73550000D01*
X-93004001Y-72245999D02*
X-95902666Y-72245999D01*
X-92000000Y-73250000D02*
X-93004001Y-72245999D01*
X-90416667Y-73250000D02*
X-92000000Y-73250000D01*
X349066666Y-74250000D02*
X349666666Y-73650000D01*
X348250000Y-74250000D02*
X320250000Y-74250000D01*
X348249999Y-74250000D02*
X349066666Y-74250000D01*
X320250000Y-74250000D02*
X320250000Y-74250000D01*
X-92750000Y-74250000D02*
X-93000000Y-74250000D01*
X-92250000Y-74250000D02*
X-92750000Y-74250000D01*
X348966666Y-74250000D02*
X349666666Y-73550000D01*
X348249999Y-74250000D02*
X348966666Y-74250000D01*
X-93966667Y-74250000D02*
X-94666667Y-73550000D01*
X-92750000Y-74250000D02*
X-93966667Y-74250000D01*
X317500000Y-74250000D02*
X-92250000Y-74250000D01*
X320250000Y-74250000D02*
X317500000Y-74250000D01*
X-93000000Y-74250000D02*
X-93666667Y-74250000D01*
X329583333Y-73250000D02*
X326833333Y-73250000D01*
X310916666Y-73250000D02*
X308166666Y-73250000D01*
X320250000Y-73250000D02*
X317500000Y-73250000D01*
X317500000Y-73250000D02*
X317500000Y-73250000D01*
X310916666Y-73250000D02*
X317499999Y-73250000D01*
X301583333Y-73250000D02*
X298833333Y-73250000D01*
X292250000Y-73250000D02*
X289500000Y-73250000D01*
X282916666Y-73250000D02*
X289499999Y-73250000D01*
X282916666Y-73250000D02*
X280166666Y-73250000D01*
X273583333Y-73250000D02*
X270833333Y-73250000D01*
X254916666Y-73250000D02*
X261499999Y-73250000D01*
X264250000Y-73250000D02*
X261500000Y-73250000D01*
X254916666Y-73250000D02*
X252166666Y-73250000D01*
X245583333Y-73250000D02*
X242833333Y-73250000D01*
X236250000Y-73250000D02*
X233500000Y-73250000D01*
X226916666Y-73250000D02*
X224166666Y-73250000D01*
X226916666Y-73250000D02*
X233499999Y-73250000D01*
X217583333Y-73250000D02*
X214833333Y-73250000D01*
X198916666Y-73250000D02*
X196166666Y-73250000D01*
X198916666Y-73250000D02*
X205499999Y-73250000D01*
X208250000Y-73250000D02*
X205500000Y-73250000D01*
X189583333Y-73250000D02*
X186833333Y-73250000D01*
X180250000Y-73250000D02*
X177500000Y-73250000D01*
X170916666Y-73250000D02*
X177499999Y-73250000D01*
X170916666Y-73250000D02*
X168166666Y-73250000D01*
X161583333Y-73250000D02*
X158833333Y-73250000D01*
X142916666Y-73250000D02*
X149499999Y-73250000D01*
X142916666Y-73250000D02*
X140166666Y-73250000D01*
X152250000Y-73250000D02*
X149500000Y-73250000D01*
X133583333Y-73250000D02*
X130833333Y-73250000D01*
X114916666Y-73250000D02*
X112166666Y-73250000D01*
X124250000Y-73250000D02*
X121500000Y-73250000D01*
X114916666Y-73250000D02*
X121499999Y-73250000D01*
X105583333Y-73250000D02*
X102833333Y-73250000D01*
X86916666Y-73250000D02*
X93499999Y-73250000D01*
X86916666Y-73250000D02*
X84166666Y-73250000D01*
X96250000Y-73250000D02*
X93500000Y-73250000D01*
X77583333Y-73250000D02*
X74833333Y-73250000D01*
X58916666Y-73250000D02*
X56166666Y-73250000D01*
X58916666Y-73250000D02*
X65499999Y-73250000D01*
X68250000Y-73250000D02*
X65500000Y-73250000D01*
X49583333Y-73250000D02*
X46833333Y-73250000D01*
X40250000Y-73250000D02*
X37500000Y-73250000D01*
X30916666Y-73250000D02*
X37499999Y-73250000D01*
X30916666Y-73250000D02*
X28166666Y-73250000D01*
X21583333Y-73250000D02*
X18833333Y-73250000D01*
X2916666Y-73250000D02*
X9499999Y-73250000D01*
X2916666Y-73250000D02*
X166666Y-73250000D01*
X12250000Y-73250000D02*
X9500000Y-73250000D01*
X-6416667Y-73250000D02*
X-9166667Y-73250000D01*
X-15750000Y-73250000D02*
X-18500000Y-73250000D01*
X-25083334Y-73250000D02*
X-27833334Y-73250000D01*
X-25083334Y-73250000D02*
X-18500001Y-73250000D01*
X-34416667Y-73250000D02*
X-37166667Y-73250000D01*
X-53083334Y-73250000D02*
X-55833334Y-73250000D01*
X-43750000Y-73250000D02*
X-46500000Y-73250000D01*
X-53083334Y-73250000D02*
X-46500001Y-73250000D01*
X-62416667Y-73250000D02*
X-65166667Y-73250000D01*
X-81083334Y-73250000D02*
X-74500001Y-73250000D01*
X-71750000Y-73250000D02*
X-74500000Y-73250000D01*
X-81083334Y-73250000D02*
X-83833334Y-73250000D01*
%TO.N,+5V*%
X-62500000Y-90750000D02*
X346750000Y-90750000D01*
X-90250000Y-90750000D02*
X-90499999Y-90750000D01*
X-89500000Y-90750000D02*
X-90250000Y-90750000D01*
X-89500000Y-90750000D02*
X-65250000Y-90750000D01*
X346750000Y-90750000D02*
X346750000Y-90750000D01*
X-62500000Y-90750000D02*
X-62500000Y-90750000D01*
X-65250000Y-90750000D02*
X-62500000Y-90750000D01*
X-93453465Y-90754001D02*
X-98442665Y-90754001D01*
X-98442665Y-90754001D02*
X-99746666Y-89450000D01*
X-93449464Y-90750000D02*
X-93453465Y-90754001D01*
X-90250000Y-90750000D02*
X-93449464Y-90750000D01*
%TO.N,/DI*%
X-83916666Y-89750000D02*
X-90499999Y-89750000D01*
X-83916666Y-89750000D02*
X-81166666Y-89750000D01*
X-81166666Y-89750000D02*
X-81166666Y-89750000D01*
X-90499999Y-89750000D02*
X-90499999Y-89750000D01*
%TO.N,/DO*%
X345416667Y-89750000D02*
X347000000Y-89750000D01*
X350902666Y-90754001D02*
X352206667Y-89450000D01*
X348004001Y-90754001D02*
X350902666Y-90754001D01*
X347000000Y-89750000D02*
X348004001Y-90754001D01*
%TO.N,GND*%
X-93250000Y-88750000D02*
X-65250000Y-88750000D01*
X347750000Y-88750000D02*
X348000000Y-88750000D01*
X-94066666Y-88750000D02*
X-94666666Y-89350000D01*
X-93249999Y-88750000D02*
X-94066666Y-88750000D01*
X-65250000Y-88750000D02*
X-65250000Y-88750000D01*
X347250000Y-88750000D02*
X347750000Y-88750000D01*
X-93966666Y-88750000D02*
X-94666666Y-89450000D01*
X-93249999Y-88750000D02*
X-93966666Y-88750000D01*
X348966667Y-88750000D02*
X349666667Y-89450000D01*
X347750000Y-88750000D02*
X348966667Y-88750000D01*
X-65250000Y-88750000D02*
X-62500000Y-88750000D01*
X-62500000Y-88750000D02*
X347250000Y-88750000D01*
X348000000Y-88750000D02*
X348666667Y-88750000D01*
%TO.N,Net-(D2-Pad2)*%
X-74583333Y-89750000D02*
X-71833333Y-89750000D01*
%TO.N,Net-(D3-Pad2)*%
X-65250000Y-89750000D02*
X-62500000Y-89750000D01*
X-62500000Y-89750000D02*
X-62500000Y-89750000D01*
X-55916666Y-89750000D02*
X-62499999Y-89750000D01*
X-55916666Y-89750000D02*
X-53166666Y-89750000D01*
%TO.N,Net-(D5-Pad2)*%
X-46583333Y-89750000D02*
X-43833333Y-89750000D01*
%TO.N,Net-(D6-Pad2)*%
X-27916666Y-89750000D02*
X-34499999Y-89750000D01*
X-27916666Y-89750000D02*
X-25166666Y-89750000D01*
X-37250000Y-89750000D02*
X-34500000Y-89750000D01*
%TO.N,Net-(D8-Pad2)*%
X-18583333Y-89750000D02*
X-15833333Y-89750000D01*
%TO.N,Net-(D10-Pad4)*%
X83334Y-89750000D02*
X-6499999Y-89750000D01*
X83334Y-89750000D02*
X2833334Y-89750000D01*
X-9250000Y-89750000D02*
X-6500000Y-89750000D01*
%TO.N,Net-(D11-Pad2)*%
X9416667Y-89750000D02*
X12166667Y-89750000D01*
%TO.N,Net-(D12-Pad2)*%
X28083334Y-89750000D02*
X21500001Y-89750000D01*
X28083334Y-89750000D02*
X30833334Y-89750000D01*
X18750000Y-89750000D02*
X21500000Y-89750000D01*
%TO.N,Net-(D14-Pad2)*%
X37416667Y-89750000D02*
X40166667Y-89750000D01*
%TO.N,Net-(D15-Pad2)*%
X56083334Y-89750000D02*
X49500001Y-89750000D01*
X56083334Y-89750000D02*
X58833334Y-89750000D01*
X46750000Y-89750000D02*
X49500000Y-89750000D01*
%TO.N,Net-(D17-Pad2)*%
X65416667Y-89750000D02*
X68166667Y-89750000D01*
%TO.N,Net-(D18-Pad2)*%
X84083334Y-89750000D02*
X77500001Y-89750000D01*
X84083334Y-89750000D02*
X86833334Y-89750000D01*
X74750000Y-89750000D02*
X77500000Y-89750000D01*
%TO.N,Net-(D20-Pad2)*%
X93416667Y-89750000D02*
X96166667Y-89750000D01*
%TO.N,Net-(D21-Pad2)*%
X112083334Y-89750000D02*
X105500001Y-89750000D01*
X112083334Y-89750000D02*
X114833334Y-89750000D01*
X102750000Y-89750000D02*
X105500000Y-89750000D01*
%TO.N,Net-(D23-Pad2)*%
X121416667Y-89750000D02*
X124166667Y-89750000D01*
%TO.N,Net-(D24-Pad2)*%
X140083334Y-89750000D02*
X133500001Y-89750000D01*
X140083334Y-89750000D02*
X142833334Y-89750000D01*
X130750000Y-89750000D02*
X133500000Y-89750000D01*
%TO.N,Net-(D26-Pad2)*%
X149416667Y-89750000D02*
X152166667Y-89750000D01*
%TO.N,Net-(D27-Pad2)*%
X168083334Y-89750000D02*
X161500001Y-89750000D01*
X168083334Y-89750000D02*
X170833334Y-89750000D01*
X158750000Y-89750000D02*
X161500000Y-89750000D01*
%TO.N,Net-(D29-Pad2)*%
X177416667Y-89750000D02*
X180166667Y-89750000D01*
%TO.N,Net-(D30-Pad2)*%
X196083334Y-89750000D02*
X189500001Y-89750000D01*
X196083334Y-89750000D02*
X198833334Y-89750000D01*
X186750000Y-89750000D02*
X189500000Y-89750000D01*
%TO.N,Net-(D32-Pad2)*%
X205416667Y-89750000D02*
X208166667Y-89750000D01*
%TO.N,Net-(D33-Pad2)*%
X224083334Y-89750000D02*
X217500001Y-89750000D01*
X224083334Y-89750000D02*
X226833334Y-89750000D01*
X214750000Y-89750000D02*
X217500000Y-89750000D01*
%TO.N,Net-(D35-Pad2)*%
X233416667Y-89750000D02*
X236166667Y-89750000D01*
%TO.N,Net-(D36-Pad2)*%
X252083334Y-89750000D02*
X245500001Y-89750000D01*
X252083334Y-89750000D02*
X254833334Y-89750000D01*
X242750000Y-89750000D02*
X245500000Y-89750000D01*
%TO.N,Net-(D38-Pad2)*%
X261416667Y-89750000D02*
X264166667Y-89750000D01*
%TO.N,Net-(D39-Pad2)*%
X280083334Y-89750000D02*
X273500001Y-89750000D01*
X280083334Y-89750000D02*
X282833334Y-89750000D01*
X270750000Y-89750000D02*
X273500000Y-89750000D01*
%TO.N,Net-(D41-Pad2)*%
X289416667Y-89750000D02*
X292166667Y-89750000D01*
%TO.N,Net-(D42-Pad2)*%
X308083334Y-89750000D02*
X301500001Y-89750000D01*
X308083334Y-89750000D02*
X310833334Y-89750000D01*
X298750000Y-89750000D02*
X301500000Y-89750000D01*
%TO.N,Net-(D44-Pad2)*%
X317416667Y-89750000D02*
X320166667Y-89750000D01*
%TO.N,Net-(D45-Pad2)*%
X336083334Y-89750000D02*
X329500001Y-89750000D01*
X336083334Y-89750000D02*
X338833334Y-89750000D01*
X326750000Y-89750000D02*
X329500000Y-89750000D01*
%TD*%
M02*
