%TF.GenerationSoftware,KiCad,Pcbnew,(5.1.7)-1*%
%TF.CreationDate,2021-02-22T22:43:04-05:00*%
%TF.ProjectId,LEDBoard_Panelize,4c454442-6f61-4726-945f-50616e656c69,rev?*%
%TF.SameCoordinates,Original*%
%TF.FileFunction,Soldermask,Top*%
%TF.FilePolarity,Negative*%
%FSLAX46Y46*%
G04 Gerber Fmt 4.6, Leading zero omitted, Abs format (unit mm)*
G04 Created by KiCad (PCBNEW (5.1.7)-1) date 2021-02-22 22:43:04*
%MOMM*%
%LPD*%
G01*
G04 APERTURE LIST*
%ADD10C,0.500000*%
%ADD11R,1.500000X0.900000*%
%ADD12R,1.700000X1.700000*%
%ADD13O,1.700000X1.700000*%
G04 APERTURE END LIST*
D10*
%TO.C,REF\u002A\u002A*%
X335550000Y-86500000D03*
X337500000Y-86500000D03*
X338150000Y-86500000D03*
X338800000Y-86500000D03*
X339450000Y-86500000D03*
X340100000Y-86500000D03*
X336850000Y-86500000D03*
X336200000Y-86500000D03*
X334900000Y-86500000D03*
%TD*%
%TO.C,REF\u002A\u002A*%
X307550000Y-86500000D03*
X309500000Y-86500000D03*
X310150000Y-86500000D03*
X310800000Y-86500000D03*
X311450000Y-86500000D03*
X312100000Y-86500000D03*
X308850000Y-86500000D03*
X308200000Y-86500000D03*
X306900000Y-86500000D03*
%TD*%
%TO.C,REF\u002A\u002A*%
X279550000Y-86500000D03*
X281500000Y-86500000D03*
X282150000Y-86500000D03*
X282800000Y-86500000D03*
X283450000Y-86500000D03*
X284100000Y-86500000D03*
X280850000Y-86500000D03*
X280200000Y-86500000D03*
X278900000Y-86500000D03*
%TD*%
%TO.C,REF\u002A\u002A*%
X251550000Y-86500000D03*
X253500000Y-86500000D03*
X254150000Y-86500000D03*
X254800000Y-86500000D03*
X255450000Y-86500000D03*
X256100000Y-86500000D03*
X252850000Y-86500000D03*
X252200000Y-86500000D03*
X250900000Y-86500000D03*
%TD*%
%TO.C,REF\u002A\u002A*%
X223550000Y-86500000D03*
X225500000Y-86500000D03*
X226150000Y-86500000D03*
X226800000Y-86500000D03*
X227450000Y-86500000D03*
X228100000Y-86500000D03*
X224850000Y-86500000D03*
X224200000Y-86500000D03*
X222900000Y-86500000D03*
%TD*%
%TO.C,REF\u002A\u002A*%
X195550000Y-86500000D03*
X197500000Y-86500000D03*
X198150000Y-86500000D03*
X198800000Y-86500000D03*
X199450000Y-86500000D03*
X200100000Y-86500000D03*
X196850000Y-86500000D03*
X196200000Y-86500000D03*
X194900000Y-86500000D03*
%TD*%
%TO.C,REF\u002A\u002A*%
X167550000Y-86500000D03*
X169500000Y-86500000D03*
X170150000Y-86500000D03*
X170800000Y-86500000D03*
X171450000Y-86500000D03*
X172100000Y-86500000D03*
X168850000Y-86500000D03*
X168200000Y-86500000D03*
X166900000Y-86500000D03*
%TD*%
%TO.C,REF\u002A\u002A*%
X139550000Y-86500000D03*
X141500000Y-86500000D03*
X142150000Y-86500000D03*
X142800000Y-86500000D03*
X143450000Y-86500000D03*
X144100000Y-86500000D03*
X140850000Y-86500000D03*
X140200000Y-86500000D03*
X138900000Y-86500000D03*
%TD*%
%TO.C,REF\u002A\u002A*%
X111550000Y-86500000D03*
X113500000Y-86500000D03*
X114150000Y-86500000D03*
X114800000Y-86500000D03*
X115450000Y-86500000D03*
X116100000Y-86500000D03*
X112850000Y-86500000D03*
X112200000Y-86500000D03*
X110900000Y-86500000D03*
%TD*%
%TO.C,REF\u002A\u002A*%
X83550000Y-86500000D03*
X85500000Y-86500000D03*
X86150000Y-86500000D03*
X86800000Y-86500000D03*
X87450000Y-86500000D03*
X88100000Y-86500000D03*
X84850000Y-86500000D03*
X84200000Y-86500000D03*
X82900000Y-86500000D03*
%TD*%
%TO.C,REF\u002A\u002A*%
X55550000Y-86500000D03*
X57500000Y-86500000D03*
X58150000Y-86500000D03*
X58800000Y-86500000D03*
X59450000Y-86500000D03*
X60100000Y-86500000D03*
X56850000Y-86500000D03*
X56200000Y-86500000D03*
X54900000Y-86500000D03*
%TD*%
%TO.C,REF\u002A\u002A*%
X27550000Y-86500000D03*
X29500000Y-86500000D03*
X30150000Y-86500000D03*
X30800000Y-86500000D03*
X31450000Y-86500000D03*
X32100000Y-86500000D03*
X28850000Y-86500000D03*
X28200000Y-86500000D03*
X26900000Y-86500000D03*
%TD*%
%TO.C,REF\u002A\u002A*%
X-450000Y-86500000D03*
X1500000Y-86500000D03*
X2150000Y-86500000D03*
X2800000Y-86500000D03*
X3450000Y-86500000D03*
X4100000Y-86500000D03*
X850000Y-86500000D03*
X200000Y-86500000D03*
X-1100000Y-86500000D03*
%TD*%
%TO.C,REF\u002A\u002A*%
X-28450000Y-86500000D03*
X-26500000Y-86500000D03*
X-25850000Y-86500000D03*
X-25200000Y-86500000D03*
X-24550000Y-86500000D03*
X-23900000Y-86500000D03*
X-27150000Y-86500000D03*
X-27800000Y-86500000D03*
X-29100000Y-86500000D03*
%TD*%
%TO.C,REF\u002A\u002A*%
X-56450000Y-86500000D03*
X-54500000Y-86500000D03*
X-53850000Y-86500000D03*
X-53200000Y-86500000D03*
X-52550000Y-86500000D03*
X-51900000Y-86500000D03*
X-55150000Y-86500000D03*
X-55800000Y-86500000D03*
X-57100000Y-86500000D03*
%TD*%
%TO.C,REF\u002A\u002A*%
X334900000Y-76500000D03*
X336200000Y-76500000D03*
X336850000Y-76500000D03*
X340100000Y-76500000D03*
X339450000Y-76500000D03*
X338800000Y-76500000D03*
X338150000Y-76500000D03*
X337500000Y-76500000D03*
X335550000Y-76500000D03*
%TD*%
%TO.C,REF\u002A\u002A*%
X306900000Y-76500000D03*
X308200000Y-76500000D03*
X308850000Y-76500000D03*
X312100000Y-76500000D03*
X311450000Y-76500000D03*
X310800000Y-76500000D03*
X310150000Y-76500000D03*
X309500000Y-76500000D03*
X307550000Y-76500000D03*
%TD*%
%TO.C,REF\u002A\u002A*%
X278900000Y-76500000D03*
X280200000Y-76500000D03*
X280850000Y-76500000D03*
X284100000Y-76500000D03*
X283450000Y-76500000D03*
X282800000Y-76500000D03*
X282150000Y-76500000D03*
X281500000Y-76500000D03*
X279550000Y-76500000D03*
%TD*%
%TO.C,REF\u002A\u002A*%
X250900000Y-76500000D03*
X252200000Y-76500000D03*
X252850000Y-76500000D03*
X256100000Y-76500000D03*
X255450000Y-76500000D03*
X254800000Y-76500000D03*
X254150000Y-76500000D03*
X253500000Y-76500000D03*
X251550000Y-76500000D03*
%TD*%
%TO.C,REF\u002A\u002A*%
X222900000Y-76500000D03*
X224200000Y-76500000D03*
X224850000Y-76500000D03*
X228100000Y-76500000D03*
X227450000Y-76500000D03*
X226800000Y-76500000D03*
X226150000Y-76500000D03*
X225500000Y-76500000D03*
X223550000Y-76500000D03*
%TD*%
%TO.C,REF\u002A\u002A*%
X194900000Y-76500000D03*
X196200000Y-76500000D03*
X196850000Y-76500000D03*
X200100000Y-76500000D03*
X199450000Y-76500000D03*
X198800000Y-76500000D03*
X198150000Y-76500000D03*
X197500000Y-76500000D03*
X195550000Y-76500000D03*
%TD*%
%TO.C,REF\u002A\u002A*%
X166900000Y-76500000D03*
X168200000Y-76500000D03*
X168850000Y-76500000D03*
X172100000Y-76500000D03*
X171450000Y-76500000D03*
X170800000Y-76500000D03*
X170150000Y-76500000D03*
X169500000Y-76500000D03*
X167550000Y-76500000D03*
%TD*%
%TO.C,REF\u002A\u002A*%
X138900000Y-76500000D03*
X140200000Y-76500000D03*
X140850000Y-76500000D03*
X144100000Y-76500000D03*
X143450000Y-76500000D03*
X142800000Y-76500000D03*
X142150000Y-76500000D03*
X141500000Y-76500000D03*
X139550000Y-76500000D03*
%TD*%
%TO.C,REF\u002A\u002A*%
X110900000Y-76500000D03*
X112200000Y-76500000D03*
X112850000Y-76500000D03*
X116100000Y-76500000D03*
X115450000Y-76500000D03*
X114800000Y-76500000D03*
X114150000Y-76500000D03*
X113500000Y-76500000D03*
X111550000Y-76500000D03*
%TD*%
%TO.C,REF\u002A\u002A*%
X82900000Y-76500000D03*
X84200000Y-76500000D03*
X84850000Y-76500000D03*
X88100000Y-76500000D03*
X87450000Y-76500000D03*
X86800000Y-76500000D03*
X86150000Y-76500000D03*
X85500000Y-76500000D03*
X83550000Y-76500000D03*
%TD*%
%TO.C,REF\u002A\u002A*%
X54900000Y-76500000D03*
X56200000Y-76500000D03*
X56850000Y-76500000D03*
X60100000Y-76500000D03*
X59450000Y-76500000D03*
X58800000Y-76500000D03*
X58150000Y-76500000D03*
X57500000Y-76500000D03*
X55550000Y-76500000D03*
%TD*%
%TO.C,REF\u002A\u002A*%
X26900000Y-76500000D03*
X28200000Y-76500000D03*
X28850000Y-76500000D03*
X32100000Y-76500000D03*
X31450000Y-76500000D03*
X30800000Y-76500000D03*
X30150000Y-76500000D03*
X29500000Y-76500000D03*
X27550000Y-76500000D03*
%TD*%
%TO.C,REF\u002A\u002A*%
X-1100000Y-76500000D03*
X200000Y-76500000D03*
X850000Y-76500000D03*
X4100000Y-76500000D03*
X3450000Y-76500000D03*
X2800000Y-76500000D03*
X2150000Y-76500000D03*
X1500000Y-76500000D03*
X-450000Y-76500000D03*
%TD*%
%TO.C,REF\u002A\u002A*%
X-29100000Y-76500000D03*
X-27800000Y-76500000D03*
X-27150000Y-76500000D03*
X-23900000Y-76500000D03*
X-24550000Y-76500000D03*
X-25200000Y-76500000D03*
X-25850000Y-76500000D03*
X-26500000Y-76500000D03*
X-28450000Y-76500000D03*
%TD*%
%TO.C,REF\u002A\u002A*%
X-57100000Y-76500000D03*
X-55800000Y-76500000D03*
X-55150000Y-76500000D03*
X-51900000Y-76500000D03*
X-52550000Y-76500000D03*
X-53200000Y-76500000D03*
X-53850000Y-76500000D03*
X-54500000Y-76500000D03*
X-56450000Y-76500000D03*
%TD*%
%TO.C,REF\u002A\u002A*%
X-84450000Y-76500000D03*
X-82500000Y-76500000D03*
X-81850000Y-76500000D03*
X-81200000Y-76500000D03*
X-80550000Y-76500000D03*
X-79900000Y-76500000D03*
X-83150000Y-76500000D03*
X-83800000Y-76500000D03*
X-85100000Y-76500000D03*
%TD*%
%TO.C,REF\u002A\u002A*%
X-85100000Y-86500000D03*
X-83800000Y-86500000D03*
X-83150000Y-86500000D03*
X-79900000Y-86500000D03*
X-80550000Y-86500000D03*
X-81200000Y-86500000D03*
X-81850000Y-86500000D03*
X-82500000Y-86500000D03*
X-84450000Y-86500000D03*
%TD*%
%TO.C,C38*%
G36*
G01*
X29916666Y-72925000D02*
X29416666Y-72925000D01*
G75*
G02*
X29191666Y-72700000I0J225000D01*
G01*
X29191666Y-72250000D01*
G75*
G02*
X29416666Y-72025000I225000J0D01*
G01*
X29916666Y-72025000D01*
G75*
G02*
X30141666Y-72250000I0J-225000D01*
G01*
X30141666Y-72700000D01*
G75*
G02*
X29916666Y-72925000I-225000J0D01*
G01*
G37*
G36*
G01*
X29916666Y-74475000D02*
X29416666Y-74475000D01*
G75*
G02*
X29191666Y-74250000I0J225000D01*
G01*
X29191666Y-73800000D01*
G75*
G02*
X29416666Y-73575000I225000J0D01*
G01*
X29916666Y-73575000D01*
G75*
G02*
X30141666Y-73800000I0J-225000D01*
G01*
X30141666Y-74250000D01*
G75*
G02*
X29916666Y-74475000I-225000J0D01*
G01*
G37*
%TD*%
%TO.C,C41*%
G36*
G01*
X1916666Y-72925000D02*
X1416666Y-72925000D01*
G75*
G02*
X1191666Y-72700000I0J225000D01*
G01*
X1191666Y-72250000D01*
G75*
G02*
X1416666Y-72025000I225000J0D01*
G01*
X1916666Y-72025000D01*
G75*
G02*
X2141666Y-72250000I0J-225000D01*
G01*
X2141666Y-72700000D01*
G75*
G02*
X1916666Y-72925000I-225000J0D01*
G01*
G37*
G36*
G01*
X1916666Y-74475000D02*
X1416666Y-74475000D01*
G75*
G02*
X1191666Y-74250000I0J225000D01*
G01*
X1191666Y-73800000D01*
G75*
G02*
X1416666Y-73575000I225000J0D01*
G01*
X1916666Y-73575000D01*
G75*
G02*
X2141666Y-73800000I0J-225000D01*
G01*
X2141666Y-74250000D01*
G75*
G02*
X1916666Y-74475000I-225000J0D01*
G01*
G37*
%TD*%
%TO.C,C47*%
G36*
G01*
X-54083334Y-72925000D02*
X-54583334Y-72925000D01*
G75*
G02*
X-54808334Y-72700000I0J225000D01*
G01*
X-54808334Y-72250000D01*
G75*
G02*
X-54583334Y-72025000I225000J0D01*
G01*
X-54083334Y-72025000D01*
G75*
G02*
X-53858334Y-72250000I0J-225000D01*
G01*
X-53858334Y-72700000D01*
G75*
G02*
X-54083334Y-72925000I-225000J0D01*
G01*
G37*
G36*
G01*
X-54083334Y-74475000D02*
X-54583334Y-74475000D01*
G75*
G02*
X-54808334Y-74250000I0J225000D01*
G01*
X-54808334Y-73800000D01*
G75*
G02*
X-54583334Y-73575000I225000J0D01*
G01*
X-54083334Y-73575000D01*
G75*
G02*
X-53858334Y-73800000I0J-225000D01*
G01*
X-53858334Y-74250000D01*
G75*
G02*
X-54083334Y-74475000I-225000J0D01*
G01*
G37*
%TD*%
%TO.C,C34*%
G36*
G01*
X67250000Y-72925000D02*
X66750000Y-72925000D01*
G75*
G02*
X66525000Y-72700000I0J225000D01*
G01*
X66525000Y-72250000D01*
G75*
G02*
X66750000Y-72025000I225000J0D01*
G01*
X67250000Y-72025000D01*
G75*
G02*
X67475000Y-72250000I0J-225000D01*
G01*
X67475000Y-72700000D01*
G75*
G02*
X67250000Y-72925000I-225000J0D01*
G01*
G37*
G36*
G01*
X67250000Y-74475000D02*
X66750000Y-74475000D01*
G75*
G02*
X66525000Y-74250000I0J225000D01*
G01*
X66525000Y-73800000D01*
G75*
G02*
X66750000Y-73575000I225000J0D01*
G01*
X67250000Y-73575000D01*
G75*
G02*
X67475000Y-73800000I0J-225000D01*
G01*
X67475000Y-74250000D01*
G75*
G02*
X67250000Y-74475000I-225000J0D01*
G01*
G37*
%TD*%
%TO.C,C5*%
G36*
G01*
X337916666Y-74475000D02*
X337416666Y-74475000D01*
G75*
G02*
X337191666Y-74250000I0J225000D01*
G01*
X337191666Y-73800000D01*
G75*
G02*
X337416666Y-73575000I225000J0D01*
G01*
X337916666Y-73575000D01*
G75*
G02*
X338141666Y-73800000I0J-225000D01*
G01*
X338141666Y-74250000D01*
G75*
G02*
X337916666Y-74475000I-225000J0D01*
G01*
G37*
G36*
G01*
X337916666Y-72925000D02*
X337416666Y-72925000D01*
G75*
G02*
X337191666Y-72700000I0J225000D01*
G01*
X337191666Y-72250000D01*
G75*
G02*
X337416666Y-72025000I225000J0D01*
G01*
X337916666Y-72025000D01*
G75*
G02*
X338141666Y-72250000I0J-225000D01*
G01*
X338141666Y-72700000D01*
G75*
G02*
X337916666Y-72925000I-225000J0D01*
G01*
G37*
%TD*%
D11*
%TO.C,D1*%
X340626666Y-72360000D03*
X340626666Y-74140000D03*
X343706666Y-72360000D03*
X343706666Y-74140000D03*
%TD*%
%TO.C,D3*%
X321960000Y-72360000D03*
X321960000Y-74140000D03*
X325040000Y-72360000D03*
X325040000Y-74140000D03*
%TD*%
%TO.C,C44*%
G36*
G01*
X-26083334Y-72925000D02*
X-26583334Y-72925000D01*
G75*
G02*
X-26808334Y-72700000I0J225000D01*
G01*
X-26808334Y-72250000D01*
G75*
G02*
X-26583334Y-72025000I225000J0D01*
G01*
X-26083334Y-72025000D01*
G75*
G02*
X-25858334Y-72250000I0J-225000D01*
G01*
X-25858334Y-72700000D01*
G75*
G02*
X-26083334Y-72925000I-225000J0D01*
G01*
G37*
G36*
G01*
X-26083334Y-74475000D02*
X-26583334Y-74475000D01*
G75*
G02*
X-26808334Y-74250000I0J225000D01*
G01*
X-26808334Y-73800000D01*
G75*
G02*
X-26583334Y-73575000I225000J0D01*
G01*
X-26083334Y-73575000D01*
G75*
G02*
X-25858334Y-73800000I0J-225000D01*
G01*
X-25858334Y-74250000D01*
G75*
G02*
X-26083334Y-74475000I-225000J0D01*
G01*
G37*
%TD*%
%TO.C,C46*%
G36*
G01*
X-44750000Y-72925000D02*
X-45250000Y-72925000D01*
G75*
G02*
X-45475000Y-72700000I0J225000D01*
G01*
X-45475000Y-72250000D01*
G75*
G02*
X-45250000Y-72025000I225000J0D01*
G01*
X-44750000Y-72025000D01*
G75*
G02*
X-44525000Y-72250000I0J-225000D01*
G01*
X-44525000Y-72700000D01*
G75*
G02*
X-44750000Y-72925000I-225000J0D01*
G01*
G37*
G36*
G01*
X-44750000Y-74475000D02*
X-45250000Y-74475000D01*
G75*
G02*
X-45475000Y-74250000I0J225000D01*
G01*
X-45475000Y-73800000D01*
G75*
G02*
X-45250000Y-73575000I225000J0D01*
G01*
X-44750000Y-73575000D01*
G75*
G02*
X-44525000Y-73800000I0J-225000D01*
G01*
X-44525000Y-74250000D01*
G75*
G02*
X-44750000Y-74475000I-225000J0D01*
G01*
G37*
%TD*%
%TO.C,C17*%
G36*
G01*
X225916666Y-72925000D02*
X225416666Y-72925000D01*
G75*
G02*
X225191666Y-72700000I0J225000D01*
G01*
X225191666Y-72250000D01*
G75*
G02*
X225416666Y-72025000I225000J0D01*
G01*
X225916666Y-72025000D01*
G75*
G02*
X226141666Y-72250000I0J-225000D01*
G01*
X226141666Y-72700000D01*
G75*
G02*
X225916666Y-72925000I-225000J0D01*
G01*
G37*
G36*
G01*
X225916666Y-74475000D02*
X225416666Y-74475000D01*
G75*
G02*
X225191666Y-74250000I0J225000D01*
G01*
X225191666Y-73800000D01*
G75*
G02*
X225416666Y-73575000I225000J0D01*
G01*
X225916666Y-73575000D01*
G75*
G02*
X226141666Y-73800000I0J-225000D01*
G01*
X226141666Y-74250000D01*
G75*
G02*
X225916666Y-74475000I-225000J0D01*
G01*
G37*
%TD*%
%TO.C,C50*%
G36*
G01*
X-82083334Y-72925000D02*
X-82583334Y-72925000D01*
G75*
G02*
X-82808334Y-72700000I0J225000D01*
G01*
X-82808334Y-72250000D01*
G75*
G02*
X-82583334Y-72025000I225000J0D01*
G01*
X-82083334Y-72025000D01*
G75*
G02*
X-81858334Y-72250000I0J-225000D01*
G01*
X-81858334Y-72700000D01*
G75*
G02*
X-82083334Y-72925000I-225000J0D01*
G01*
G37*
G36*
G01*
X-82083334Y-74475000D02*
X-82583334Y-74475000D01*
G75*
G02*
X-82808334Y-74250000I0J225000D01*
G01*
X-82808334Y-73800000D01*
G75*
G02*
X-82583334Y-73575000I225000J0D01*
G01*
X-82083334Y-73575000D01*
G75*
G02*
X-81858334Y-73800000I0J-225000D01*
G01*
X-81858334Y-74250000D01*
G75*
G02*
X-82083334Y-74475000I-225000J0D01*
G01*
G37*
%TD*%
%TO.C,D2*%
X331293333Y-72360000D03*
X331293333Y-74140000D03*
X334373333Y-72360000D03*
X334373333Y-74140000D03*
%TD*%
%TO.C,C43*%
G36*
G01*
X-16750000Y-72925000D02*
X-17250000Y-72925000D01*
G75*
G02*
X-17475000Y-72700000I0J225000D01*
G01*
X-17475000Y-72250000D01*
G75*
G02*
X-17250000Y-72025000I225000J0D01*
G01*
X-16750000Y-72025000D01*
G75*
G02*
X-16525000Y-72250000I0J-225000D01*
G01*
X-16525000Y-72700000D01*
G75*
G02*
X-16750000Y-72925000I-225000J0D01*
G01*
G37*
G36*
G01*
X-16750000Y-74475000D02*
X-17250000Y-74475000D01*
G75*
G02*
X-17475000Y-74250000I0J225000D01*
G01*
X-17475000Y-73800000D01*
G75*
G02*
X-17250000Y-73575000I225000J0D01*
G01*
X-16750000Y-73575000D01*
G75*
G02*
X-16525000Y-73800000I0J-225000D01*
G01*
X-16525000Y-74250000D01*
G75*
G02*
X-16750000Y-74475000I-225000J0D01*
G01*
G37*
%TD*%
%TO.C,C40*%
G36*
G01*
X11250000Y-72925000D02*
X10750000Y-72925000D01*
G75*
G02*
X10525000Y-72700000I0J225000D01*
G01*
X10525000Y-72250000D01*
G75*
G02*
X10750000Y-72025000I225000J0D01*
G01*
X11250000Y-72025000D01*
G75*
G02*
X11475000Y-72250000I0J-225000D01*
G01*
X11475000Y-72700000D01*
G75*
G02*
X11250000Y-72925000I-225000J0D01*
G01*
G37*
G36*
G01*
X11250000Y-74475000D02*
X10750000Y-74475000D01*
G75*
G02*
X10525000Y-74250000I0J225000D01*
G01*
X10525000Y-73800000D01*
G75*
G02*
X10750000Y-73575000I225000J0D01*
G01*
X11250000Y-73575000D01*
G75*
G02*
X11475000Y-73800000I0J-225000D01*
G01*
X11475000Y-74250000D01*
G75*
G02*
X11250000Y-74475000I-225000J0D01*
G01*
G37*
%TD*%
%TO.C,C49*%
G36*
G01*
X-72750000Y-72925000D02*
X-73250000Y-72925000D01*
G75*
G02*
X-73475000Y-72700000I0J225000D01*
G01*
X-73475000Y-72250000D01*
G75*
G02*
X-73250000Y-72025000I225000J0D01*
G01*
X-72750000Y-72025000D01*
G75*
G02*
X-72525000Y-72250000I0J-225000D01*
G01*
X-72525000Y-72700000D01*
G75*
G02*
X-72750000Y-72925000I-225000J0D01*
G01*
G37*
G36*
G01*
X-72750000Y-74475000D02*
X-73250000Y-74475000D01*
G75*
G02*
X-73475000Y-74250000I0J225000D01*
G01*
X-73475000Y-73800000D01*
G75*
G02*
X-73250000Y-73575000I225000J0D01*
G01*
X-72750000Y-73575000D01*
G75*
G02*
X-72525000Y-73800000I0J-225000D01*
G01*
X-72525000Y-74250000D01*
G75*
G02*
X-72750000Y-74475000I-225000J0D01*
G01*
G37*
%TD*%
%TO.C,C37*%
G36*
G01*
X39250000Y-72925000D02*
X38750000Y-72925000D01*
G75*
G02*
X38525000Y-72700000I0J225000D01*
G01*
X38525000Y-72250000D01*
G75*
G02*
X38750000Y-72025000I225000J0D01*
G01*
X39250000Y-72025000D01*
G75*
G02*
X39475000Y-72250000I0J-225000D01*
G01*
X39475000Y-72700000D01*
G75*
G02*
X39250000Y-72925000I-225000J0D01*
G01*
G37*
G36*
G01*
X39250000Y-74475000D02*
X38750000Y-74475000D01*
G75*
G02*
X38525000Y-74250000I0J225000D01*
G01*
X38525000Y-73800000D01*
G75*
G02*
X38750000Y-73575000I225000J0D01*
G01*
X39250000Y-73575000D01*
G75*
G02*
X39475000Y-73800000I0J-225000D01*
G01*
X39475000Y-74250000D01*
G75*
G02*
X39250000Y-74475000I-225000J0D01*
G01*
G37*
%TD*%
%TO.C,C6*%
G36*
G01*
X328583333Y-72925000D02*
X328083333Y-72925000D01*
G75*
G02*
X327858333Y-72700000I0J225000D01*
G01*
X327858333Y-72250000D01*
G75*
G02*
X328083333Y-72025000I225000J0D01*
G01*
X328583333Y-72025000D01*
G75*
G02*
X328808333Y-72250000I0J-225000D01*
G01*
X328808333Y-72700000D01*
G75*
G02*
X328583333Y-72925000I-225000J0D01*
G01*
G37*
G36*
G01*
X328583333Y-74475000D02*
X328083333Y-74475000D01*
G75*
G02*
X327858333Y-74250000I0J225000D01*
G01*
X327858333Y-73800000D01*
G75*
G02*
X328083333Y-73575000I225000J0D01*
G01*
X328583333Y-73575000D01*
G75*
G02*
X328808333Y-73800000I0J-225000D01*
G01*
X328808333Y-74250000D01*
G75*
G02*
X328583333Y-74475000I-225000J0D01*
G01*
G37*
%TD*%
%TO.C,D4*%
X315706666Y-74140000D03*
X315706666Y-72360000D03*
X312626666Y-74140000D03*
X312626666Y-72360000D03*
%TD*%
%TO.C,D6*%
X293960000Y-72360000D03*
X293960000Y-74140000D03*
X297040000Y-72360000D03*
X297040000Y-74140000D03*
%TD*%
%TO.C,D20*%
X163293333Y-72360000D03*
X163293333Y-74140000D03*
X166373333Y-72360000D03*
X166373333Y-74140000D03*
%TD*%
%TO.C,D7*%
X284626666Y-72360000D03*
X284626666Y-74140000D03*
X287706666Y-72360000D03*
X287706666Y-74140000D03*
%TD*%
%TO.C,D8*%
X275293333Y-72360000D03*
X275293333Y-74140000D03*
X278373333Y-72360000D03*
X278373333Y-74140000D03*
%TD*%
%TO.C,D9*%
X265960000Y-72360000D03*
X265960000Y-74140000D03*
X269040000Y-72360000D03*
X269040000Y-74140000D03*
%TD*%
%TO.C,D19*%
X172626666Y-72360000D03*
X172626666Y-74140000D03*
X175706666Y-72360000D03*
X175706666Y-74140000D03*
%TD*%
%TO.C,D17*%
X191293333Y-72360000D03*
X191293333Y-74140000D03*
X194373333Y-72360000D03*
X194373333Y-74140000D03*
%TD*%
%TO.C,D11*%
X247293333Y-72360000D03*
X247293333Y-74140000D03*
X250373333Y-72360000D03*
X250373333Y-74140000D03*
%TD*%
%TO.C,D13*%
X228626666Y-72360000D03*
X228626666Y-74140000D03*
X231706666Y-72360000D03*
X231706666Y-74140000D03*
%TD*%
%TO.C,D15*%
X209960000Y-72360000D03*
X209960000Y-74140000D03*
X213040000Y-72360000D03*
X213040000Y-74140000D03*
%TD*%
%TO.C,D21*%
X153960000Y-72360000D03*
X153960000Y-74140000D03*
X157040000Y-72360000D03*
X157040000Y-74140000D03*
%TD*%
%TO.C,D10*%
X256626666Y-72360000D03*
X256626666Y-74140000D03*
X259706666Y-72360000D03*
X259706666Y-74140000D03*
%TD*%
%TO.C,D16*%
X200626666Y-72360000D03*
X200626666Y-74140000D03*
X203706666Y-72360000D03*
X203706666Y-74140000D03*
%TD*%
%TO.C,D14*%
X219293333Y-72360000D03*
X219293333Y-74140000D03*
X222373333Y-72360000D03*
X222373333Y-74140000D03*
%TD*%
%TO.C,D12*%
X237960000Y-72360000D03*
X237960000Y-74140000D03*
X241040000Y-72360000D03*
X241040000Y-74140000D03*
%TD*%
%TO.C,D18*%
X181960000Y-72360000D03*
X181960000Y-74140000D03*
X185040000Y-72360000D03*
X185040000Y-74140000D03*
%TD*%
%TO.C,D22*%
X144626666Y-72360000D03*
X144626666Y-74140000D03*
X147706666Y-72360000D03*
X147706666Y-74140000D03*
%TD*%
%TO.C,D5*%
X303293333Y-72360000D03*
X303293333Y-74140000D03*
X306373333Y-72360000D03*
X306373333Y-74140000D03*
%TD*%
%TO.C,C7*%
G36*
G01*
X319250000Y-74475000D02*
X318750000Y-74475000D01*
G75*
G02*
X318525000Y-74250000I0J225000D01*
G01*
X318525000Y-73800000D01*
G75*
G02*
X318750000Y-73575000I225000J0D01*
G01*
X319250000Y-73575000D01*
G75*
G02*
X319475000Y-73800000I0J-225000D01*
G01*
X319475000Y-74250000D01*
G75*
G02*
X319250000Y-74475000I-225000J0D01*
G01*
G37*
G36*
G01*
X319250000Y-72925000D02*
X318750000Y-72925000D01*
G75*
G02*
X318525000Y-72700000I0J225000D01*
G01*
X318525000Y-72250000D01*
G75*
G02*
X318750000Y-72025000I225000J0D01*
G01*
X319250000Y-72025000D01*
G75*
G02*
X319475000Y-72250000I0J-225000D01*
G01*
X319475000Y-72700000D01*
G75*
G02*
X319250000Y-72925000I-225000J0D01*
G01*
G37*
%TD*%
%TO.C,C24*%
G36*
G01*
X160583333Y-74475000D02*
X160083333Y-74475000D01*
G75*
G02*
X159858333Y-74250000I0J225000D01*
G01*
X159858333Y-73800000D01*
G75*
G02*
X160083333Y-73575000I225000J0D01*
G01*
X160583333Y-73575000D01*
G75*
G02*
X160808333Y-73800000I0J-225000D01*
G01*
X160808333Y-74250000D01*
G75*
G02*
X160583333Y-74475000I-225000J0D01*
G01*
G37*
G36*
G01*
X160583333Y-72925000D02*
X160083333Y-72925000D01*
G75*
G02*
X159858333Y-72700000I0J225000D01*
G01*
X159858333Y-72250000D01*
G75*
G02*
X160083333Y-72025000I225000J0D01*
G01*
X160583333Y-72025000D01*
G75*
G02*
X160808333Y-72250000I0J-225000D01*
G01*
X160808333Y-72700000D01*
G75*
G02*
X160583333Y-72925000I-225000J0D01*
G01*
G37*
%TD*%
%TO.C,C22*%
G36*
G01*
X179250000Y-72925000D02*
X178750000Y-72925000D01*
G75*
G02*
X178525000Y-72700000I0J225000D01*
G01*
X178525000Y-72250000D01*
G75*
G02*
X178750000Y-72025000I225000J0D01*
G01*
X179250000Y-72025000D01*
G75*
G02*
X179475000Y-72250000I0J-225000D01*
G01*
X179475000Y-72700000D01*
G75*
G02*
X179250000Y-72925000I-225000J0D01*
G01*
G37*
G36*
G01*
X179250000Y-74475000D02*
X178750000Y-74475000D01*
G75*
G02*
X178525000Y-74250000I0J225000D01*
G01*
X178525000Y-73800000D01*
G75*
G02*
X178750000Y-73575000I225000J0D01*
G01*
X179250000Y-73575000D01*
G75*
G02*
X179475000Y-73800000I0J-225000D01*
G01*
X179475000Y-74250000D01*
G75*
G02*
X179250000Y-74475000I-225000J0D01*
G01*
G37*
%TD*%
%TO.C,C19*%
G36*
G01*
X207250000Y-72925000D02*
X206750000Y-72925000D01*
G75*
G02*
X206525000Y-72700000I0J225000D01*
G01*
X206525000Y-72250000D01*
G75*
G02*
X206750000Y-72025000I225000J0D01*
G01*
X207250000Y-72025000D01*
G75*
G02*
X207475000Y-72250000I0J-225000D01*
G01*
X207475000Y-72700000D01*
G75*
G02*
X207250000Y-72925000I-225000J0D01*
G01*
G37*
G36*
G01*
X207250000Y-74475000D02*
X206750000Y-74475000D01*
G75*
G02*
X206525000Y-74250000I0J225000D01*
G01*
X206525000Y-73800000D01*
G75*
G02*
X206750000Y-73575000I225000J0D01*
G01*
X207250000Y-73575000D01*
G75*
G02*
X207475000Y-73800000I0J-225000D01*
G01*
X207475000Y-74250000D01*
G75*
G02*
X207250000Y-74475000I-225000J0D01*
G01*
G37*
%TD*%
%TO.C,C28*%
G36*
G01*
X123250000Y-72925000D02*
X122750000Y-72925000D01*
G75*
G02*
X122525000Y-72700000I0J225000D01*
G01*
X122525000Y-72250000D01*
G75*
G02*
X122750000Y-72025000I225000J0D01*
G01*
X123250000Y-72025000D01*
G75*
G02*
X123475000Y-72250000I0J-225000D01*
G01*
X123475000Y-72700000D01*
G75*
G02*
X123250000Y-72925000I-225000J0D01*
G01*
G37*
G36*
G01*
X123250000Y-74475000D02*
X122750000Y-74475000D01*
G75*
G02*
X122525000Y-74250000I0J225000D01*
G01*
X122525000Y-73800000D01*
G75*
G02*
X122750000Y-73575000I225000J0D01*
G01*
X123250000Y-73575000D01*
G75*
G02*
X123475000Y-73800000I0J-225000D01*
G01*
X123475000Y-74250000D01*
G75*
G02*
X123250000Y-74475000I-225000J0D01*
G01*
G37*
%TD*%
%TO.C,C16*%
G36*
G01*
X235250000Y-72925000D02*
X234750000Y-72925000D01*
G75*
G02*
X234525000Y-72700000I0J225000D01*
G01*
X234525000Y-72250000D01*
G75*
G02*
X234750000Y-72025000I225000J0D01*
G01*
X235250000Y-72025000D01*
G75*
G02*
X235475000Y-72250000I0J-225000D01*
G01*
X235475000Y-72700000D01*
G75*
G02*
X235250000Y-72925000I-225000J0D01*
G01*
G37*
G36*
G01*
X235250000Y-74475000D02*
X234750000Y-74475000D01*
G75*
G02*
X234525000Y-74250000I0J225000D01*
G01*
X234525000Y-73800000D01*
G75*
G02*
X234750000Y-73575000I225000J0D01*
G01*
X235250000Y-73575000D01*
G75*
G02*
X235475000Y-73800000I0J-225000D01*
G01*
X235475000Y-74250000D01*
G75*
G02*
X235250000Y-74475000I-225000J0D01*
G01*
G37*
%TD*%
%TO.C,C31*%
G36*
G01*
X95250000Y-72925000D02*
X94750000Y-72925000D01*
G75*
G02*
X94525000Y-72700000I0J225000D01*
G01*
X94525000Y-72250000D01*
G75*
G02*
X94750000Y-72025000I225000J0D01*
G01*
X95250000Y-72025000D01*
G75*
G02*
X95475000Y-72250000I0J-225000D01*
G01*
X95475000Y-72700000D01*
G75*
G02*
X95250000Y-72925000I-225000J0D01*
G01*
G37*
G36*
G01*
X95250000Y-74475000D02*
X94750000Y-74475000D01*
G75*
G02*
X94525000Y-74250000I0J225000D01*
G01*
X94525000Y-73800000D01*
G75*
G02*
X94750000Y-73575000I225000J0D01*
G01*
X95250000Y-73575000D01*
G75*
G02*
X95475000Y-73800000I0J-225000D01*
G01*
X95475000Y-74250000D01*
G75*
G02*
X95250000Y-74475000I-225000J0D01*
G01*
G37*
%TD*%
%TO.C,C21*%
G36*
G01*
X188583333Y-74475000D02*
X188083333Y-74475000D01*
G75*
G02*
X187858333Y-74250000I0J225000D01*
G01*
X187858333Y-73800000D01*
G75*
G02*
X188083333Y-73575000I225000J0D01*
G01*
X188583333Y-73575000D01*
G75*
G02*
X188808333Y-73800000I0J-225000D01*
G01*
X188808333Y-74250000D01*
G75*
G02*
X188583333Y-74475000I-225000J0D01*
G01*
G37*
G36*
G01*
X188583333Y-72925000D02*
X188083333Y-72925000D01*
G75*
G02*
X187858333Y-72700000I0J225000D01*
G01*
X187858333Y-72250000D01*
G75*
G02*
X188083333Y-72025000I225000J0D01*
G01*
X188583333Y-72025000D01*
G75*
G02*
X188808333Y-72250000I0J-225000D01*
G01*
X188808333Y-72700000D01*
G75*
G02*
X188583333Y-72925000I-225000J0D01*
G01*
G37*
%TD*%
%TO.C,C9*%
G36*
G01*
X300583333Y-74475000D02*
X300083333Y-74475000D01*
G75*
G02*
X299858333Y-74250000I0J225000D01*
G01*
X299858333Y-73800000D01*
G75*
G02*
X300083333Y-73575000I225000J0D01*
G01*
X300583333Y-73575000D01*
G75*
G02*
X300808333Y-73800000I0J-225000D01*
G01*
X300808333Y-74250000D01*
G75*
G02*
X300583333Y-74475000I-225000J0D01*
G01*
G37*
G36*
G01*
X300583333Y-72925000D02*
X300083333Y-72925000D01*
G75*
G02*
X299858333Y-72700000I0J225000D01*
G01*
X299858333Y-72250000D01*
G75*
G02*
X300083333Y-72025000I225000J0D01*
G01*
X300583333Y-72025000D01*
G75*
G02*
X300808333Y-72250000I0J-225000D01*
G01*
X300808333Y-72700000D01*
G75*
G02*
X300583333Y-72925000I-225000J0D01*
G01*
G37*
%TD*%
%TO.C,C45*%
G36*
G01*
X-35416667Y-74475000D02*
X-35916667Y-74475000D01*
G75*
G02*
X-36141667Y-74250000I0J225000D01*
G01*
X-36141667Y-73800000D01*
G75*
G02*
X-35916667Y-73575000I225000J0D01*
G01*
X-35416667Y-73575000D01*
G75*
G02*
X-35191667Y-73800000I0J-225000D01*
G01*
X-35191667Y-74250000D01*
G75*
G02*
X-35416667Y-74475000I-225000J0D01*
G01*
G37*
G36*
G01*
X-35416667Y-72925000D02*
X-35916667Y-72925000D01*
G75*
G02*
X-36141667Y-72700000I0J225000D01*
G01*
X-36141667Y-72250000D01*
G75*
G02*
X-35916667Y-72025000I225000J0D01*
G01*
X-35416667Y-72025000D01*
G75*
G02*
X-35191667Y-72250000I0J-225000D01*
G01*
X-35191667Y-72700000D01*
G75*
G02*
X-35416667Y-72925000I-225000J0D01*
G01*
G37*
%TD*%
%TO.C,C10*%
G36*
G01*
X291250000Y-72925000D02*
X290750000Y-72925000D01*
G75*
G02*
X290525000Y-72700000I0J225000D01*
G01*
X290525000Y-72250000D01*
G75*
G02*
X290750000Y-72025000I225000J0D01*
G01*
X291250000Y-72025000D01*
G75*
G02*
X291475000Y-72250000I0J-225000D01*
G01*
X291475000Y-72700000D01*
G75*
G02*
X291250000Y-72925000I-225000J0D01*
G01*
G37*
G36*
G01*
X291250000Y-74475000D02*
X290750000Y-74475000D01*
G75*
G02*
X290525000Y-74250000I0J225000D01*
G01*
X290525000Y-73800000D01*
G75*
G02*
X290750000Y-73575000I225000J0D01*
G01*
X291250000Y-73575000D01*
G75*
G02*
X291475000Y-73800000I0J-225000D01*
G01*
X291475000Y-74250000D01*
G75*
G02*
X291250000Y-74475000I-225000J0D01*
G01*
G37*
%TD*%
%TO.C,C33*%
G36*
G01*
X76583333Y-74475000D02*
X76083333Y-74475000D01*
G75*
G02*
X75858333Y-74250000I0J225000D01*
G01*
X75858333Y-73800000D01*
G75*
G02*
X76083333Y-73575000I225000J0D01*
G01*
X76583333Y-73575000D01*
G75*
G02*
X76808333Y-73800000I0J-225000D01*
G01*
X76808333Y-74250000D01*
G75*
G02*
X76583333Y-74475000I-225000J0D01*
G01*
G37*
G36*
G01*
X76583333Y-72925000D02*
X76083333Y-72925000D01*
G75*
G02*
X75858333Y-72700000I0J225000D01*
G01*
X75858333Y-72250000D01*
G75*
G02*
X76083333Y-72025000I225000J0D01*
G01*
X76583333Y-72025000D01*
G75*
G02*
X76808333Y-72250000I0J-225000D01*
G01*
X76808333Y-72700000D01*
G75*
G02*
X76583333Y-72925000I-225000J0D01*
G01*
G37*
%TD*%
%TO.C,C25*%
G36*
G01*
X151250000Y-72925000D02*
X150750000Y-72925000D01*
G75*
G02*
X150525000Y-72700000I0J225000D01*
G01*
X150525000Y-72250000D01*
G75*
G02*
X150750000Y-72025000I225000J0D01*
G01*
X151250000Y-72025000D01*
G75*
G02*
X151475000Y-72250000I0J-225000D01*
G01*
X151475000Y-72700000D01*
G75*
G02*
X151250000Y-72925000I-225000J0D01*
G01*
G37*
G36*
G01*
X151250000Y-74475000D02*
X150750000Y-74475000D01*
G75*
G02*
X150525000Y-74250000I0J225000D01*
G01*
X150525000Y-73800000D01*
G75*
G02*
X150750000Y-73575000I225000J0D01*
G01*
X151250000Y-73575000D01*
G75*
G02*
X151475000Y-73800000I0J-225000D01*
G01*
X151475000Y-74250000D01*
G75*
G02*
X151250000Y-74475000I-225000J0D01*
G01*
G37*
%TD*%
%TO.C,C39*%
G36*
G01*
X20583333Y-74475000D02*
X20083333Y-74475000D01*
G75*
G02*
X19858333Y-74250000I0J225000D01*
G01*
X19858333Y-73800000D01*
G75*
G02*
X20083333Y-73575000I225000J0D01*
G01*
X20583333Y-73575000D01*
G75*
G02*
X20808333Y-73800000I0J-225000D01*
G01*
X20808333Y-74250000D01*
G75*
G02*
X20583333Y-74475000I-225000J0D01*
G01*
G37*
G36*
G01*
X20583333Y-72925000D02*
X20083333Y-72925000D01*
G75*
G02*
X19858333Y-72700000I0J225000D01*
G01*
X19858333Y-72250000D01*
G75*
G02*
X20083333Y-72025000I225000J0D01*
G01*
X20583333Y-72025000D01*
G75*
G02*
X20808333Y-72250000I0J-225000D01*
G01*
X20808333Y-72700000D01*
G75*
G02*
X20583333Y-72925000I-225000J0D01*
G01*
G37*
%TD*%
%TO.C,C13*%
G36*
G01*
X263250000Y-72925000D02*
X262750000Y-72925000D01*
G75*
G02*
X262525000Y-72700000I0J225000D01*
G01*
X262525000Y-72250000D01*
G75*
G02*
X262750000Y-72025000I225000J0D01*
G01*
X263250000Y-72025000D01*
G75*
G02*
X263475000Y-72250000I0J-225000D01*
G01*
X263475000Y-72700000D01*
G75*
G02*
X263250000Y-72925000I-225000J0D01*
G01*
G37*
G36*
G01*
X263250000Y-74475000D02*
X262750000Y-74475000D01*
G75*
G02*
X262525000Y-74250000I0J225000D01*
G01*
X262525000Y-73800000D01*
G75*
G02*
X262750000Y-73575000I225000J0D01*
G01*
X263250000Y-73575000D01*
G75*
G02*
X263475000Y-73800000I0J-225000D01*
G01*
X263475000Y-74250000D01*
G75*
G02*
X263250000Y-74475000I-225000J0D01*
G01*
G37*
%TD*%
%TO.C,C30*%
G36*
G01*
X104583333Y-74475000D02*
X104083333Y-74475000D01*
G75*
G02*
X103858333Y-74250000I0J225000D01*
G01*
X103858333Y-73800000D01*
G75*
G02*
X104083333Y-73575000I225000J0D01*
G01*
X104583333Y-73575000D01*
G75*
G02*
X104808333Y-73800000I0J-225000D01*
G01*
X104808333Y-74250000D01*
G75*
G02*
X104583333Y-74475000I-225000J0D01*
G01*
G37*
G36*
G01*
X104583333Y-72925000D02*
X104083333Y-72925000D01*
G75*
G02*
X103858333Y-72700000I0J225000D01*
G01*
X103858333Y-72250000D01*
G75*
G02*
X104083333Y-72025000I225000J0D01*
G01*
X104583333Y-72025000D01*
G75*
G02*
X104808333Y-72250000I0J-225000D01*
G01*
X104808333Y-72700000D01*
G75*
G02*
X104583333Y-72925000I-225000J0D01*
G01*
G37*
%TD*%
%TO.C,C51*%
G36*
G01*
X-91416667Y-74475000D02*
X-91916667Y-74475000D01*
G75*
G02*
X-92141667Y-74250000I0J225000D01*
G01*
X-92141667Y-73800000D01*
G75*
G02*
X-91916667Y-73575000I225000J0D01*
G01*
X-91416667Y-73575000D01*
G75*
G02*
X-91191667Y-73800000I0J-225000D01*
G01*
X-91191667Y-74250000D01*
G75*
G02*
X-91416667Y-74475000I-225000J0D01*
G01*
G37*
G36*
G01*
X-91416667Y-72925000D02*
X-91916667Y-72925000D01*
G75*
G02*
X-92141667Y-72700000I0J225000D01*
G01*
X-92141667Y-72250000D01*
G75*
G02*
X-91916667Y-72025000I225000J0D01*
G01*
X-91416667Y-72025000D01*
G75*
G02*
X-91191667Y-72250000I0J-225000D01*
G01*
X-91191667Y-72700000D01*
G75*
G02*
X-91416667Y-72925000I-225000J0D01*
G01*
G37*
%TD*%
%TO.C,C26*%
G36*
G01*
X141916666Y-72925000D02*
X141416666Y-72925000D01*
G75*
G02*
X141191666Y-72700000I0J225000D01*
G01*
X141191666Y-72250000D01*
G75*
G02*
X141416666Y-72025000I225000J0D01*
G01*
X141916666Y-72025000D01*
G75*
G02*
X142141666Y-72250000I0J-225000D01*
G01*
X142141666Y-72700000D01*
G75*
G02*
X141916666Y-72925000I-225000J0D01*
G01*
G37*
G36*
G01*
X141916666Y-74475000D02*
X141416666Y-74475000D01*
G75*
G02*
X141191666Y-74250000I0J225000D01*
G01*
X141191666Y-73800000D01*
G75*
G02*
X141416666Y-73575000I225000J0D01*
G01*
X141916666Y-73575000D01*
G75*
G02*
X142141666Y-73800000I0J-225000D01*
G01*
X142141666Y-74250000D01*
G75*
G02*
X141916666Y-74475000I-225000J0D01*
G01*
G37*
%TD*%
%TO.C,C11*%
G36*
G01*
X281916666Y-72925000D02*
X281416666Y-72925000D01*
G75*
G02*
X281191666Y-72700000I0J225000D01*
G01*
X281191666Y-72250000D01*
G75*
G02*
X281416666Y-72025000I225000J0D01*
G01*
X281916666Y-72025000D01*
G75*
G02*
X282141666Y-72250000I0J-225000D01*
G01*
X282141666Y-72700000D01*
G75*
G02*
X281916666Y-72925000I-225000J0D01*
G01*
G37*
G36*
G01*
X281916666Y-74475000D02*
X281416666Y-74475000D01*
G75*
G02*
X281191666Y-74250000I0J225000D01*
G01*
X281191666Y-73800000D01*
G75*
G02*
X281416666Y-73575000I225000J0D01*
G01*
X281916666Y-73575000D01*
G75*
G02*
X282141666Y-73800000I0J-225000D01*
G01*
X282141666Y-74250000D01*
G75*
G02*
X281916666Y-74475000I-225000J0D01*
G01*
G37*
%TD*%
%TO.C,C35*%
G36*
G01*
X57916666Y-72925000D02*
X57416666Y-72925000D01*
G75*
G02*
X57191666Y-72700000I0J225000D01*
G01*
X57191666Y-72250000D01*
G75*
G02*
X57416666Y-72025000I225000J0D01*
G01*
X57916666Y-72025000D01*
G75*
G02*
X58141666Y-72250000I0J-225000D01*
G01*
X58141666Y-72700000D01*
G75*
G02*
X57916666Y-72925000I-225000J0D01*
G01*
G37*
G36*
G01*
X57916666Y-74475000D02*
X57416666Y-74475000D01*
G75*
G02*
X57191666Y-74250000I0J225000D01*
G01*
X57191666Y-73800000D01*
G75*
G02*
X57416666Y-73575000I225000J0D01*
G01*
X57916666Y-73575000D01*
G75*
G02*
X58141666Y-73800000I0J-225000D01*
G01*
X58141666Y-74250000D01*
G75*
G02*
X57916666Y-74475000I-225000J0D01*
G01*
G37*
%TD*%
%TO.C,C20*%
G36*
G01*
X197916666Y-72925000D02*
X197416666Y-72925000D01*
G75*
G02*
X197191666Y-72700000I0J225000D01*
G01*
X197191666Y-72250000D01*
G75*
G02*
X197416666Y-72025000I225000J0D01*
G01*
X197916666Y-72025000D01*
G75*
G02*
X198141666Y-72250000I0J-225000D01*
G01*
X198141666Y-72700000D01*
G75*
G02*
X197916666Y-72925000I-225000J0D01*
G01*
G37*
G36*
G01*
X197916666Y-74475000D02*
X197416666Y-74475000D01*
G75*
G02*
X197191666Y-74250000I0J225000D01*
G01*
X197191666Y-73800000D01*
G75*
G02*
X197416666Y-73575000I225000J0D01*
G01*
X197916666Y-73575000D01*
G75*
G02*
X198141666Y-73800000I0J-225000D01*
G01*
X198141666Y-74250000D01*
G75*
G02*
X197916666Y-74475000I-225000J0D01*
G01*
G37*
%TD*%
%TO.C,C23*%
G36*
G01*
X169916666Y-72925000D02*
X169416666Y-72925000D01*
G75*
G02*
X169191666Y-72700000I0J225000D01*
G01*
X169191666Y-72250000D01*
G75*
G02*
X169416666Y-72025000I225000J0D01*
G01*
X169916666Y-72025000D01*
G75*
G02*
X170141666Y-72250000I0J-225000D01*
G01*
X170141666Y-72700000D01*
G75*
G02*
X169916666Y-72925000I-225000J0D01*
G01*
G37*
G36*
G01*
X169916666Y-74475000D02*
X169416666Y-74475000D01*
G75*
G02*
X169191666Y-74250000I0J225000D01*
G01*
X169191666Y-73800000D01*
G75*
G02*
X169416666Y-73575000I225000J0D01*
G01*
X169916666Y-73575000D01*
G75*
G02*
X170141666Y-73800000I0J-225000D01*
G01*
X170141666Y-74250000D01*
G75*
G02*
X169916666Y-74475000I-225000J0D01*
G01*
G37*
%TD*%
%TO.C,C36*%
G36*
G01*
X48583333Y-74475000D02*
X48083333Y-74475000D01*
G75*
G02*
X47858333Y-74250000I0J225000D01*
G01*
X47858333Y-73800000D01*
G75*
G02*
X48083333Y-73575000I225000J0D01*
G01*
X48583333Y-73575000D01*
G75*
G02*
X48808333Y-73800000I0J-225000D01*
G01*
X48808333Y-74250000D01*
G75*
G02*
X48583333Y-74475000I-225000J0D01*
G01*
G37*
G36*
G01*
X48583333Y-72925000D02*
X48083333Y-72925000D01*
G75*
G02*
X47858333Y-72700000I0J225000D01*
G01*
X47858333Y-72250000D01*
G75*
G02*
X48083333Y-72025000I225000J0D01*
G01*
X48583333Y-72025000D01*
G75*
G02*
X48808333Y-72250000I0J-225000D01*
G01*
X48808333Y-72700000D01*
G75*
G02*
X48583333Y-72925000I-225000J0D01*
G01*
G37*
%TD*%
%TO.C,C15*%
G36*
G01*
X244583333Y-74475000D02*
X244083333Y-74475000D01*
G75*
G02*
X243858333Y-74250000I0J225000D01*
G01*
X243858333Y-73800000D01*
G75*
G02*
X244083333Y-73575000I225000J0D01*
G01*
X244583333Y-73575000D01*
G75*
G02*
X244808333Y-73800000I0J-225000D01*
G01*
X244808333Y-74250000D01*
G75*
G02*
X244583333Y-74475000I-225000J0D01*
G01*
G37*
G36*
G01*
X244583333Y-72925000D02*
X244083333Y-72925000D01*
G75*
G02*
X243858333Y-72700000I0J225000D01*
G01*
X243858333Y-72250000D01*
G75*
G02*
X244083333Y-72025000I225000J0D01*
G01*
X244583333Y-72025000D01*
G75*
G02*
X244808333Y-72250000I0J-225000D01*
G01*
X244808333Y-72700000D01*
G75*
G02*
X244583333Y-72925000I-225000J0D01*
G01*
G37*
%TD*%
%TO.C,C8*%
G36*
G01*
X309916666Y-72925000D02*
X309416666Y-72925000D01*
G75*
G02*
X309191666Y-72700000I0J225000D01*
G01*
X309191666Y-72250000D01*
G75*
G02*
X309416666Y-72025000I225000J0D01*
G01*
X309916666Y-72025000D01*
G75*
G02*
X310141666Y-72250000I0J-225000D01*
G01*
X310141666Y-72700000D01*
G75*
G02*
X309916666Y-72925000I-225000J0D01*
G01*
G37*
G36*
G01*
X309916666Y-74475000D02*
X309416666Y-74475000D01*
G75*
G02*
X309191666Y-74250000I0J225000D01*
G01*
X309191666Y-73800000D01*
G75*
G02*
X309416666Y-73575000I225000J0D01*
G01*
X309916666Y-73575000D01*
G75*
G02*
X310141666Y-73800000I0J-225000D01*
G01*
X310141666Y-74250000D01*
G75*
G02*
X309916666Y-74475000I-225000J0D01*
G01*
G37*
%TD*%
%TO.C,C42*%
G36*
G01*
X-7416667Y-74475000D02*
X-7916667Y-74475000D01*
G75*
G02*
X-8141667Y-74250000I0J225000D01*
G01*
X-8141667Y-73800000D01*
G75*
G02*
X-7916667Y-73575000I225000J0D01*
G01*
X-7416667Y-73575000D01*
G75*
G02*
X-7191667Y-73800000I0J-225000D01*
G01*
X-7191667Y-74250000D01*
G75*
G02*
X-7416667Y-74475000I-225000J0D01*
G01*
G37*
G36*
G01*
X-7416667Y-72925000D02*
X-7916667Y-72925000D01*
G75*
G02*
X-8141667Y-72700000I0J225000D01*
G01*
X-8141667Y-72250000D01*
G75*
G02*
X-7916667Y-72025000I225000J0D01*
G01*
X-7416667Y-72025000D01*
G75*
G02*
X-7191667Y-72250000I0J-225000D01*
G01*
X-7191667Y-72700000D01*
G75*
G02*
X-7416667Y-72925000I-225000J0D01*
G01*
G37*
%TD*%
%TO.C,C18*%
G36*
G01*
X216583333Y-74475000D02*
X216083333Y-74475000D01*
G75*
G02*
X215858333Y-74250000I0J225000D01*
G01*
X215858333Y-73800000D01*
G75*
G02*
X216083333Y-73575000I225000J0D01*
G01*
X216583333Y-73575000D01*
G75*
G02*
X216808333Y-73800000I0J-225000D01*
G01*
X216808333Y-74250000D01*
G75*
G02*
X216583333Y-74475000I-225000J0D01*
G01*
G37*
G36*
G01*
X216583333Y-72925000D02*
X216083333Y-72925000D01*
G75*
G02*
X215858333Y-72700000I0J225000D01*
G01*
X215858333Y-72250000D01*
G75*
G02*
X216083333Y-72025000I225000J0D01*
G01*
X216583333Y-72025000D01*
G75*
G02*
X216808333Y-72250000I0J-225000D01*
G01*
X216808333Y-72700000D01*
G75*
G02*
X216583333Y-72925000I-225000J0D01*
G01*
G37*
%TD*%
%TO.C,C48*%
G36*
G01*
X-63416667Y-74475000D02*
X-63916667Y-74475000D01*
G75*
G02*
X-64141667Y-74250000I0J225000D01*
G01*
X-64141667Y-73800000D01*
G75*
G02*
X-63916667Y-73575000I225000J0D01*
G01*
X-63416667Y-73575000D01*
G75*
G02*
X-63191667Y-73800000I0J-225000D01*
G01*
X-63191667Y-74250000D01*
G75*
G02*
X-63416667Y-74475000I-225000J0D01*
G01*
G37*
G36*
G01*
X-63416667Y-72925000D02*
X-63916667Y-72925000D01*
G75*
G02*
X-64141667Y-72700000I0J225000D01*
G01*
X-64141667Y-72250000D01*
G75*
G02*
X-63916667Y-72025000I225000J0D01*
G01*
X-63416667Y-72025000D01*
G75*
G02*
X-63191667Y-72250000I0J-225000D01*
G01*
X-63191667Y-72700000D01*
G75*
G02*
X-63416667Y-72925000I-225000J0D01*
G01*
G37*
%TD*%
%TO.C,C32*%
G36*
G01*
X85916666Y-72925000D02*
X85416666Y-72925000D01*
G75*
G02*
X85191666Y-72700000I0J225000D01*
G01*
X85191666Y-72250000D01*
G75*
G02*
X85416666Y-72025000I225000J0D01*
G01*
X85916666Y-72025000D01*
G75*
G02*
X86141666Y-72250000I0J-225000D01*
G01*
X86141666Y-72700000D01*
G75*
G02*
X85916666Y-72925000I-225000J0D01*
G01*
G37*
G36*
G01*
X85916666Y-74475000D02*
X85416666Y-74475000D01*
G75*
G02*
X85191666Y-74250000I0J225000D01*
G01*
X85191666Y-73800000D01*
G75*
G02*
X85416666Y-73575000I225000J0D01*
G01*
X85916666Y-73575000D01*
G75*
G02*
X86141666Y-73800000I0J-225000D01*
G01*
X86141666Y-74250000D01*
G75*
G02*
X85916666Y-74475000I-225000J0D01*
G01*
G37*
%TD*%
%TO.C,C12*%
G36*
G01*
X272583333Y-74475000D02*
X272083333Y-74475000D01*
G75*
G02*
X271858333Y-74250000I0J225000D01*
G01*
X271858333Y-73800000D01*
G75*
G02*
X272083333Y-73575000I225000J0D01*
G01*
X272583333Y-73575000D01*
G75*
G02*
X272808333Y-73800000I0J-225000D01*
G01*
X272808333Y-74250000D01*
G75*
G02*
X272583333Y-74475000I-225000J0D01*
G01*
G37*
G36*
G01*
X272583333Y-72925000D02*
X272083333Y-72925000D01*
G75*
G02*
X271858333Y-72700000I0J225000D01*
G01*
X271858333Y-72250000D01*
G75*
G02*
X272083333Y-72025000I225000J0D01*
G01*
X272583333Y-72025000D01*
G75*
G02*
X272808333Y-72250000I0J-225000D01*
G01*
X272808333Y-72700000D01*
G75*
G02*
X272583333Y-72925000I-225000J0D01*
G01*
G37*
%TD*%
%TO.C,C14*%
G36*
G01*
X253916666Y-72925000D02*
X253416666Y-72925000D01*
G75*
G02*
X253191666Y-72700000I0J225000D01*
G01*
X253191666Y-72250000D01*
G75*
G02*
X253416666Y-72025000I225000J0D01*
G01*
X253916666Y-72025000D01*
G75*
G02*
X254141666Y-72250000I0J-225000D01*
G01*
X254141666Y-72700000D01*
G75*
G02*
X253916666Y-72925000I-225000J0D01*
G01*
G37*
G36*
G01*
X253916666Y-74475000D02*
X253416666Y-74475000D01*
G75*
G02*
X253191666Y-74250000I0J225000D01*
G01*
X253191666Y-73800000D01*
G75*
G02*
X253416666Y-73575000I225000J0D01*
G01*
X253916666Y-73575000D01*
G75*
G02*
X254141666Y-73800000I0J-225000D01*
G01*
X254141666Y-74250000D01*
G75*
G02*
X253916666Y-74475000I-225000J0D01*
G01*
G37*
%TD*%
%TO.C,C29*%
G36*
G01*
X113916666Y-72925000D02*
X113416666Y-72925000D01*
G75*
G02*
X113191666Y-72700000I0J225000D01*
G01*
X113191666Y-72250000D01*
G75*
G02*
X113416666Y-72025000I225000J0D01*
G01*
X113916666Y-72025000D01*
G75*
G02*
X114141666Y-72250000I0J-225000D01*
G01*
X114141666Y-72700000D01*
G75*
G02*
X113916666Y-72925000I-225000J0D01*
G01*
G37*
G36*
G01*
X113916666Y-74475000D02*
X113416666Y-74475000D01*
G75*
G02*
X113191666Y-74250000I0J225000D01*
G01*
X113191666Y-73800000D01*
G75*
G02*
X113416666Y-73575000I225000J0D01*
G01*
X113916666Y-73575000D01*
G75*
G02*
X114141666Y-73800000I0J-225000D01*
G01*
X114141666Y-74250000D01*
G75*
G02*
X113916666Y-74475000I-225000J0D01*
G01*
G37*
%TD*%
%TO.C,C27*%
G36*
G01*
X132583333Y-74475000D02*
X132083333Y-74475000D01*
G75*
G02*
X131858333Y-74250000I0J225000D01*
G01*
X131858333Y-73800000D01*
G75*
G02*
X132083333Y-73575000I225000J0D01*
G01*
X132583333Y-73575000D01*
G75*
G02*
X132808333Y-73800000I0J-225000D01*
G01*
X132808333Y-74250000D01*
G75*
G02*
X132583333Y-74475000I-225000J0D01*
G01*
G37*
G36*
G01*
X132583333Y-72925000D02*
X132083333Y-72925000D01*
G75*
G02*
X131858333Y-72700000I0J225000D01*
G01*
X131858333Y-72250000D01*
G75*
G02*
X132083333Y-72025000I225000J0D01*
G01*
X132583333Y-72025000D01*
G75*
G02*
X132808333Y-72250000I0J-225000D01*
G01*
X132808333Y-72700000D01*
G75*
G02*
X132583333Y-72925000I-225000J0D01*
G01*
G37*
%TD*%
%TO.C,D47*%
X-88706667Y-72360000D03*
X-88706667Y-74140000D03*
X-85626667Y-72360000D03*
X-85626667Y-74140000D03*
%TD*%
%TO.C,D44*%
X-60706667Y-72360000D03*
X-60706667Y-74140000D03*
X-57626667Y-72360000D03*
X-57626667Y-74140000D03*
%TD*%
D12*
%TO.C,J2*%
X-99746667Y-73550000D03*
D13*
X-97206667Y-73550000D03*
X-94666667Y-73550000D03*
%TD*%
D12*
%TO.C,J1*%
X349666666Y-73550000D03*
D13*
X352206666Y-73550000D03*
X354746666Y-73550000D03*
%TD*%
D11*
%TO.C,D45*%
X-70040000Y-72360000D03*
X-70040000Y-74140000D03*
X-66960000Y-72360000D03*
X-66960000Y-74140000D03*
%TD*%
%TO.C,D41*%
X-32706667Y-72360000D03*
X-32706667Y-74140000D03*
X-29626667Y-72360000D03*
X-29626667Y-74140000D03*
%TD*%
%TO.C,D46*%
X-79373334Y-72360000D03*
X-79373334Y-74140000D03*
X-76293334Y-72360000D03*
X-76293334Y-74140000D03*
%TD*%
%TO.C,D42*%
X-42040000Y-72360000D03*
X-42040000Y-74140000D03*
X-38960000Y-72360000D03*
X-38960000Y-74140000D03*
%TD*%
%TO.C,D43*%
X-51373334Y-72360000D03*
X-51373334Y-74140000D03*
X-48293334Y-72360000D03*
X-48293334Y-74140000D03*
%TD*%
%TO.C,D32*%
X51293333Y-72360000D03*
X51293333Y-74140000D03*
X54373333Y-72360000D03*
X54373333Y-74140000D03*
%TD*%
%TO.C,D27*%
X97960000Y-72360000D03*
X97960000Y-74140000D03*
X101040000Y-72360000D03*
X101040000Y-74140000D03*
%TD*%
%TO.C,D31*%
X60626666Y-72360000D03*
X60626666Y-74140000D03*
X63706666Y-72360000D03*
X63706666Y-74140000D03*
%TD*%
%TO.C,D37*%
X4626666Y-72360000D03*
X4626666Y-74140000D03*
X7706666Y-72360000D03*
X7706666Y-74140000D03*
%TD*%
%TO.C,D34*%
X32626666Y-72360000D03*
X32626666Y-74140000D03*
X35706666Y-72360000D03*
X35706666Y-74140000D03*
%TD*%
%TO.C,D38*%
X-4706667Y-72360000D03*
X-4706667Y-74140000D03*
X-1626667Y-72360000D03*
X-1626667Y-74140000D03*
%TD*%
%TO.C,D35*%
X23293333Y-72360000D03*
X23293333Y-74140000D03*
X26373333Y-72360000D03*
X26373333Y-74140000D03*
%TD*%
%TO.C,D36*%
X13960000Y-72360000D03*
X13960000Y-74140000D03*
X17040000Y-72360000D03*
X17040000Y-74140000D03*
%TD*%
%TO.C,D40*%
X-23373334Y-72360000D03*
X-23373334Y-74140000D03*
X-20293334Y-72360000D03*
X-20293334Y-74140000D03*
%TD*%
%TO.C,D24*%
X125960000Y-72360000D03*
X125960000Y-74140000D03*
X129040000Y-72360000D03*
X129040000Y-74140000D03*
%TD*%
%TO.C,D23*%
X135293333Y-72360000D03*
X135293333Y-74140000D03*
X138373333Y-72360000D03*
X138373333Y-74140000D03*
%TD*%
%TO.C,D28*%
X88626666Y-72360000D03*
X88626666Y-74140000D03*
X91706666Y-72360000D03*
X91706666Y-74140000D03*
%TD*%
%TO.C,D30*%
X69960000Y-72360000D03*
X69960000Y-74140000D03*
X73040000Y-72360000D03*
X73040000Y-74140000D03*
%TD*%
%TO.C,D39*%
X-14040000Y-72360000D03*
X-14040000Y-74140000D03*
X-10960000Y-72360000D03*
X-10960000Y-74140000D03*
%TD*%
%TO.C,D25*%
X116626666Y-72360000D03*
X116626666Y-74140000D03*
X119706666Y-72360000D03*
X119706666Y-74140000D03*
%TD*%
%TO.C,D26*%
X107293333Y-72360000D03*
X107293333Y-74140000D03*
X110373333Y-72360000D03*
X110373333Y-74140000D03*
%TD*%
%TO.C,D29*%
X79293333Y-72360000D03*
X79293333Y-74140000D03*
X82373333Y-72360000D03*
X82373333Y-74140000D03*
%TD*%
%TO.C,D33*%
X41960000Y-72360000D03*
X41960000Y-74140000D03*
X45040000Y-72360000D03*
X45040000Y-74140000D03*
%TD*%
D13*
%TO.C,J1*%
X-99746666Y-89450000D03*
X-97206666Y-89450000D03*
D12*
X-94666666Y-89450000D03*
%TD*%
D13*
%TO.C,J2*%
X349666667Y-89450000D03*
X352206667Y-89450000D03*
D12*
X354746667Y-89450000D03*
%TD*%
D11*
%TO.C,D47*%
X340626667Y-88860000D03*
X340626667Y-90640000D03*
X343706667Y-88860000D03*
X343706667Y-90640000D03*
%TD*%
%TO.C,D46*%
X331293334Y-88860000D03*
X331293334Y-90640000D03*
X334373334Y-88860000D03*
X334373334Y-90640000D03*
%TD*%
%TO.C,D45*%
X321960000Y-88860000D03*
X321960000Y-90640000D03*
X325040000Y-88860000D03*
X325040000Y-90640000D03*
%TD*%
%TO.C,D44*%
X312626667Y-88860000D03*
X312626667Y-90640000D03*
X315706667Y-88860000D03*
X315706667Y-90640000D03*
%TD*%
%TO.C,D43*%
X303293334Y-88860000D03*
X303293334Y-90640000D03*
X306373334Y-88860000D03*
X306373334Y-90640000D03*
%TD*%
%TO.C,D42*%
X293960000Y-88860000D03*
X293960000Y-90640000D03*
X297040000Y-88860000D03*
X297040000Y-90640000D03*
%TD*%
%TO.C,D41*%
X284626667Y-88860000D03*
X284626667Y-90640000D03*
X287706667Y-88860000D03*
X287706667Y-90640000D03*
%TD*%
%TO.C,D40*%
X275293334Y-88860000D03*
X275293334Y-90640000D03*
X278373334Y-88860000D03*
X278373334Y-90640000D03*
%TD*%
%TO.C,D39*%
X265960000Y-88860000D03*
X265960000Y-90640000D03*
X269040000Y-88860000D03*
X269040000Y-90640000D03*
%TD*%
%TO.C,D38*%
X256626667Y-88860000D03*
X256626667Y-90640000D03*
X259706667Y-88860000D03*
X259706667Y-90640000D03*
%TD*%
%TO.C,D37*%
X247293334Y-88860000D03*
X247293334Y-90640000D03*
X250373334Y-88860000D03*
X250373334Y-90640000D03*
%TD*%
%TO.C,D36*%
X237960000Y-88860000D03*
X237960000Y-90640000D03*
X241040000Y-88860000D03*
X241040000Y-90640000D03*
%TD*%
%TO.C,D35*%
X228626667Y-88860000D03*
X228626667Y-90640000D03*
X231706667Y-88860000D03*
X231706667Y-90640000D03*
%TD*%
%TO.C,D34*%
X219293334Y-88860000D03*
X219293334Y-90640000D03*
X222373334Y-88860000D03*
X222373334Y-90640000D03*
%TD*%
%TO.C,D33*%
X209960000Y-88860000D03*
X209960000Y-90640000D03*
X213040000Y-88860000D03*
X213040000Y-90640000D03*
%TD*%
%TO.C,D32*%
X200626667Y-88860000D03*
X200626667Y-90640000D03*
X203706667Y-88860000D03*
X203706667Y-90640000D03*
%TD*%
%TO.C,D31*%
X191293334Y-88860000D03*
X191293334Y-90640000D03*
X194373334Y-88860000D03*
X194373334Y-90640000D03*
%TD*%
%TO.C,D30*%
X181960000Y-88860000D03*
X181960000Y-90640000D03*
X185040000Y-88860000D03*
X185040000Y-90640000D03*
%TD*%
%TO.C,D29*%
X172626667Y-88860000D03*
X172626667Y-90640000D03*
X175706667Y-88860000D03*
X175706667Y-90640000D03*
%TD*%
%TO.C,D28*%
X163293334Y-88860000D03*
X163293334Y-90640000D03*
X166373334Y-88860000D03*
X166373334Y-90640000D03*
%TD*%
%TO.C,D27*%
X153960000Y-88860000D03*
X153960000Y-90640000D03*
X157040000Y-88860000D03*
X157040000Y-90640000D03*
%TD*%
%TO.C,D26*%
X144626667Y-88860000D03*
X144626667Y-90640000D03*
X147706667Y-88860000D03*
X147706667Y-90640000D03*
%TD*%
%TO.C,D25*%
X135293334Y-88860000D03*
X135293334Y-90640000D03*
X138373334Y-88860000D03*
X138373334Y-90640000D03*
%TD*%
%TO.C,D24*%
X125960000Y-88860000D03*
X125960000Y-90640000D03*
X129040000Y-88860000D03*
X129040000Y-90640000D03*
%TD*%
%TO.C,D23*%
X116626667Y-88860000D03*
X116626667Y-90640000D03*
X119706667Y-88860000D03*
X119706667Y-90640000D03*
%TD*%
%TO.C,D22*%
X107293334Y-88860000D03*
X107293334Y-90640000D03*
X110373334Y-88860000D03*
X110373334Y-90640000D03*
%TD*%
%TO.C,D21*%
X97960000Y-88860000D03*
X97960000Y-90640000D03*
X101040000Y-88860000D03*
X101040000Y-90640000D03*
%TD*%
%TO.C,D20*%
X88626667Y-88860000D03*
X88626667Y-90640000D03*
X91706667Y-88860000D03*
X91706667Y-90640000D03*
%TD*%
%TO.C,D19*%
X79293334Y-88860000D03*
X79293334Y-90640000D03*
X82373334Y-88860000D03*
X82373334Y-90640000D03*
%TD*%
%TO.C,D18*%
X69960000Y-88860000D03*
X69960000Y-90640000D03*
X73040000Y-88860000D03*
X73040000Y-90640000D03*
%TD*%
%TO.C,D17*%
X60626667Y-88860000D03*
X60626667Y-90640000D03*
X63706667Y-88860000D03*
X63706667Y-90640000D03*
%TD*%
%TO.C,D16*%
X51293334Y-88860000D03*
X51293334Y-90640000D03*
X54373334Y-88860000D03*
X54373334Y-90640000D03*
%TD*%
%TO.C,D15*%
X41960000Y-88860000D03*
X41960000Y-90640000D03*
X45040000Y-88860000D03*
X45040000Y-90640000D03*
%TD*%
%TO.C,D14*%
X32626667Y-88860000D03*
X32626667Y-90640000D03*
X35706667Y-88860000D03*
X35706667Y-90640000D03*
%TD*%
%TO.C,D13*%
X23293334Y-88860000D03*
X23293334Y-90640000D03*
X26373334Y-88860000D03*
X26373334Y-90640000D03*
%TD*%
%TO.C,D12*%
X13960000Y-88860000D03*
X13960000Y-90640000D03*
X17040000Y-88860000D03*
X17040000Y-90640000D03*
%TD*%
%TO.C,D11*%
X4626667Y-88860000D03*
X4626667Y-90640000D03*
X7706667Y-88860000D03*
X7706667Y-90640000D03*
%TD*%
%TO.C,D10*%
X-4706666Y-88860000D03*
X-4706666Y-90640000D03*
X-1626666Y-88860000D03*
X-1626666Y-90640000D03*
%TD*%
%TO.C,D9*%
X-14040000Y-88860000D03*
X-14040000Y-90640000D03*
X-10960000Y-88860000D03*
X-10960000Y-90640000D03*
%TD*%
%TO.C,D8*%
X-23373333Y-88860000D03*
X-23373333Y-90640000D03*
X-20293333Y-88860000D03*
X-20293333Y-90640000D03*
%TD*%
%TO.C,D7*%
X-32706666Y-88860000D03*
X-32706666Y-90640000D03*
X-29626666Y-88860000D03*
X-29626666Y-90640000D03*
%TD*%
%TO.C,D6*%
X-42040000Y-88860000D03*
X-42040000Y-90640000D03*
X-38960000Y-88860000D03*
X-38960000Y-90640000D03*
%TD*%
%TO.C,D5*%
X-51373333Y-88860000D03*
X-51373333Y-90640000D03*
X-48293333Y-88860000D03*
X-48293333Y-90640000D03*
%TD*%
%TO.C,D4*%
X-57626666Y-90640000D03*
X-57626666Y-88860000D03*
X-60706666Y-90640000D03*
X-60706666Y-88860000D03*
%TD*%
%TO.C,D3*%
X-70040000Y-88860000D03*
X-70040000Y-90640000D03*
X-66960000Y-88860000D03*
X-66960000Y-90640000D03*
%TD*%
%TO.C,D2*%
X-79373333Y-88860000D03*
X-79373333Y-90640000D03*
X-76293333Y-88860000D03*
X-76293333Y-90640000D03*
%TD*%
%TO.C,D1*%
X-88706666Y-88860000D03*
X-88706666Y-90640000D03*
X-85626666Y-88860000D03*
X-85626666Y-90640000D03*
%TD*%
%TO.C,C5*%
G36*
G01*
X-82916666Y-90075000D02*
X-82416666Y-90075000D01*
G75*
G02*
X-82191666Y-90300000I0J-225000D01*
G01*
X-82191666Y-90750000D01*
G75*
G02*
X-82416666Y-90975000I-225000J0D01*
G01*
X-82916666Y-90975000D01*
G75*
G02*
X-83141666Y-90750000I0J225000D01*
G01*
X-83141666Y-90300000D01*
G75*
G02*
X-82916666Y-90075000I225000J0D01*
G01*
G37*
G36*
G01*
X-82916666Y-88525000D02*
X-82416666Y-88525000D01*
G75*
G02*
X-82191666Y-88750000I0J-225000D01*
G01*
X-82191666Y-89200000D01*
G75*
G02*
X-82416666Y-89425000I-225000J0D01*
G01*
X-82916666Y-89425000D01*
G75*
G02*
X-83141666Y-89200000I0J225000D01*
G01*
X-83141666Y-88750000D01*
G75*
G02*
X-82916666Y-88525000I225000J0D01*
G01*
G37*
%TD*%
%TO.C,C6*%
G36*
G01*
X-73583333Y-88525000D02*
X-73083333Y-88525000D01*
G75*
G02*
X-72858333Y-88750000I0J-225000D01*
G01*
X-72858333Y-89200000D01*
G75*
G02*
X-73083333Y-89425000I-225000J0D01*
G01*
X-73583333Y-89425000D01*
G75*
G02*
X-73808333Y-89200000I0J225000D01*
G01*
X-73808333Y-88750000D01*
G75*
G02*
X-73583333Y-88525000I225000J0D01*
G01*
G37*
G36*
G01*
X-73583333Y-90075000D02*
X-73083333Y-90075000D01*
G75*
G02*
X-72858333Y-90300000I0J-225000D01*
G01*
X-72858333Y-90750000D01*
G75*
G02*
X-73083333Y-90975000I-225000J0D01*
G01*
X-73583333Y-90975000D01*
G75*
G02*
X-73808333Y-90750000I0J225000D01*
G01*
X-73808333Y-90300000D01*
G75*
G02*
X-73583333Y-90075000I225000J0D01*
G01*
G37*
%TD*%
%TO.C,C44*%
G36*
G01*
X281083334Y-88525000D02*
X281583334Y-88525000D01*
G75*
G02*
X281808334Y-88750000I0J-225000D01*
G01*
X281808334Y-89200000D01*
G75*
G02*
X281583334Y-89425000I-225000J0D01*
G01*
X281083334Y-89425000D01*
G75*
G02*
X280858334Y-89200000I0J225000D01*
G01*
X280858334Y-88750000D01*
G75*
G02*
X281083334Y-88525000I225000J0D01*
G01*
G37*
G36*
G01*
X281083334Y-90075000D02*
X281583334Y-90075000D01*
G75*
G02*
X281808334Y-90300000I0J-225000D01*
G01*
X281808334Y-90750000D01*
G75*
G02*
X281583334Y-90975000I-225000J0D01*
G01*
X281083334Y-90975000D01*
G75*
G02*
X280858334Y-90750000I0J225000D01*
G01*
X280858334Y-90300000D01*
G75*
G02*
X281083334Y-90075000I225000J0D01*
G01*
G37*
%TD*%
%TO.C,C47*%
G36*
G01*
X309083334Y-88525000D02*
X309583334Y-88525000D01*
G75*
G02*
X309808334Y-88750000I0J-225000D01*
G01*
X309808334Y-89200000D01*
G75*
G02*
X309583334Y-89425000I-225000J0D01*
G01*
X309083334Y-89425000D01*
G75*
G02*
X308858334Y-89200000I0J225000D01*
G01*
X308858334Y-88750000D01*
G75*
G02*
X309083334Y-88525000I225000J0D01*
G01*
G37*
G36*
G01*
X309083334Y-90075000D02*
X309583334Y-90075000D01*
G75*
G02*
X309808334Y-90300000I0J-225000D01*
G01*
X309808334Y-90750000D01*
G75*
G02*
X309583334Y-90975000I-225000J0D01*
G01*
X309083334Y-90975000D01*
G75*
G02*
X308858334Y-90750000I0J225000D01*
G01*
X308858334Y-90300000D01*
G75*
G02*
X309083334Y-90075000I225000J0D01*
G01*
G37*
%TD*%
%TO.C,C50*%
G36*
G01*
X337083334Y-88525000D02*
X337583334Y-88525000D01*
G75*
G02*
X337808334Y-88750000I0J-225000D01*
G01*
X337808334Y-89200000D01*
G75*
G02*
X337583334Y-89425000I-225000J0D01*
G01*
X337083334Y-89425000D01*
G75*
G02*
X336858334Y-89200000I0J225000D01*
G01*
X336858334Y-88750000D01*
G75*
G02*
X337083334Y-88525000I225000J0D01*
G01*
G37*
G36*
G01*
X337083334Y-90075000D02*
X337583334Y-90075000D01*
G75*
G02*
X337808334Y-90300000I0J-225000D01*
G01*
X337808334Y-90750000D01*
G75*
G02*
X337583334Y-90975000I-225000J0D01*
G01*
X337083334Y-90975000D01*
G75*
G02*
X336858334Y-90750000I0J225000D01*
G01*
X336858334Y-90300000D01*
G75*
G02*
X337083334Y-90075000I225000J0D01*
G01*
G37*
%TD*%
%TO.C,C37*%
G36*
G01*
X215750000Y-88525000D02*
X216250000Y-88525000D01*
G75*
G02*
X216475000Y-88750000I0J-225000D01*
G01*
X216475000Y-89200000D01*
G75*
G02*
X216250000Y-89425000I-225000J0D01*
G01*
X215750000Y-89425000D01*
G75*
G02*
X215525000Y-89200000I0J225000D01*
G01*
X215525000Y-88750000D01*
G75*
G02*
X215750000Y-88525000I225000J0D01*
G01*
G37*
G36*
G01*
X215750000Y-90075000D02*
X216250000Y-90075000D01*
G75*
G02*
X216475000Y-90300000I0J-225000D01*
G01*
X216475000Y-90750000D01*
G75*
G02*
X216250000Y-90975000I-225000J0D01*
G01*
X215750000Y-90975000D01*
G75*
G02*
X215525000Y-90750000I0J225000D01*
G01*
X215525000Y-90300000D01*
G75*
G02*
X215750000Y-90075000I225000J0D01*
G01*
G37*
%TD*%
%TO.C,C49*%
G36*
G01*
X327750000Y-88525000D02*
X328250000Y-88525000D01*
G75*
G02*
X328475000Y-88750000I0J-225000D01*
G01*
X328475000Y-89200000D01*
G75*
G02*
X328250000Y-89425000I-225000J0D01*
G01*
X327750000Y-89425000D01*
G75*
G02*
X327525000Y-89200000I0J225000D01*
G01*
X327525000Y-88750000D01*
G75*
G02*
X327750000Y-88525000I225000J0D01*
G01*
G37*
G36*
G01*
X327750000Y-90075000D02*
X328250000Y-90075000D01*
G75*
G02*
X328475000Y-90300000I0J-225000D01*
G01*
X328475000Y-90750000D01*
G75*
G02*
X328250000Y-90975000I-225000J0D01*
G01*
X327750000Y-90975000D01*
G75*
G02*
X327525000Y-90750000I0J225000D01*
G01*
X327525000Y-90300000D01*
G75*
G02*
X327750000Y-90075000I225000J0D01*
G01*
G37*
%TD*%
%TO.C,C43*%
G36*
G01*
X271750000Y-88525000D02*
X272250000Y-88525000D01*
G75*
G02*
X272475000Y-88750000I0J-225000D01*
G01*
X272475000Y-89200000D01*
G75*
G02*
X272250000Y-89425000I-225000J0D01*
G01*
X271750000Y-89425000D01*
G75*
G02*
X271525000Y-89200000I0J225000D01*
G01*
X271525000Y-88750000D01*
G75*
G02*
X271750000Y-88525000I225000J0D01*
G01*
G37*
G36*
G01*
X271750000Y-90075000D02*
X272250000Y-90075000D01*
G75*
G02*
X272475000Y-90300000I0J-225000D01*
G01*
X272475000Y-90750000D01*
G75*
G02*
X272250000Y-90975000I-225000J0D01*
G01*
X271750000Y-90975000D01*
G75*
G02*
X271525000Y-90750000I0J225000D01*
G01*
X271525000Y-90300000D01*
G75*
G02*
X271750000Y-90075000I225000J0D01*
G01*
G37*
%TD*%
%TO.C,C46*%
G36*
G01*
X299750000Y-88525000D02*
X300250000Y-88525000D01*
G75*
G02*
X300475000Y-88750000I0J-225000D01*
G01*
X300475000Y-89200000D01*
G75*
G02*
X300250000Y-89425000I-225000J0D01*
G01*
X299750000Y-89425000D01*
G75*
G02*
X299525000Y-89200000I0J225000D01*
G01*
X299525000Y-88750000D01*
G75*
G02*
X299750000Y-88525000I225000J0D01*
G01*
G37*
G36*
G01*
X299750000Y-90075000D02*
X300250000Y-90075000D01*
G75*
G02*
X300475000Y-90300000I0J-225000D01*
G01*
X300475000Y-90750000D01*
G75*
G02*
X300250000Y-90975000I-225000J0D01*
G01*
X299750000Y-90975000D01*
G75*
G02*
X299525000Y-90750000I0J225000D01*
G01*
X299525000Y-90300000D01*
G75*
G02*
X299750000Y-90075000I225000J0D01*
G01*
G37*
%TD*%
%TO.C,C34*%
G36*
G01*
X187750000Y-88525000D02*
X188250000Y-88525000D01*
G75*
G02*
X188475000Y-88750000I0J-225000D01*
G01*
X188475000Y-89200000D01*
G75*
G02*
X188250000Y-89425000I-225000J0D01*
G01*
X187750000Y-89425000D01*
G75*
G02*
X187525000Y-89200000I0J225000D01*
G01*
X187525000Y-88750000D01*
G75*
G02*
X187750000Y-88525000I225000J0D01*
G01*
G37*
G36*
G01*
X187750000Y-90075000D02*
X188250000Y-90075000D01*
G75*
G02*
X188475000Y-90300000I0J-225000D01*
G01*
X188475000Y-90750000D01*
G75*
G02*
X188250000Y-90975000I-225000J0D01*
G01*
X187750000Y-90975000D01*
G75*
G02*
X187525000Y-90750000I0J225000D01*
G01*
X187525000Y-90300000D01*
G75*
G02*
X187750000Y-90075000I225000J0D01*
G01*
G37*
%TD*%
%TO.C,C40*%
G36*
G01*
X243750000Y-88525000D02*
X244250000Y-88525000D01*
G75*
G02*
X244475000Y-88750000I0J-225000D01*
G01*
X244475000Y-89200000D01*
G75*
G02*
X244250000Y-89425000I-225000J0D01*
G01*
X243750000Y-89425000D01*
G75*
G02*
X243525000Y-89200000I0J225000D01*
G01*
X243525000Y-88750000D01*
G75*
G02*
X243750000Y-88525000I225000J0D01*
G01*
G37*
G36*
G01*
X243750000Y-90075000D02*
X244250000Y-90075000D01*
G75*
G02*
X244475000Y-90300000I0J-225000D01*
G01*
X244475000Y-90750000D01*
G75*
G02*
X244250000Y-90975000I-225000J0D01*
G01*
X243750000Y-90975000D01*
G75*
G02*
X243525000Y-90750000I0J225000D01*
G01*
X243525000Y-90300000D01*
G75*
G02*
X243750000Y-90075000I225000J0D01*
G01*
G37*
%TD*%
%TO.C,C41*%
G36*
G01*
X253083334Y-88525000D02*
X253583334Y-88525000D01*
G75*
G02*
X253808334Y-88750000I0J-225000D01*
G01*
X253808334Y-89200000D01*
G75*
G02*
X253583334Y-89425000I-225000J0D01*
G01*
X253083334Y-89425000D01*
G75*
G02*
X252858334Y-89200000I0J225000D01*
G01*
X252858334Y-88750000D01*
G75*
G02*
X253083334Y-88525000I225000J0D01*
G01*
G37*
G36*
G01*
X253083334Y-90075000D02*
X253583334Y-90075000D01*
G75*
G02*
X253808334Y-90300000I0J-225000D01*
G01*
X253808334Y-90750000D01*
G75*
G02*
X253583334Y-90975000I-225000J0D01*
G01*
X253083334Y-90975000D01*
G75*
G02*
X252858334Y-90750000I0J225000D01*
G01*
X252858334Y-90300000D01*
G75*
G02*
X253083334Y-90075000I225000J0D01*
G01*
G37*
%TD*%
%TO.C,C17*%
G36*
G01*
X29083334Y-88525000D02*
X29583334Y-88525000D01*
G75*
G02*
X29808334Y-88750000I0J-225000D01*
G01*
X29808334Y-89200000D01*
G75*
G02*
X29583334Y-89425000I-225000J0D01*
G01*
X29083334Y-89425000D01*
G75*
G02*
X28858334Y-89200000I0J225000D01*
G01*
X28858334Y-88750000D01*
G75*
G02*
X29083334Y-88525000I225000J0D01*
G01*
G37*
G36*
G01*
X29083334Y-90075000D02*
X29583334Y-90075000D01*
G75*
G02*
X29808334Y-90300000I0J-225000D01*
G01*
X29808334Y-90750000D01*
G75*
G02*
X29583334Y-90975000I-225000J0D01*
G01*
X29083334Y-90975000D01*
G75*
G02*
X28858334Y-90750000I0J225000D01*
G01*
X28858334Y-90300000D01*
G75*
G02*
X29083334Y-90075000I225000J0D01*
G01*
G37*
%TD*%
%TO.C,C38*%
G36*
G01*
X225083334Y-88525000D02*
X225583334Y-88525000D01*
G75*
G02*
X225808334Y-88750000I0J-225000D01*
G01*
X225808334Y-89200000D01*
G75*
G02*
X225583334Y-89425000I-225000J0D01*
G01*
X225083334Y-89425000D01*
G75*
G02*
X224858334Y-89200000I0J225000D01*
G01*
X224858334Y-88750000D01*
G75*
G02*
X225083334Y-88525000I225000J0D01*
G01*
G37*
G36*
G01*
X225083334Y-90075000D02*
X225583334Y-90075000D01*
G75*
G02*
X225808334Y-90300000I0J-225000D01*
G01*
X225808334Y-90750000D01*
G75*
G02*
X225583334Y-90975000I-225000J0D01*
G01*
X225083334Y-90975000D01*
G75*
G02*
X224858334Y-90750000I0J225000D01*
G01*
X224858334Y-90300000D01*
G75*
G02*
X225083334Y-90075000I225000J0D01*
G01*
G37*
%TD*%
%TO.C,C35*%
G36*
G01*
X197083334Y-88525000D02*
X197583334Y-88525000D01*
G75*
G02*
X197808334Y-88750000I0J-225000D01*
G01*
X197808334Y-89200000D01*
G75*
G02*
X197583334Y-89425000I-225000J0D01*
G01*
X197083334Y-89425000D01*
G75*
G02*
X196858334Y-89200000I0J225000D01*
G01*
X196858334Y-88750000D01*
G75*
G02*
X197083334Y-88525000I225000J0D01*
G01*
G37*
G36*
G01*
X197083334Y-90075000D02*
X197583334Y-90075000D01*
G75*
G02*
X197808334Y-90300000I0J-225000D01*
G01*
X197808334Y-90750000D01*
G75*
G02*
X197583334Y-90975000I-225000J0D01*
G01*
X197083334Y-90975000D01*
G75*
G02*
X196858334Y-90750000I0J225000D01*
G01*
X196858334Y-90300000D01*
G75*
G02*
X197083334Y-90075000I225000J0D01*
G01*
G37*
%TD*%
%TO.C,C14*%
G36*
G01*
X1083334Y-88525000D02*
X1583334Y-88525000D01*
G75*
G02*
X1808334Y-88750000I0J-225000D01*
G01*
X1808334Y-89200000D01*
G75*
G02*
X1583334Y-89425000I-225000J0D01*
G01*
X1083334Y-89425000D01*
G75*
G02*
X858334Y-89200000I0J225000D01*
G01*
X858334Y-88750000D01*
G75*
G02*
X1083334Y-88525000I225000J0D01*
G01*
G37*
G36*
G01*
X1083334Y-90075000D02*
X1583334Y-90075000D01*
G75*
G02*
X1808334Y-90300000I0J-225000D01*
G01*
X1808334Y-90750000D01*
G75*
G02*
X1583334Y-90975000I-225000J0D01*
G01*
X1083334Y-90975000D01*
G75*
G02*
X858334Y-90750000I0J225000D01*
G01*
X858334Y-90300000D01*
G75*
G02*
X1083334Y-90075000I225000J0D01*
G01*
G37*
%TD*%
%TO.C,C11*%
G36*
G01*
X-26916666Y-88525000D02*
X-26416666Y-88525000D01*
G75*
G02*
X-26191666Y-88750000I0J-225000D01*
G01*
X-26191666Y-89200000D01*
G75*
G02*
X-26416666Y-89425000I-225000J0D01*
G01*
X-26916666Y-89425000D01*
G75*
G02*
X-27141666Y-89200000I0J225000D01*
G01*
X-27141666Y-88750000D01*
G75*
G02*
X-26916666Y-88525000I225000J0D01*
G01*
G37*
G36*
G01*
X-26916666Y-90075000D02*
X-26416666Y-90075000D01*
G75*
G02*
X-26191666Y-90300000I0J-225000D01*
G01*
X-26191666Y-90750000D01*
G75*
G02*
X-26416666Y-90975000I-225000J0D01*
G01*
X-26916666Y-90975000D01*
G75*
G02*
X-27141666Y-90750000I0J225000D01*
G01*
X-27141666Y-90300000D01*
G75*
G02*
X-26916666Y-90075000I225000J0D01*
G01*
G37*
%TD*%
%TO.C,C32*%
G36*
G01*
X169083334Y-88525000D02*
X169583334Y-88525000D01*
G75*
G02*
X169808334Y-88750000I0J-225000D01*
G01*
X169808334Y-89200000D01*
G75*
G02*
X169583334Y-89425000I-225000J0D01*
G01*
X169083334Y-89425000D01*
G75*
G02*
X168858334Y-89200000I0J225000D01*
G01*
X168858334Y-88750000D01*
G75*
G02*
X169083334Y-88525000I225000J0D01*
G01*
G37*
G36*
G01*
X169083334Y-90075000D02*
X169583334Y-90075000D01*
G75*
G02*
X169808334Y-90300000I0J-225000D01*
G01*
X169808334Y-90750000D01*
G75*
G02*
X169583334Y-90975000I-225000J0D01*
G01*
X169083334Y-90975000D01*
G75*
G02*
X168858334Y-90750000I0J225000D01*
G01*
X168858334Y-90300000D01*
G75*
G02*
X169083334Y-90075000I225000J0D01*
G01*
G37*
%TD*%
%TO.C,C29*%
G36*
G01*
X141083334Y-88525000D02*
X141583334Y-88525000D01*
G75*
G02*
X141808334Y-88750000I0J-225000D01*
G01*
X141808334Y-89200000D01*
G75*
G02*
X141583334Y-89425000I-225000J0D01*
G01*
X141083334Y-89425000D01*
G75*
G02*
X140858334Y-89200000I0J225000D01*
G01*
X140858334Y-88750000D01*
G75*
G02*
X141083334Y-88525000I225000J0D01*
G01*
G37*
G36*
G01*
X141083334Y-90075000D02*
X141583334Y-90075000D01*
G75*
G02*
X141808334Y-90300000I0J-225000D01*
G01*
X141808334Y-90750000D01*
G75*
G02*
X141583334Y-90975000I-225000J0D01*
G01*
X141083334Y-90975000D01*
G75*
G02*
X140858334Y-90750000I0J225000D01*
G01*
X140858334Y-90300000D01*
G75*
G02*
X141083334Y-90075000I225000J0D01*
G01*
G37*
%TD*%
%TO.C,C26*%
G36*
G01*
X113083334Y-88525000D02*
X113583334Y-88525000D01*
G75*
G02*
X113808334Y-88750000I0J-225000D01*
G01*
X113808334Y-89200000D01*
G75*
G02*
X113583334Y-89425000I-225000J0D01*
G01*
X113083334Y-89425000D01*
G75*
G02*
X112858334Y-89200000I0J225000D01*
G01*
X112858334Y-88750000D01*
G75*
G02*
X113083334Y-88525000I225000J0D01*
G01*
G37*
G36*
G01*
X113083334Y-90075000D02*
X113583334Y-90075000D01*
G75*
G02*
X113808334Y-90300000I0J-225000D01*
G01*
X113808334Y-90750000D01*
G75*
G02*
X113583334Y-90975000I-225000J0D01*
G01*
X113083334Y-90975000D01*
G75*
G02*
X112858334Y-90750000I0J225000D01*
G01*
X112858334Y-90300000D01*
G75*
G02*
X113083334Y-90075000I225000J0D01*
G01*
G37*
%TD*%
%TO.C,C23*%
G36*
G01*
X85083334Y-88525000D02*
X85583334Y-88525000D01*
G75*
G02*
X85808334Y-88750000I0J-225000D01*
G01*
X85808334Y-89200000D01*
G75*
G02*
X85583334Y-89425000I-225000J0D01*
G01*
X85083334Y-89425000D01*
G75*
G02*
X84858334Y-89200000I0J225000D01*
G01*
X84858334Y-88750000D01*
G75*
G02*
X85083334Y-88525000I225000J0D01*
G01*
G37*
G36*
G01*
X85083334Y-90075000D02*
X85583334Y-90075000D01*
G75*
G02*
X85808334Y-90300000I0J-225000D01*
G01*
X85808334Y-90750000D01*
G75*
G02*
X85583334Y-90975000I-225000J0D01*
G01*
X85083334Y-90975000D01*
G75*
G02*
X84858334Y-90750000I0J225000D01*
G01*
X84858334Y-90300000D01*
G75*
G02*
X85083334Y-90075000I225000J0D01*
G01*
G37*
%TD*%
%TO.C,C20*%
G36*
G01*
X57083334Y-88525000D02*
X57583334Y-88525000D01*
G75*
G02*
X57808334Y-88750000I0J-225000D01*
G01*
X57808334Y-89200000D01*
G75*
G02*
X57583334Y-89425000I-225000J0D01*
G01*
X57083334Y-89425000D01*
G75*
G02*
X56858334Y-89200000I0J225000D01*
G01*
X56858334Y-88750000D01*
G75*
G02*
X57083334Y-88525000I225000J0D01*
G01*
G37*
G36*
G01*
X57083334Y-90075000D02*
X57583334Y-90075000D01*
G75*
G02*
X57808334Y-90300000I0J-225000D01*
G01*
X57808334Y-90750000D01*
G75*
G02*
X57583334Y-90975000I-225000J0D01*
G01*
X57083334Y-90975000D01*
G75*
G02*
X56858334Y-90750000I0J225000D01*
G01*
X56858334Y-90300000D01*
G75*
G02*
X57083334Y-90075000I225000J0D01*
G01*
G37*
%TD*%
%TO.C,C8*%
G36*
G01*
X-54916666Y-88525000D02*
X-54416666Y-88525000D01*
G75*
G02*
X-54191666Y-88750000I0J-225000D01*
G01*
X-54191666Y-89200000D01*
G75*
G02*
X-54416666Y-89425000I-225000J0D01*
G01*
X-54916666Y-89425000D01*
G75*
G02*
X-55141666Y-89200000I0J225000D01*
G01*
X-55141666Y-88750000D01*
G75*
G02*
X-54916666Y-88525000I225000J0D01*
G01*
G37*
G36*
G01*
X-54916666Y-90075000D02*
X-54416666Y-90075000D01*
G75*
G02*
X-54191666Y-90300000I0J-225000D01*
G01*
X-54191666Y-90750000D01*
G75*
G02*
X-54416666Y-90975000I-225000J0D01*
G01*
X-54916666Y-90975000D01*
G75*
G02*
X-55141666Y-90750000I0J225000D01*
G01*
X-55141666Y-90300000D01*
G75*
G02*
X-54916666Y-90075000I225000J0D01*
G01*
G37*
%TD*%
%TO.C,C27*%
G36*
G01*
X122416667Y-90075000D02*
X122916667Y-90075000D01*
G75*
G02*
X123141667Y-90300000I0J-225000D01*
G01*
X123141667Y-90750000D01*
G75*
G02*
X122916667Y-90975000I-225000J0D01*
G01*
X122416667Y-90975000D01*
G75*
G02*
X122191667Y-90750000I0J225000D01*
G01*
X122191667Y-90300000D01*
G75*
G02*
X122416667Y-90075000I225000J0D01*
G01*
G37*
G36*
G01*
X122416667Y-88525000D02*
X122916667Y-88525000D01*
G75*
G02*
X123141667Y-88750000I0J-225000D01*
G01*
X123141667Y-89200000D01*
G75*
G02*
X122916667Y-89425000I-225000J0D01*
G01*
X122416667Y-89425000D01*
G75*
G02*
X122191667Y-89200000I0J225000D01*
G01*
X122191667Y-88750000D01*
G75*
G02*
X122416667Y-88525000I225000J0D01*
G01*
G37*
%TD*%
%TO.C,C48*%
G36*
G01*
X318416667Y-90075000D02*
X318916667Y-90075000D01*
G75*
G02*
X319141667Y-90300000I0J-225000D01*
G01*
X319141667Y-90750000D01*
G75*
G02*
X318916667Y-90975000I-225000J0D01*
G01*
X318416667Y-90975000D01*
G75*
G02*
X318191667Y-90750000I0J225000D01*
G01*
X318191667Y-90300000D01*
G75*
G02*
X318416667Y-90075000I225000J0D01*
G01*
G37*
G36*
G01*
X318416667Y-88525000D02*
X318916667Y-88525000D01*
G75*
G02*
X319141667Y-88750000I0J-225000D01*
G01*
X319141667Y-89200000D01*
G75*
G02*
X318916667Y-89425000I-225000J0D01*
G01*
X318416667Y-89425000D01*
G75*
G02*
X318191667Y-89200000I0J225000D01*
G01*
X318191667Y-88750000D01*
G75*
G02*
X318416667Y-88525000I225000J0D01*
G01*
G37*
%TD*%
%TO.C,C30*%
G36*
G01*
X150416667Y-90075000D02*
X150916667Y-90075000D01*
G75*
G02*
X151141667Y-90300000I0J-225000D01*
G01*
X151141667Y-90750000D01*
G75*
G02*
X150916667Y-90975000I-225000J0D01*
G01*
X150416667Y-90975000D01*
G75*
G02*
X150191667Y-90750000I0J225000D01*
G01*
X150191667Y-90300000D01*
G75*
G02*
X150416667Y-90075000I225000J0D01*
G01*
G37*
G36*
G01*
X150416667Y-88525000D02*
X150916667Y-88525000D01*
G75*
G02*
X151141667Y-88750000I0J-225000D01*
G01*
X151141667Y-89200000D01*
G75*
G02*
X150916667Y-89425000I-225000J0D01*
G01*
X150416667Y-89425000D01*
G75*
G02*
X150191667Y-89200000I0J225000D01*
G01*
X150191667Y-88750000D01*
G75*
G02*
X150416667Y-88525000I225000J0D01*
G01*
G37*
%TD*%
%TO.C,C51*%
G36*
G01*
X346416667Y-90075000D02*
X346916667Y-90075000D01*
G75*
G02*
X347141667Y-90300000I0J-225000D01*
G01*
X347141667Y-90750000D01*
G75*
G02*
X346916667Y-90975000I-225000J0D01*
G01*
X346416667Y-90975000D01*
G75*
G02*
X346191667Y-90750000I0J225000D01*
G01*
X346191667Y-90300000D01*
G75*
G02*
X346416667Y-90075000I225000J0D01*
G01*
G37*
G36*
G01*
X346416667Y-88525000D02*
X346916667Y-88525000D01*
G75*
G02*
X347141667Y-88750000I0J-225000D01*
G01*
X347141667Y-89200000D01*
G75*
G02*
X346916667Y-89425000I-225000J0D01*
G01*
X346416667Y-89425000D01*
G75*
G02*
X346191667Y-89200000I0J225000D01*
G01*
X346191667Y-88750000D01*
G75*
G02*
X346416667Y-88525000I225000J0D01*
G01*
G37*
%TD*%
%TO.C,C12*%
G36*
G01*
X-17583333Y-90075000D02*
X-17083333Y-90075000D01*
G75*
G02*
X-16858333Y-90300000I0J-225000D01*
G01*
X-16858333Y-90750000D01*
G75*
G02*
X-17083333Y-90975000I-225000J0D01*
G01*
X-17583333Y-90975000D01*
G75*
G02*
X-17808333Y-90750000I0J225000D01*
G01*
X-17808333Y-90300000D01*
G75*
G02*
X-17583333Y-90075000I225000J0D01*
G01*
G37*
G36*
G01*
X-17583333Y-88525000D02*
X-17083333Y-88525000D01*
G75*
G02*
X-16858333Y-88750000I0J-225000D01*
G01*
X-16858333Y-89200000D01*
G75*
G02*
X-17083333Y-89425000I-225000J0D01*
G01*
X-17583333Y-89425000D01*
G75*
G02*
X-17808333Y-89200000I0J225000D01*
G01*
X-17808333Y-88750000D01*
G75*
G02*
X-17583333Y-88525000I225000J0D01*
G01*
G37*
%TD*%
%TO.C,C36*%
G36*
G01*
X206416667Y-90075000D02*
X206916667Y-90075000D01*
G75*
G02*
X207141667Y-90300000I0J-225000D01*
G01*
X207141667Y-90750000D01*
G75*
G02*
X206916667Y-90975000I-225000J0D01*
G01*
X206416667Y-90975000D01*
G75*
G02*
X206191667Y-90750000I0J225000D01*
G01*
X206191667Y-90300000D01*
G75*
G02*
X206416667Y-90075000I225000J0D01*
G01*
G37*
G36*
G01*
X206416667Y-88525000D02*
X206916667Y-88525000D01*
G75*
G02*
X207141667Y-88750000I0J-225000D01*
G01*
X207141667Y-89200000D01*
G75*
G02*
X206916667Y-89425000I-225000J0D01*
G01*
X206416667Y-89425000D01*
G75*
G02*
X206191667Y-89200000I0J225000D01*
G01*
X206191667Y-88750000D01*
G75*
G02*
X206416667Y-88525000I225000J0D01*
G01*
G37*
%TD*%
%TO.C,C18*%
G36*
G01*
X38416667Y-90075000D02*
X38916667Y-90075000D01*
G75*
G02*
X39141667Y-90300000I0J-225000D01*
G01*
X39141667Y-90750000D01*
G75*
G02*
X38916667Y-90975000I-225000J0D01*
G01*
X38416667Y-90975000D01*
G75*
G02*
X38191667Y-90750000I0J225000D01*
G01*
X38191667Y-90300000D01*
G75*
G02*
X38416667Y-90075000I225000J0D01*
G01*
G37*
G36*
G01*
X38416667Y-88525000D02*
X38916667Y-88525000D01*
G75*
G02*
X39141667Y-88750000I0J-225000D01*
G01*
X39141667Y-89200000D01*
G75*
G02*
X38916667Y-89425000I-225000J0D01*
G01*
X38416667Y-89425000D01*
G75*
G02*
X38191667Y-89200000I0J225000D01*
G01*
X38191667Y-88750000D01*
G75*
G02*
X38416667Y-88525000I225000J0D01*
G01*
G37*
%TD*%
%TO.C,C42*%
G36*
G01*
X262416667Y-90075000D02*
X262916667Y-90075000D01*
G75*
G02*
X263141667Y-90300000I0J-225000D01*
G01*
X263141667Y-90750000D01*
G75*
G02*
X262916667Y-90975000I-225000J0D01*
G01*
X262416667Y-90975000D01*
G75*
G02*
X262191667Y-90750000I0J225000D01*
G01*
X262191667Y-90300000D01*
G75*
G02*
X262416667Y-90075000I225000J0D01*
G01*
G37*
G36*
G01*
X262416667Y-88525000D02*
X262916667Y-88525000D01*
G75*
G02*
X263141667Y-88750000I0J-225000D01*
G01*
X263141667Y-89200000D01*
G75*
G02*
X262916667Y-89425000I-225000J0D01*
G01*
X262416667Y-89425000D01*
G75*
G02*
X262191667Y-89200000I0J225000D01*
G01*
X262191667Y-88750000D01*
G75*
G02*
X262416667Y-88525000I225000J0D01*
G01*
G37*
%TD*%
%TO.C,C15*%
G36*
G01*
X10416667Y-90075000D02*
X10916667Y-90075000D01*
G75*
G02*
X11141667Y-90300000I0J-225000D01*
G01*
X11141667Y-90750000D01*
G75*
G02*
X10916667Y-90975000I-225000J0D01*
G01*
X10416667Y-90975000D01*
G75*
G02*
X10191667Y-90750000I0J225000D01*
G01*
X10191667Y-90300000D01*
G75*
G02*
X10416667Y-90075000I225000J0D01*
G01*
G37*
G36*
G01*
X10416667Y-88525000D02*
X10916667Y-88525000D01*
G75*
G02*
X11141667Y-88750000I0J-225000D01*
G01*
X11141667Y-89200000D01*
G75*
G02*
X10916667Y-89425000I-225000J0D01*
G01*
X10416667Y-89425000D01*
G75*
G02*
X10191667Y-89200000I0J225000D01*
G01*
X10191667Y-88750000D01*
G75*
G02*
X10416667Y-88525000I225000J0D01*
G01*
G37*
%TD*%
%TO.C,C33*%
G36*
G01*
X178416667Y-90075000D02*
X178916667Y-90075000D01*
G75*
G02*
X179141667Y-90300000I0J-225000D01*
G01*
X179141667Y-90750000D01*
G75*
G02*
X178916667Y-90975000I-225000J0D01*
G01*
X178416667Y-90975000D01*
G75*
G02*
X178191667Y-90750000I0J225000D01*
G01*
X178191667Y-90300000D01*
G75*
G02*
X178416667Y-90075000I225000J0D01*
G01*
G37*
G36*
G01*
X178416667Y-88525000D02*
X178916667Y-88525000D01*
G75*
G02*
X179141667Y-88750000I0J-225000D01*
G01*
X179141667Y-89200000D01*
G75*
G02*
X178916667Y-89425000I-225000J0D01*
G01*
X178416667Y-89425000D01*
G75*
G02*
X178191667Y-89200000I0J225000D01*
G01*
X178191667Y-88750000D01*
G75*
G02*
X178416667Y-88525000I225000J0D01*
G01*
G37*
%TD*%
%TO.C,C39*%
G36*
G01*
X234416667Y-90075000D02*
X234916667Y-90075000D01*
G75*
G02*
X235141667Y-90300000I0J-225000D01*
G01*
X235141667Y-90750000D01*
G75*
G02*
X234916667Y-90975000I-225000J0D01*
G01*
X234416667Y-90975000D01*
G75*
G02*
X234191667Y-90750000I0J225000D01*
G01*
X234191667Y-90300000D01*
G75*
G02*
X234416667Y-90075000I225000J0D01*
G01*
G37*
G36*
G01*
X234416667Y-88525000D02*
X234916667Y-88525000D01*
G75*
G02*
X235141667Y-88750000I0J-225000D01*
G01*
X235141667Y-89200000D01*
G75*
G02*
X234916667Y-89425000I-225000J0D01*
G01*
X234416667Y-89425000D01*
G75*
G02*
X234191667Y-89200000I0J225000D01*
G01*
X234191667Y-88750000D01*
G75*
G02*
X234416667Y-88525000I225000J0D01*
G01*
G37*
%TD*%
%TO.C,C24*%
G36*
G01*
X94416667Y-90075000D02*
X94916667Y-90075000D01*
G75*
G02*
X95141667Y-90300000I0J-225000D01*
G01*
X95141667Y-90750000D01*
G75*
G02*
X94916667Y-90975000I-225000J0D01*
G01*
X94416667Y-90975000D01*
G75*
G02*
X94191667Y-90750000I0J225000D01*
G01*
X94191667Y-90300000D01*
G75*
G02*
X94416667Y-90075000I225000J0D01*
G01*
G37*
G36*
G01*
X94416667Y-88525000D02*
X94916667Y-88525000D01*
G75*
G02*
X95141667Y-88750000I0J-225000D01*
G01*
X95141667Y-89200000D01*
G75*
G02*
X94916667Y-89425000I-225000J0D01*
G01*
X94416667Y-89425000D01*
G75*
G02*
X94191667Y-89200000I0J225000D01*
G01*
X94191667Y-88750000D01*
G75*
G02*
X94416667Y-88525000I225000J0D01*
G01*
G37*
%TD*%
%TO.C,C21*%
G36*
G01*
X66416667Y-90075000D02*
X66916667Y-90075000D01*
G75*
G02*
X67141667Y-90300000I0J-225000D01*
G01*
X67141667Y-90750000D01*
G75*
G02*
X66916667Y-90975000I-225000J0D01*
G01*
X66416667Y-90975000D01*
G75*
G02*
X66191667Y-90750000I0J225000D01*
G01*
X66191667Y-90300000D01*
G75*
G02*
X66416667Y-90075000I225000J0D01*
G01*
G37*
G36*
G01*
X66416667Y-88525000D02*
X66916667Y-88525000D01*
G75*
G02*
X67141667Y-88750000I0J-225000D01*
G01*
X67141667Y-89200000D01*
G75*
G02*
X66916667Y-89425000I-225000J0D01*
G01*
X66416667Y-89425000D01*
G75*
G02*
X66191667Y-89200000I0J225000D01*
G01*
X66191667Y-88750000D01*
G75*
G02*
X66416667Y-88525000I225000J0D01*
G01*
G37*
%TD*%
%TO.C,C9*%
G36*
G01*
X-45583333Y-90075000D02*
X-45083333Y-90075000D01*
G75*
G02*
X-44858333Y-90300000I0J-225000D01*
G01*
X-44858333Y-90750000D01*
G75*
G02*
X-45083333Y-90975000I-225000J0D01*
G01*
X-45583333Y-90975000D01*
G75*
G02*
X-45808333Y-90750000I0J225000D01*
G01*
X-45808333Y-90300000D01*
G75*
G02*
X-45583333Y-90075000I225000J0D01*
G01*
G37*
G36*
G01*
X-45583333Y-88525000D02*
X-45083333Y-88525000D01*
G75*
G02*
X-44858333Y-88750000I0J-225000D01*
G01*
X-44858333Y-89200000D01*
G75*
G02*
X-45083333Y-89425000I-225000J0D01*
G01*
X-45583333Y-89425000D01*
G75*
G02*
X-45808333Y-89200000I0J225000D01*
G01*
X-45808333Y-88750000D01*
G75*
G02*
X-45583333Y-88525000I225000J0D01*
G01*
G37*
%TD*%
%TO.C,C45*%
G36*
G01*
X290416667Y-90075000D02*
X290916667Y-90075000D01*
G75*
G02*
X291141667Y-90300000I0J-225000D01*
G01*
X291141667Y-90750000D01*
G75*
G02*
X290916667Y-90975000I-225000J0D01*
G01*
X290416667Y-90975000D01*
G75*
G02*
X290191667Y-90750000I0J225000D01*
G01*
X290191667Y-90300000D01*
G75*
G02*
X290416667Y-90075000I225000J0D01*
G01*
G37*
G36*
G01*
X290416667Y-88525000D02*
X290916667Y-88525000D01*
G75*
G02*
X291141667Y-88750000I0J-225000D01*
G01*
X291141667Y-89200000D01*
G75*
G02*
X290916667Y-89425000I-225000J0D01*
G01*
X290416667Y-89425000D01*
G75*
G02*
X290191667Y-89200000I0J225000D01*
G01*
X290191667Y-88750000D01*
G75*
G02*
X290416667Y-88525000I225000J0D01*
G01*
G37*
%TD*%
%TO.C,C31*%
G36*
G01*
X159750000Y-88525000D02*
X160250000Y-88525000D01*
G75*
G02*
X160475000Y-88750000I0J-225000D01*
G01*
X160475000Y-89200000D01*
G75*
G02*
X160250000Y-89425000I-225000J0D01*
G01*
X159750000Y-89425000D01*
G75*
G02*
X159525000Y-89200000I0J225000D01*
G01*
X159525000Y-88750000D01*
G75*
G02*
X159750000Y-88525000I225000J0D01*
G01*
G37*
G36*
G01*
X159750000Y-90075000D02*
X160250000Y-90075000D01*
G75*
G02*
X160475000Y-90300000I0J-225000D01*
G01*
X160475000Y-90750000D01*
G75*
G02*
X160250000Y-90975000I-225000J0D01*
G01*
X159750000Y-90975000D01*
G75*
G02*
X159525000Y-90750000I0J225000D01*
G01*
X159525000Y-90300000D01*
G75*
G02*
X159750000Y-90075000I225000J0D01*
G01*
G37*
%TD*%
%TO.C,C25*%
G36*
G01*
X103750000Y-88525000D02*
X104250000Y-88525000D01*
G75*
G02*
X104475000Y-88750000I0J-225000D01*
G01*
X104475000Y-89200000D01*
G75*
G02*
X104250000Y-89425000I-225000J0D01*
G01*
X103750000Y-89425000D01*
G75*
G02*
X103525000Y-89200000I0J225000D01*
G01*
X103525000Y-88750000D01*
G75*
G02*
X103750000Y-88525000I225000J0D01*
G01*
G37*
G36*
G01*
X103750000Y-90075000D02*
X104250000Y-90075000D01*
G75*
G02*
X104475000Y-90300000I0J-225000D01*
G01*
X104475000Y-90750000D01*
G75*
G02*
X104250000Y-90975000I-225000J0D01*
G01*
X103750000Y-90975000D01*
G75*
G02*
X103525000Y-90750000I0J225000D01*
G01*
X103525000Y-90300000D01*
G75*
G02*
X103750000Y-90075000I225000J0D01*
G01*
G37*
%TD*%
%TO.C,C7*%
G36*
G01*
X-64250000Y-90075000D02*
X-63750000Y-90075000D01*
G75*
G02*
X-63525000Y-90300000I0J-225000D01*
G01*
X-63525000Y-90750000D01*
G75*
G02*
X-63750000Y-90975000I-225000J0D01*
G01*
X-64250000Y-90975000D01*
G75*
G02*
X-64475000Y-90750000I0J225000D01*
G01*
X-64475000Y-90300000D01*
G75*
G02*
X-64250000Y-90075000I225000J0D01*
G01*
G37*
G36*
G01*
X-64250000Y-88525000D02*
X-63750000Y-88525000D01*
G75*
G02*
X-63525000Y-88750000I0J-225000D01*
G01*
X-63525000Y-89200000D01*
G75*
G02*
X-63750000Y-89425000I-225000J0D01*
G01*
X-64250000Y-89425000D01*
G75*
G02*
X-64475000Y-89200000I0J225000D01*
G01*
X-64475000Y-88750000D01*
G75*
G02*
X-64250000Y-88525000I225000J0D01*
G01*
G37*
%TD*%
%TO.C,C19*%
G36*
G01*
X47750000Y-88525000D02*
X48250000Y-88525000D01*
G75*
G02*
X48475000Y-88750000I0J-225000D01*
G01*
X48475000Y-89200000D01*
G75*
G02*
X48250000Y-89425000I-225000J0D01*
G01*
X47750000Y-89425000D01*
G75*
G02*
X47525000Y-89200000I0J225000D01*
G01*
X47525000Y-88750000D01*
G75*
G02*
X47750000Y-88525000I225000J0D01*
G01*
G37*
G36*
G01*
X47750000Y-90075000D02*
X48250000Y-90075000D01*
G75*
G02*
X48475000Y-90300000I0J-225000D01*
G01*
X48475000Y-90750000D01*
G75*
G02*
X48250000Y-90975000I-225000J0D01*
G01*
X47750000Y-90975000D01*
G75*
G02*
X47525000Y-90750000I0J225000D01*
G01*
X47525000Y-90300000D01*
G75*
G02*
X47750000Y-90075000I225000J0D01*
G01*
G37*
%TD*%
%TO.C,C16*%
G36*
G01*
X19750000Y-88525000D02*
X20250000Y-88525000D01*
G75*
G02*
X20475000Y-88750000I0J-225000D01*
G01*
X20475000Y-89200000D01*
G75*
G02*
X20250000Y-89425000I-225000J0D01*
G01*
X19750000Y-89425000D01*
G75*
G02*
X19525000Y-89200000I0J225000D01*
G01*
X19525000Y-88750000D01*
G75*
G02*
X19750000Y-88525000I225000J0D01*
G01*
G37*
G36*
G01*
X19750000Y-90075000D02*
X20250000Y-90075000D01*
G75*
G02*
X20475000Y-90300000I0J-225000D01*
G01*
X20475000Y-90750000D01*
G75*
G02*
X20250000Y-90975000I-225000J0D01*
G01*
X19750000Y-90975000D01*
G75*
G02*
X19525000Y-90750000I0J225000D01*
G01*
X19525000Y-90300000D01*
G75*
G02*
X19750000Y-90075000I225000J0D01*
G01*
G37*
%TD*%
%TO.C,C28*%
G36*
G01*
X131750000Y-88525000D02*
X132250000Y-88525000D01*
G75*
G02*
X132475000Y-88750000I0J-225000D01*
G01*
X132475000Y-89200000D01*
G75*
G02*
X132250000Y-89425000I-225000J0D01*
G01*
X131750000Y-89425000D01*
G75*
G02*
X131525000Y-89200000I0J225000D01*
G01*
X131525000Y-88750000D01*
G75*
G02*
X131750000Y-88525000I225000J0D01*
G01*
G37*
G36*
G01*
X131750000Y-90075000D02*
X132250000Y-90075000D01*
G75*
G02*
X132475000Y-90300000I0J-225000D01*
G01*
X132475000Y-90750000D01*
G75*
G02*
X132250000Y-90975000I-225000J0D01*
G01*
X131750000Y-90975000D01*
G75*
G02*
X131525000Y-90750000I0J225000D01*
G01*
X131525000Y-90300000D01*
G75*
G02*
X131750000Y-90075000I225000J0D01*
G01*
G37*
%TD*%
%TO.C,C22*%
G36*
G01*
X75750000Y-88525000D02*
X76250000Y-88525000D01*
G75*
G02*
X76475000Y-88750000I0J-225000D01*
G01*
X76475000Y-89200000D01*
G75*
G02*
X76250000Y-89425000I-225000J0D01*
G01*
X75750000Y-89425000D01*
G75*
G02*
X75525000Y-89200000I0J225000D01*
G01*
X75525000Y-88750000D01*
G75*
G02*
X75750000Y-88525000I225000J0D01*
G01*
G37*
G36*
G01*
X75750000Y-90075000D02*
X76250000Y-90075000D01*
G75*
G02*
X76475000Y-90300000I0J-225000D01*
G01*
X76475000Y-90750000D01*
G75*
G02*
X76250000Y-90975000I-225000J0D01*
G01*
X75750000Y-90975000D01*
G75*
G02*
X75525000Y-90750000I0J225000D01*
G01*
X75525000Y-90300000D01*
G75*
G02*
X75750000Y-90075000I225000J0D01*
G01*
G37*
%TD*%
%TO.C,C13*%
G36*
G01*
X-8250000Y-88525000D02*
X-7750000Y-88525000D01*
G75*
G02*
X-7525000Y-88750000I0J-225000D01*
G01*
X-7525000Y-89200000D01*
G75*
G02*
X-7750000Y-89425000I-225000J0D01*
G01*
X-8250000Y-89425000D01*
G75*
G02*
X-8475000Y-89200000I0J225000D01*
G01*
X-8475000Y-88750000D01*
G75*
G02*
X-8250000Y-88525000I225000J0D01*
G01*
G37*
G36*
G01*
X-8250000Y-90075000D02*
X-7750000Y-90075000D01*
G75*
G02*
X-7525000Y-90300000I0J-225000D01*
G01*
X-7525000Y-90750000D01*
G75*
G02*
X-7750000Y-90975000I-225000J0D01*
G01*
X-8250000Y-90975000D01*
G75*
G02*
X-8475000Y-90750000I0J225000D01*
G01*
X-8475000Y-90300000D01*
G75*
G02*
X-8250000Y-90075000I225000J0D01*
G01*
G37*
%TD*%
%TO.C,C10*%
G36*
G01*
X-36250000Y-88525000D02*
X-35750000Y-88525000D01*
G75*
G02*
X-35525000Y-88750000I0J-225000D01*
G01*
X-35525000Y-89200000D01*
G75*
G02*
X-35750000Y-89425000I-225000J0D01*
G01*
X-36250000Y-89425000D01*
G75*
G02*
X-36475000Y-89200000I0J225000D01*
G01*
X-36475000Y-88750000D01*
G75*
G02*
X-36250000Y-88525000I225000J0D01*
G01*
G37*
G36*
G01*
X-36250000Y-90075000D02*
X-35750000Y-90075000D01*
G75*
G02*
X-35525000Y-90300000I0J-225000D01*
G01*
X-35525000Y-90750000D01*
G75*
G02*
X-35750000Y-90975000I-225000J0D01*
G01*
X-36250000Y-90975000D01*
G75*
G02*
X-36475000Y-90750000I0J225000D01*
G01*
X-36475000Y-90300000D01*
G75*
G02*
X-36250000Y-90075000I225000J0D01*
G01*
G37*
%TD*%
M02*
