%TF.GenerationSoftware,KiCad,Pcbnew,(5.1.7)-1*%
%TF.CreationDate,2021-02-22T22:43:04-05:00*%
%TF.ProjectId,LEDBoard_Panelize,4c454442-6f61-4726-945f-50616e656c69,rev?*%
%TF.SameCoordinates,Original*%
%TF.FileFunction,Legend,Bot*%
%TF.FilePolarity,Positive*%
%FSLAX46Y46*%
G04 Gerber Fmt 4.6, Leading zero omitted, Abs format (unit mm)*
G04 Created by KiCad (PCBNEW (5.1.7)-1) date 2021-02-22 22:43:04*
%MOMM*%
%LPD*%
G01*
G04 APERTURE LIST*
%ADD10C,0.120000*%
%ADD11C,0.150000*%
G04 APERTURE END LIST*
D10*
%TO.C,J2*%
X-101076667Y-72220000D02*
X-101076667Y-73550000D01*
X-99746667Y-72220000D02*
X-101076667Y-72220000D01*
X-98476667Y-72220000D02*
X-98476667Y-74880000D01*
X-98476667Y-74880000D02*
X-93336667Y-74880000D01*
X-98476667Y-72220000D02*
X-93336667Y-72220000D01*
X-93336667Y-72220000D02*
X-93336667Y-74880000D01*
%TO.C,J1*%
X356076666Y-72220000D02*
X356076666Y-74880000D01*
X350936666Y-72220000D02*
X356076666Y-72220000D01*
X350936666Y-74880000D02*
X356076666Y-74880000D01*
X350936666Y-72220000D02*
X350936666Y-74880000D01*
X349666666Y-72220000D02*
X348336666Y-72220000D01*
X348336666Y-72220000D02*
X348336666Y-73550000D01*
X-101076666Y-90780000D02*
X-101076666Y-88120000D01*
X-95936666Y-90780000D02*
X-101076666Y-90780000D01*
X-95936666Y-88120000D02*
X-101076666Y-88120000D01*
X-95936666Y-90780000D02*
X-95936666Y-88120000D01*
X-94666666Y-90780000D02*
X-93336666Y-90780000D01*
X-93336666Y-90780000D02*
X-93336666Y-89450000D01*
%TO.C,J2*%
X356076667Y-90780000D02*
X356076667Y-89450000D01*
X354746667Y-90780000D02*
X356076667Y-90780000D01*
X353476667Y-90780000D02*
X353476667Y-88120000D01*
X353476667Y-88120000D02*
X348336667Y-88120000D01*
X353476667Y-90780000D02*
X348336667Y-90780000D01*
X348336667Y-90780000D02*
X348336667Y-88120000D01*
D11*
X-92797619Y-73066666D02*
X-92083333Y-73066666D01*
X-91940476Y-73019047D01*
X-91845238Y-72923809D01*
X-91797619Y-72780952D01*
X-91797619Y-72685714D01*
X-92702380Y-73495238D02*
X-92750000Y-73542857D01*
X-92797619Y-73638095D01*
X-92797619Y-73876190D01*
X-92750000Y-73971428D01*
X-92702380Y-74019047D01*
X-92607142Y-74066666D01*
X-92511904Y-74066666D01*
X-92369047Y-74019047D01*
X-91797619Y-73447619D01*
X-91797619Y-74066666D01*
%TO.C,J1*%
X346452380Y-72816666D02*
X347166666Y-72816666D01*
X347309523Y-72769047D01*
X347404761Y-72673809D01*
X347452380Y-72530952D01*
X347452380Y-72435714D01*
X347452380Y-73816666D02*
X347452380Y-73245238D01*
X347452380Y-73530952D02*
X346452380Y-73530952D01*
X346595238Y-73435714D01*
X346690476Y-73340476D01*
X346738095Y-73245238D01*
X-91452380Y-90183333D02*
X-92166666Y-90183333D01*
X-92309523Y-90230952D01*
X-92404761Y-90326190D01*
X-92452380Y-90469047D01*
X-92452380Y-90564285D01*
X-92452380Y-89183333D02*
X-92452380Y-89754761D01*
X-92452380Y-89469047D02*
X-91452380Y-89469047D01*
X-91595238Y-89564285D01*
X-91690476Y-89659523D01*
X-91738095Y-89754761D01*
%TO.C,J2*%
X347797619Y-89933333D02*
X347083333Y-89933333D01*
X346940476Y-89980952D01*
X346845238Y-90076190D01*
X346797619Y-90219047D01*
X346797619Y-90314285D01*
X347702380Y-89504761D02*
X347750000Y-89457142D01*
X347797619Y-89361904D01*
X347797619Y-89123809D01*
X347750000Y-89028571D01*
X347702380Y-88980952D01*
X347607142Y-88933333D01*
X347511904Y-88933333D01*
X347369047Y-88980952D01*
X346797619Y-89552380D01*
X346797619Y-88933333D01*
%TD*%
M02*
