%TF.GenerationSoftware,KiCad,Pcbnew,(5.1.7)-1*%
%TF.CreationDate,2021-02-22T22:43:04-05:00*%
%TF.ProjectId,LEDBoard_Panelize,4c454442-6f61-4726-945f-50616e656c69,rev?*%
%TF.SameCoordinates,Original*%
%TF.FileFunction,Profile,NP*%
%FSLAX46Y46*%
G04 Gerber Fmt 4.6, Leading zero omitted, Abs format (unit mm)*
G04 Created by KiCad (PCBNEW (5.1.7)-1) date 2021-02-22 22:43:04*
%MOMM*%
%LPD*%
G01*
G04 APERTURE LIST*
%TA.AperFunction,Profile*%
%ADD10C,0.050000*%
%TD*%
G04 APERTURE END LIST*
D10*
X334600000Y-76500000D02*
X334600000Y-86500000D01*
X306600000Y-76500000D02*
X306600000Y-86500000D01*
X278600000Y-76500000D02*
X278600000Y-86500000D01*
X250600000Y-76500000D02*
X250600000Y-86500000D01*
X222600000Y-76500000D02*
X222600000Y-86500000D01*
X194600000Y-76500000D02*
X194600000Y-86500000D01*
X166600000Y-76500000D02*
X166600000Y-86500000D01*
X138600000Y-76500000D02*
X138600000Y-86500000D01*
X110600000Y-76500000D02*
X110600000Y-86500000D01*
X82600000Y-76500000D02*
X82600000Y-86500000D01*
X54600000Y-76500000D02*
X54600000Y-86500000D01*
X26600000Y-76500000D02*
X26600000Y-86500000D01*
X-1400000Y-76500000D02*
X-1400000Y-86500000D01*
X-29400000Y-76500000D02*
X-29400000Y-86500000D01*
X-57400000Y-76500000D02*
X-57400000Y-86500000D01*
X340400000Y-86500000D02*
X340400000Y-76500000D01*
X312400000Y-86500000D02*
X312400000Y-76500000D01*
X284400000Y-86500000D02*
X284400000Y-76500000D01*
X256400000Y-86500000D02*
X256400000Y-76500000D01*
X228400000Y-86500000D02*
X228400000Y-76500000D01*
X200400000Y-86500000D02*
X200400000Y-76500000D01*
X172400000Y-86500000D02*
X172400000Y-76500000D01*
X144400000Y-86500000D02*
X144400000Y-76500000D01*
X116400000Y-86500000D02*
X116400000Y-76500000D01*
X88400000Y-86500000D02*
X88400000Y-76500000D01*
X60400000Y-86500000D02*
X60400000Y-76500000D01*
X32400000Y-86500000D02*
X32400000Y-76500000D01*
X4400000Y-86500000D02*
X4400000Y-76500000D01*
X-23600000Y-86500000D02*
X-23600000Y-76500000D01*
X-51600000Y-86500000D02*
X-51600000Y-76500000D01*
X-79600000Y-86500000D02*
X-79600000Y-76500000D01*
X-85400000Y-76500000D02*
X-85400000Y-86500000D01*
X356500000Y-75000000D02*
X340400000Y-75000000D01*
X356500000Y-71500000D02*
X356500000Y-75000000D01*
X-101500000Y-71500000D02*
X356500000Y-71500000D01*
X340400000Y-75000000D02*
X340400000Y-76500000D01*
X334600000Y-75000000D02*
X334600000Y-76500000D01*
X-101500000Y-75000000D02*
X-101500000Y-71500000D01*
X-1400000Y-75000000D02*
X-1400000Y-76500000D01*
X222600000Y-75000000D02*
X222600000Y-76500000D01*
X250600000Y-75000000D02*
X250600000Y-76500000D01*
X138600000Y-75000000D02*
X138600000Y-76500000D01*
X-51600000Y-75000000D02*
X-51600000Y-76500000D01*
X-57400000Y-75000000D02*
X-57400000Y-76500000D01*
X284400000Y-75000000D02*
X284400000Y-76500000D01*
X306600000Y-75000000D02*
X306600000Y-76500000D01*
X166600000Y-75000000D02*
X166600000Y-76500000D01*
X306600000Y-75000000D02*
X284400000Y-75000000D01*
X-57400000Y-75000000D02*
X-79600000Y-75000000D01*
X82600000Y-75000000D02*
X60400000Y-75000000D01*
X194600000Y-75000000D02*
X172400000Y-75000000D01*
X-85400000Y-75000000D02*
X-85400000Y-76500000D01*
X88400000Y-75000000D02*
X88400000Y-76500000D01*
X-85400000Y-75000000D02*
X-101500000Y-75000000D01*
X138600000Y-75000000D02*
X116400000Y-75000000D01*
X82600000Y-75000000D02*
X82600000Y-76500000D01*
X-29400000Y-75000000D02*
X-29400000Y-76500000D01*
X194600000Y-75000000D02*
X194600000Y-76500000D01*
X228400000Y-75000000D02*
X228400000Y-76500000D01*
X172400000Y-75000000D02*
X172400000Y-76500000D01*
X144400000Y-75000000D02*
X144400000Y-76500000D01*
X26600000Y-75000000D02*
X4400000Y-75000000D01*
X-1400000Y-75000000D02*
X-23600000Y-75000000D01*
X-29400000Y-75000000D02*
X-51600000Y-75000000D01*
X166600000Y-75000000D02*
X144400000Y-75000000D01*
X116400000Y-75000000D02*
X116400000Y-76500000D01*
X-23600000Y-75000000D02*
X-23600000Y-76500000D01*
X110600000Y-75000000D02*
X88400000Y-75000000D01*
X54600000Y-75000000D02*
X32400000Y-75000000D01*
X4400000Y-75000000D02*
X4400000Y-76500000D01*
X-79600000Y-75000000D02*
X-79600000Y-76500000D01*
X256400000Y-75000000D02*
X256400000Y-76500000D01*
X60400000Y-75000000D02*
X60400000Y-76500000D01*
X32400000Y-75000000D02*
X32400000Y-76500000D01*
X110600000Y-75000000D02*
X110600000Y-76500000D01*
X200400000Y-75000000D02*
X200400000Y-76500000D01*
X250600000Y-75000000D02*
X228400000Y-75000000D01*
X26600000Y-75000000D02*
X26600000Y-76500000D01*
X334600000Y-75000000D02*
X312400000Y-75000000D01*
X278600000Y-75000000D02*
X256400000Y-75000000D01*
X312400000Y-75000000D02*
X312400000Y-76500000D01*
X222600000Y-75000000D02*
X200400000Y-75000000D01*
X278600000Y-75000000D02*
X278600000Y-76500000D01*
X54600000Y-75000000D02*
X54600000Y-76500000D01*
X340400000Y-88000000D02*
X356500000Y-88000000D01*
X312400000Y-88000000D02*
X334600000Y-88000000D01*
X284400000Y-88000000D02*
X306600000Y-88000000D01*
X256400000Y-88000000D02*
X278600000Y-88000000D01*
X228400000Y-88000000D02*
X250600000Y-88000000D01*
X200400000Y-88000000D02*
X222600000Y-88000000D01*
X172400000Y-88000000D02*
X194600000Y-88000000D01*
X144400000Y-88000000D02*
X166600000Y-88000000D01*
X116400000Y-88000000D02*
X138600000Y-88000000D01*
X88400000Y-88000000D02*
X110600000Y-88000000D01*
X60400000Y-88000000D02*
X82600000Y-88000000D01*
X32400000Y-88000000D02*
X54600000Y-88000000D01*
X4400000Y-88000000D02*
X26600000Y-88000000D01*
X-23600000Y-88000000D02*
X-1400000Y-88000000D01*
X-51600000Y-88000000D02*
X-29400000Y-88000000D01*
X340400000Y-88000000D02*
X340400000Y-86500000D01*
X312400000Y-88000000D02*
X312400000Y-86500000D01*
X284400000Y-88000000D02*
X284400000Y-86500000D01*
X256400000Y-88000000D02*
X256400000Y-86500000D01*
X228400000Y-88000000D02*
X228400000Y-86500000D01*
X200400000Y-88000000D02*
X200400000Y-86500000D01*
X172400000Y-88000000D02*
X172400000Y-86500000D01*
X144400000Y-88000000D02*
X144400000Y-86500000D01*
X116400000Y-88000000D02*
X116400000Y-86500000D01*
X88400000Y-88000000D02*
X88400000Y-86500000D01*
X60400000Y-88000000D02*
X60400000Y-86500000D01*
X32400000Y-88000000D02*
X32400000Y-86500000D01*
X4400000Y-88000000D02*
X4400000Y-86500000D01*
X-23600000Y-88000000D02*
X-23600000Y-86500000D01*
X-51600000Y-88000000D02*
X-51600000Y-86500000D01*
X334600000Y-88000000D02*
X334600000Y-86500000D01*
X306600000Y-88000000D02*
X306600000Y-86500000D01*
X278600000Y-88000000D02*
X278600000Y-86500000D01*
X250600000Y-88000000D02*
X250600000Y-86500000D01*
X222600000Y-88000000D02*
X222600000Y-86500000D01*
X194600000Y-88000000D02*
X194600000Y-86500000D01*
X166600000Y-88000000D02*
X166600000Y-86500000D01*
X138600000Y-88000000D02*
X138600000Y-86500000D01*
X110600000Y-88000000D02*
X110600000Y-86500000D01*
X82600000Y-88000000D02*
X82600000Y-86500000D01*
X54600000Y-88000000D02*
X54600000Y-86500000D01*
X26600000Y-88000000D02*
X26600000Y-86500000D01*
X-1400000Y-88000000D02*
X-1400000Y-86500000D01*
X-29400000Y-88000000D02*
X-29400000Y-86500000D01*
X-57400000Y-88000000D02*
X-57400000Y-86500000D01*
X-79600000Y-88000000D02*
X-57400000Y-88000000D01*
X-85400000Y-88000000D02*
X-85400000Y-86500000D01*
X-79600000Y-88000000D02*
X-79600000Y-86500000D01*
X356500000Y-91500000D02*
X-101500000Y-91500000D01*
X-101500000Y-91500000D02*
X-101500000Y-88000000D01*
X-101500000Y-88000000D02*
X-85400000Y-88000000D01*
X356500000Y-88000000D02*
X356500000Y-91500000D01*
M02*
