M48
; DRILL file {KiCad (5.1.7)-1} date 02/22/21 22:43:06
; FORMAT={-:-/ absolute / inch / decimal}
; #@! TF.CreationDate,2021-02-22T22:43:06-05:00
; #@! TF.GenerationSoftware,Kicad,Pcbnew,(5.1.7)-1
; #@! TF.FileFunction,NonPlated,1,2,NPTH
FMAT,2
INCH
T1C0.0197
%
G90
G05
T1
X9.878Y-3.4055
X9.9035Y-3.4055
X9.9291Y-3.4055
X9.9547Y-3.4055
X9.9803Y-3.4055
X10.0059Y-3.4055
X10.0315Y-3.4055
X10.0571Y-3.4055
X10.0827Y-3.4055
X10.9803Y-3.0118
X11.0059Y-3.0118
X11.0315Y-3.0118
X11.0571Y-3.0118
X11.0827Y-3.0118
X11.1083Y-3.0118
X11.1339Y-3.0118
X11.1594Y-3.0118
X11.185Y-3.0118
X13.185Y-3.0118
X13.2106Y-3.0118
X13.2362Y-3.0118
X13.2618Y-3.0118
X13.2874Y-3.0118
X13.313Y-3.0118
X13.3386Y-3.0118
X13.3642Y-3.0118
X13.3898Y-3.0118
X4.3661Y-3.0118
X4.3917Y-3.0118
X4.4173Y-3.0118
X4.4429Y-3.0118
X4.4685Y-3.0118
X4.4941Y-3.0118
X4.5197Y-3.0118
X4.5453Y-3.0118
X4.5709Y-3.0118
X10.9803Y-3.4055
X11.0059Y-3.4055
X11.0315Y-3.4055
X11.0571Y-3.4055
X11.0827Y-3.4055
X11.1083Y-3.4055
X11.1339Y-3.4055
X11.1594Y-3.4055
X11.185Y-3.4055
X9.878Y-3.0118
X9.9035Y-3.0118
X9.9291Y-3.0118
X9.9547Y-3.0118
X9.9803Y-3.0118
X10.0059Y-3.0118
X10.0315Y-3.0118
X10.0571Y-3.0118
X10.0827Y-3.0118
X3.2638Y-3.4055
X3.2894Y-3.4055
X3.315Y-3.4055
X3.3406Y-3.4055
X3.3661Y-3.4055
X3.3917Y-3.4055
X3.4173Y-3.4055
X3.4429Y-3.4055
X3.4685Y-3.4055
X1.0591Y-3.4055
X1.0846Y-3.4055
X1.1102Y-3.4055
X1.1358Y-3.4055
X1.1614Y-3.4055
X1.187Y-3.4055
X1.2126Y-3.4055
X1.2382Y-3.4055
X1.2638Y-3.4055
X12.0827Y-3.4055
X12.1083Y-3.4055
X12.1339Y-3.4055
X12.1594Y-3.4055
X12.185Y-3.4055
X12.2106Y-3.4055
X12.2362Y-3.4055
X12.2618Y-3.4055
X12.2874Y-3.4055
X-0.0433Y-3.4055
X-0.0177Y-3.4055
X0.0079Y-3.4055
X0.0335Y-3.4055
X0.0591Y-3.4055
X0.0846Y-3.4055
X0.1102Y-3.4055
X0.1358Y-3.4055
X0.1614Y-3.4055
X-1.1457Y-3.4055
X-1.1201Y-3.4055
X-1.0945Y-3.4055
X-1.0689Y-3.4055
X-1.0433Y-3.4055
X-1.0177Y-3.4055
X-0.9921Y-3.4055
X-0.9665Y-3.4055
X-0.9409Y-3.4055
X5.4685Y-3.0118
X5.4941Y-3.0118
X5.5197Y-3.0118
X5.5453Y-3.0118
X5.5709Y-3.0118
X5.5965Y-3.0118
X5.622Y-3.0118
X5.6476Y-3.0118
X5.6732Y-3.0118
X13.185Y-3.4055
X13.2106Y-3.4055
X13.2362Y-3.4055
X13.2618Y-3.4055
X13.2874Y-3.4055
X13.313Y-3.4055
X13.3386Y-3.4055
X13.3642Y-3.4055
X13.3898Y-3.4055
X-3.3504Y-3.4055
X-3.3248Y-3.4055
X-3.2992Y-3.4055
X-3.2736Y-3.4055
X-3.248Y-3.4055
X-3.2224Y-3.4055
X-3.1969Y-3.4055
X-3.1713Y-3.4055
X-3.1457Y-3.4055
X4.3661Y-3.4055
X4.3917Y-3.4055
X4.4173Y-3.4055
X4.4429Y-3.4055
X4.4685Y-3.4055
X4.4941Y-3.4055
X4.5197Y-3.4055
X4.5453Y-3.4055
X4.5709Y-3.4055
X12.0827Y-3.0118
X12.1083Y-3.0118
X12.1339Y-3.0118
X12.1594Y-3.0118
X12.185Y-3.0118
X12.2106Y-3.0118
X12.2362Y-3.0118
X12.2618Y-3.0118
X12.2874Y-3.0118
X-2.248Y-3.4055
X-2.2224Y-3.4055
X-2.1969Y-3.4055
X-2.1713Y-3.4055
X-2.1457Y-3.4055
X-2.1201Y-3.4055
X-2.0945Y-3.4055
X-2.0689Y-3.4055
X-2.0433Y-3.4055
X8.7756Y-3.4055
X8.8012Y-3.4055
X8.8268Y-3.4055
X8.8524Y-3.4055
X8.878Y-3.4055
X8.9035Y-3.4055
X8.9291Y-3.4055
X8.9547Y-3.4055
X8.9803Y-3.4055
X-1.1457Y-3.0118
X-1.1201Y-3.0118
X-1.0945Y-3.0118
X-1.0689Y-3.0118
X-1.0433Y-3.0118
X-1.0177Y-3.0118
X-0.9921Y-3.0118
X-0.9665Y-3.0118
X-0.9409Y-3.0118
X6.5709Y-3.4055
X6.5965Y-3.4055
X6.622Y-3.4055
X6.6476Y-3.4055
X6.6732Y-3.4055
X6.6988Y-3.4055
X6.7244Y-3.4055
X6.75Y-3.4055
X6.7756Y-3.4055
X6.5709Y-3.0118
X6.5965Y-3.0118
X6.622Y-3.0118
X6.6476Y-3.0118
X6.6732Y-3.0118
X6.6988Y-3.0118
X6.7244Y-3.0118
X6.75Y-3.0118
X6.7756Y-3.0118
X1.0591Y-3.0118
X1.0846Y-3.0118
X1.1102Y-3.0118
X1.1358Y-3.0118
X1.1614Y-3.0118
X1.187Y-3.0118
X1.2126Y-3.0118
X1.2382Y-3.0118
X1.2638Y-3.0118
X-3.3504Y-3.0118
X-3.3248Y-3.0118
X-3.2992Y-3.0118
X-3.2736Y-3.0118
X-3.248Y-3.0118
X-3.2224Y-3.0118
X-3.1969Y-3.0118
X-3.1713Y-3.0118
X-3.1457Y-3.0118
X5.4685Y-3.4055
X5.4941Y-3.4055
X5.5197Y-3.4055
X5.5453Y-3.4055
X5.5709Y-3.4055
X5.5965Y-3.4055
X5.622Y-3.4055
X5.6476Y-3.4055
X5.6732Y-3.4055
X2.1614Y-3.4055
X2.187Y-3.4055
X2.2126Y-3.4055
X2.2382Y-3.4055
X2.2638Y-3.4055
X2.2894Y-3.4055
X2.315Y-3.4055
X2.3406Y-3.4055
X2.3661Y-3.4055
X2.1614Y-3.0118
X2.187Y-3.0118
X2.2126Y-3.0118
X2.2382Y-3.0118
X2.2638Y-3.0118
X2.2894Y-3.0118
X2.315Y-3.0118
X2.3406Y-3.0118
X2.3661Y-3.0118
X-2.248Y-3.0118
X-2.2224Y-3.0118
X-2.1969Y-3.0118
X-2.1713Y-3.0118
X-2.1457Y-3.0118
X-2.1201Y-3.0118
X-2.0945Y-3.0118
X-2.0689Y-3.0118
X-2.0433Y-3.0118
X7.6732Y-3.4055
X7.6988Y-3.4055
X7.7244Y-3.4055
X7.75Y-3.4055
X7.7756Y-3.4055
X7.8012Y-3.4055
X7.8268Y-3.4055
X7.8524Y-3.4055
X7.878Y-3.4055
X-0.0433Y-3.0118
X-0.0177Y-3.0118
X0.0079Y-3.0118
X0.0335Y-3.0118
X0.0591Y-3.0118
X0.0846Y-3.0118
X0.1102Y-3.0118
X0.1358Y-3.0118
X0.1614Y-3.0118
X7.6732Y-3.0118
X7.6988Y-3.0118
X7.7244Y-3.0118
X7.75Y-3.0118
X7.7756Y-3.0118
X7.8012Y-3.0118
X7.8268Y-3.0118
X7.8524Y-3.0118
X7.878Y-3.0118
X8.7756Y-3.0118
X8.8012Y-3.0118
X8.8268Y-3.0118
X8.8524Y-3.0118
X8.878Y-3.0118
X8.9035Y-3.0118
X8.9291Y-3.0118
X8.9547Y-3.0118
X8.9803Y-3.0118
X3.2638Y-3.0118
X3.2894Y-3.0118
X3.315Y-3.0118
X3.3406Y-3.0118
X3.3661Y-3.0118
X3.3917Y-3.0118
X3.4173Y-3.0118
X3.4429Y-3.0118
X3.4685Y-3.0118
T0
M30
