M48
; DRILL file {KiCad (5.1.7)-1} date 02/22/21 22:43:06
; FORMAT={-:-/ absolute / inch / decimal}
; #@! TF.CreationDate,2021-02-22T22:43:06-05:00
; #@! TF.GenerationSoftware,Kicad,Pcbnew,(5.1.7)-1
; #@! TF.FileFunction,Plated,1,2,PTH
FMAT,2
INCH
T1C0.0157
T2C0.0394
%
G90
G05
T1
X-3.6614Y-2.9232
X-3.563Y-3.4941
X-3.563Y-3.5335
X-3.5597Y-2.8839
X-3.5597Y-2.8445
X-3.3038Y-3.5728
X-3.3005Y-2.8839
X-3.3005Y-2.9232
X-3.1955Y-3.4941
X-3.1955Y-3.5335
X-3.1923Y-2.8445
X-2.9364Y-3.5335
X-2.9364Y-3.5728
X-2.9331Y-2.8839
X-2.9331Y-2.9232
X-2.8281Y-3.4941
X-2.8281Y-3.5335
X-2.8248Y-2.8839
X-2.8248Y-2.8445
X-2.5689Y-3.5335
X-2.5689Y-3.5728
X-2.5656Y-2.8839
X-2.5656Y-2.9232
X-2.4606Y-3.4941
X-2.4606Y-3.5335
X-2.4573Y-2.8839
X-2.4573Y-2.8445
X-2.2014Y-3.5728
X-2.1982Y-2.8839
X-2.1982Y-2.9232
X-2.0932Y-3.4941
X-2.0932Y-3.5335
X-2.0899Y-2.8445
X-1.834Y-3.5728
X-1.834Y-3.5335
X-1.8307Y-2.8839
X-1.8307Y-2.9232
X-1.7257Y-3.4941
X-1.7257Y-3.5335
X-1.7224Y-2.8839
X-1.7224Y-2.8445
X-1.4665Y-3.5728
X-1.4665Y-3.5335
X-1.4633Y-2.8839
X-1.4633Y-2.9232
X-1.3583Y-3.4941
X-1.3583Y-3.5335
X-1.355Y-2.8839
X-1.355Y-2.8445
X-1.0991Y-3.5728
X-1.0958Y-2.8839
X-1.0958Y-2.9232
X-0.9908Y-3.4941
X-0.9908Y-3.5335
X-0.9875Y-2.8445
X-0.7316Y-3.5728
X-0.7316Y-3.5335
X-0.7283Y-2.8839
X-0.7283Y-2.9232
X-0.6234Y-3.4941
X-0.6234Y-3.5335
X-0.6201Y-2.8839
X-0.6201Y-2.8445
X-0.3642Y-3.5728
X-0.3642Y-3.5335
X-0.3609Y-2.8839
X-0.3609Y-2.9232
X-0.2559Y-3.4941
X-0.2559Y-3.5335
X-0.2526Y-2.8839
X-0.2526Y-2.8445
X0.0033Y-3.5728
X0.0066Y-2.8839
X0.0066Y-2.9232
X0.1115Y-3.4941
X0.1115Y-3.5335
X0.1148Y-2.8445
X0.3707Y-3.5728
X0.3707Y-3.5335
X0.374Y-2.8839
X0.374Y-2.9232
X0.479Y-3.4941
X0.479Y-3.5335
X0.4823Y-2.8839
X0.4823Y-2.8445
X0.7382Y-3.5728
X0.7382Y-3.5335
X0.7415Y-2.8839
X0.7415Y-2.9232
X0.8465Y-3.4941
X0.8465Y-3.5335
X0.8497Y-2.8839
X0.8497Y-2.8445
X1.1056Y-3.5728
X1.1089Y-2.8839
X1.1089Y-2.9232
X1.2139Y-3.4941
X1.2139Y-3.5335
X1.2172Y-2.8445
X1.4731Y-3.5728
X1.4731Y-3.5335
X1.4764Y-2.8839
X1.4764Y-2.9232
X1.5814Y-3.4941
X1.5814Y-3.5335
X1.5846Y-2.8839
X1.5846Y-2.8445
X1.8406Y-3.5728
X1.8406Y-3.5335
X1.8438Y-2.8839
X1.8438Y-2.9232
X1.9488Y-3.4941
X1.9488Y-3.5335
X1.9521Y-2.8839
X1.9521Y-2.8445
X2.208Y-3.5728
X2.2113Y-2.8839
X2.2113Y-2.9232
X2.3163Y-3.4941
X2.3163Y-3.5335
X2.3196Y-2.8445
X2.5755Y-3.5728
X2.5755Y-3.5335
X2.5787Y-2.8839
X2.5787Y-2.9232
X2.6837Y-3.4941
X2.6837Y-3.5335
X2.687Y-2.8839
X2.687Y-2.8445
X2.9429Y-3.5728
X2.9429Y-3.5335
X2.9462Y-2.8839
X2.9462Y-2.9232
X3.0512Y-3.4941
X3.0512Y-3.5335
X3.0545Y-2.8839
X3.0545Y-2.8445
X3.3104Y-3.5728
X3.3136Y-2.8839
X3.3136Y-2.9232
X3.4186Y-3.4941
X3.4186Y-3.5335
X3.4219Y-2.8445
X3.6778Y-3.5728
X3.6778Y-3.5335
X3.6811Y-2.8839
X3.6811Y-2.9232
X3.7861Y-3.4941
X3.7861Y-3.5335
X3.7894Y-2.8839
X3.7894Y-2.8445
X4.0453Y-3.5728
X4.0453Y-3.5335
X4.0486Y-2.8839
X4.0486Y-2.9232
X4.1535Y-3.4941
X4.1535Y-3.5335
X4.1568Y-2.8839
X4.1568Y-2.8445
X4.4127Y-3.5728
X4.416Y-2.8839
X4.416Y-2.9232
X4.521Y-3.4941
X4.521Y-3.5335
X4.5243Y-2.8445
X4.7802Y-3.5728
X4.7802Y-3.5335
X4.7835Y-2.8839
X4.7835Y-2.9232
X4.8885Y-3.4941
X4.8885Y-3.5335
X4.8917Y-2.8839
X4.8917Y-2.8445
X5.1476Y-3.5728
X5.1476Y-3.5335
X5.1509Y-2.8839
X5.1509Y-2.9232
X5.2559Y-3.4941
X5.2559Y-3.5335
X5.2592Y-2.8839
X5.2592Y-2.8445
X5.5151Y-3.5728
X5.5184Y-2.8839
X5.5184Y-2.9232
X5.6234Y-3.4941
X5.6234Y-3.5335
X5.6266Y-2.8445
X5.8825Y-3.5728
X5.8825Y-3.5335
X5.8858Y-2.8839
X5.8858Y-2.9232
X5.9908Y-3.4941
X5.9908Y-3.5335
X5.9941Y-2.8839
X5.9941Y-2.8445
X6.25Y-3.5728
X6.25Y-3.5335
X6.2533Y-2.8839
X6.2533Y-2.9232
X6.3583Y-3.4941
X6.3583Y-3.5335
X6.3615Y-2.8839
X6.3615Y-2.8445
X6.6175Y-3.5728
X6.6207Y-2.8839
X6.6207Y-2.9232
X6.7257Y-3.4941
X6.7257Y-3.5335
X6.729Y-2.8445
X6.9849Y-3.5728
X6.9849Y-3.5335
X6.9882Y-2.8839
X6.9882Y-2.9232
X7.0932Y-3.4941
X7.0932Y-3.5335
X7.0965Y-2.8839
X7.0965Y-2.8445
X7.3524Y-3.5728
X7.3524Y-3.5335
X7.3556Y-2.8839
X7.3556Y-2.9232
X7.4606Y-3.4941
X7.4606Y-3.5335
X7.4639Y-2.8839
X7.4639Y-2.8445
X7.7198Y-3.5728
X7.7231Y-2.8839
X7.7231Y-2.9232
X7.8281Y-3.4941
X7.8281Y-3.5335
X7.8314Y-2.8445
X8.0873Y-3.5728
X8.0873Y-3.5335
X8.0906Y-2.8839
X8.0906Y-2.9232
X8.1955Y-3.4941
X8.1955Y-3.5335
X8.1988Y-2.8839
X8.1988Y-2.8445
X8.4547Y-3.5728
X8.4547Y-3.5335
X8.458Y-2.8839
X8.458Y-2.9232
X8.563Y-3.4941
X8.563Y-3.5335
X8.5663Y-2.8839
X8.5663Y-2.8445
X8.8222Y-3.5728
X8.8255Y-2.8839
X8.8255Y-2.9232
X8.9304Y-3.4941
X8.9304Y-3.5335
X8.9337Y-2.8445
X9.1896Y-3.5728
X9.1896Y-3.5335
X9.1929Y-2.8839
X9.1929Y-2.9232
X9.2979Y-3.4941
X9.2979Y-3.5335
X9.3012Y-2.8839
X9.3012Y-2.8445
X9.5571Y-3.5728
X9.5571Y-3.5335
X9.5604Y-2.8839
X9.5604Y-2.9232
X9.6654Y-3.4941
X9.6654Y-3.5335
X9.6686Y-2.8839
X9.6686Y-2.8445
X9.9245Y-3.5728
X9.9278Y-2.8839
X9.9278Y-2.9232
X10.0328Y-3.4941
X10.0328Y-3.5335
X10.0361Y-2.8445
X10.292Y-3.5728
X10.292Y-3.5335
X10.2953Y-2.8839
X10.2953Y-2.9232
X10.4003Y-3.4941
X10.4003Y-3.5335
X10.4035Y-2.8839
X10.4035Y-2.8445
X10.6594Y-3.5728
X10.6594Y-3.5335
X10.6627Y-2.8839
X10.6627Y-2.9232
X10.7677Y-3.4941
X10.7677Y-3.5335
X10.771Y-2.8839
X10.771Y-2.8445
X11.0269Y-3.5728
X11.0302Y-2.8839
X11.0302Y-2.9232
X11.1352Y-3.4941
X11.1352Y-3.5335
X11.1385Y-2.8445
X11.3944Y-3.5728
X11.3944Y-3.5335
X11.3976Y-2.8839
X11.3976Y-2.9232
X11.5026Y-3.4941
X11.5026Y-3.5335
X11.5059Y-2.8839
X11.5059Y-2.8445
X11.7618Y-3.5728
X11.7618Y-3.5335
X11.7651Y-2.8839
X11.7651Y-2.9232
X11.8701Y-3.4941
X11.8701Y-3.5335
X11.8734Y-2.8839
X11.8734Y-2.8445
X12.1293Y-3.5728
X12.1325Y-2.8839
X12.1325Y-2.9232
X12.2375Y-3.4941
X12.2375Y-3.5335
X12.2408Y-2.8445
X12.4967Y-3.5728
X12.4967Y-3.5335
X12.5Y-2.8839
X12.5Y-2.9232
X12.605Y-3.4941
X12.605Y-3.5335
X12.6083Y-2.8445
X12.6083Y-2.8839
X12.8642Y-3.5728
X12.8642Y-3.5335
X12.8675Y-2.8839
X12.8675Y-2.9232
X12.9724Y-3.4941
X12.9724Y-3.5335
X12.9757Y-2.8445
X12.9757Y-2.8839
X13.2316Y-3.5728
X13.2349Y-2.8839
X13.2349Y-2.9232
X13.3399Y-3.4941
X13.3399Y-3.5335
X13.3432Y-2.8445
X13.5991Y-3.5728
X13.5991Y-3.5335
X13.6024Y-2.8839
X13.6024Y-2.9232
X13.7008Y-3.4941
T2
X13.7664Y-2.8957
X13.8664Y-2.8957
X13.9664Y-2.8957
X13.7664Y-3.5217
X13.8664Y-3.5217
X13.9664Y-3.5217
X-3.927Y-2.8957
X-3.827Y-2.8957
X-3.727Y-2.8957
X-3.927Y-3.5217
X-3.827Y-3.5217
X-3.727Y-3.5217
T0
M30
