%TF.GenerationSoftware,KiCad,Pcbnew,(5.1.9)-1*%
%TF.CreationDate,2021-03-11T22:21:30-06:00*%
%TF.ProjectId,OpeNITHM-Tower-Extenders__Main-Body,4f70654e-4954-4484-9d2d-546f7765722d,rev?*%
%TF.SameCoordinates,Original*%
%TF.FileFunction,Soldermask,Top*%
%TF.FilePolarity,Negative*%
%FSLAX46Y46*%
G04 Gerber Fmt 4.6, Leading zero omitted, Abs format (unit mm)*
G04 Created by KiCad (PCBNEW (5.1.9)-1) date 2021-03-11 22:21:30*
%MOMM*%
%LPD*%
G01*
G04 APERTURE LIST*
%ADD10O,1.750000X1.200000*%
%ADD11C,5.600000*%
G04 APERTURE END LIST*
D10*
%TO.C,J4*%
X82320000Y-59440000D03*
X82320000Y-61440000D03*
X82320000Y-63440000D03*
X82320000Y-65440000D03*
X82320000Y-67440000D03*
X82320000Y-69440000D03*
X82320000Y-71440000D03*
X82320000Y-73440000D03*
G36*
G01*
X82945001Y-76040000D02*
X81694999Y-76040000D01*
G75*
G02*
X81445000Y-75790001I0J249999D01*
G01*
X81445000Y-75089999D01*
G75*
G02*
X81694999Y-74840000I249999J0D01*
G01*
X82945001Y-74840000D01*
G75*
G02*
X83195000Y-75089999I0J-249999D01*
G01*
X83195000Y-75790001D01*
G75*
G02*
X82945001Y-76040000I-249999J0D01*
G01*
G37*
%TD*%
%TO.C,J2*%
X82250000Y-47080000D03*
X82250000Y-49080000D03*
X82250000Y-51080000D03*
G36*
G01*
X82875001Y-53680000D02*
X81624999Y-53680000D01*
G75*
G02*
X81375000Y-53430001I0J249999D01*
G01*
X81375000Y-52729999D01*
G75*
G02*
X81624999Y-52480000I249999J0D01*
G01*
X82875001Y-52480000D01*
G75*
G02*
X83125000Y-52729999I0J-249999D01*
G01*
X83125000Y-53430001D01*
G75*
G02*
X82875001Y-53680000I-249999J0D01*
G01*
G37*
%TD*%
D11*
%TO.C,H2*%
X74380000Y-72880000D03*
%TD*%
%TO.C,H1*%
X74340000Y-49890000D03*
%TD*%
D10*
%TO.C,J3*%
X66922000Y-75433000D03*
X66922000Y-73433000D03*
X66922000Y-71433000D03*
X66922000Y-69433000D03*
X66922000Y-67433000D03*
X66922000Y-65433000D03*
X66922000Y-63433000D03*
X66922000Y-61433000D03*
G36*
G01*
X66296999Y-58833000D02*
X67547001Y-58833000D01*
G75*
G02*
X67797000Y-59082999I0J-249999D01*
G01*
X67797000Y-59783001D01*
G75*
G02*
X67547001Y-60033000I-249999J0D01*
G01*
X66296999Y-60033000D01*
G75*
G02*
X66047000Y-59783001I0J249999D01*
G01*
X66047000Y-59082999D01*
G75*
G02*
X66296999Y-58833000I249999J0D01*
G01*
G37*
%TD*%
%TO.C,J1*%
X66782000Y-53086000D03*
X66782000Y-51086000D03*
X66782000Y-49086000D03*
G36*
G01*
X66156999Y-46486000D02*
X67407001Y-46486000D01*
G75*
G02*
X67657000Y-46735999I0J-249999D01*
G01*
X67657000Y-47436001D01*
G75*
G02*
X67407001Y-47686000I-249999J0D01*
G01*
X66156999Y-47686000D01*
G75*
G02*
X65907000Y-47436001I0J249999D01*
G01*
X65907000Y-46735999D01*
G75*
G02*
X66156999Y-46486000I249999J0D01*
G01*
G37*
%TD*%
M02*
