%TF.GenerationSoftware,KiCad,Pcbnew,(5.1.9)-1*%
%TF.CreationDate,2021-03-11T22:21:30-06:00*%
%TF.ProjectId,OpeNITHM-Tower-Extenders__Main-Body,4f70654e-4954-4484-9d2d-546f7765722d,rev?*%
%TF.SameCoordinates,Original*%
%TF.FileFunction,Copper,L1,Top*%
%TF.FilePolarity,Positive*%
%FSLAX46Y46*%
G04 Gerber Fmt 4.6, Leading zero omitted, Abs format (unit mm)*
G04 Created by KiCad (PCBNEW (5.1.9)-1) date 2021-03-11 22:21:30*
%MOMM*%
%LPD*%
G01*
G04 APERTURE LIST*
%TA.AperFunction,ComponentPad*%
%ADD10O,1.750000X1.200000*%
%TD*%
%TA.AperFunction,ComponentPad*%
%ADD11C,5.600000*%
%TD*%
%TA.AperFunction,Conductor*%
%ADD12C,0.508000*%
%TD*%
G04 APERTURE END LIST*
D10*
%TO.P,J4,9*%
%TO.N,Net-(J3-Pad1)*%
X82320000Y-59440000D03*
%TO.P,J4,8*%
%TO.N,Net-(J3-Pad2)*%
X82320000Y-61440000D03*
%TO.P,J4,7*%
%TO.N,Net-(J3-Pad3)*%
X82320000Y-63440000D03*
%TO.P,J4,6*%
%TO.N,Net-(J3-Pad4)*%
X82320000Y-65440000D03*
%TO.P,J4,5*%
%TO.N,Net-(J3-Pad5)*%
X82320000Y-67440000D03*
%TO.P,J4,4*%
%TO.N,Net-(J3-Pad6)*%
X82320000Y-69440000D03*
%TO.P,J4,3*%
%TO.N,Net-(J3-Pad7)*%
X82320000Y-71440000D03*
%TO.P,J4,2*%
%TO.N,Net-(J3-Pad8)*%
X82320000Y-73440000D03*
%TO.P,J4,1*%
%TO.N,Net-(J3-Pad9)*%
%TA.AperFunction,ComponentPad*%
G36*
G01*
X82945001Y-76040000D02*
X81694999Y-76040000D01*
G75*
G02*
X81445000Y-75790001I0J249999D01*
G01*
X81445000Y-75089999D01*
G75*
G02*
X81694999Y-74840000I249999J0D01*
G01*
X82945001Y-74840000D01*
G75*
G02*
X83195000Y-75089999I0J-249999D01*
G01*
X83195000Y-75790001D01*
G75*
G02*
X82945001Y-76040000I-249999J0D01*
G01*
G37*
%TD.AperFunction*%
%TD*%
%TO.P,J2,4*%
%TO.N,Net-(J1-Pad1)*%
X82250000Y-47080000D03*
%TO.P,J2,3*%
%TO.N,Net-(J1-Pad2)*%
X82250000Y-49080000D03*
%TO.P,J2,2*%
%TO.N,Net-(J1-Pad3)*%
X82250000Y-51080000D03*
%TO.P,J2,1*%
%TO.N,Net-(J1-Pad4)*%
%TA.AperFunction,ComponentPad*%
G36*
G01*
X82875001Y-53680000D02*
X81624999Y-53680000D01*
G75*
G02*
X81375000Y-53430001I0J249999D01*
G01*
X81375000Y-52729999D01*
G75*
G02*
X81624999Y-52480000I249999J0D01*
G01*
X82875001Y-52480000D01*
G75*
G02*
X83125000Y-52729999I0J-249999D01*
G01*
X83125000Y-53430001D01*
G75*
G02*
X82875001Y-53680000I-249999J0D01*
G01*
G37*
%TD.AperFunction*%
%TD*%
D11*
%TO.P,H2,1*%
%TO.N,N/C*%
X74380000Y-72880000D03*
%TD*%
%TO.P,H1,1*%
%TO.N,N/C*%
X74340000Y-49890000D03*
%TD*%
D10*
%TO.P,J3,9*%
%TO.N,Net-(J3-Pad9)*%
X66922000Y-75433000D03*
%TO.P,J3,8*%
%TO.N,Net-(J3-Pad8)*%
X66922000Y-73433000D03*
%TO.P,J3,7*%
%TO.N,Net-(J3-Pad7)*%
X66922000Y-71433000D03*
%TO.P,J3,6*%
%TO.N,Net-(J3-Pad6)*%
X66922000Y-69433000D03*
%TO.P,J3,5*%
%TO.N,Net-(J3-Pad5)*%
X66922000Y-67433000D03*
%TO.P,J3,4*%
%TO.N,Net-(J3-Pad4)*%
X66922000Y-65433000D03*
%TO.P,J3,3*%
%TO.N,Net-(J3-Pad3)*%
X66922000Y-63433000D03*
%TO.P,J3,2*%
%TO.N,Net-(J3-Pad2)*%
X66922000Y-61433000D03*
%TO.P,J3,1*%
%TO.N,Net-(J3-Pad1)*%
%TA.AperFunction,ComponentPad*%
G36*
G01*
X66296999Y-58833000D02*
X67547001Y-58833000D01*
G75*
G02*
X67797000Y-59082999I0J-249999D01*
G01*
X67797000Y-59783001D01*
G75*
G02*
X67547001Y-60033000I-249999J0D01*
G01*
X66296999Y-60033000D01*
G75*
G02*
X66047000Y-59783001I0J249999D01*
G01*
X66047000Y-59082999D01*
G75*
G02*
X66296999Y-58833000I249999J0D01*
G01*
G37*
%TD.AperFunction*%
%TD*%
%TO.P,J1,4*%
%TO.N,Net-(J1-Pad4)*%
X66782000Y-53086000D03*
%TO.P,J1,3*%
%TO.N,Net-(J1-Pad3)*%
X66782000Y-51086000D03*
%TO.P,J1,2*%
%TO.N,Net-(J1-Pad2)*%
X66782000Y-49086000D03*
%TO.P,J1,1*%
%TO.N,Net-(J1-Pad1)*%
%TA.AperFunction,ComponentPad*%
G36*
G01*
X66156999Y-46486000D02*
X67407001Y-46486000D01*
G75*
G02*
X67657000Y-46735999I0J-249999D01*
G01*
X67657000Y-47436001D01*
G75*
G02*
X67407001Y-47686000I-249999J0D01*
G01*
X66156999Y-47686000D01*
G75*
G02*
X65907000Y-47436001I0J249999D01*
G01*
X65907000Y-46735999D01*
G75*
G02*
X66156999Y-46486000I249999J0D01*
G01*
G37*
%TD.AperFunction*%
%TD*%
D12*
%TO.N,Net-(J1-Pad4)*%
X66782000Y-53086000D02*
X66796000Y-53086000D01*
X66796000Y-53086000D02*
X68280000Y-54570000D01*
X80760000Y-54570000D02*
X82250000Y-53080000D01*
X68280000Y-54570000D02*
X80760000Y-54570000D01*
%TO.N,Net-(J1-Pad3)*%
X83290000Y-51080000D02*
X82250000Y-51080000D01*
X84180000Y-51970000D02*
X83290000Y-51080000D01*
X82980000Y-55870000D02*
X84180000Y-54670000D01*
X67080000Y-55870000D02*
X82980000Y-55870000D01*
X65080000Y-53870000D02*
X67080000Y-55870000D01*
X65080000Y-52170000D02*
X65080000Y-53870000D01*
X66164000Y-51086000D02*
X65080000Y-52170000D01*
X84180000Y-54670000D02*
X84180000Y-51970000D01*
X66782000Y-51086000D02*
X66164000Y-51086000D01*
%TO.N,Net-(J1-Pad2)*%
X83870000Y-49080000D02*
X82250000Y-49080000D01*
X84180000Y-48770000D02*
X83870000Y-49080000D01*
X65680000Y-44970000D02*
X83180000Y-44970000D01*
X64580000Y-46070000D02*
X65680000Y-44970000D01*
X84180000Y-45970000D02*
X84180000Y-48770000D01*
X64580000Y-47970000D02*
X64580000Y-46070000D01*
X83180000Y-44970000D02*
X84180000Y-45970000D01*
X65696000Y-49086000D02*
X64580000Y-47970000D01*
X66782000Y-49086000D02*
X65696000Y-49086000D01*
%TO.N,Net-(J1-Pad1)*%
X66782000Y-47086000D02*
X67798000Y-46070000D01*
X81240000Y-46070000D02*
X82250000Y-47080000D01*
X67798000Y-46070000D02*
X81240000Y-46070000D01*
%TO.N,Net-(J3-Pad8)*%
X84820000Y-76620000D02*
X84820000Y-74520000D01*
X83720000Y-77720000D02*
X84820000Y-76620000D01*
X83740000Y-73440000D02*
X82320000Y-73440000D01*
X65620000Y-77720000D02*
X83720000Y-77720000D01*
X64420000Y-76520000D02*
X65620000Y-77720000D01*
X64420000Y-74620000D02*
X64420000Y-76520000D01*
X84820000Y-74520000D02*
X83740000Y-73440000D01*
X65607000Y-73433000D02*
X64420000Y-74620000D01*
X66922000Y-73433000D02*
X65607000Y-73433000D01*
%TO.N,Net-(J3-Pad7)*%
X66922000Y-71433000D02*
X68007000Y-71433000D01*
X68007000Y-71433000D02*
X70120000Y-69320000D01*
X70120000Y-69320000D02*
X79120000Y-69320000D01*
X81240000Y-71440000D02*
X82320000Y-71440000D01*
X79120000Y-69320000D02*
X81240000Y-71440000D01*
%TO.N,Net-(J3-Pad6)*%
X68007000Y-69433000D02*
X70120000Y-67320000D01*
X66922000Y-69433000D02*
X68007000Y-69433000D01*
X79120000Y-67320000D02*
X81240000Y-69440000D01*
X81240000Y-69440000D02*
X82320000Y-69440000D01*
X70120000Y-67320000D02*
X79120000Y-67320000D01*
%TO.N,Net-(J3-Pad5)*%
X68007000Y-67433000D02*
X70120000Y-65320000D01*
X66922000Y-67433000D02*
X68007000Y-67433000D01*
X79120000Y-65320000D02*
X81240000Y-67440000D01*
X81240000Y-67440000D02*
X82320000Y-67440000D01*
X70120000Y-65320000D02*
X79120000Y-65320000D01*
%TO.N,Net-(J3-Pad4)*%
X68007000Y-65433000D02*
X70120000Y-63320000D01*
X66922000Y-65433000D02*
X68007000Y-65433000D01*
X79120000Y-63320000D02*
X81240000Y-65440000D01*
X81240000Y-65440000D02*
X82320000Y-65440000D01*
X70120000Y-63320000D02*
X79120000Y-63320000D01*
%TO.N,Net-(J3-Pad3)*%
X68007000Y-63433000D02*
X70120000Y-61320000D01*
X66922000Y-63433000D02*
X68007000Y-63433000D01*
X79120000Y-61320000D02*
X81240000Y-63440000D01*
X81240000Y-63440000D02*
X82320000Y-63440000D01*
X70120000Y-61320000D02*
X79120000Y-61320000D01*
%TO.N,Net-(J3-Pad2)*%
X68007000Y-61433000D02*
X70120000Y-59320000D01*
X66922000Y-61433000D02*
X68007000Y-61433000D01*
X79120000Y-59320000D02*
X81240000Y-61440000D01*
X81240000Y-61440000D02*
X82320000Y-61440000D01*
X70120000Y-59320000D02*
X79120000Y-59320000D01*
%TO.N,Net-(J3-Pad1)*%
X68007000Y-59433000D02*
X70120000Y-57320000D01*
X66922000Y-59433000D02*
X68007000Y-59433000D01*
X79120000Y-57320000D02*
X81240000Y-59440000D01*
X81240000Y-59440000D02*
X82320000Y-59440000D01*
X70120000Y-57320000D02*
X79120000Y-57320000D01*
X82313000Y-59433000D02*
X82320000Y-59440000D01*
%TO.N,Net-(J3-Pad9)*%
X66922000Y-75433000D02*
X66933000Y-75433000D01*
X67920000Y-76420000D02*
X70220000Y-76420000D01*
X66933000Y-75433000D02*
X67920000Y-76420000D01*
X69620000Y-76420000D02*
X70220000Y-76420000D01*
X81340000Y-76420000D02*
X82320000Y-75440000D01*
X70220000Y-76420000D02*
X81340000Y-76420000D01*
%TD*%
M02*
