%TF.GenerationSoftware,KiCad,Pcbnew,(5.1.9)-1*%
%TF.CreationDate,2021-03-11T22:21:30-06:00*%
%TF.ProjectId,OpeNITHM-Tower-Extenders__Main-Body,4f70654e-4954-4484-9d2d-546f7765722d,rev?*%
%TF.SameCoordinates,Original*%
%TF.FileFunction,Copper,L2,Bot*%
%TF.FilePolarity,Positive*%
%FSLAX46Y46*%
G04 Gerber Fmt 4.6, Leading zero omitted, Abs format (unit mm)*
G04 Created by KiCad (PCBNEW (5.1.9)-1) date 2021-03-11 22:21:30*
%MOMM*%
%LPD*%
G01*
G04 APERTURE LIST*
%TA.AperFunction,ComponentPad*%
%ADD10O,1.750000X1.200000*%
%TD*%
%TA.AperFunction,ComponentPad*%
%ADD11C,5.600000*%
%TD*%
G04 APERTURE END LIST*
D10*
%TO.P,J4,9*%
%TO.N,Net-(J3-Pad1)*%
X82320000Y-59440000D03*
%TO.P,J4,8*%
%TO.N,Net-(J3-Pad2)*%
X82320000Y-61440000D03*
%TO.P,J4,7*%
%TO.N,Net-(J3-Pad3)*%
X82320000Y-63440000D03*
%TO.P,J4,6*%
%TO.N,Net-(J3-Pad4)*%
X82320000Y-65440000D03*
%TO.P,J4,5*%
%TO.N,Net-(J3-Pad5)*%
X82320000Y-67440000D03*
%TO.P,J4,4*%
%TO.N,Net-(J3-Pad6)*%
X82320000Y-69440000D03*
%TO.P,J4,3*%
%TO.N,Net-(J3-Pad7)*%
X82320000Y-71440000D03*
%TO.P,J4,2*%
%TO.N,Net-(J3-Pad8)*%
X82320000Y-73440000D03*
%TO.P,J4,1*%
%TO.N,Net-(J3-Pad9)*%
%TA.AperFunction,ComponentPad*%
G36*
G01*
X82945001Y-76040000D02*
X81694999Y-76040000D01*
G75*
G02*
X81445000Y-75790001I0J249999D01*
G01*
X81445000Y-75089999D01*
G75*
G02*
X81694999Y-74840000I249999J0D01*
G01*
X82945001Y-74840000D01*
G75*
G02*
X83195000Y-75089999I0J-249999D01*
G01*
X83195000Y-75790001D01*
G75*
G02*
X82945001Y-76040000I-249999J0D01*
G01*
G37*
%TD.AperFunction*%
%TD*%
%TO.P,J2,4*%
%TO.N,Net-(J1-Pad1)*%
X82250000Y-47080000D03*
%TO.P,J2,3*%
%TO.N,Net-(J1-Pad2)*%
X82250000Y-49080000D03*
%TO.P,J2,2*%
%TO.N,Net-(J1-Pad3)*%
X82250000Y-51080000D03*
%TO.P,J2,1*%
%TO.N,Net-(J1-Pad4)*%
%TA.AperFunction,ComponentPad*%
G36*
G01*
X82875001Y-53680000D02*
X81624999Y-53680000D01*
G75*
G02*
X81375000Y-53430001I0J249999D01*
G01*
X81375000Y-52729999D01*
G75*
G02*
X81624999Y-52480000I249999J0D01*
G01*
X82875001Y-52480000D01*
G75*
G02*
X83125000Y-52729999I0J-249999D01*
G01*
X83125000Y-53430001D01*
G75*
G02*
X82875001Y-53680000I-249999J0D01*
G01*
G37*
%TD.AperFunction*%
%TD*%
D11*
%TO.P,H2,1*%
%TO.N,N/C*%
X74380000Y-72880000D03*
%TD*%
%TO.P,H1,1*%
%TO.N,N/C*%
X74340000Y-49890000D03*
%TD*%
D10*
%TO.P,J3,9*%
%TO.N,Net-(J3-Pad9)*%
X66922000Y-75433000D03*
%TO.P,J3,8*%
%TO.N,Net-(J3-Pad8)*%
X66922000Y-73433000D03*
%TO.P,J3,7*%
%TO.N,Net-(J3-Pad7)*%
X66922000Y-71433000D03*
%TO.P,J3,6*%
%TO.N,Net-(J3-Pad6)*%
X66922000Y-69433000D03*
%TO.P,J3,5*%
%TO.N,Net-(J3-Pad5)*%
X66922000Y-67433000D03*
%TO.P,J3,4*%
%TO.N,Net-(J3-Pad4)*%
X66922000Y-65433000D03*
%TO.P,J3,3*%
%TO.N,Net-(J3-Pad3)*%
X66922000Y-63433000D03*
%TO.P,J3,2*%
%TO.N,Net-(J3-Pad2)*%
X66922000Y-61433000D03*
%TO.P,J3,1*%
%TO.N,Net-(J3-Pad1)*%
%TA.AperFunction,ComponentPad*%
G36*
G01*
X66296999Y-58833000D02*
X67547001Y-58833000D01*
G75*
G02*
X67797000Y-59082999I0J-249999D01*
G01*
X67797000Y-59783001D01*
G75*
G02*
X67547001Y-60033000I-249999J0D01*
G01*
X66296999Y-60033000D01*
G75*
G02*
X66047000Y-59783001I0J249999D01*
G01*
X66047000Y-59082999D01*
G75*
G02*
X66296999Y-58833000I249999J0D01*
G01*
G37*
%TD.AperFunction*%
%TD*%
%TO.P,J1,4*%
%TO.N,Net-(J1-Pad4)*%
X66782000Y-53086000D03*
%TO.P,J1,3*%
%TO.N,Net-(J1-Pad3)*%
X66782000Y-51086000D03*
%TO.P,J1,2*%
%TO.N,Net-(J1-Pad2)*%
X66782000Y-49086000D03*
%TO.P,J1,1*%
%TO.N,Net-(J1-Pad1)*%
%TA.AperFunction,ComponentPad*%
G36*
G01*
X66156999Y-46486000D02*
X67407001Y-46486000D01*
G75*
G02*
X67657000Y-46735999I0J-249999D01*
G01*
X67657000Y-47436001D01*
G75*
G02*
X67407001Y-47686000I-249999J0D01*
G01*
X66156999Y-47686000D01*
G75*
G02*
X65907000Y-47436001I0J249999D01*
G01*
X65907000Y-46735999D01*
G75*
G02*
X66156999Y-46486000I249999J0D01*
G01*
G37*
%TD.AperFunction*%
%TD*%
M02*
