%TF.GenerationSoftware,KiCad,Pcbnew,(5.1.9)-1*%
%TF.CreationDate,2021-03-05T23:35:59-06:00*%
%TF.ProjectId,OpeNITHM-Tower-Extenders__Main-Body,4f70654e-4954-4484-9d2d-546f7765722d,rev?*%
%TF.SameCoordinates,Original*%
%TF.FileFunction,Copper,L2,Bot*%
%TF.FilePolarity,Positive*%
%FSLAX46Y46*%
G04 Gerber Fmt 4.6, Leading zero omitted, Abs format (unit mm)*
G04 Created by KiCad (PCBNEW (5.1.9)-1) date 2021-03-05 23:35:59*
%MOMM*%
%LPD*%
G01*
G04 APERTURE LIST*
%TA.AperFunction,ComponentPad*%
%ADD10O,1.750000X1.200000*%
%TD*%
%TA.AperFunction,ComponentPad*%
%ADD11C,5.600000*%
%TD*%
G04 APERTURE END LIST*
D10*
%TO.P,J4,9*%
%TO.N,Net-(J3-Pad1)*%
X82200000Y-59120000D03*
%TO.P,J4,8*%
%TO.N,Net-(J3-Pad2)*%
X82200000Y-61120000D03*
%TO.P,J4,7*%
%TO.N,Net-(J3-Pad3)*%
X82200000Y-63120000D03*
%TO.P,J4,6*%
%TO.N,Net-(J3-Pad4)*%
X82200000Y-65120000D03*
%TO.P,J4,5*%
%TO.N,Net-(J3-Pad5)*%
X82200000Y-67120000D03*
%TO.P,J4,4*%
%TO.N,Net-(J3-Pad6)*%
X82200000Y-69120000D03*
%TO.P,J4,3*%
%TO.N,Net-(J3-Pad7)*%
X82200000Y-71120000D03*
%TO.P,J4,2*%
%TO.N,Net-(J3-Pad8)*%
X82200000Y-73120000D03*
%TO.P,J4,1*%
%TO.N,Net-(J3-Pad9)*%
%TA.AperFunction,ComponentPad*%
G36*
G01*
X82825001Y-75720000D02*
X81574999Y-75720000D01*
G75*
G02*
X81325000Y-75470001I0J249999D01*
G01*
X81325000Y-74769999D01*
G75*
G02*
X81574999Y-74520000I249999J0D01*
G01*
X82825001Y-74520000D01*
G75*
G02*
X83075000Y-74769999I0J-249999D01*
G01*
X83075000Y-75470001D01*
G75*
G02*
X82825001Y-75720000I-249999J0D01*
G01*
G37*
%TD.AperFunction*%
%TD*%
%TO.P,J2,4*%
%TO.N,Net-(J1-Pad1)*%
X82190000Y-47280000D03*
%TO.P,J2,3*%
%TO.N,Net-(J1-Pad2)*%
X82190000Y-49280000D03*
%TO.P,J2,2*%
%TO.N,Net-(J1-Pad3)*%
X82190000Y-51280000D03*
%TO.P,J2,1*%
%TO.N,Net-(J1-Pad4)*%
%TA.AperFunction,ComponentPad*%
G36*
G01*
X82815001Y-53880000D02*
X81564999Y-53880000D01*
G75*
G02*
X81315000Y-53630001I0J249999D01*
G01*
X81315000Y-52929999D01*
G75*
G02*
X81564999Y-52680000I249999J0D01*
G01*
X82815001Y-52680000D01*
G75*
G02*
X83065000Y-52929999I0J-249999D01*
G01*
X83065000Y-53630001D01*
G75*
G02*
X82815001Y-53880000I-249999J0D01*
G01*
G37*
%TD.AperFunction*%
%TD*%
D11*
%TO.P,H2,1*%
%TO.N,N/C*%
X74260000Y-72560000D03*
%TD*%
%TO.P,H1,1*%
%TO.N,N/C*%
X74280000Y-50090000D03*
%TD*%
D10*
%TO.P,J3,9*%
%TO.N,Net-(J3-Pad9)*%
X66802000Y-75113000D03*
%TO.P,J3,8*%
%TO.N,Net-(J3-Pad8)*%
X66802000Y-73113000D03*
%TO.P,J3,7*%
%TO.N,Net-(J3-Pad7)*%
X66802000Y-71113000D03*
%TO.P,J3,6*%
%TO.N,Net-(J3-Pad6)*%
X66802000Y-69113000D03*
%TO.P,J3,5*%
%TO.N,Net-(J3-Pad5)*%
X66802000Y-67113000D03*
%TO.P,J3,4*%
%TO.N,Net-(J3-Pad4)*%
X66802000Y-65113000D03*
%TO.P,J3,3*%
%TO.N,Net-(J3-Pad3)*%
X66802000Y-63113000D03*
%TO.P,J3,2*%
%TO.N,Net-(J3-Pad2)*%
X66802000Y-61113000D03*
%TO.P,J3,1*%
%TO.N,Net-(J3-Pad1)*%
%TA.AperFunction,ComponentPad*%
G36*
G01*
X66176999Y-58513000D02*
X67427001Y-58513000D01*
G75*
G02*
X67677000Y-58762999I0J-249999D01*
G01*
X67677000Y-59463001D01*
G75*
G02*
X67427001Y-59713000I-249999J0D01*
G01*
X66176999Y-59713000D01*
G75*
G02*
X65927000Y-59463001I0J249999D01*
G01*
X65927000Y-58762999D01*
G75*
G02*
X66176999Y-58513000I249999J0D01*
G01*
G37*
%TD.AperFunction*%
%TD*%
%TO.P,J1,4*%
%TO.N,Net-(J1-Pad4)*%
X66722000Y-53286000D03*
%TO.P,J1,3*%
%TO.N,Net-(J1-Pad3)*%
X66722000Y-51286000D03*
%TO.P,J1,2*%
%TO.N,Net-(J1-Pad2)*%
X66722000Y-49286000D03*
%TO.P,J1,1*%
%TO.N,Net-(J1-Pad1)*%
%TA.AperFunction,ComponentPad*%
G36*
G01*
X66096999Y-46686000D02*
X67347001Y-46686000D01*
G75*
G02*
X67597000Y-46935999I0J-249999D01*
G01*
X67597000Y-47636001D01*
G75*
G02*
X67347001Y-47886000I-249999J0D01*
G01*
X66096999Y-47886000D01*
G75*
G02*
X65847000Y-47636001I0J249999D01*
G01*
X65847000Y-46935999D01*
G75*
G02*
X66096999Y-46686000I249999J0D01*
G01*
G37*
%TD.AperFunction*%
%TD*%
M02*
