M48
; DRILL file {KiCad (5.1.9)-1} date 03/11/21 22:21:28
; FORMAT={-:-/ absolute / inch / decimal}
; #@! TF.CreationDate,2021-03-11T22:21:28-06:00
; #@! TF.GenerationSoftware,Kicad,Pcbnew,(5.1.9)-1
FMAT,2
INCH
T1C0.0295
T2C0.1260
%
G90
G05
T1
X2.6292Y-1.8538
X2.6292Y-1.9325
X2.6292Y-2.0113
X2.6292Y-2.09
X2.6347Y-2.3399
X2.6347Y-2.4186
X2.6347Y-2.4974
X2.6347Y-2.5761
X2.6347Y-2.6548
X2.6347Y-2.7336
X2.6347Y-2.8123
X2.6347Y-2.8911
X2.6347Y-2.9698
X3.2382Y-1.8535
X3.2382Y-1.9323
X3.2382Y-2.011
X3.2382Y-2.0898
X3.2409Y-2.3402
X3.2409Y-2.4189
X3.2409Y-2.4976
X3.2409Y-2.5764
X3.2409Y-2.6551
X3.2409Y-2.7339
X3.2409Y-2.8126
X3.2409Y-2.8913
X3.2409Y-2.9701
T2
X2.9268Y-1.9642
X2.9283Y-2.8693
T0
M30
