%TF.GenerationSoftware,KiCad,Pcbnew,(5.1.9)-1*%
%TF.CreationDate,2021-03-11T22:21:21-06:00*%
%TF.ProjectId,OpeNITHM-Tower-Extenders__Right-Tower,4f70654e-4954-4484-9d2d-546f7765722d,rev?*%
%TF.SameCoordinates,Original*%
%TF.FileFunction,Soldermask,Bot*%
%TF.FilePolarity,Negative*%
%FSLAX46Y46*%
G04 Gerber Fmt 4.6, Leading zero omitted, Abs format (unit mm)*
G04 Created by KiCad (PCBNEW (5.1.9)-1) date 2021-03-11 22:21:21*
%MOMM*%
%LPD*%
G01*
G04 APERTURE LIST*
%ADD10O,1.750000X1.200000*%
%ADD11C,5.600000*%
G04 APERTURE END LIST*
D10*
%TO.C,J4*%
X82140000Y-59180000D03*
X82140000Y-61180000D03*
X82140000Y-63180000D03*
X82140000Y-65180000D03*
X82140000Y-67180000D03*
X82140000Y-69180000D03*
X82140000Y-71180000D03*
X82140000Y-73180000D03*
G36*
G01*
X82765001Y-75780000D02*
X81514999Y-75780000D01*
G75*
G02*
X81265000Y-75530001I0J249999D01*
G01*
X81265000Y-74829999D01*
G75*
G02*
X81514999Y-74580000I249999J0D01*
G01*
X82765001Y-74580000D01*
G75*
G02*
X83015000Y-74829999I0J-249999D01*
G01*
X83015000Y-75530001D01*
G75*
G02*
X82765001Y-75780000I-249999J0D01*
G01*
G37*
%TD*%
%TO.C,J3*%
X66742000Y-75173000D03*
X66742000Y-73173000D03*
X66742000Y-71173000D03*
X66742000Y-69173000D03*
X66742000Y-67173000D03*
X66742000Y-65173000D03*
X66742000Y-63173000D03*
X66742000Y-61173000D03*
G36*
G01*
X66116999Y-58573000D02*
X67367001Y-58573000D01*
G75*
G02*
X67617000Y-58822999I0J-249999D01*
G01*
X67617000Y-59523001D01*
G75*
G02*
X67367001Y-59773000I-249999J0D01*
G01*
X66116999Y-59773000D01*
G75*
G02*
X65867000Y-59523001I0J249999D01*
G01*
X65867000Y-58822999D01*
G75*
G02*
X66116999Y-58573000I249999J0D01*
G01*
G37*
%TD*%
%TO.C,J2*%
X82190000Y-46860000D03*
X82190000Y-48860000D03*
X82190000Y-50860000D03*
G36*
G01*
X82815001Y-53460000D02*
X81564999Y-53460000D01*
G75*
G02*
X81315000Y-53210001I0J249999D01*
G01*
X81315000Y-52509999D01*
G75*
G02*
X81564999Y-52260000I249999J0D01*
G01*
X82815001Y-52260000D01*
G75*
G02*
X83065000Y-52509999I0J-249999D01*
G01*
X83065000Y-53210001D01*
G75*
G02*
X82815001Y-53460000I-249999J0D01*
G01*
G37*
%TD*%
%TO.C,J1*%
X66722000Y-52866000D03*
X66722000Y-50866000D03*
X66722000Y-48866000D03*
G36*
G01*
X66096999Y-46266000D02*
X67347001Y-46266000D01*
G75*
G02*
X67597000Y-46515999I0J-249999D01*
G01*
X67597000Y-47216001D01*
G75*
G02*
X67347001Y-47466000I-249999J0D01*
G01*
X66096999Y-47466000D01*
G75*
G02*
X65847000Y-47216001I0J249999D01*
G01*
X65847000Y-46515999D01*
G75*
G02*
X66096999Y-46266000I249999J0D01*
G01*
G37*
%TD*%
D11*
%TO.C,H2*%
X73760000Y-72620000D03*
%TD*%
%TO.C,H1*%
X73840000Y-49670000D03*
%TD*%
M02*
