M48
; DRILL file {KiCad (5.1.9)-1} date 03/05/21 23:23:04
; FORMAT={-:-/ absolute / inch / decimal}
; #@! TF.CreationDate,2021-03-05T23:23:04-06:00
; #@! TF.GenerationSoftware,Kicad,Pcbnew,(5.1.9)-1
FMAT,2
INCH
T1C0.0295
T2C0.1260
%
G90
G05
T1
X2.6269Y-1.8617
X2.6269Y-1.9404
X2.6269Y-2.0191
X2.6269Y-2.0979
X2.63Y-2.3273
X2.63Y-2.406
X2.63Y-2.4848
X2.63Y-2.5635
X2.63Y-2.6422
X2.63Y-2.721
X2.63Y-2.7997
X2.63Y-2.8785
X2.63Y-2.9572
X3.2358Y-1.8614
X3.2358Y-1.9402
X3.2358Y-2.0189
X3.2358Y-2.0976
X3.2362Y-2.3276
X3.2362Y-2.4063
X3.2362Y-2.485
X3.2362Y-2.5638
X3.2362Y-2.6425
X3.2362Y-2.7213
X3.2362Y-2.8
X3.2362Y-2.8787
X3.2362Y-2.9575
T2
X2.9063Y-2.8567
X2.9071Y-1.972
T0
M30
