%TF.GenerationSoftware,KiCad,Pcbnew,(5.1.9)-1*%
%TF.CreationDate,2021-03-05T23:36:06-06:00*%
%TF.ProjectId,OpeNITHM-Tower-Extenders__Right-Tower,4f70654e-4954-4484-9d2d-546f7765722d,rev?*%
%TF.SameCoordinates,Original*%
%TF.FileFunction,Copper,L1,Top*%
%TF.FilePolarity,Positive*%
%FSLAX46Y46*%
G04 Gerber Fmt 4.6, Leading zero omitted, Abs format (unit mm)*
G04 Created by KiCad (PCBNEW (5.1.9)-1) date 2021-03-05 23:36:06*
%MOMM*%
%LPD*%
G01*
G04 APERTURE LIST*
%TA.AperFunction,ComponentPad*%
%ADD10O,1.750000X1.200000*%
%TD*%
%TA.AperFunction,ComponentPad*%
%ADD11C,5.600000*%
%TD*%
%TA.AperFunction,Conductor*%
%ADD12C,0.508000*%
%TD*%
G04 APERTURE END LIST*
D10*
%TO.P,J4,9*%
%TO.N,Net-(J3-Pad1)*%
X82200000Y-59120000D03*
%TO.P,J4,8*%
%TO.N,Net-(J3-Pad2)*%
X82200000Y-61120000D03*
%TO.P,J4,7*%
%TO.N,Net-(J3-Pad3)*%
X82200000Y-63120000D03*
%TO.P,J4,6*%
%TO.N,Net-(J3-Pad4)*%
X82200000Y-65120000D03*
%TO.P,J4,5*%
%TO.N,Net-(J3-Pad5)*%
X82200000Y-67120000D03*
%TO.P,J4,4*%
%TO.N,Net-(J3-Pad6)*%
X82200000Y-69120000D03*
%TO.P,J4,3*%
%TO.N,Net-(J3-Pad7)*%
X82200000Y-71120000D03*
%TO.P,J4,2*%
%TO.N,Net-(J3-Pad8)*%
X82200000Y-73120000D03*
%TO.P,J4,1*%
%TO.N,Net-(J3-Pad9)*%
%TA.AperFunction,ComponentPad*%
G36*
G01*
X82825001Y-75720000D02*
X81574999Y-75720000D01*
G75*
G02*
X81325000Y-75470001I0J249999D01*
G01*
X81325000Y-74769999D01*
G75*
G02*
X81574999Y-74520000I249999J0D01*
G01*
X82825001Y-74520000D01*
G75*
G02*
X83075000Y-74769999I0J-249999D01*
G01*
X83075000Y-75470001D01*
G75*
G02*
X82825001Y-75720000I-249999J0D01*
G01*
G37*
%TD.AperFunction*%
%TD*%
%TO.P,J3,9*%
%TO.N,Net-(J3-Pad9)*%
X66802000Y-75113000D03*
%TO.P,J3,8*%
%TO.N,Net-(J3-Pad8)*%
X66802000Y-73113000D03*
%TO.P,J3,7*%
%TO.N,Net-(J3-Pad7)*%
X66802000Y-71113000D03*
%TO.P,J3,6*%
%TO.N,Net-(J3-Pad6)*%
X66802000Y-69113000D03*
%TO.P,J3,5*%
%TO.N,Net-(J3-Pad5)*%
X66802000Y-67113000D03*
%TO.P,J3,4*%
%TO.N,Net-(J3-Pad4)*%
X66802000Y-65113000D03*
%TO.P,J3,3*%
%TO.N,Net-(J3-Pad3)*%
X66802000Y-63113000D03*
%TO.P,J3,2*%
%TO.N,Net-(J3-Pad2)*%
X66802000Y-61113000D03*
%TO.P,J3,1*%
%TO.N,Net-(J3-Pad1)*%
%TA.AperFunction,ComponentPad*%
G36*
G01*
X66176999Y-58513000D02*
X67427001Y-58513000D01*
G75*
G02*
X67677000Y-58762999I0J-249999D01*
G01*
X67677000Y-59463001D01*
G75*
G02*
X67427001Y-59713000I-249999J0D01*
G01*
X66176999Y-59713000D01*
G75*
G02*
X65927000Y-59463001I0J249999D01*
G01*
X65927000Y-58762999D01*
G75*
G02*
X66176999Y-58513000I249999J0D01*
G01*
G37*
%TD.AperFunction*%
%TD*%
%TO.P,J2,4*%
%TO.N,Net-(J1-Pad1)*%
X82190000Y-47280000D03*
%TO.P,J2,3*%
%TO.N,Net-(J1-Pad2)*%
X82190000Y-49280000D03*
%TO.P,J2,2*%
%TO.N,Net-(J1-Pad3)*%
X82190000Y-51280000D03*
%TO.P,J2,1*%
%TO.N,Net-(J1-Pad4)*%
%TA.AperFunction,ComponentPad*%
G36*
G01*
X82815001Y-53880000D02*
X81564999Y-53880000D01*
G75*
G02*
X81315000Y-53630001I0J249999D01*
G01*
X81315000Y-52929999D01*
G75*
G02*
X81564999Y-52680000I249999J0D01*
G01*
X82815001Y-52680000D01*
G75*
G02*
X83065000Y-52929999I0J-249999D01*
G01*
X83065000Y-53630001D01*
G75*
G02*
X82815001Y-53880000I-249999J0D01*
G01*
G37*
%TD.AperFunction*%
%TD*%
%TO.P,J1,4*%
%TO.N,Net-(J1-Pad4)*%
X66722000Y-53286000D03*
%TO.P,J1,3*%
%TO.N,Net-(J1-Pad3)*%
X66722000Y-51286000D03*
%TO.P,J1,2*%
%TO.N,Net-(J1-Pad2)*%
X66722000Y-49286000D03*
%TO.P,J1,1*%
%TO.N,Net-(J1-Pad1)*%
%TA.AperFunction,ComponentPad*%
G36*
G01*
X66096999Y-46686000D02*
X67347001Y-46686000D01*
G75*
G02*
X67597000Y-46935999I0J-249999D01*
G01*
X67597000Y-47636001D01*
G75*
G02*
X67347001Y-47886000I-249999J0D01*
G01*
X66096999Y-47886000D01*
G75*
G02*
X65847000Y-47636001I0J249999D01*
G01*
X65847000Y-46935999D01*
G75*
G02*
X66096999Y-46686000I249999J0D01*
G01*
G37*
%TD.AperFunction*%
%TD*%
D11*
%TO.P,H2,1*%
%TO.N,N/C*%
X73820000Y-72560000D03*
%TD*%
%TO.P,H1,1*%
%TO.N,N/C*%
X73840000Y-50090000D03*
%TD*%
D12*
%TO.N,Net-(J1-Pad4)*%
X66722000Y-53286000D02*
X66736000Y-53286000D01*
X66736000Y-53286000D02*
X68220000Y-54770000D01*
X80700000Y-54770000D02*
X82190000Y-53280000D01*
X68220000Y-54770000D02*
X80700000Y-54770000D01*
%TO.N,Net-(J1-Pad3)*%
X83230000Y-51280000D02*
X82190000Y-51280000D01*
X84120000Y-52170000D02*
X83230000Y-51280000D01*
X82920000Y-56070000D02*
X84120000Y-54870000D01*
X67020000Y-56070000D02*
X82920000Y-56070000D01*
X65020000Y-54070000D02*
X67020000Y-56070000D01*
X65020000Y-52370000D02*
X65020000Y-54070000D01*
X66104000Y-51286000D02*
X65020000Y-52370000D01*
X84120000Y-54870000D02*
X84120000Y-52170000D01*
X66722000Y-51286000D02*
X66104000Y-51286000D01*
%TO.N,Net-(J1-Pad2)*%
X83810000Y-49280000D02*
X82190000Y-49280000D01*
X84120000Y-48970000D02*
X83810000Y-49280000D01*
X65620000Y-45170000D02*
X83120000Y-45170000D01*
X64520000Y-46270000D02*
X65620000Y-45170000D01*
X84120000Y-46170000D02*
X84120000Y-48970000D01*
X64520000Y-48170000D02*
X64520000Y-46270000D01*
X83120000Y-45170000D02*
X84120000Y-46170000D01*
X65636000Y-49286000D02*
X64520000Y-48170000D01*
X66722000Y-49286000D02*
X65636000Y-49286000D01*
%TO.N,Net-(J1-Pad1)*%
X66722000Y-47286000D02*
X67738000Y-46270000D01*
X81180000Y-46270000D02*
X82190000Y-47280000D01*
X67738000Y-46270000D02*
X81180000Y-46270000D01*
%TO.N,Net-(J3-Pad8)*%
X84700000Y-76300000D02*
X84700000Y-74200000D01*
X83600000Y-77400000D02*
X84700000Y-76300000D01*
X83620000Y-73120000D02*
X82200000Y-73120000D01*
X65500000Y-77400000D02*
X83600000Y-77400000D01*
X64300000Y-76200000D02*
X65500000Y-77400000D01*
X64300000Y-74300000D02*
X64300000Y-76200000D01*
X84700000Y-74200000D02*
X83620000Y-73120000D01*
X65487000Y-73113000D02*
X64300000Y-74300000D01*
X66802000Y-73113000D02*
X65487000Y-73113000D01*
%TO.N,Net-(J3-Pad7)*%
X66802000Y-71113000D02*
X67887000Y-71113000D01*
X67887000Y-71113000D02*
X70000000Y-69000000D01*
X70000000Y-69000000D02*
X79000000Y-69000000D01*
X81120000Y-71120000D02*
X82200000Y-71120000D01*
X79000000Y-69000000D02*
X81120000Y-71120000D01*
%TO.N,Net-(J3-Pad6)*%
X67887000Y-69113000D02*
X70000000Y-67000000D01*
X66802000Y-69113000D02*
X67887000Y-69113000D01*
X79000000Y-67000000D02*
X81120000Y-69120000D01*
X81120000Y-69120000D02*
X82200000Y-69120000D01*
X70000000Y-67000000D02*
X79000000Y-67000000D01*
%TO.N,Net-(J3-Pad5)*%
X67887000Y-67113000D02*
X70000000Y-65000000D01*
X66802000Y-67113000D02*
X67887000Y-67113000D01*
X79000000Y-65000000D02*
X81120000Y-67120000D01*
X81120000Y-67120000D02*
X82200000Y-67120000D01*
X70000000Y-65000000D02*
X79000000Y-65000000D01*
%TO.N,Net-(J3-Pad4)*%
X67887000Y-65113000D02*
X70000000Y-63000000D01*
X66802000Y-65113000D02*
X67887000Y-65113000D01*
X79000000Y-63000000D02*
X81120000Y-65120000D01*
X81120000Y-65120000D02*
X82200000Y-65120000D01*
X70000000Y-63000000D02*
X79000000Y-63000000D01*
%TO.N,Net-(J3-Pad3)*%
X67887000Y-63113000D02*
X70000000Y-61000000D01*
X66802000Y-63113000D02*
X67887000Y-63113000D01*
X79000000Y-61000000D02*
X81120000Y-63120000D01*
X81120000Y-63120000D02*
X82200000Y-63120000D01*
X70000000Y-61000000D02*
X79000000Y-61000000D01*
%TO.N,Net-(J3-Pad2)*%
X67887000Y-61113000D02*
X70000000Y-59000000D01*
X66802000Y-61113000D02*
X67887000Y-61113000D01*
X79000000Y-59000000D02*
X81120000Y-61120000D01*
X81120000Y-61120000D02*
X82200000Y-61120000D01*
X70000000Y-59000000D02*
X79000000Y-59000000D01*
%TO.N,Net-(J3-Pad1)*%
X67887000Y-59113000D02*
X70000000Y-57000000D01*
X66802000Y-59113000D02*
X67887000Y-59113000D01*
X79000000Y-57000000D02*
X81120000Y-59120000D01*
X81120000Y-59120000D02*
X82200000Y-59120000D01*
X70000000Y-57000000D02*
X79000000Y-57000000D01*
X82193000Y-59113000D02*
X82200000Y-59120000D01*
%TO.N,Net-(J3-Pad9)*%
X66802000Y-75113000D02*
X66813000Y-75113000D01*
X67800000Y-76100000D02*
X70100000Y-76100000D01*
X66813000Y-75113000D02*
X67800000Y-76100000D01*
X69500000Y-76100000D02*
X70100000Y-76100000D01*
X81220000Y-76100000D02*
X82200000Y-75120000D01*
X70100000Y-76100000D02*
X81220000Y-76100000D01*
%TD*%
M02*
