%TF.GenerationSoftware,KiCad,Pcbnew,(5.1.9)-1*%
%TF.CreationDate,2021-03-11T22:21:21-06:00*%
%TF.ProjectId,OpeNITHM-Tower-Extenders__Right-Tower,4f70654e-4954-4484-9d2d-546f7765722d,rev?*%
%TF.SameCoordinates,Original*%
%TF.FileFunction,Legend,Bot*%
%TF.FilePolarity,Positive*%
%FSLAX46Y46*%
G04 Gerber Fmt 4.6, Leading zero omitted, Abs format (unit mm)*
G04 Created by KiCad (PCBNEW (5.1.9)-1) date 2021-03-11 22:21:21*
%MOMM*%
%LPD*%
G01*
G04 APERTURE LIST*
%ADD10C,0.125000*%
G04 APERTURE END LIST*
D10*
X79058809Y-64662380D02*
X79558809Y-64662380D01*
X79558809Y-64543333D01*
X79535000Y-64471904D01*
X79487380Y-64424285D01*
X79439761Y-64400476D01*
X79344523Y-64376666D01*
X79273095Y-64376666D01*
X79177857Y-64400476D01*
X79130238Y-64424285D01*
X79082619Y-64471904D01*
X79058809Y-64543333D01*
X79058809Y-64662380D01*
X79082619Y-63971904D02*
X79058809Y-64019523D01*
X79058809Y-64114761D01*
X79082619Y-64162380D01*
X79130238Y-64186190D01*
X79320714Y-64186190D01*
X79368333Y-64162380D01*
X79392142Y-64114761D01*
X79392142Y-64019523D01*
X79368333Y-63971904D01*
X79320714Y-63948095D01*
X79273095Y-63948095D01*
X79225476Y-64186190D01*
X79082619Y-63757619D02*
X79058809Y-63710000D01*
X79058809Y-63614761D01*
X79082619Y-63567142D01*
X79130238Y-63543333D01*
X79154047Y-63543333D01*
X79201666Y-63567142D01*
X79225476Y-63614761D01*
X79225476Y-63686190D01*
X79249285Y-63733809D01*
X79296904Y-63757619D01*
X79320714Y-63757619D01*
X79368333Y-63733809D01*
X79392142Y-63686190D01*
X79392142Y-63614761D01*
X79368333Y-63567142D01*
X79058809Y-63329047D02*
X79392142Y-63329047D01*
X79558809Y-63329047D02*
X79535000Y-63352857D01*
X79511190Y-63329047D01*
X79535000Y-63305238D01*
X79558809Y-63329047D01*
X79511190Y-63329047D01*
X79392142Y-62876666D02*
X78987380Y-62876666D01*
X78939761Y-62900476D01*
X78915952Y-62924285D01*
X78892142Y-62971904D01*
X78892142Y-63043333D01*
X78915952Y-63090952D01*
X79082619Y-62876666D02*
X79058809Y-62924285D01*
X79058809Y-63019523D01*
X79082619Y-63067142D01*
X79106428Y-63090952D01*
X79154047Y-63114761D01*
X79296904Y-63114761D01*
X79344523Y-63090952D01*
X79368333Y-63067142D01*
X79392142Y-63019523D01*
X79392142Y-62924285D01*
X79368333Y-62876666D01*
X79392142Y-62638571D02*
X79058809Y-62638571D01*
X79344523Y-62638571D02*
X79368333Y-62614761D01*
X79392142Y-62567142D01*
X79392142Y-62495714D01*
X79368333Y-62448095D01*
X79320714Y-62424285D01*
X79058809Y-62424285D01*
X79058809Y-61805238D02*
X79558809Y-61805238D01*
X79368333Y-61805238D02*
X79392142Y-61757619D01*
X79392142Y-61662380D01*
X79368333Y-61614761D01*
X79344523Y-61590952D01*
X79296904Y-61567142D01*
X79154047Y-61567142D01*
X79106428Y-61590952D01*
X79082619Y-61614761D01*
X79058809Y-61662380D01*
X79058809Y-61757619D01*
X79082619Y-61805238D01*
X79392142Y-61400476D02*
X79058809Y-61281428D01*
X79392142Y-61162380D02*
X79058809Y-61281428D01*
X78939761Y-61329047D01*
X78915952Y-61352857D01*
X78892142Y-61400476D01*
X79082619Y-60614761D02*
X79058809Y-60543333D01*
X79058809Y-60424285D01*
X79082619Y-60376666D01*
X79106428Y-60352857D01*
X79154047Y-60329047D01*
X79201666Y-60329047D01*
X79249285Y-60352857D01*
X79273095Y-60376666D01*
X79296904Y-60424285D01*
X79320714Y-60519523D01*
X79344523Y-60567142D01*
X79368333Y-60590952D01*
X79415952Y-60614761D01*
X79463571Y-60614761D01*
X79511190Y-60590952D01*
X79535000Y-60567142D01*
X79558809Y-60519523D01*
X79558809Y-60400476D01*
X79535000Y-60329047D01*
X79058809Y-60114761D02*
X79558809Y-60114761D01*
X79249285Y-60067142D02*
X79058809Y-59924285D01*
X79392142Y-59924285D02*
X79201666Y-60114761D01*
X79058809Y-59638571D02*
X79082619Y-59686190D01*
X79106428Y-59710000D01*
X79154047Y-59733809D01*
X79296904Y-59733809D01*
X79344523Y-59710000D01*
X79368333Y-59686190D01*
X79392142Y-59638571D01*
X79392142Y-59567142D01*
X79368333Y-59519523D01*
X79344523Y-59495714D01*
X79296904Y-59471904D01*
X79154047Y-59471904D01*
X79106428Y-59495714D01*
X79082619Y-59519523D01*
X79058809Y-59567142D01*
X79058809Y-59638571D01*
X79392142Y-59043333D02*
X78987380Y-59043333D01*
X78939761Y-59067142D01*
X78915952Y-59090952D01*
X78892142Y-59138571D01*
X78892142Y-59210000D01*
X78915952Y-59257619D01*
X79082619Y-59043333D02*
X79058809Y-59090952D01*
X79058809Y-59186190D01*
X79082619Y-59233809D01*
X79106428Y-59257619D01*
X79154047Y-59281428D01*
X79296904Y-59281428D01*
X79344523Y-59257619D01*
X79368333Y-59233809D01*
X79392142Y-59186190D01*
X79392142Y-59090952D01*
X79368333Y-59043333D01*
X79058809Y-58590952D02*
X79320714Y-58590952D01*
X79368333Y-58614761D01*
X79392142Y-58662380D01*
X79392142Y-58757619D01*
X79368333Y-58805238D01*
X79082619Y-58590952D02*
X79058809Y-58638571D01*
X79058809Y-58757619D01*
X79082619Y-58805238D01*
X79130238Y-58829047D01*
X79177857Y-58829047D01*
X79225476Y-58805238D01*
X79249285Y-58757619D01*
X79249285Y-58638571D01*
X79273095Y-58590952D01*
X79058809Y-58352857D02*
X79558809Y-58352857D01*
X79368333Y-58352857D02*
X79392142Y-58305238D01*
X79392142Y-58210000D01*
X79368333Y-58162380D01*
X79344523Y-58138571D01*
X79296904Y-58114761D01*
X79154047Y-58114761D01*
X79106428Y-58138571D01*
X79082619Y-58162380D01*
X79058809Y-58210000D01*
X79058809Y-58305238D01*
X79082619Y-58352857D01*
X79392142Y-57948095D02*
X79058809Y-57829047D01*
X79392142Y-57710000D02*
X79058809Y-57829047D01*
X78939761Y-57876666D01*
X78915952Y-57900476D01*
X78892142Y-57948095D01*
X78445714Y-70507619D02*
X78421904Y-70436190D01*
X78398095Y-70412380D01*
X78350476Y-70388571D01*
X78279047Y-70388571D01*
X78231428Y-70412380D01*
X78207619Y-70436190D01*
X78183809Y-70483809D01*
X78183809Y-70674285D01*
X78683809Y-70674285D01*
X78683809Y-70507619D01*
X78660000Y-70460000D01*
X78636190Y-70436190D01*
X78588571Y-70412380D01*
X78540952Y-70412380D01*
X78493333Y-70436190D01*
X78469523Y-70460000D01*
X78445714Y-70507619D01*
X78445714Y-70674285D01*
X78183809Y-69960000D02*
X78445714Y-69960000D01*
X78493333Y-69983809D01*
X78517142Y-70031428D01*
X78517142Y-70126666D01*
X78493333Y-70174285D01*
X78207619Y-69960000D02*
X78183809Y-70007619D01*
X78183809Y-70126666D01*
X78207619Y-70174285D01*
X78255238Y-70198095D01*
X78302857Y-70198095D01*
X78350476Y-70174285D01*
X78374285Y-70126666D01*
X78374285Y-70007619D01*
X78398095Y-69960000D01*
X78207619Y-69745714D02*
X78183809Y-69698095D01*
X78183809Y-69602857D01*
X78207619Y-69555238D01*
X78255238Y-69531428D01*
X78279047Y-69531428D01*
X78326666Y-69555238D01*
X78350476Y-69602857D01*
X78350476Y-69674285D01*
X78374285Y-69721904D01*
X78421904Y-69745714D01*
X78445714Y-69745714D01*
X78493333Y-69721904D01*
X78517142Y-69674285D01*
X78517142Y-69602857D01*
X78493333Y-69555238D01*
X78207619Y-69126666D02*
X78183809Y-69174285D01*
X78183809Y-69269523D01*
X78207619Y-69317142D01*
X78255238Y-69340952D01*
X78445714Y-69340952D01*
X78493333Y-69317142D01*
X78517142Y-69269523D01*
X78517142Y-69174285D01*
X78493333Y-69126666D01*
X78445714Y-69102857D01*
X78398095Y-69102857D01*
X78350476Y-69340952D01*
X78183809Y-68674285D02*
X78683809Y-68674285D01*
X78207619Y-68674285D02*
X78183809Y-68721904D01*
X78183809Y-68817142D01*
X78207619Y-68864761D01*
X78231428Y-68888571D01*
X78279047Y-68912380D01*
X78421904Y-68912380D01*
X78469523Y-68888571D01*
X78493333Y-68864761D01*
X78517142Y-68817142D01*
X78517142Y-68721904D01*
X78493333Y-68674285D01*
X78183809Y-67983809D02*
X78207619Y-68031428D01*
X78231428Y-68055238D01*
X78279047Y-68079047D01*
X78421904Y-68079047D01*
X78469523Y-68055238D01*
X78493333Y-68031428D01*
X78517142Y-67983809D01*
X78517142Y-67912380D01*
X78493333Y-67864761D01*
X78469523Y-67840952D01*
X78421904Y-67817142D01*
X78279047Y-67817142D01*
X78231428Y-67840952D01*
X78207619Y-67864761D01*
X78183809Y-67912380D01*
X78183809Y-67983809D01*
X78517142Y-67602857D02*
X78183809Y-67602857D01*
X78469523Y-67602857D02*
X78493333Y-67579047D01*
X78517142Y-67531428D01*
X78517142Y-67460000D01*
X78493333Y-67412380D01*
X78445714Y-67388571D01*
X78183809Y-67388571D01*
X78517142Y-66817142D02*
X78183809Y-66721904D01*
X78421904Y-66626666D01*
X78183809Y-66531428D01*
X78517142Y-66436190D01*
X78183809Y-66174285D02*
X78207619Y-66221904D01*
X78231428Y-66245714D01*
X78279047Y-66269523D01*
X78421904Y-66269523D01*
X78469523Y-66245714D01*
X78493333Y-66221904D01*
X78517142Y-66174285D01*
X78517142Y-66102857D01*
X78493333Y-66055238D01*
X78469523Y-66031428D01*
X78421904Y-66007619D01*
X78279047Y-66007619D01*
X78231428Y-66031428D01*
X78207619Y-66055238D01*
X78183809Y-66102857D01*
X78183809Y-66174285D01*
X78183809Y-65793333D02*
X78517142Y-65793333D01*
X78421904Y-65793333D02*
X78469523Y-65769523D01*
X78493333Y-65745714D01*
X78517142Y-65698095D01*
X78517142Y-65650476D01*
X78183809Y-65483809D02*
X78683809Y-65483809D01*
X78374285Y-65436190D02*
X78183809Y-65293333D01*
X78517142Y-65293333D02*
X78326666Y-65483809D01*
X78183809Y-64698095D02*
X78683809Y-64698095D01*
X78493333Y-64698095D02*
X78517142Y-64650476D01*
X78517142Y-64555238D01*
X78493333Y-64507619D01*
X78469523Y-64483809D01*
X78421904Y-64460000D01*
X78279047Y-64460000D01*
X78231428Y-64483809D01*
X78207619Y-64507619D01*
X78183809Y-64555238D01*
X78183809Y-64650476D01*
X78207619Y-64698095D01*
X78517142Y-64293333D02*
X78183809Y-64174285D01*
X78517142Y-64055238D02*
X78183809Y-64174285D01*
X78064761Y-64221904D01*
X78040952Y-64245714D01*
X78017142Y-64293333D01*
X78683809Y-63555238D02*
X78183809Y-63388571D01*
X78683809Y-63221904D01*
X78207619Y-62864761D02*
X78183809Y-62912380D01*
X78183809Y-63007619D01*
X78207619Y-63055238D01*
X78255238Y-63079047D01*
X78445714Y-63079047D01*
X78493333Y-63055238D01*
X78517142Y-63007619D01*
X78517142Y-62912380D01*
X78493333Y-62864761D01*
X78445714Y-62840952D01*
X78398095Y-62840952D01*
X78350476Y-63079047D01*
X78183809Y-62626666D02*
X78517142Y-62626666D01*
X78421904Y-62626666D02*
X78469523Y-62602857D01*
X78493333Y-62579047D01*
X78517142Y-62531428D01*
X78517142Y-62483809D01*
X78183809Y-62245714D02*
X78207619Y-62293333D01*
X78231428Y-62317142D01*
X78279047Y-62340952D01*
X78421904Y-62340952D01*
X78469523Y-62317142D01*
X78493333Y-62293333D01*
X78517142Y-62245714D01*
X78517142Y-62174285D01*
X78493333Y-62126666D01*
X78469523Y-62102857D01*
X78421904Y-62079047D01*
X78279047Y-62079047D01*
X78231428Y-62102857D01*
X78207619Y-62126666D01*
X78183809Y-62174285D01*
X78183809Y-62245714D01*
X78183809Y-61912380D02*
X78517142Y-61650476D01*
X78517142Y-61912380D02*
X78183809Y-61650476D01*
X78683809Y-61507619D02*
X78683809Y-61174285D01*
X78183809Y-61507619D01*
X78183809Y-61174285D01*
X78183809Y-60983809D02*
X78517142Y-60983809D01*
X78683809Y-60983809D02*
X78660000Y-61007619D01*
X78636190Y-60983809D01*
X78660000Y-60960000D01*
X78683809Y-60983809D01*
X78636190Y-60983809D01*
X78183809Y-60745714D02*
X78683809Y-60745714D01*
X78374285Y-60698095D02*
X78183809Y-60555238D01*
X78517142Y-60555238D02*
X78326666Y-60745714D01*
X78207619Y-60317142D02*
X78183809Y-60317142D01*
X78136190Y-60340952D01*
X78112380Y-60364761D01*
X78183809Y-59721904D02*
X78683809Y-59721904D01*
X78183809Y-59436190D02*
X78469523Y-59650476D01*
X78683809Y-59436190D02*
X78398095Y-59721904D01*
X78207619Y-59031428D02*
X78183809Y-59079047D01*
X78183809Y-59174285D01*
X78207619Y-59221904D01*
X78255238Y-59245714D01*
X78445714Y-59245714D01*
X78493333Y-59221904D01*
X78517142Y-59174285D01*
X78517142Y-59079047D01*
X78493333Y-59031428D01*
X78445714Y-59007619D01*
X78398095Y-59007619D01*
X78350476Y-59245714D01*
X78517142Y-58840952D02*
X78183809Y-58721904D01*
X78517142Y-58602857D01*
X78183809Y-58412380D02*
X78517142Y-58412380D01*
X78469523Y-58412380D02*
X78493333Y-58388571D01*
X78517142Y-58340952D01*
X78517142Y-58269523D01*
X78493333Y-58221904D01*
X78445714Y-58198095D01*
X78183809Y-58198095D01*
X78445714Y-58198095D02*
X78493333Y-58174285D01*
X78517142Y-58126666D01*
X78517142Y-58055238D01*
X78493333Y-58007619D01*
X78445714Y-57983809D01*
X78183809Y-57983809D01*
X78183809Y-57531428D02*
X78445714Y-57531428D01*
X78493333Y-57555238D01*
X78517142Y-57602857D01*
X78517142Y-57698095D01*
X78493333Y-57745714D01*
X78207619Y-57531428D02*
X78183809Y-57579047D01*
X78183809Y-57698095D01*
X78207619Y-57745714D01*
X78255238Y-57769523D01*
X78302857Y-57769523D01*
X78350476Y-57745714D01*
X78374285Y-57698095D01*
X78374285Y-57579047D01*
X78398095Y-57531428D01*
X78517142Y-57293333D02*
X78183809Y-57293333D01*
X78469523Y-57293333D02*
X78493333Y-57269523D01*
X78517142Y-57221904D01*
X78517142Y-57150476D01*
X78493333Y-57102857D01*
X78445714Y-57079047D01*
X78183809Y-57079047D01*
X78683809Y-56888571D02*
X78683809Y-56579047D01*
X78493333Y-56745714D01*
X78493333Y-56674285D01*
X78469523Y-56626666D01*
X78445714Y-56602857D01*
X78398095Y-56579047D01*
X78279047Y-56579047D01*
X78231428Y-56602857D01*
X78207619Y-56626666D01*
X78183809Y-56674285D01*
X78183809Y-56817142D01*
X78207619Y-56864761D01*
X78231428Y-56888571D01*
X78636190Y-56388571D02*
X78660000Y-56364761D01*
X78683809Y-56317142D01*
X78683809Y-56198095D01*
X78660000Y-56150476D01*
X78636190Y-56126666D01*
X78588571Y-56102857D01*
X78540952Y-56102857D01*
X78469523Y-56126666D01*
X78183809Y-56412380D01*
X78183809Y-56102857D01*
X78683809Y-55936190D02*
X78683809Y-55626666D01*
X78493333Y-55793333D01*
X78493333Y-55721904D01*
X78469523Y-55674285D01*
X78445714Y-55650476D01*
X78398095Y-55626666D01*
X78279047Y-55626666D01*
X78231428Y-55650476D01*
X78207619Y-55674285D01*
X78183809Y-55721904D01*
X78183809Y-55864761D01*
X78207619Y-55912380D01*
X78231428Y-55936190D01*
X78207619Y-55388571D02*
X78183809Y-55388571D01*
X78136190Y-55412380D01*
X78112380Y-55436190D01*
X78517142Y-54793333D02*
X78183809Y-54793333D01*
X78469523Y-54793333D02*
X78493333Y-54769523D01*
X78517142Y-54721904D01*
X78517142Y-54650476D01*
X78493333Y-54602857D01*
X78445714Y-54579047D01*
X78183809Y-54579047D01*
X78183809Y-54340952D02*
X78517142Y-54340952D01*
X78683809Y-54340952D02*
X78660000Y-54364761D01*
X78636190Y-54340952D01*
X78660000Y-54317142D01*
X78683809Y-54340952D01*
X78636190Y-54340952D01*
X78207619Y-53888571D02*
X78183809Y-53936190D01*
X78183809Y-54031428D01*
X78207619Y-54079047D01*
X78231428Y-54102857D01*
X78279047Y-54126666D01*
X78421904Y-54126666D01*
X78469523Y-54102857D01*
X78493333Y-54079047D01*
X78517142Y-54031428D01*
X78517142Y-53936190D01*
X78493333Y-53888571D01*
X78183809Y-53602857D02*
X78207619Y-53650476D01*
X78231428Y-53674285D01*
X78279047Y-53698095D01*
X78421904Y-53698095D01*
X78469523Y-53674285D01*
X78493333Y-53650476D01*
X78517142Y-53602857D01*
X78517142Y-53531428D01*
X78493333Y-53483809D01*
X78469523Y-53460000D01*
X78421904Y-53436190D01*
X78279047Y-53436190D01*
X78231428Y-53460000D01*
X78207619Y-53483809D01*
X78183809Y-53531428D01*
X78183809Y-53602857D01*
X78183809Y-53150476D02*
X78207619Y-53198095D01*
X78255238Y-53221904D01*
X78683809Y-53221904D01*
X78207619Y-52769523D02*
X78183809Y-52817142D01*
X78183809Y-52912380D01*
X78207619Y-52960000D01*
X78255238Y-52983809D01*
X78445714Y-52983809D01*
X78493333Y-52960000D01*
X78517142Y-52912380D01*
X78517142Y-52817142D01*
X78493333Y-52769523D01*
X78445714Y-52745714D01*
X78398095Y-52745714D01*
X78350476Y-52983809D01*
X78207619Y-52555238D02*
X78183809Y-52507619D01*
X78183809Y-52412380D01*
X78207619Y-52364761D01*
X78255238Y-52340952D01*
X78279047Y-52340952D01*
X78326666Y-52364761D01*
X78350476Y-52412380D01*
X78350476Y-52483809D01*
X78374285Y-52531428D01*
X78421904Y-52555238D01*
X78445714Y-52555238D01*
X78493333Y-52531428D01*
X78517142Y-52483809D01*
X78517142Y-52412380D01*
X78493333Y-52364761D01*
X78207619Y-52102857D02*
X78183809Y-52102857D01*
X78136190Y-52126666D01*
X78112380Y-52150476D01*
X77808809Y-69912380D02*
X77308809Y-69793333D01*
X77665952Y-69698095D01*
X77308809Y-69602857D01*
X77808809Y-69483809D01*
X77308809Y-69293333D02*
X77642142Y-69293333D01*
X77808809Y-69293333D02*
X77785000Y-69317142D01*
X77761190Y-69293333D01*
X77785000Y-69269523D01*
X77808809Y-69293333D01*
X77761190Y-69293333D01*
X77642142Y-69055238D02*
X77308809Y-69055238D01*
X77594523Y-69055238D02*
X77618333Y-69031428D01*
X77642142Y-68983809D01*
X77642142Y-68912380D01*
X77618333Y-68864761D01*
X77570714Y-68840952D01*
X77308809Y-68840952D01*
X77570714Y-68602857D02*
X77570714Y-68436190D01*
X77308809Y-68364761D02*
X77308809Y-68602857D01*
X77808809Y-68602857D01*
X77808809Y-68364761D01*
X77642142Y-68150476D02*
X77142142Y-68150476D01*
X77618333Y-68150476D02*
X77642142Y-68102857D01*
X77642142Y-68007619D01*
X77618333Y-67960000D01*
X77594523Y-67936190D01*
X77546904Y-67912380D01*
X77404047Y-67912380D01*
X77356428Y-67936190D01*
X77332619Y-67960000D01*
X77308809Y-68007619D01*
X77308809Y-68102857D01*
X77332619Y-68150476D01*
X77308809Y-67698095D02*
X77642142Y-67698095D01*
X77808809Y-67698095D02*
X77785000Y-67721904D01*
X77761190Y-67698095D01*
X77785000Y-67674285D01*
X77808809Y-67698095D01*
X77761190Y-67698095D01*
X77332619Y-67245714D02*
X77308809Y-67293333D01*
X77308809Y-67388571D01*
X77332619Y-67436190D01*
X77356428Y-67460000D01*
X77404047Y-67483809D01*
X77546904Y-67483809D01*
X77594523Y-67460000D01*
X77618333Y-67436190D01*
X77642142Y-67388571D01*
X77642142Y-67293333D01*
X77618333Y-67245714D01*
X77332619Y-67007619D02*
X77308809Y-67007619D01*
X77261190Y-67031428D01*
X77237380Y-67055238D01*
X77308809Y-66412380D02*
X77642142Y-66412380D01*
X77594523Y-66412380D02*
X77618333Y-66388571D01*
X77642142Y-66340952D01*
X77642142Y-66269523D01*
X77618333Y-66221904D01*
X77570714Y-66198095D01*
X77308809Y-66198095D01*
X77570714Y-66198095D02*
X77618333Y-66174285D01*
X77642142Y-66126666D01*
X77642142Y-66055238D01*
X77618333Y-66007619D01*
X77570714Y-65983809D01*
X77308809Y-65983809D01*
X77308809Y-65745714D02*
X77642142Y-65745714D01*
X77808809Y-65745714D02*
X77785000Y-65769523D01*
X77761190Y-65745714D01*
X77785000Y-65721904D01*
X77808809Y-65745714D01*
X77761190Y-65745714D01*
X77332619Y-65293333D02*
X77308809Y-65340952D01*
X77308809Y-65436190D01*
X77332619Y-65483809D01*
X77356428Y-65507619D01*
X77404047Y-65531428D01*
X77546904Y-65531428D01*
X77594523Y-65507619D01*
X77618333Y-65483809D01*
X77642142Y-65436190D01*
X77642142Y-65340952D01*
X77618333Y-65293333D01*
X77308809Y-65079047D02*
X77808809Y-65079047D01*
X77499285Y-65031428D02*
X77308809Y-64888571D01*
X77642142Y-64888571D02*
X77451666Y-65079047D01*
X77308809Y-64460000D02*
X77570714Y-64460000D01*
X77618333Y-64483809D01*
X77642142Y-64531428D01*
X77642142Y-64626666D01*
X77618333Y-64674285D01*
X77332619Y-64460000D02*
X77308809Y-64507619D01*
X77308809Y-64626666D01*
X77332619Y-64674285D01*
X77380238Y-64698095D01*
X77427857Y-64698095D01*
X77475476Y-64674285D01*
X77499285Y-64626666D01*
X77499285Y-64507619D01*
X77523095Y-64460000D01*
X77308809Y-64221904D02*
X77808809Y-64221904D01*
X77618333Y-64221904D02*
X77642142Y-64174285D01*
X77642142Y-64079047D01*
X77618333Y-64031428D01*
X77594523Y-64007619D01*
X77546904Y-63983809D01*
X77404047Y-63983809D01*
X77356428Y-64007619D01*
X77332619Y-64031428D01*
X77308809Y-64079047D01*
X77308809Y-64174285D01*
X77332619Y-64221904D01*
X77308809Y-63769523D02*
X77642142Y-63769523D01*
X77546904Y-63769523D02*
X77594523Y-63745714D01*
X77618333Y-63721904D01*
X77642142Y-63674285D01*
X77642142Y-63626666D01*
X77308809Y-63460000D02*
X77642142Y-63460000D01*
X77808809Y-63460000D02*
X77785000Y-63483809D01*
X77761190Y-63460000D01*
X77785000Y-63436190D01*
X77808809Y-63460000D01*
X77761190Y-63460000D01*
X77642142Y-63007619D02*
X77237380Y-63007619D01*
X77189761Y-63031428D01*
X77165952Y-63055238D01*
X77142142Y-63102857D01*
X77142142Y-63174285D01*
X77165952Y-63221904D01*
X77332619Y-63007619D02*
X77308809Y-63055238D01*
X77308809Y-63150476D01*
X77332619Y-63198095D01*
X77356428Y-63221904D01*
X77404047Y-63245714D01*
X77546904Y-63245714D01*
X77594523Y-63221904D01*
X77618333Y-63198095D01*
X77642142Y-63150476D01*
X77642142Y-63055238D01*
X77618333Y-63007619D01*
X77808809Y-62817142D02*
X77808809Y-62483809D01*
X77308809Y-62698095D01*
X77332619Y-62269523D02*
X77308809Y-62269523D01*
X77261190Y-62293333D01*
X77237380Y-62317142D01*
X77308809Y-61460000D02*
X77570714Y-61460000D01*
X77618333Y-61483809D01*
X77642142Y-61531428D01*
X77642142Y-61626666D01*
X77618333Y-61674285D01*
X77332619Y-61460000D02*
X77308809Y-61507619D01*
X77308809Y-61626666D01*
X77332619Y-61674285D01*
X77380238Y-61698095D01*
X77427857Y-61698095D01*
X77475476Y-61674285D01*
X77499285Y-61626666D01*
X77499285Y-61507619D01*
X77523095Y-61460000D01*
X77642142Y-61221904D02*
X77308809Y-61221904D01*
X77594523Y-61221904D02*
X77618333Y-61198095D01*
X77642142Y-61150476D01*
X77642142Y-61079047D01*
X77618333Y-61031428D01*
X77570714Y-61007619D01*
X77308809Y-61007619D01*
X77308809Y-60555238D02*
X77808809Y-60555238D01*
X77332619Y-60555238D02*
X77308809Y-60602857D01*
X77308809Y-60698095D01*
X77332619Y-60745714D01*
X77356428Y-60769523D01*
X77404047Y-60793333D01*
X77546904Y-60793333D01*
X77594523Y-60769523D01*
X77618333Y-60745714D01*
X77642142Y-60698095D01*
X77642142Y-60602857D01*
X77618333Y-60555238D01*
X77642142Y-60007619D02*
X77642142Y-59817142D01*
X77808809Y-59936190D02*
X77380238Y-59936190D01*
X77332619Y-59912380D01*
X77308809Y-59864761D01*
X77308809Y-59817142D01*
X77308809Y-59650476D02*
X77808809Y-59650476D01*
X77308809Y-59436190D02*
X77570714Y-59436190D01*
X77618333Y-59460000D01*
X77642142Y-59507619D01*
X77642142Y-59579047D01*
X77618333Y-59626666D01*
X77594523Y-59650476D01*
X77332619Y-59007619D02*
X77308809Y-59055238D01*
X77308809Y-59150476D01*
X77332619Y-59198095D01*
X77380238Y-59221904D01*
X77570714Y-59221904D01*
X77618333Y-59198095D01*
X77642142Y-59150476D01*
X77642142Y-59055238D01*
X77618333Y-59007619D01*
X77570714Y-58983809D01*
X77523095Y-58983809D01*
X77475476Y-59221904D01*
X77356428Y-58102857D02*
X77332619Y-58126666D01*
X77308809Y-58198095D01*
X77308809Y-58245714D01*
X77332619Y-58317142D01*
X77380238Y-58364761D01*
X77427857Y-58388571D01*
X77523095Y-58412380D01*
X77594523Y-58412380D01*
X77689761Y-58388571D01*
X77737380Y-58364761D01*
X77785000Y-58317142D01*
X77808809Y-58245714D01*
X77808809Y-58198095D01*
X77785000Y-58126666D01*
X77761190Y-58102857D01*
X77308809Y-57483809D02*
X77308809Y-57507619D01*
X77332619Y-57555238D01*
X77404047Y-57626666D01*
X77546904Y-57745714D01*
X77618333Y-57793333D01*
X77689761Y-57817142D01*
X77737380Y-57817142D01*
X77785000Y-57793333D01*
X77808809Y-57745714D01*
X77808809Y-57721904D01*
X77785000Y-57674285D01*
X77737380Y-57650476D01*
X77713571Y-57650476D01*
X77665952Y-57674285D01*
X77642142Y-57698095D01*
X77546904Y-57840952D01*
X77523095Y-57864761D01*
X77475476Y-57888571D01*
X77404047Y-57888571D01*
X77356428Y-57864761D01*
X77332619Y-57840952D01*
X77308809Y-57793333D01*
X77308809Y-57721904D01*
X77332619Y-57674285D01*
X77356428Y-57650476D01*
X77451666Y-57579047D01*
X77523095Y-57555238D01*
X77570714Y-57555238D01*
X77332619Y-57293333D02*
X77308809Y-57221904D01*
X77308809Y-57102857D01*
X77332619Y-57055238D01*
X77356428Y-57031428D01*
X77404047Y-57007619D01*
X77451666Y-57007619D01*
X77499285Y-57031428D01*
X77523095Y-57055238D01*
X77546904Y-57102857D01*
X77570714Y-57198095D01*
X77594523Y-57245714D01*
X77618333Y-57269523D01*
X77665952Y-57293333D01*
X77713571Y-57293333D01*
X77761190Y-57269523D01*
X77785000Y-57245714D01*
X77808809Y-57198095D01*
X77808809Y-57079047D01*
X77785000Y-57007619D01*
X77356428Y-56126666D02*
X77332619Y-56150476D01*
X77308809Y-56221904D01*
X77308809Y-56269523D01*
X77332619Y-56340952D01*
X77380238Y-56388571D01*
X77427857Y-56412380D01*
X77523095Y-56436190D01*
X77594523Y-56436190D01*
X77689761Y-56412380D01*
X77737380Y-56388571D01*
X77785000Y-56340952D01*
X77808809Y-56269523D01*
X77808809Y-56221904D01*
X77785000Y-56150476D01*
X77761190Y-56126666D01*
X77308809Y-55840952D02*
X77332619Y-55888571D01*
X77356428Y-55912380D01*
X77404047Y-55936190D01*
X77546904Y-55936190D01*
X77594523Y-55912380D01*
X77618333Y-55888571D01*
X77642142Y-55840952D01*
X77642142Y-55769523D01*
X77618333Y-55721904D01*
X77594523Y-55698095D01*
X77546904Y-55674285D01*
X77404047Y-55674285D01*
X77356428Y-55698095D01*
X77332619Y-55721904D01*
X77308809Y-55769523D01*
X77308809Y-55840952D01*
X77308809Y-55460000D02*
X77642142Y-55460000D01*
X77594523Y-55460000D02*
X77618333Y-55436190D01*
X77642142Y-55388571D01*
X77642142Y-55317142D01*
X77618333Y-55269523D01*
X77570714Y-55245714D01*
X77308809Y-55245714D01*
X77570714Y-55245714D02*
X77618333Y-55221904D01*
X77642142Y-55174285D01*
X77642142Y-55102857D01*
X77618333Y-55055238D01*
X77570714Y-55031428D01*
X77308809Y-55031428D01*
X77308809Y-54793333D02*
X77642142Y-54793333D01*
X77594523Y-54793333D02*
X77618333Y-54769523D01*
X77642142Y-54721904D01*
X77642142Y-54650476D01*
X77618333Y-54602857D01*
X77570714Y-54579047D01*
X77308809Y-54579047D01*
X77570714Y-54579047D02*
X77618333Y-54555238D01*
X77642142Y-54507619D01*
X77642142Y-54436190D01*
X77618333Y-54388571D01*
X77570714Y-54364761D01*
X77308809Y-54364761D01*
X77642142Y-53912380D02*
X77308809Y-53912380D01*
X77642142Y-54126666D02*
X77380238Y-54126666D01*
X77332619Y-54102857D01*
X77308809Y-54055238D01*
X77308809Y-53983809D01*
X77332619Y-53936190D01*
X77356428Y-53912380D01*
X77642142Y-53674285D02*
X77308809Y-53674285D01*
X77594523Y-53674285D02*
X77618333Y-53650476D01*
X77642142Y-53602857D01*
X77642142Y-53531428D01*
X77618333Y-53483809D01*
X77570714Y-53460000D01*
X77308809Y-53460000D01*
X77308809Y-53221904D02*
X77642142Y-53221904D01*
X77808809Y-53221904D02*
X77785000Y-53245714D01*
X77761190Y-53221904D01*
X77785000Y-53198095D01*
X77808809Y-53221904D01*
X77761190Y-53221904D01*
X77642142Y-53055238D02*
X77642142Y-52864761D01*
X77808809Y-52983809D02*
X77380238Y-52983809D01*
X77332619Y-52960000D01*
X77308809Y-52912380D01*
X77308809Y-52864761D01*
X77642142Y-52745714D02*
X77308809Y-52626666D01*
X77642142Y-52507619D02*
X77308809Y-52626666D01*
X77189761Y-52674285D01*
X77165952Y-52698095D01*
X77142142Y-52745714D01*
M02*
