M48
; DRILL file {KiCad (5.1.9)-1} date 03/11/21 22:21:19
; FORMAT={-:-/ absolute / inch / decimal}
; #@! TF.CreationDate,2021-03-11T22:21:19-06:00
; #@! TF.GenerationSoftware,Kicad,Pcbnew,(5.1.9)-1
FMAT,2
INCH
T1C0.0295
T2C0.1260
%
G90
G05
T1
X2.6269Y-1.8451
X2.6269Y-1.9239
X2.6269Y-2.0026
X2.6269Y-2.0813
X2.6276Y-2.3296
X2.6276Y-2.4084
X2.6276Y-2.4871
X2.6276Y-2.5659
X2.6276Y-2.6446
X2.6276Y-2.7233
X2.6276Y-2.8021
X2.6276Y-2.8808
X2.6276Y-2.9596
X3.2339Y-2.3299
X3.2339Y-2.4087
X3.2339Y-2.4874
X3.2339Y-2.5661
X3.2339Y-2.6449
X3.2339Y-2.7236
X3.2339Y-2.8024
X3.2339Y-2.8811
X3.2339Y-2.9598
X3.2358Y-1.8449
X3.2358Y-1.9236
X3.2358Y-2.0024
X3.2358Y-2.0811
T2
X2.9039Y-2.8591
X2.9071Y-1.9555
T0
M30
